G04 #@! TF.GenerationSoftware,KiCad,Pcbnew,(5.1.12)-1*
G04 #@! TF.CreationDate,2022-05-10T22:26:18-07:00*
G04 #@! TF.ProjectId,Spring2022,53707269-6e67-4323-9032-322e6b696361,rev?*
G04 #@! TF.SameCoordinates,PX3a2c940PY3fe56c0*
G04 #@! TF.FileFunction,AssemblyDrawing,Top*
%FSLAX46Y46*%
G04 Gerber Fmt 4.6, Leading zero omitted, Abs format (unit mm)*
G04 Created by KiCad (PCBNEW (5.1.12)-1) date 2022-05-10 22:26:18*
%MOMM*%
%LPD*%
G01*
G04 APERTURE LIST*
%ADD10C,0.100000*%
%ADD11C,0.150000*%
%ADD12C,0.125000*%
G04 APERTURE END LIST*
D10*
G04 #@! TO.C,U10*
X93016000Y32144000D02*
X96766000Y32144000D01*
X93013182Y32141615D02*
G75*
G02*
X94906000Y36224000I1892818J1602385D01*
G01*
X96807103Y32151453D02*
G75*
G03*
X94906000Y36224000I-1901103J1592547D01*
G01*
G04 #@! TO.C,D16*
X106425000Y18900000D02*
G75*
G03*
X106425000Y18900000I-2500000J0D01*
G01*
X106425000Y17430306D02*
X106425000Y20369694D01*
X106425016Y20369666D02*
G75*
G03*
X106425000Y17430306I-2500016J-1469666D01*
G01*
G04 #@! TO.C,D15*
X112925000Y18900000D02*
G75*
G03*
X112925000Y18900000I-2500000J0D01*
G01*
X112925000Y17430306D02*
X112925000Y20369694D01*
X112925016Y20369666D02*
G75*
G03*
X112925000Y17430306I-2500016J-1469666D01*
G01*
G04 #@! TO.C,D14*
X119425000Y18900000D02*
G75*
G03*
X119425000Y18900000I-2500000J0D01*
G01*
X119425000Y17430306D02*
X119425000Y20369694D01*
X119425016Y20369666D02*
G75*
G03*
X119425000Y17430306I-2500016J-1469666D01*
G01*
G04 #@! TO.C,D13*
X125925000Y18900000D02*
G75*
G03*
X125925000Y18900000I-2500000J0D01*
G01*
X125925000Y17430306D02*
X125925000Y20369694D01*
X125925016Y20369666D02*
G75*
G03*
X125925000Y17430306I-2500016J-1469666D01*
G01*
G04 #@! TO.C,D12*
X132425000Y18900000D02*
G75*
G03*
X132425000Y18900000I-2500000J0D01*
G01*
X132425000Y17430306D02*
X132425000Y20369694D01*
X132425016Y20369666D02*
G75*
G03*
X132425000Y17430306I-2500016J-1469666D01*
G01*
G04 #@! TO.C,D11*
X138925000Y18900000D02*
G75*
G03*
X138925000Y18900000I-2500000J0D01*
G01*
X138925000Y17430306D02*
X138925000Y20369694D01*
X138925016Y20369666D02*
G75*
G03*
X138925000Y17430306I-2500016J-1469666D01*
G01*
G04 #@! TO.C,D10*
X145425000Y18900000D02*
G75*
G03*
X145425000Y18900000I-2500000J0D01*
G01*
X145425000Y17430306D02*
X145425000Y20369694D01*
X145425016Y20369666D02*
G75*
G03*
X145425000Y17430306I-2500016J-1469666D01*
G01*
G04 #@! TO.C,D9*
X151925000Y18900000D02*
G75*
G03*
X151925000Y18900000I-2500000J0D01*
G01*
X151925000Y17430306D02*
X151925000Y20369694D01*
X151925016Y20369666D02*
G75*
G03*
X151925000Y17430306I-2500016J-1469666D01*
G01*
G04 #@! TO.C,D8*
X158425000Y18900000D02*
G75*
G03*
X158425000Y18900000I-2500000J0D01*
G01*
X158425000Y17430306D02*
X158425000Y20369694D01*
X158425016Y20369666D02*
G75*
G03*
X158425000Y17430306I-2500016J-1469666D01*
G01*
G04 #@! TO.C,D7*
X164925000Y18900000D02*
G75*
G03*
X164925000Y18900000I-2500000J0D01*
G01*
X164925000Y17430306D02*
X164925000Y20369694D01*
X164925016Y20369666D02*
G75*
G03*
X164925000Y17430306I-2500016J-1469666D01*
G01*
G04 #@! TO.C,D6*
X171425000Y18900000D02*
G75*
G03*
X171425000Y18900000I-2500000J0D01*
G01*
X171425000Y17430306D02*
X171425000Y20369694D01*
X171425016Y20369666D02*
G75*
G03*
X171425000Y17430306I-2500016J-1469666D01*
G01*
G04 #@! TO.C,D5*
X177925000Y18900000D02*
G75*
G03*
X177925000Y18900000I-2500000J0D01*
G01*
X177925000Y17430306D02*
X177925000Y20369694D01*
X177925016Y20369666D02*
G75*
G03*
X177925000Y17430306I-2500016J-1469666D01*
G01*
G04 #@! TO.C,D4*
X184425000Y18900000D02*
G75*
G03*
X184425000Y18900000I-2500000J0D01*
G01*
X184425000Y17430306D02*
X184425000Y20369694D01*
X184425016Y20369666D02*
G75*
G03*
X184425000Y17430306I-2500016J-1469666D01*
G01*
G04 #@! TO.C,D3*
X190925000Y18900000D02*
G75*
G03*
X190925000Y18900000I-2500000J0D01*
G01*
X190925000Y17430306D02*
X190925000Y20369694D01*
X190925016Y20369666D02*
G75*
G03*
X190925000Y17430306I-2500016J-1469666D01*
G01*
G04 #@! TO.C,D2*
X197425000Y18900000D02*
G75*
G03*
X197425000Y18900000I-2500000J0D01*
G01*
X197425000Y17430306D02*
X197425000Y20369694D01*
X197425016Y20369666D02*
G75*
G03*
X197425000Y17430306I-2500016J-1469666D01*
G01*
G04 #@! TO.C,D1*
X203925000Y18900000D02*
G75*
G03*
X203925000Y18900000I-2500000J0D01*
G01*
X203925000Y17430306D02*
X203925000Y20369694D01*
X203925016Y20369666D02*
G75*
G03*
X203925000Y17430306I-2500016J-1469666D01*
G01*
G04 #@! TD*
G04 #@! TO.C,U10*
D11*
X92007904Y34961620D02*
X91531714Y34961620D01*
X91531714Y35961620D01*
X92341238Y34961620D02*
X92341238Y35961620D01*
X92674571Y35247334D01*
X93007904Y35961620D01*
X93007904Y34961620D01*
X93388857Y35961620D02*
X94007904Y35961620D01*
X93674571Y35580667D01*
X93817428Y35580667D01*
X93912666Y35533048D01*
X93960285Y35485429D01*
X94007904Y35390191D01*
X94007904Y35152096D01*
X93960285Y35056858D01*
X93912666Y35009239D01*
X93817428Y34961620D01*
X93531714Y34961620D01*
X93436476Y35009239D01*
X93388857Y35056858D01*
X94912666Y35961620D02*
X94436476Y35961620D01*
X94388857Y35485429D01*
X94436476Y35533048D01*
X94531714Y35580667D01*
X94769809Y35580667D01*
X94865047Y35533048D01*
X94912666Y35485429D01*
X94960285Y35390191D01*
X94960285Y35152096D01*
X94912666Y35056858D01*
X94865047Y35009239D01*
X94769809Y34961620D01*
X94531714Y34961620D01*
X94436476Y35009239D01*
X94388857Y35056858D01*
X95388857Y35342572D02*
X96150761Y35342572D01*
X97103142Y34961620D02*
X96626952Y34961620D01*
X96626952Y35961620D01*
X97436476Y34961620D02*
X97436476Y35961620D01*
X97817428Y35961620D01*
X97912666Y35914000D01*
X97960285Y35866381D01*
X98007904Y35771143D01*
X98007904Y35628286D01*
X97960285Y35533048D01*
X97912666Y35485429D01*
X97817428Y35437810D01*
X97436476Y35437810D01*
X93664084Y37845080D02*
X93664084Y37035556D01*
X93711703Y36940318D01*
X93759322Y36892699D01*
X93854560Y36845080D01*
X94045037Y36845080D01*
X94140275Y36892699D01*
X94187894Y36940318D01*
X94235513Y37035556D01*
X94235513Y37845080D01*
X95235513Y36845080D02*
X94664084Y36845080D01*
X94949799Y36845080D02*
X94949799Y37845080D01*
X94854560Y37702222D01*
X94759322Y37606984D01*
X94664084Y37559365D01*
X95854560Y37845080D02*
X95949799Y37845080D01*
X96045037Y37797460D01*
X96092656Y37749841D01*
X96140275Y37654603D01*
X96187894Y37464127D01*
X96187894Y37226032D01*
X96140275Y37035556D01*
X96092656Y36940318D01*
X96045037Y36892699D01*
X95949799Y36845080D01*
X95854560Y36845080D01*
X95759322Y36892699D01*
X95711703Y36940318D01*
X95664084Y37035556D01*
X95616465Y37226032D01*
X95616465Y37464127D01*
X95664084Y37654603D01*
X95711703Y37749841D01*
X95759322Y37797460D01*
X95854560Y37845080D01*
G04 #@! TO.C,U8*
X68250000Y35069334D02*
X68250000Y35769334D01*
X68516666Y35769334D01*
X68583333Y35736000D01*
X68616666Y35702667D01*
X68650000Y35636000D01*
X68650000Y35536000D01*
X68616666Y35469334D01*
X68583333Y35436000D01*
X68516666Y35402667D01*
X68250000Y35402667D01*
X69283333Y35069334D02*
X68950000Y35069334D01*
X68950000Y35769334D01*
X69516666Y35069334D02*
X69516666Y35769334D01*
X69783333Y35769334D01*
X69850000Y35736000D01*
X69883333Y35702667D01*
X69916666Y35636000D01*
X69916666Y35536000D01*
X69883333Y35469334D01*
X69850000Y35436000D01*
X69783333Y35402667D01*
X69516666Y35402667D01*
X70216666Y35336000D02*
X70750000Y35336000D01*
X71216666Y35769334D02*
X71283333Y35769334D01*
X71350000Y35736000D01*
X71383333Y35702667D01*
X71416666Y35636000D01*
X71450000Y35502667D01*
X71450000Y35336000D01*
X71416666Y35202667D01*
X71383333Y35136000D01*
X71350000Y35102667D01*
X71283333Y35069334D01*
X71216666Y35069334D01*
X71150000Y35102667D01*
X71116666Y35136000D01*
X71083333Y35202667D01*
X71050000Y35336000D01*
X71050000Y35502667D01*
X71083333Y35636000D01*
X71116666Y35702667D01*
X71150000Y35736000D01*
X71216666Y35769334D01*
X71883333Y35769334D02*
X71950000Y35769334D01*
X72016666Y35736000D01*
X72050000Y35702667D01*
X72083333Y35636000D01*
X72116666Y35502667D01*
X72116666Y35336000D01*
X72083333Y35202667D01*
X72050000Y35136000D01*
X72016666Y35102667D01*
X71950000Y35069334D01*
X71883333Y35069334D01*
X71816666Y35102667D01*
X71783333Y35136000D01*
X71750000Y35202667D01*
X71716666Y35336000D01*
X71716666Y35502667D01*
X71750000Y35636000D01*
X71783333Y35702667D01*
X71816666Y35736000D01*
X71883333Y35769334D01*
X72550000Y35769334D02*
X72616666Y35769334D01*
X72683333Y35736000D01*
X72716666Y35702667D01*
X72750000Y35636000D01*
X72783333Y35502667D01*
X72783333Y35336000D01*
X72750000Y35202667D01*
X72716666Y35136000D01*
X72683333Y35102667D01*
X72616666Y35069334D01*
X72550000Y35069334D01*
X72483333Y35102667D01*
X72450000Y35136000D01*
X72416666Y35202667D01*
X72383333Y35336000D01*
X72383333Y35502667D01*
X72416666Y35636000D01*
X72450000Y35702667D01*
X72483333Y35736000D01*
X72550000Y35769334D01*
X73050000Y35702667D02*
X73083333Y35736000D01*
X73150000Y35769334D01*
X73316666Y35769334D01*
X73383333Y35736000D01*
X73416666Y35702667D01*
X73450000Y35636000D01*
X73450000Y35569334D01*
X73416666Y35469334D01*
X73016666Y35069334D01*
X73450000Y35069334D01*
X73883333Y35769334D02*
X73950000Y35769334D01*
X74016666Y35736000D01*
X74050000Y35702667D01*
X74083333Y35636000D01*
X74116666Y35502667D01*
X74116666Y35336000D01*
X74083333Y35202667D01*
X74050000Y35136000D01*
X74016666Y35102667D01*
X73950000Y35069334D01*
X73883333Y35069334D01*
X73816666Y35102667D01*
X73783333Y35136000D01*
X73750000Y35202667D01*
X73716666Y35336000D01*
X73716666Y35502667D01*
X73750000Y35636000D01*
X73783333Y35702667D01*
X73816666Y35736000D01*
X73883333Y35769334D01*
X74783333Y35069334D02*
X74383333Y35069334D01*
X74583333Y35069334D02*
X74583333Y35769334D01*
X74516666Y35669334D01*
X74450000Y35602667D01*
X74383333Y35569334D01*
G04 #@! TO.C,LED11*
X80538095Y35447620D02*
X80538095Y36447620D01*
X81585714Y35447620D02*
X81252380Y35923810D01*
X81014285Y35447620D02*
X81014285Y36447620D01*
X81395238Y36447620D01*
X81490476Y36400000D01*
X81538095Y36352381D01*
X81585714Y36257143D01*
X81585714Y36114286D01*
X81538095Y36019048D01*
X81490476Y35971429D01*
X81395238Y35923810D01*
X81014285Y35923810D01*
X82490476Y35447620D02*
X82014285Y35447620D01*
X82014285Y36447620D01*
X82823809Y35971429D02*
X83157142Y35971429D01*
X83300000Y35447620D02*
X82823809Y35447620D01*
X82823809Y36447620D01*
X83300000Y36447620D01*
X83728571Y35447620D02*
X83728571Y36447620D01*
X83966666Y36447620D01*
X84109523Y36400000D01*
X84204761Y36304762D01*
X84252380Y36209524D01*
X84300000Y36019048D01*
X84300000Y35876191D01*
X84252380Y35685715D01*
X84204761Y35590477D01*
X84109523Y35495239D01*
X83966666Y35447620D01*
X83728571Y35447620D01*
X85252380Y35447620D02*
X84680952Y35447620D01*
X84966666Y35447620D02*
X84966666Y36447620D01*
X84871428Y36304762D01*
X84776190Y36209524D01*
X84680952Y36161905D01*
X86157142Y36447620D02*
X85680952Y36447620D01*
X85633333Y35971429D01*
X85680952Y36019048D01*
X85776190Y36066667D01*
X86014285Y36066667D01*
X86109523Y36019048D01*
X86157142Y35971429D01*
X86204761Y35876191D01*
X86204761Y35638096D01*
X86157142Y35542858D01*
X86109523Y35495239D01*
X86014285Y35447620D01*
X85776190Y35447620D01*
X85680952Y35495239D01*
X85633333Y35542858D01*
X86823809Y36447620D02*
X86919047Y36447620D01*
X87014285Y36400000D01*
X87061904Y36352381D01*
X87109523Y36257143D01*
X87157142Y36066667D01*
X87157142Y35828572D01*
X87109523Y35638096D01*
X87061904Y35542858D01*
X87014285Y35495239D01*
X86919047Y35447620D01*
X86823809Y35447620D01*
X86728571Y35495239D01*
X86680952Y35542858D01*
X86633333Y35638096D01*
X86585714Y35828572D01*
X86585714Y36066667D01*
X86633333Y36257143D01*
X86680952Y36352381D01*
X86728571Y36400000D01*
X86823809Y36447620D01*
X87490476Y36447620D02*
X88109523Y36447620D01*
X87776190Y36066667D01*
X87919047Y36066667D01*
X88014285Y36019048D01*
X88061904Y35971429D01*
X88109523Y35876191D01*
X88109523Y35638096D01*
X88061904Y35542858D01*
X88014285Y35495239D01*
X87919047Y35447620D01*
X87633333Y35447620D01*
X87538095Y35495239D01*
X87490476Y35542858D01*
G04 #@! TO.C,R16*
D12*
X103985390Y30290762D02*
X103747295Y30124096D01*
X103985390Y30005048D02*
X103485390Y30005048D01*
X103485390Y30195524D01*
X103509200Y30243143D01*
X103533009Y30266953D01*
X103580628Y30290762D01*
X103652057Y30290762D01*
X103699676Y30266953D01*
X103723485Y30243143D01*
X103747295Y30195524D01*
X103747295Y30005048D01*
G04 #@! TO.C,R15*
X110513190Y30290762D02*
X110275095Y30124096D01*
X110513190Y30005048D02*
X110013190Y30005048D01*
X110013190Y30195524D01*
X110037000Y30243143D01*
X110060809Y30266953D01*
X110108428Y30290762D01*
X110179857Y30290762D01*
X110227476Y30266953D01*
X110251285Y30243143D01*
X110275095Y30195524D01*
X110275095Y30005048D01*
G04 #@! TO.C,R14*
X116990190Y30290762D02*
X116752095Y30124096D01*
X116990190Y30005048D02*
X116490190Y30005048D01*
X116490190Y30195524D01*
X116514000Y30243143D01*
X116537809Y30266953D01*
X116585428Y30290762D01*
X116656857Y30290762D01*
X116704476Y30266953D01*
X116728285Y30243143D01*
X116752095Y30195524D01*
X116752095Y30005048D01*
G04 #@! TO.C,R13*
X123492590Y30290762D02*
X123254495Y30124096D01*
X123492590Y30005048D02*
X122992590Y30005048D01*
X122992590Y30195524D01*
X123016400Y30243143D01*
X123040209Y30266953D01*
X123087828Y30290762D01*
X123159257Y30290762D01*
X123206876Y30266953D01*
X123230685Y30243143D01*
X123254495Y30195524D01*
X123254495Y30005048D01*
G04 #@! TO.C,R12*
X130020390Y30290762D02*
X129782295Y30124096D01*
X130020390Y30005048D02*
X129520390Y30005048D01*
X129520390Y30195524D01*
X129544200Y30243143D01*
X129568009Y30266953D01*
X129615628Y30290762D01*
X129687057Y30290762D01*
X129734676Y30266953D01*
X129758485Y30243143D01*
X129782295Y30195524D01*
X129782295Y30005048D01*
G04 #@! TO.C,R11*
X136522790Y30290762D02*
X136284695Y30124096D01*
X136522790Y30005048D02*
X136022790Y30005048D01*
X136022790Y30195524D01*
X136046600Y30243143D01*
X136070409Y30266953D01*
X136118028Y30290762D01*
X136189457Y30290762D01*
X136237076Y30266953D01*
X136260885Y30243143D01*
X136284695Y30195524D01*
X136284695Y30005048D01*
G04 #@! TO.C,R10*
X143025190Y30290762D02*
X142787095Y30124096D01*
X143025190Y30005048D02*
X142525190Y30005048D01*
X142525190Y30195524D01*
X142549000Y30243143D01*
X142572809Y30266953D01*
X142620428Y30290762D01*
X142691857Y30290762D01*
X142739476Y30266953D01*
X142763285Y30243143D01*
X142787095Y30195524D01*
X142787095Y30005048D01*
G04 #@! TO.C,R9*
X149527590Y30290762D02*
X149289495Y30124096D01*
X149527590Y30005048D02*
X149027590Y30005048D01*
X149027590Y30195524D01*
X149051400Y30243143D01*
X149075209Y30266953D01*
X149122828Y30290762D01*
X149194257Y30290762D01*
X149241876Y30266953D01*
X149265685Y30243143D01*
X149289495Y30195524D01*
X149289495Y30005048D01*
G04 #@! TO.C,R8*
X156004590Y30290762D02*
X155766495Y30124096D01*
X156004590Y30005048D02*
X155504590Y30005048D01*
X155504590Y30195524D01*
X155528400Y30243143D01*
X155552209Y30266953D01*
X155599828Y30290762D01*
X155671257Y30290762D01*
X155718876Y30266953D01*
X155742685Y30243143D01*
X155766495Y30195524D01*
X155766495Y30005048D01*
G04 #@! TO.C,R7*
X162506990Y30290762D02*
X162268895Y30124096D01*
X162506990Y30005048D02*
X162006990Y30005048D01*
X162006990Y30195524D01*
X162030800Y30243143D01*
X162054609Y30266953D01*
X162102228Y30290762D01*
X162173657Y30290762D01*
X162221276Y30266953D01*
X162245085Y30243143D01*
X162268895Y30195524D01*
X162268895Y30005048D01*
G04 #@! TO.C,R6*
X169009390Y30290762D02*
X168771295Y30124096D01*
X169009390Y30005048D02*
X168509390Y30005048D01*
X168509390Y30195524D01*
X168533200Y30243143D01*
X168557009Y30266953D01*
X168604628Y30290762D01*
X168676057Y30290762D01*
X168723676Y30266953D01*
X168747485Y30243143D01*
X168771295Y30195524D01*
X168771295Y30005048D01*
G04 #@! TO.C,R5*
X175486390Y30290762D02*
X175248295Y30124096D01*
X175486390Y30005048D02*
X174986390Y30005048D01*
X174986390Y30195524D01*
X175010200Y30243143D01*
X175034009Y30266953D01*
X175081628Y30290762D01*
X175153057Y30290762D01*
X175200676Y30266953D01*
X175224485Y30243143D01*
X175248295Y30195524D01*
X175248295Y30005048D01*
G04 #@! TO.C,R4*
X182014190Y30290762D02*
X181776095Y30124096D01*
X182014190Y30005048D02*
X181514190Y30005048D01*
X181514190Y30195524D01*
X181538000Y30243143D01*
X181561809Y30266953D01*
X181609428Y30290762D01*
X181680857Y30290762D01*
X181728476Y30266953D01*
X181752285Y30243143D01*
X181776095Y30195524D01*
X181776095Y30005048D01*
G04 #@! TO.C,R3*
X188516590Y30290762D02*
X188278495Y30124096D01*
X188516590Y30005048D02*
X188016590Y30005048D01*
X188016590Y30195524D01*
X188040400Y30243143D01*
X188064209Y30266953D01*
X188111828Y30290762D01*
X188183257Y30290762D01*
X188230876Y30266953D01*
X188254685Y30243143D01*
X188278495Y30195524D01*
X188278495Y30005048D01*
G04 #@! TO.C,R2*
X195018990Y30290762D02*
X194780895Y30124096D01*
X195018990Y30005048D02*
X194518990Y30005048D01*
X194518990Y30195524D01*
X194542800Y30243143D01*
X194566609Y30266953D01*
X194614228Y30290762D01*
X194685657Y30290762D01*
X194733276Y30266953D01*
X194757085Y30243143D01*
X194780895Y30195524D01*
X194780895Y30005048D01*
G04 #@! TO.C,R1*
X201521390Y30290762D02*
X201283295Y30124096D01*
X201521390Y30005048D02*
X201021390Y30005048D01*
X201021390Y30195524D01*
X201045200Y30243143D01*
X201069009Y30266953D01*
X201116628Y30290762D01*
X201188057Y30290762D01*
X201235676Y30266953D01*
X201259485Y30243143D01*
X201283295Y30195524D01*
X201283295Y30005048D01*
G04 #@! TO.C,U1*
D11*
X22940571Y19701429D02*
X22607238Y19701429D01*
X22607238Y19177620D02*
X22607238Y20177620D01*
X23083428Y20177620D01*
X23464380Y20177620D02*
X23464380Y19368096D01*
X23512000Y19272858D01*
X23559619Y19225239D01*
X23654857Y19177620D01*
X23845333Y19177620D01*
X23940571Y19225239D01*
X23988190Y19272858D01*
X24035809Y19368096D01*
X24035809Y20177620D01*
X24845333Y19701429D02*
X24988190Y19653810D01*
X25035809Y19606191D01*
X25083428Y19510953D01*
X25083428Y19368096D01*
X25035809Y19272858D01*
X24988190Y19225239D01*
X24892952Y19177620D01*
X24512000Y19177620D01*
X24512000Y20177620D01*
X24845333Y20177620D01*
X24940571Y20130000D01*
X24988190Y20082381D01*
X25035809Y19987143D01*
X25035809Y19891905D01*
X24988190Y19796667D01*
X24940571Y19749048D01*
X24845333Y19701429D01*
X24512000Y19701429D01*
X25512000Y19558572D02*
X26273904Y19558572D01*
X26750095Y19177620D02*
X26750095Y20177620D01*
X27083428Y19463334D01*
X27416761Y20177620D01*
X27416761Y19177620D01*
X27892952Y19177620D02*
X27892952Y20177620D01*
X28369142Y19177620D02*
X28369142Y20177620D01*
X28940571Y19177620D01*
X28940571Y20177620D01*
X29416761Y19177620D02*
X29416761Y20177620D01*
G04 #@! TO.C,D16*
X100901190Y22407620D02*
X100425000Y22407620D01*
X100425000Y23407620D01*
X101234523Y22931429D02*
X101567857Y22931429D01*
X101710714Y22407620D02*
X101234523Y22407620D01*
X101234523Y23407620D01*
X101710714Y23407620D01*
X102139285Y22407620D02*
X102139285Y23407620D01*
X102377380Y23407620D01*
X102520238Y23360000D01*
X102615476Y23264762D01*
X102663095Y23169524D01*
X102710714Y22979048D01*
X102710714Y22836191D01*
X102663095Y22645715D01*
X102615476Y22550477D01*
X102520238Y22455239D01*
X102377380Y22407620D01*
X102139285Y22407620D01*
X102901190Y22312381D02*
X103663095Y22312381D01*
X104472619Y22407620D02*
X104139285Y22883810D01*
X103901190Y22407620D02*
X103901190Y23407620D01*
X104282142Y23407620D01*
X104377380Y23360000D01*
X104425000Y23312381D01*
X104472619Y23217143D01*
X104472619Y23074286D01*
X104425000Y22979048D01*
X104377380Y22931429D01*
X104282142Y22883810D01*
X103901190Y22883810D01*
X105425000Y23360000D02*
X105329761Y23407620D01*
X105186904Y23407620D01*
X105044047Y23360000D01*
X104948809Y23264762D01*
X104901190Y23169524D01*
X104853571Y22979048D01*
X104853571Y22836191D01*
X104901190Y22645715D01*
X104948809Y22550477D01*
X105044047Y22455239D01*
X105186904Y22407620D01*
X105282142Y22407620D01*
X105425000Y22455239D01*
X105472619Y22502858D01*
X105472619Y22836191D01*
X105282142Y22836191D01*
X106234523Y22931429D02*
X106377380Y22883810D01*
X106425000Y22836191D01*
X106472619Y22740953D01*
X106472619Y22598096D01*
X106425000Y22502858D01*
X106377380Y22455239D01*
X106282142Y22407620D01*
X105901190Y22407620D01*
X105901190Y23407620D01*
X106234523Y23407620D01*
X106329761Y23360000D01*
X106377380Y23312381D01*
X106425000Y23217143D01*
X106425000Y23121905D01*
X106377380Y23026667D01*
X106329761Y22979048D01*
X106234523Y22931429D01*
X105901190Y22931429D01*
X107472619Y22502858D02*
X107425000Y22455239D01*
X107282142Y22407620D01*
X107186904Y22407620D01*
X107044047Y22455239D01*
X106948809Y22550477D01*
X106901190Y22645715D01*
X106853571Y22836191D01*
X106853571Y22979048D01*
X106901190Y23169524D01*
X106948809Y23264762D01*
X107044047Y23360000D01*
X107186904Y23407620D01*
X107282142Y23407620D01*
X107425000Y23360000D01*
X107472619Y23312381D01*
X102710714Y14487620D02*
X102710714Y15487620D01*
X102948809Y15487620D01*
X103091666Y15440000D01*
X103186904Y15344762D01*
X103234523Y15249524D01*
X103282142Y15059048D01*
X103282142Y14916191D01*
X103234523Y14725715D01*
X103186904Y14630477D01*
X103091666Y14535239D01*
X102948809Y14487620D01*
X102710714Y14487620D01*
X104234523Y14487620D02*
X103663095Y14487620D01*
X103948809Y14487620D02*
X103948809Y15487620D01*
X103853571Y15344762D01*
X103758333Y15249524D01*
X103663095Y15201905D01*
X105091666Y15487620D02*
X104901190Y15487620D01*
X104805952Y15440000D01*
X104758333Y15392381D01*
X104663095Y15249524D01*
X104615476Y15059048D01*
X104615476Y14678096D01*
X104663095Y14582858D01*
X104710714Y14535239D01*
X104805952Y14487620D01*
X104996428Y14487620D01*
X105091666Y14535239D01*
X105139285Y14582858D01*
X105186904Y14678096D01*
X105186904Y14916191D01*
X105139285Y15011429D01*
X105091666Y15059048D01*
X104996428Y15106667D01*
X104805952Y15106667D01*
X104710714Y15059048D01*
X104663095Y15011429D01*
X104615476Y14916191D01*
G04 #@! TO.C,D15*
X107401190Y22407620D02*
X106925000Y22407620D01*
X106925000Y23407620D01*
X107734523Y22931429D02*
X108067857Y22931429D01*
X108210714Y22407620D02*
X107734523Y22407620D01*
X107734523Y23407620D01*
X108210714Y23407620D01*
X108639285Y22407620D02*
X108639285Y23407620D01*
X108877380Y23407620D01*
X109020238Y23360000D01*
X109115476Y23264762D01*
X109163095Y23169524D01*
X109210714Y22979048D01*
X109210714Y22836191D01*
X109163095Y22645715D01*
X109115476Y22550477D01*
X109020238Y22455239D01*
X108877380Y22407620D01*
X108639285Y22407620D01*
X109401190Y22312381D02*
X110163095Y22312381D01*
X110972619Y22407620D02*
X110639285Y22883810D01*
X110401190Y22407620D02*
X110401190Y23407620D01*
X110782142Y23407620D01*
X110877380Y23360000D01*
X110925000Y23312381D01*
X110972619Y23217143D01*
X110972619Y23074286D01*
X110925000Y22979048D01*
X110877380Y22931429D01*
X110782142Y22883810D01*
X110401190Y22883810D01*
X111925000Y23360000D02*
X111829761Y23407620D01*
X111686904Y23407620D01*
X111544047Y23360000D01*
X111448809Y23264762D01*
X111401190Y23169524D01*
X111353571Y22979048D01*
X111353571Y22836191D01*
X111401190Y22645715D01*
X111448809Y22550477D01*
X111544047Y22455239D01*
X111686904Y22407620D01*
X111782142Y22407620D01*
X111925000Y22455239D01*
X111972619Y22502858D01*
X111972619Y22836191D01*
X111782142Y22836191D01*
X112734523Y22931429D02*
X112877380Y22883810D01*
X112925000Y22836191D01*
X112972619Y22740953D01*
X112972619Y22598096D01*
X112925000Y22502858D01*
X112877380Y22455239D01*
X112782142Y22407620D01*
X112401190Y22407620D01*
X112401190Y23407620D01*
X112734523Y23407620D01*
X112829761Y23360000D01*
X112877380Y23312381D01*
X112925000Y23217143D01*
X112925000Y23121905D01*
X112877380Y23026667D01*
X112829761Y22979048D01*
X112734523Y22931429D01*
X112401190Y22931429D01*
X113972619Y22502858D02*
X113925000Y22455239D01*
X113782142Y22407620D01*
X113686904Y22407620D01*
X113544047Y22455239D01*
X113448809Y22550477D01*
X113401190Y22645715D01*
X113353571Y22836191D01*
X113353571Y22979048D01*
X113401190Y23169524D01*
X113448809Y23264762D01*
X113544047Y23360000D01*
X113686904Y23407620D01*
X113782142Y23407620D01*
X113925000Y23360000D01*
X113972619Y23312381D01*
X109210714Y14487620D02*
X109210714Y15487620D01*
X109448809Y15487620D01*
X109591666Y15440000D01*
X109686904Y15344762D01*
X109734523Y15249524D01*
X109782142Y15059048D01*
X109782142Y14916191D01*
X109734523Y14725715D01*
X109686904Y14630477D01*
X109591666Y14535239D01*
X109448809Y14487620D01*
X109210714Y14487620D01*
X110734523Y14487620D02*
X110163095Y14487620D01*
X110448809Y14487620D02*
X110448809Y15487620D01*
X110353571Y15344762D01*
X110258333Y15249524D01*
X110163095Y15201905D01*
X111639285Y15487620D02*
X111163095Y15487620D01*
X111115476Y15011429D01*
X111163095Y15059048D01*
X111258333Y15106667D01*
X111496428Y15106667D01*
X111591666Y15059048D01*
X111639285Y15011429D01*
X111686904Y14916191D01*
X111686904Y14678096D01*
X111639285Y14582858D01*
X111591666Y14535239D01*
X111496428Y14487620D01*
X111258333Y14487620D01*
X111163095Y14535239D01*
X111115476Y14582858D01*
G04 #@! TO.C,D14*
X113901190Y22407620D02*
X113425000Y22407620D01*
X113425000Y23407620D01*
X114234523Y22931429D02*
X114567857Y22931429D01*
X114710714Y22407620D02*
X114234523Y22407620D01*
X114234523Y23407620D01*
X114710714Y23407620D01*
X115139285Y22407620D02*
X115139285Y23407620D01*
X115377380Y23407620D01*
X115520238Y23360000D01*
X115615476Y23264762D01*
X115663095Y23169524D01*
X115710714Y22979048D01*
X115710714Y22836191D01*
X115663095Y22645715D01*
X115615476Y22550477D01*
X115520238Y22455239D01*
X115377380Y22407620D01*
X115139285Y22407620D01*
X115901190Y22312381D02*
X116663095Y22312381D01*
X117472619Y22407620D02*
X117139285Y22883810D01*
X116901190Y22407620D02*
X116901190Y23407620D01*
X117282142Y23407620D01*
X117377380Y23360000D01*
X117425000Y23312381D01*
X117472619Y23217143D01*
X117472619Y23074286D01*
X117425000Y22979048D01*
X117377380Y22931429D01*
X117282142Y22883810D01*
X116901190Y22883810D01*
X118425000Y23360000D02*
X118329761Y23407620D01*
X118186904Y23407620D01*
X118044047Y23360000D01*
X117948809Y23264762D01*
X117901190Y23169524D01*
X117853571Y22979048D01*
X117853571Y22836191D01*
X117901190Y22645715D01*
X117948809Y22550477D01*
X118044047Y22455239D01*
X118186904Y22407620D01*
X118282142Y22407620D01*
X118425000Y22455239D01*
X118472619Y22502858D01*
X118472619Y22836191D01*
X118282142Y22836191D01*
X119234523Y22931429D02*
X119377380Y22883810D01*
X119425000Y22836191D01*
X119472619Y22740953D01*
X119472619Y22598096D01*
X119425000Y22502858D01*
X119377380Y22455239D01*
X119282142Y22407620D01*
X118901190Y22407620D01*
X118901190Y23407620D01*
X119234523Y23407620D01*
X119329761Y23360000D01*
X119377380Y23312381D01*
X119425000Y23217143D01*
X119425000Y23121905D01*
X119377380Y23026667D01*
X119329761Y22979048D01*
X119234523Y22931429D01*
X118901190Y22931429D01*
X120472619Y22502858D02*
X120425000Y22455239D01*
X120282142Y22407620D01*
X120186904Y22407620D01*
X120044047Y22455239D01*
X119948809Y22550477D01*
X119901190Y22645715D01*
X119853571Y22836191D01*
X119853571Y22979048D01*
X119901190Y23169524D01*
X119948809Y23264762D01*
X120044047Y23360000D01*
X120186904Y23407620D01*
X120282142Y23407620D01*
X120425000Y23360000D01*
X120472619Y23312381D01*
X115710714Y14487620D02*
X115710714Y15487620D01*
X115948809Y15487620D01*
X116091666Y15440000D01*
X116186904Y15344762D01*
X116234523Y15249524D01*
X116282142Y15059048D01*
X116282142Y14916191D01*
X116234523Y14725715D01*
X116186904Y14630477D01*
X116091666Y14535239D01*
X115948809Y14487620D01*
X115710714Y14487620D01*
X117234523Y14487620D02*
X116663095Y14487620D01*
X116948809Y14487620D02*
X116948809Y15487620D01*
X116853571Y15344762D01*
X116758333Y15249524D01*
X116663095Y15201905D01*
X118091666Y15154286D02*
X118091666Y14487620D01*
X117853571Y15535239D02*
X117615476Y14820953D01*
X118234523Y14820953D01*
G04 #@! TO.C,D13*
X120401190Y22407620D02*
X119925000Y22407620D01*
X119925000Y23407620D01*
X120734523Y22931429D02*
X121067857Y22931429D01*
X121210714Y22407620D02*
X120734523Y22407620D01*
X120734523Y23407620D01*
X121210714Y23407620D01*
X121639285Y22407620D02*
X121639285Y23407620D01*
X121877380Y23407620D01*
X122020238Y23360000D01*
X122115476Y23264762D01*
X122163095Y23169524D01*
X122210714Y22979048D01*
X122210714Y22836191D01*
X122163095Y22645715D01*
X122115476Y22550477D01*
X122020238Y22455239D01*
X121877380Y22407620D01*
X121639285Y22407620D01*
X122401190Y22312381D02*
X123163095Y22312381D01*
X123972619Y22407620D02*
X123639285Y22883810D01*
X123401190Y22407620D02*
X123401190Y23407620D01*
X123782142Y23407620D01*
X123877380Y23360000D01*
X123925000Y23312381D01*
X123972619Y23217143D01*
X123972619Y23074286D01*
X123925000Y22979048D01*
X123877380Y22931429D01*
X123782142Y22883810D01*
X123401190Y22883810D01*
X124925000Y23360000D02*
X124829761Y23407620D01*
X124686904Y23407620D01*
X124544047Y23360000D01*
X124448809Y23264762D01*
X124401190Y23169524D01*
X124353571Y22979048D01*
X124353571Y22836191D01*
X124401190Y22645715D01*
X124448809Y22550477D01*
X124544047Y22455239D01*
X124686904Y22407620D01*
X124782142Y22407620D01*
X124925000Y22455239D01*
X124972619Y22502858D01*
X124972619Y22836191D01*
X124782142Y22836191D01*
X125734523Y22931429D02*
X125877380Y22883810D01*
X125925000Y22836191D01*
X125972619Y22740953D01*
X125972619Y22598096D01*
X125925000Y22502858D01*
X125877380Y22455239D01*
X125782142Y22407620D01*
X125401190Y22407620D01*
X125401190Y23407620D01*
X125734523Y23407620D01*
X125829761Y23360000D01*
X125877380Y23312381D01*
X125925000Y23217143D01*
X125925000Y23121905D01*
X125877380Y23026667D01*
X125829761Y22979048D01*
X125734523Y22931429D01*
X125401190Y22931429D01*
X126972619Y22502858D02*
X126925000Y22455239D01*
X126782142Y22407620D01*
X126686904Y22407620D01*
X126544047Y22455239D01*
X126448809Y22550477D01*
X126401190Y22645715D01*
X126353571Y22836191D01*
X126353571Y22979048D01*
X126401190Y23169524D01*
X126448809Y23264762D01*
X126544047Y23360000D01*
X126686904Y23407620D01*
X126782142Y23407620D01*
X126925000Y23360000D01*
X126972619Y23312381D01*
X122210714Y14487620D02*
X122210714Y15487620D01*
X122448809Y15487620D01*
X122591666Y15440000D01*
X122686904Y15344762D01*
X122734523Y15249524D01*
X122782142Y15059048D01*
X122782142Y14916191D01*
X122734523Y14725715D01*
X122686904Y14630477D01*
X122591666Y14535239D01*
X122448809Y14487620D01*
X122210714Y14487620D01*
X123734523Y14487620D02*
X123163095Y14487620D01*
X123448809Y14487620D02*
X123448809Y15487620D01*
X123353571Y15344762D01*
X123258333Y15249524D01*
X123163095Y15201905D01*
X124067857Y15487620D02*
X124686904Y15487620D01*
X124353571Y15106667D01*
X124496428Y15106667D01*
X124591666Y15059048D01*
X124639285Y15011429D01*
X124686904Y14916191D01*
X124686904Y14678096D01*
X124639285Y14582858D01*
X124591666Y14535239D01*
X124496428Y14487620D01*
X124210714Y14487620D01*
X124115476Y14535239D01*
X124067857Y14582858D01*
G04 #@! TO.C,D12*
X126901190Y22407620D02*
X126425000Y22407620D01*
X126425000Y23407620D01*
X127234523Y22931429D02*
X127567857Y22931429D01*
X127710714Y22407620D02*
X127234523Y22407620D01*
X127234523Y23407620D01*
X127710714Y23407620D01*
X128139285Y22407620D02*
X128139285Y23407620D01*
X128377380Y23407620D01*
X128520238Y23360000D01*
X128615476Y23264762D01*
X128663095Y23169524D01*
X128710714Y22979048D01*
X128710714Y22836191D01*
X128663095Y22645715D01*
X128615476Y22550477D01*
X128520238Y22455239D01*
X128377380Y22407620D01*
X128139285Y22407620D01*
X128901190Y22312381D02*
X129663095Y22312381D01*
X130472619Y22407620D02*
X130139285Y22883810D01*
X129901190Y22407620D02*
X129901190Y23407620D01*
X130282142Y23407620D01*
X130377380Y23360000D01*
X130425000Y23312381D01*
X130472619Y23217143D01*
X130472619Y23074286D01*
X130425000Y22979048D01*
X130377380Y22931429D01*
X130282142Y22883810D01*
X129901190Y22883810D01*
X131425000Y23360000D02*
X131329761Y23407620D01*
X131186904Y23407620D01*
X131044047Y23360000D01*
X130948809Y23264762D01*
X130901190Y23169524D01*
X130853571Y22979048D01*
X130853571Y22836191D01*
X130901190Y22645715D01*
X130948809Y22550477D01*
X131044047Y22455239D01*
X131186904Y22407620D01*
X131282142Y22407620D01*
X131425000Y22455239D01*
X131472619Y22502858D01*
X131472619Y22836191D01*
X131282142Y22836191D01*
X132234523Y22931429D02*
X132377380Y22883810D01*
X132425000Y22836191D01*
X132472619Y22740953D01*
X132472619Y22598096D01*
X132425000Y22502858D01*
X132377380Y22455239D01*
X132282142Y22407620D01*
X131901190Y22407620D01*
X131901190Y23407620D01*
X132234523Y23407620D01*
X132329761Y23360000D01*
X132377380Y23312381D01*
X132425000Y23217143D01*
X132425000Y23121905D01*
X132377380Y23026667D01*
X132329761Y22979048D01*
X132234523Y22931429D01*
X131901190Y22931429D01*
X133472619Y22502858D02*
X133425000Y22455239D01*
X133282142Y22407620D01*
X133186904Y22407620D01*
X133044047Y22455239D01*
X132948809Y22550477D01*
X132901190Y22645715D01*
X132853571Y22836191D01*
X132853571Y22979048D01*
X132901190Y23169524D01*
X132948809Y23264762D01*
X133044047Y23360000D01*
X133186904Y23407620D01*
X133282142Y23407620D01*
X133425000Y23360000D01*
X133472619Y23312381D01*
X128710714Y14487620D02*
X128710714Y15487620D01*
X128948809Y15487620D01*
X129091666Y15440000D01*
X129186904Y15344762D01*
X129234523Y15249524D01*
X129282142Y15059048D01*
X129282142Y14916191D01*
X129234523Y14725715D01*
X129186904Y14630477D01*
X129091666Y14535239D01*
X128948809Y14487620D01*
X128710714Y14487620D01*
X130234523Y14487620D02*
X129663095Y14487620D01*
X129948809Y14487620D02*
X129948809Y15487620D01*
X129853571Y15344762D01*
X129758333Y15249524D01*
X129663095Y15201905D01*
X130615476Y15392381D02*
X130663095Y15440000D01*
X130758333Y15487620D01*
X130996428Y15487620D01*
X131091666Y15440000D01*
X131139285Y15392381D01*
X131186904Y15297143D01*
X131186904Y15201905D01*
X131139285Y15059048D01*
X130567857Y14487620D01*
X131186904Y14487620D01*
G04 #@! TO.C,D11*
X133401190Y22407620D02*
X132925000Y22407620D01*
X132925000Y23407620D01*
X133734523Y22931429D02*
X134067857Y22931429D01*
X134210714Y22407620D02*
X133734523Y22407620D01*
X133734523Y23407620D01*
X134210714Y23407620D01*
X134639285Y22407620D02*
X134639285Y23407620D01*
X134877380Y23407620D01*
X135020238Y23360000D01*
X135115476Y23264762D01*
X135163095Y23169524D01*
X135210714Y22979048D01*
X135210714Y22836191D01*
X135163095Y22645715D01*
X135115476Y22550477D01*
X135020238Y22455239D01*
X134877380Y22407620D01*
X134639285Y22407620D01*
X135401190Y22312381D02*
X136163095Y22312381D01*
X136972619Y22407620D02*
X136639285Y22883810D01*
X136401190Y22407620D02*
X136401190Y23407620D01*
X136782142Y23407620D01*
X136877380Y23360000D01*
X136925000Y23312381D01*
X136972619Y23217143D01*
X136972619Y23074286D01*
X136925000Y22979048D01*
X136877380Y22931429D01*
X136782142Y22883810D01*
X136401190Y22883810D01*
X137925000Y23360000D02*
X137829761Y23407620D01*
X137686904Y23407620D01*
X137544047Y23360000D01*
X137448809Y23264762D01*
X137401190Y23169524D01*
X137353571Y22979048D01*
X137353571Y22836191D01*
X137401190Y22645715D01*
X137448809Y22550477D01*
X137544047Y22455239D01*
X137686904Y22407620D01*
X137782142Y22407620D01*
X137925000Y22455239D01*
X137972619Y22502858D01*
X137972619Y22836191D01*
X137782142Y22836191D01*
X138734523Y22931429D02*
X138877380Y22883810D01*
X138925000Y22836191D01*
X138972619Y22740953D01*
X138972619Y22598096D01*
X138925000Y22502858D01*
X138877380Y22455239D01*
X138782142Y22407620D01*
X138401190Y22407620D01*
X138401190Y23407620D01*
X138734523Y23407620D01*
X138829761Y23360000D01*
X138877380Y23312381D01*
X138925000Y23217143D01*
X138925000Y23121905D01*
X138877380Y23026667D01*
X138829761Y22979048D01*
X138734523Y22931429D01*
X138401190Y22931429D01*
X139972619Y22502858D02*
X139925000Y22455239D01*
X139782142Y22407620D01*
X139686904Y22407620D01*
X139544047Y22455239D01*
X139448809Y22550477D01*
X139401190Y22645715D01*
X139353571Y22836191D01*
X139353571Y22979048D01*
X139401190Y23169524D01*
X139448809Y23264762D01*
X139544047Y23360000D01*
X139686904Y23407620D01*
X139782142Y23407620D01*
X139925000Y23360000D01*
X139972619Y23312381D01*
X135210714Y14487620D02*
X135210714Y15487620D01*
X135448809Y15487620D01*
X135591666Y15440000D01*
X135686904Y15344762D01*
X135734523Y15249524D01*
X135782142Y15059048D01*
X135782142Y14916191D01*
X135734523Y14725715D01*
X135686904Y14630477D01*
X135591666Y14535239D01*
X135448809Y14487620D01*
X135210714Y14487620D01*
X136734523Y14487620D02*
X136163095Y14487620D01*
X136448809Y14487620D02*
X136448809Y15487620D01*
X136353571Y15344762D01*
X136258333Y15249524D01*
X136163095Y15201905D01*
X137686904Y14487620D02*
X137115476Y14487620D01*
X137401190Y14487620D02*
X137401190Y15487620D01*
X137305952Y15344762D01*
X137210714Y15249524D01*
X137115476Y15201905D01*
G04 #@! TO.C,D10*
X139901190Y22407620D02*
X139425000Y22407620D01*
X139425000Y23407620D01*
X140234523Y22931429D02*
X140567857Y22931429D01*
X140710714Y22407620D02*
X140234523Y22407620D01*
X140234523Y23407620D01*
X140710714Y23407620D01*
X141139285Y22407620D02*
X141139285Y23407620D01*
X141377380Y23407620D01*
X141520238Y23360000D01*
X141615476Y23264762D01*
X141663095Y23169524D01*
X141710714Y22979048D01*
X141710714Y22836191D01*
X141663095Y22645715D01*
X141615476Y22550477D01*
X141520238Y22455239D01*
X141377380Y22407620D01*
X141139285Y22407620D01*
X141901190Y22312381D02*
X142663095Y22312381D01*
X143472619Y22407620D02*
X143139285Y22883810D01*
X142901190Y22407620D02*
X142901190Y23407620D01*
X143282142Y23407620D01*
X143377380Y23360000D01*
X143425000Y23312381D01*
X143472619Y23217143D01*
X143472619Y23074286D01*
X143425000Y22979048D01*
X143377380Y22931429D01*
X143282142Y22883810D01*
X142901190Y22883810D01*
X144425000Y23360000D02*
X144329761Y23407620D01*
X144186904Y23407620D01*
X144044047Y23360000D01*
X143948809Y23264762D01*
X143901190Y23169524D01*
X143853571Y22979048D01*
X143853571Y22836191D01*
X143901190Y22645715D01*
X143948809Y22550477D01*
X144044047Y22455239D01*
X144186904Y22407620D01*
X144282142Y22407620D01*
X144425000Y22455239D01*
X144472619Y22502858D01*
X144472619Y22836191D01*
X144282142Y22836191D01*
X145234523Y22931429D02*
X145377380Y22883810D01*
X145425000Y22836191D01*
X145472619Y22740953D01*
X145472619Y22598096D01*
X145425000Y22502858D01*
X145377380Y22455239D01*
X145282142Y22407620D01*
X144901190Y22407620D01*
X144901190Y23407620D01*
X145234523Y23407620D01*
X145329761Y23360000D01*
X145377380Y23312381D01*
X145425000Y23217143D01*
X145425000Y23121905D01*
X145377380Y23026667D01*
X145329761Y22979048D01*
X145234523Y22931429D01*
X144901190Y22931429D01*
X146472619Y22502858D02*
X146425000Y22455239D01*
X146282142Y22407620D01*
X146186904Y22407620D01*
X146044047Y22455239D01*
X145948809Y22550477D01*
X145901190Y22645715D01*
X145853571Y22836191D01*
X145853571Y22979048D01*
X145901190Y23169524D01*
X145948809Y23264762D01*
X146044047Y23360000D01*
X146186904Y23407620D01*
X146282142Y23407620D01*
X146425000Y23360000D01*
X146472619Y23312381D01*
X141710714Y14487620D02*
X141710714Y15487620D01*
X141948809Y15487620D01*
X142091666Y15440000D01*
X142186904Y15344762D01*
X142234523Y15249524D01*
X142282142Y15059048D01*
X142282142Y14916191D01*
X142234523Y14725715D01*
X142186904Y14630477D01*
X142091666Y14535239D01*
X141948809Y14487620D01*
X141710714Y14487620D01*
X143234523Y14487620D02*
X142663095Y14487620D01*
X142948809Y14487620D02*
X142948809Y15487620D01*
X142853571Y15344762D01*
X142758333Y15249524D01*
X142663095Y15201905D01*
X143853571Y15487620D02*
X143948809Y15487620D01*
X144044047Y15440000D01*
X144091666Y15392381D01*
X144139285Y15297143D01*
X144186904Y15106667D01*
X144186904Y14868572D01*
X144139285Y14678096D01*
X144091666Y14582858D01*
X144044047Y14535239D01*
X143948809Y14487620D01*
X143853571Y14487620D01*
X143758333Y14535239D01*
X143710714Y14582858D01*
X143663095Y14678096D01*
X143615476Y14868572D01*
X143615476Y15106667D01*
X143663095Y15297143D01*
X143710714Y15392381D01*
X143758333Y15440000D01*
X143853571Y15487620D01*
G04 #@! TO.C,D9*
X146401190Y22407620D02*
X145925000Y22407620D01*
X145925000Y23407620D01*
X146734523Y22931429D02*
X147067857Y22931429D01*
X147210714Y22407620D02*
X146734523Y22407620D01*
X146734523Y23407620D01*
X147210714Y23407620D01*
X147639285Y22407620D02*
X147639285Y23407620D01*
X147877380Y23407620D01*
X148020238Y23360000D01*
X148115476Y23264762D01*
X148163095Y23169524D01*
X148210714Y22979048D01*
X148210714Y22836191D01*
X148163095Y22645715D01*
X148115476Y22550477D01*
X148020238Y22455239D01*
X147877380Y22407620D01*
X147639285Y22407620D01*
X148401190Y22312381D02*
X149163095Y22312381D01*
X149972619Y22407620D02*
X149639285Y22883810D01*
X149401190Y22407620D02*
X149401190Y23407620D01*
X149782142Y23407620D01*
X149877380Y23360000D01*
X149925000Y23312381D01*
X149972619Y23217143D01*
X149972619Y23074286D01*
X149925000Y22979048D01*
X149877380Y22931429D01*
X149782142Y22883810D01*
X149401190Y22883810D01*
X150925000Y23360000D02*
X150829761Y23407620D01*
X150686904Y23407620D01*
X150544047Y23360000D01*
X150448809Y23264762D01*
X150401190Y23169524D01*
X150353571Y22979048D01*
X150353571Y22836191D01*
X150401190Y22645715D01*
X150448809Y22550477D01*
X150544047Y22455239D01*
X150686904Y22407620D01*
X150782142Y22407620D01*
X150925000Y22455239D01*
X150972619Y22502858D01*
X150972619Y22836191D01*
X150782142Y22836191D01*
X151734523Y22931429D02*
X151877380Y22883810D01*
X151925000Y22836191D01*
X151972619Y22740953D01*
X151972619Y22598096D01*
X151925000Y22502858D01*
X151877380Y22455239D01*
X151782142Y22407620D01*
X151401190Y22407620D01*
X151401190Y23407620D01*
X151734523Y23407620D01*
X151829761Y23360000D01*
X151877380Y23312381D01*
X151925000Y23217143D01*
X151925000Y23121905D01*
X151877380Y23026667D01*
X151829761Y22979048D01*
X151734523Y22931429D01*
X151401190Y22931429D01*
X152972619Y22502858D02*
X152925000Y22455239D01*
X152782142Y22407620D01*
X152686904Y22407620D01*
X152544047Y22455239D01*
X152448809Y22550477D01*
X152401190Y22645715D01*
X152353571Y22836191D01*
X152353571Y22979048D01*
X152401190Y23169524D01*
X152448809Y23264762D01*
X152544047Y23360000D01*
X152686904Y23407620D01*
X152782142Y23407620D01*
X152925000Y23360000D01*
X152972619Y23312381D01*
X148686904Y14487620D02*
X148686904Y15487620D01*
X148925000Y15487620D01*
X149067857Y15440000D01*
X149163095Y15344762D01*
X149210714Y15249524D01*
X149258333Y15059048D01*
X149258333Y14916191D01*
X149210714Y14725715D01*
X149163095Y14630477D01*
X149067857Y14535239D01*
X148925000Y14487620D01*
X148686904Y14487620D01*
X149734523Y14487620D02*
X149925000Y14487620D01*
X150020238Y14535239D01*
X150067857Y14582858D01*
X150163095Y14725715D01*
X150210714Y14916191D01*
X150210714Y15297143D01*
X150163095Y15392381D01*
X150115476Y15440000D01*
X150020238Y15487620D01*
X149829761Y15487620D01*
X149734523Y15440000D01*
X149686904Y15392381D01*
X149639285Y15297143D01*
X149639285Y15059048D01*
X149686904Y14963810D01*
X149734523Y14916191D01*
X149829761Y14868572D01*
X150020238Y14868572D01*
X150115476Y14916191D01*
X150163095Y14963810D01*
X150210714Y15059048D01*
G04 #@! TO.C,D8*
X152901190Y22407620D02*
X152425000Y22407620D01*
X152425000Y23407620D01*
X153234523Y22931429D02*
X153567857Y22931429D01*
X153710714Y22407620D02*
X153234523Y22407620D01*
X153234523Y23407620D01*
X153710714Y23407620D01*
X154139285Y22407620D02*
X154139285Y23407620D01*
X154377380Y23407620D01*
X154520238Y23360000D01*
X154615476Y23264762D01*
X154663095Y23169524D01*
X154710714Y22979048D01*
X154710714Y22836191D01*
X154663095Y22645715D01*
X154615476Y22550477D01*
X154520238Y22455239D01*
X154377380Y22407620D01*
X154139285Y22407620D01*
X154901190Y22312381D02*
X155663095Y22312381D01*
X156472619Y22407620D02*
X156139285Y22883810D01*
X155901190Y22407620D02*
X155901190Y23407620D01*
X156282142Y23407620D01*
X156377380Y23360000D01*
X156425000Y23312381D01*
X156472619Y23217143D01*
X156472619Y23074286D01*
X156425000Y22979048D01*
X156377380Y22931429D01*
X156282142Y22883810D01*
X155901190Y22883810D01*
X157425000Y23360000D02*
X157329761Y23407620D01*
X157186904Y23407620D01*
X157044047Y23360000D01*
X156948809Y23264762D01*
X156901190Y23169524D01*
X156853571Y22979048D01*
X156853571Y22836191D01*
X156901190Y22645715D01*
X156948809Y22550477D01*
X157044047Y22455239D01*
X157186904Y22407620D01*
X157282142Y22407620D01*
X157425000Y22455239D01*
X157472619Y22502858D01*
X157472619Y22836191D01*
X157282142Y22836191D01*
X158234523Y22931429D02*
X158377380Y22883810D01*
X158425000Y22836191D01*
X158472619Y22740953D01*
X158472619Y22598096D01*
X158425000Y22502858D01*
X158377380Y22455239D01*
X158282142Y22407620D01*
X157901190Y22407620D01*
X157901190Y23407620D01*
X158234523Y23407620D01*
X158329761Y23360000D01*
X158377380Y23312381D01*
X158425000Y23217143D01*
X158425000Y23121905D01*
X158377380Y23026667D01*
X158329761Y22979048D01*
X158234523Y22931429D01*
X157901190Y22931429D01*
X159472619Y22502858D02*
X159425000Y22455239D01*
X159282142Y22407620D01*
X159186904Y22407620D01*
X159044047Y22455239D01*
X158948809Y22550477D01*
X158901190Y22645715D01*
X158853571Y22836191D01*
X158853571Y22979048D01*
X158901190Y23169524D01*
X158948809Y23264762D01*
X159044047Y23360000D01*
X159186904Y23407620D01*
X159282142Y23407620D01*
X159425000Y23360000D01*
X159472619Y23312381D01*
X155186904Y14487620D02*
X155186904Y15487620D01*
X155425000Y15487620D01*
X155567857Y15440000D01*
X155663095Y15344762D01*
X155710714Y15249524D01*
X155758333Y15059048D01*
X155758333Y14916191D01*
X155710714Y14725715D01*
X155663095Y14630477D01*
X155567857Y14535239D01*
X155425000Y14487620D01*
X155186904Y14487620D01*
X156329761Y15059048D02*
X156234523Y15106667D01*
X156186904Y15154286D01*
X156139285Y15249524D01*
X156139285Y15297143D01*
X156186904Y15392381D01*
X156234523Y15440000D01*
X156329761Y15487620D01*
X156520238Y15487620D01*
X156615476Y15440000D01*
X156663095Y15392381D01*
X156710714Y15297143D01*
X156710714Y15249524D01*
X156663095Y15154286D01*
X156615476Y15106667D01*
X156520238Y15059048D01*
X156329761Y15059048D01*
X156234523Y15011429D01*
X156186904Y14963810D01*
X156139285Y14868572D01*
X156139285Y14678096D01*
X156186904Y14582858D01*
X156234523Y14535239D01*
X156329761Y14487620D01*
X156520238Y14487620D01*
X156615476Y14535239D01*
X156663095Y14582858D01*
X156710714Y14678096D01*
X156710714Y14868572D01*
X156663095Y14963810D01*
X156615476Y15011429D01*
X156520238Y15059048D01*
G04 #@! TO.C,D7*
X159401190Y22407620D02*
X158925000Y22407620D01*
X158925000Y23407620D01*
X159734523Y22931429D02*
X160067857Y22931429D01*
X160210714Y22407620D02*
X159734523Y22407620D01*
X159734523Y23407620D01*
X160210714Y23407620D01*
X160639285Y22407620D02*
X160639285Y23407620D01*
X160877380Y23407620D01*
X161020238Y23360000D01*
X161115476Y23264762D01*
X161163095Y23169524D01*
X161210714Y22979048D01*
X161210714Y22836191D01*
X161163095Y22645715D01*
X161115476Y22550477D01*
X161020238Y22455239D01*
X160877380Y22407620D01*
X160639285Y22407620D01*
X161401190Y22312381D02*
X162163095Y22312381D01*
X162972619Y22407620D02*
X162639285Y22883810D01*
X162401190Y22407620D02*
X162401190Y23407620D01*
X162782142Y23407620D01*
X162877380Y23360000D01*
X162925000Y23312381D01*
X162972619Y23217143D01*
X162972619Y23074286D01*
X162925000Y22979048D01*
X162877380Y22931429D01*
X162782142Y22883810D01*
X162401190Y22883810D01*
X163925000Y23360000D02*
X163829761Y23407620D01*
X163686904Y23407620D01*
X163544047Y23360000D01*
X163448809Y23264762D01*
X163401190Y23169524D01*
X163353571Y22979048D01*
X163353571Y22836191D01*
X163401190Y22645715D01*
X163448809Y22550477D01*
X163544047Y22455239D01*
X163686904Y22407620D01*
X163782142Y22407620D01*
X163925000Y22455239D01*
X163972619Y22502858D01*
X163972619Y22836191D01*
X163782142Y22836191D01*
X164734523Y22931429D02*
X164877380Y22883810D01*
X164925000Y22836191D01*
X164972619Y22740953D01*
X164972619Y22598096D01*
X164925000Y22502858D01*
X164877380Y22455239D01*
X164782142Y22407620D01*
X164401190Y22407620D01*
X164401190Y23407620D01*
X164734523Y23407620D01*
X164829761Y23360000D01*
X164877380Y23312381D01*
X164925000Y23217143D01*
X164925000Y23121905D01*
X164877380Y23026667D01*
X164829761Y22979048D01*
X164734523Y22931429D01*
X164401190Y22931429D01*
X165972619Y22502858D02*
X165925000Y22455239D01*
X165782142Y22407620D01*
X165686904Y22407620D01*
X165544047Y22455239D01*
X165448809Y22550477D01*
X165401190Y22645715D01*
X165353571Y22836191D01*
X165353571Y22979048D01*
X165401190Y23169524D01*
X165448809Y23264762D01*
X165544047Y23360000D01*
X165686904Y23407620D01*
X165782142Y23407620D01*
X165925000Y23360000D01*
X165972619Y23312381D01*
X161686904Y14487620D02*
X161686904Y15487620D01*
X161925000Y15487620D01*
X162067857Y15440000D01*
X162163095Y15344762D01*
X162210714Y15249524D01*
X162258333Y15059048D01*
X162258333Y14916191D01*
X162210714Y14725715D01*
X162163095Y14630477D01*
X162067857Y14535239D01*
X161925000Y14487620D01*
X161686904Y14487620D01*
X162591666Y15487620D02*
X163258333Y15487620D01*
X162829761Y14487620D01*
G04 #@! TO.C,D6*
X165901190Y22407620D02*
X165425000Y22407620D01*
X165425000Y23407620D01*
X166234523Y22931429D02*
X166567857Y22931429D01*
X166710714Y22407620D02*
X166234523Y22407620D01*
X166234523Y23407620D01*
X166710714Y23407620D01*
X167139285Y22407620D02*
X167139285Y23407620D01*
X167377380Y23407620D01*
X167520238Y23360000D01*
X167615476Y23264762D01*
X167663095Y23169524D01*
X167710714Y22979048D01*
X167710714Y22836191D01*
X167663095Y22645715D01*
X167615476Y22550477D01*
X167520238Y22455239D01*
X167377380Y22407620D01*
X167139285Y22407620D01*
X167901190Y22312381D02*
X168663095Y22312381D01*
X169472619Y22407620D02*
X169139285Y22883810D01*
X168901190Y22407620D02*
X168901190Y23407620D01*
X169282142Y23407620D01*
X169377380Y23360000D01*
X169425000Y23312381D01*
X169472619Y23217143D01*
X169472619Y23074286D01*
X169425000Y22979048D01*
X169377380Y22931429D01*
X169282142Y22883810D01*
X168901190Y22883810D01*
X170425000Y23360000D02*
X170329761Y23407620D01*
X170186904Y23407620D01*
X170044047Y23360000D01*
X169948809Y23264762D01*
X169901190Y23169524D01*
X169853571Y22979048D01*
X169853571Y22836191D01*
X169901190Y22645715D01*
X169948809Y22550477D01*
X170044047Y22455239D01*
X170186904Y22407620D01*
X170282142Y22407620D01*
X170425000Y22455239D01*
X170472619Y22502858D01*
X170472619Y22836191D01*
X170282142Y22836191D01*
X171234523Y22931429D02*
X171377380Y22883810D01*
X171425000Y22836191D01*
X171472619Y22740953D01*
X171472619Y22598096D01*
X171425000Y22502858D01*
X171377380Y22455239D01*
X171282142Y22407620D01*
X170901190Y22407620D01*
X170901190Y23407620D01*
X171234523Y23407620D01*
X171329761Y23360000D01*
X171377380Y23312381D01*
X171425000Y23217143D01*
X171425000Y23121905D01*
X171377380Y23026667D01*
X171329761Y22979048D01*
X171234523Y22931429D01*
X170901190Y22931429D01*
X172472619Y22502858D02*
X172425000Y22455239D01*
X172282142Y22407620D01*
X172186904Y22407620D01*
X172044047Y22455239D01*
X171948809Y22550477D01*
X171901190Y22645715D01*
X171853571Y22836191D01*
X171853571Y22979048D01*
X171901190Y23169524D01*
X171948809Y23264762D01*
X172044047Y23360000D01*
X172186904Y23407620D01*
X172282142Y23407620D01*
X172425000Y23360000D01*
X172472619Y23312381D01*
X168186904Y14487620D02*
X168186904Y15487620D01*
X168425000Y15487620D01*
X168567857Y15440000D01*
X168663095Y15344762D01*
X168710714Y15249524D01*
X168758333Y15059048D01*
X168758333Y14916191D01*
X168710714Y14725715D01*
X168663095Y14630477D01*
X168567857Y14535239D01*
X168425000Y14487620D01*
X168186904Y14487620D01*
X169615476Y15487620D02*
X169425000Y15487620D01*
X169329761Y15440000D01*
X169282142Y15392381D01*
X169186904Y15249524D01*
X169139285Y15059048D01*
X169139285Y14678096D01*
X169186904Y14582858D01*
X169234523Y14535239D01*
X169329761Y14487620D01*
X169520238Y14487620D01*
X169615476Y14535239D01*
X169663095Y14582858D01*
X169710714Y14678096D01*
X169710714Y14916191D01*
X169663095Y15011429D01*
X169615476Y15059048D01*
X169520238Y15106667D01*
X169329761Y15106667D01*
X169234523Y15059048D01*
X169186904Y15011429D01*
X169139285Y14916191D01*
G04 #@! TO.C,D5*
X172401190Y22407620D02*
X171925000Y22407620D01*
X171925000Y23407620D01*
X172734523Y22931429D02*
X173067857Y22931429D01*
X173210714Y22407620D02*
X172734523Y22407620D01*
X172734523Y23407620D01*
X173210714Y23407620D01*
X173639285Y22407620D02*
X173639285Y23407620D01*
X173877380Y23407620D01*
X174020238Y23360000D01*
X174115476Y23264762D01*
X174163095Y23169524D01*
X174210714Y22979048D01*
X174210714Y22836191D01*
X174163095Y22645715D01*
X174115476Y22550477D01*
X174020238Y22455239D01*
X173877380Y22407620D01*
X173639285Y22407620D01*
X174401190Y22312381D02*
X175163095Y22312381D01*
X175972619Y22407620D02*
X175639285Y22883810D01*
X175401190Y22407620D02*
X175401190Y23407620D01*
X175782142Y23407620D01*
X175877380Y23360000D01*
X175925000Y23312381D01*
X175972619Y23217143D01*
X175972619Y23074286D01*
X175925000Y22979048D01*
X175877380Y22931429D01*
X175782142Y22883810D01*
X175401190Y22883810D01*
X176925000Y23360000D02*
X176829761Y23407620D01*
X176686904Y23407620D01*
X176544047Y23360000D01*
X176448809Y23264762D01*
X176401190Y23169524D01*
X176353571Y22979048D01*
X176353571Y22836191D01*
X176401190Y22645715D01*
X176448809Y22550477D01*
X176544047Y22455239D01*
X176686904Y22407620D01*
X176782142Y22407620D01*
X176925000Y22455239D01*
X176972619Y22502858D01*
X176972619Y22836191D01*
X176782142Y22836191D01*
X177734523Y22931429D02*
X177877380Y22883810D01*
X177925000Y22836191D01*
X177972619Y22740953D01*
X177972619Y22598096D01*
X177925000Y22502858D01*
X177877380Y22455239D01*
X177782142Y22407620D01*
X177401190Y22407620D01*
X177401190Y23407620D01*
X177734523Y23407620D01*
X177829761Y23360000D01*
X177877380Y23312381D01*
X177925000Y23217143D01*
X177925000Y23121905D01*
X177877380Y23026667D01*
X177829761Y22979048D01*
X177734523Y22931429D01*
X177401190Y22931429D01*
X178972619Y22502858D02*
X178925000Y22455239D01*
X178782142Y22407620D01*
X178686904Y22407620D01*
X178544047Y22455239D01*
X178448809Y22550477D01*
X178401190Y22645715D01*
X178353571Y22836191D01*
X178353571Y22979048D01*
X178401190Y23169524D01*
X178448809Y23264762D01*
X178544047Y23360000D01*
X178686904Y23407620D01*
X178782142Y23407620D01*
X178925000Y23360000D01*
X178972619Y23312381D01*
X174686904Y14487620D02*
X174686904Y15487620D01*
X174925000Y15487620D01*
X175067857Y15440000D01*
X175163095Y15344762D01*
X175210714Y15249524D01*
X175258333Y15059048D01*
X175258333Y14916191D01*
X175210714Y14725715D01*
X175163095Y14630477D01*
X175067857Y14535239D01*
X174925000Y14487620D01*
X174686904Y14487620D01*
X176163095Y15487620D02*
X175686904Y15487620D01*
X175639285Y15011429D01*
X175686904Y15059048D01*
X175782142Y15106667D01*
X176020238Y15106667D01*
X176115476Y15059048D01*
X176163095Y15011429D01*
X176210714Y14916191D01*
X176210714Y14678096D01*
X176163095Y14582858D01*
X176115476Y14535239D01*
X176020238Y14487620D01*
X175782142Y14487620D01*
X175686904Y14535239D01*
X175639285Y14582858D01*
G04 #@! TO.C,D4*
X178901190Y22407620D02*
X178425000Y22407620D01*
X178425000Y23407620D01*
X179234523Y22931429D02*
X179567857Y22931429D01*
X179710714Y22407620D02*
X179234523Y22407620D01*
X179234523Y23407620D01*
X179710714Y23407620D01*
X180139285Y22407620D02*
X180139285Y23407620D01*
X180377380Y23407620D01*
X180520238Y23360000D01*
X180615476Y23264762D01*
X180663095Y23169524D01*
X180710714Y22979048D01*
X180710714Y22836191D01*
X180663095Y22645715D01*
X180615476Y22550477D01*
X180520238Y22455239D01*
X180377380Y22407620D01*
X180139285Y22407620D01*
X180901190Y22312381D02*
X181663095Y22312381D01*
X182472619Y22407620D02*
X182139285Y22883810D01*
X181901190Y22407620D02*
X181901190Y23407620D01*
X182282142Y23407620D01*
X182377380Y23360000D01*
X182425000Y23312381D01*
X182472619Y23217143D01*
X182472619Y23074286D01*
X182425000Y22979048D01*
X182377380Y22931429D01*
X182282142Y22883810D01*
X181901190Y22883810D01*
X183425000Y23360000D02*
X183329761Y23407620D01*
X183186904Y23407620D01*
X183044047Y23360000D01*
X182948809Y23264762D01*
X182901190Y23169524D01*
X182853571Y22979048D01*
X182853571Y22836191D01*
X182901190Y22645715D01*
X182948809Y22550477D01*
X183044047Y22455239D01*
X183186904Y22407620D01*
X183282142Y22407620D01*
X183425000Y22455239D01*
X183472619Y22502858D01*
X183472619Y22836191D01*
X183282142Y22836191D01*
X184234523Y22931429D02*
X184377380Y22883810D01*
X184425000Y22836191D01*
X184472619Y22740953D01*
X184472619Y22598096D01*
X184425000Y22502858D01*
X184377380Y22455239D01*
X184282142Y22407620D01*
X183901190Y22407620D01*
X183901190Y23407620D01*
X184234523Y23407620D01*
X184329761Y23360000D01*
X184377380Y23312381D01*
X184425000Y23217143D01*
X184425000Y23121905D01*
X184377380Y23026667D01*
X184329761Y22979048D01*
X184234523Y22931429D01*
X183901190Y22931429D01*
X185472619Y22502858D02*
X185425000Y22455239D01*
X185282142Y22407620D01*
X185186904Y22407620D01*
X185044047Y22455239D01*
X184948809Y22550477D01*
X184901190Y22645715D01*
X184853571Y22836191D01*
X184853571Y22979048D01*
X184901190Y23169524D01*
X184948809Y23264762D01*
X185044047Y23360000D01*
X185186904Y23407620D01*
X185282142Y23407620D01*
X185425000Y23360000D01*
X185472619Y23312381D01*
X181186904Y14487620D02*
X181186904Y15487620D01*
X181425000Y15487620D01*
X181567857Y15440000D01*
X181663095Y15344762D01*
X181710714Y15249524D01*
X181758333Y15059048D01*
X181758333Y14916191D01*
X181710714Y14725715D01*
X181663095Y14630477D01*
X181567857Y14535239D01*
X181425000Y14487620D01*
X181186904Y14487620D01*
X182615476Y15154286D02*
X182615476Y14487620D01*
X182377380Y15535239D02*
X182139285Y14820953D01*
X182758333Y14820953D01*
G04 #@! TO.C,D3*
X185401190Y22407620D02*
X184925000Y22407620D01*
X184925000Y23407620D01*
X185734523Y22931429D02*
X186067857Y22931429D01*
X186210714Y22407620D02*
X185734523Y22407620D01*
X185734523Y23407620D01*
X186210714Y23407620D01*
X186639285Y22407620D02*
X186639285Y23407620D01*
X186877380Y23407620D01*
X187020238Y23360000D01*
X187115476Y23264762D01*
X187163095Y23169524D01*
X187210714Y22979048D01*
X187210714Y22836191D01*
X187163095Y22645715D01*
X187115476Y22550477D01*
X187020238Y22455239D01*
X186877380Y22407620D01*
X186639285Y22407620D01*
X187401190Y22312381D02*
X188163095Y22312381D01*
X188972619Y22407620D02*
X188639285Y22883810D01*
X188401190Y22407620D02*
X188401190Y23407620D01*
X188782142Y23407620D01*
X188877380Y23360000D01*
X188925000Y23312381D01*
X188972619Y23217143D01*
X188972619Y23074286D01*
X188925000Y22979048D01*
X188877380Y22931429D01*
X188782142Y22883810D01*
X188401190Y22883810D01*
X189925000Y23360000D02*
X189829761Y23407620D01*
X189686904Y23407620D01*
X189544047Y23360000D01*
X189448809Y23264762D01*
X189401190Y23169524D01*
X189353571Y22979048D01*
X189353571Y22836191D01*
X189401190Y22645715D01*
X189448809Y22550477D01*
X189544047Y22455239D01*
X189686904Y22407620D01*
X189782142Y22407620D01*
X189925000Y22455239D01*
X189972619Y22502858D01*
X189972619Y22836191D01*
X189782142Y22836191D01*
X190734523Y22931429D02*
X190877380Y22883810D01*
X190925000Y22836191D01*
X190972619Y22740953D01*
X190972619Y22598096D01*
X190925000Y22502858D01*
X190877380Y22455239D01*
X190782142Y22407620D01*
X190401190Y22407620D01*
X190401190Y23407620D01*
X190734523Y23407620D01*
X190829761Y23360000D01*
X190877380Y23312381D01*
X190925000Y23217143D01*
X190925000Y23121905D01*
X190877380Y23026667D01*
X190829761Y22979048D01*
X190734523Y22931429D01*
X190401190Y22931429D01*
X191972619Y22502858D02*
X191925000Y22455239D01*
X191782142Y22407620D01*
X191686904Y22407620D01*
X191544047Y22455239D01*
X191448809Y22550477D01*
X191401190Y22645715D01*
X191353571Y22836191D01*
X191353571Y22979048D01*
X191401190Y23169524D01*
X191448809Y23264762D01*
X191544047Y23360000D01*
X191686904Y23407620D01*
X191782142Y23407620D01*
X191925000Y23360000D01*
X191972619Y23312381D01*
X187686904Y14487620D02*
X187686904Y15487620D01*
X187925000Y15487620D01*
X188067857Y15440000D01*
X188163095Y15344762D01*
X188210714Y15249524D01*
X188258333Y15059048D01*
X188258333Y14916191D01*
X188210714Y14725715D01*
X188163095Y14630477D01*
X188067857Y14535239D01*
X187925000Y14487620D01*
X187686904Y14487620D01*
X188591666Y15487620D02*
X189210714Y15487620D01*
X188877380Y15106667D01*
X189020238Y15106667D01*
X189115476Y15059048D01*
X189163095Y15011429D01*
X189210714Y14916191D01*
X189210714Y14678096D01*
X189163095Y14582858D01*
X189115476Y14535239D01*
X189020238Y14487620D01*
X188734523Y14487620D01*
X188639285Y14535239D01*
X188591666Y14582858D01*
G04 #@! TO.C,D2*
X191901190Y22407620D02*
X191425000Y22407620D01*
X191425000Y23407620D01*
X192234523Y22931429D02*
X192567857Y22931429D01*
X192710714Y22407620D02*
X192234523Y22407620D01*
X192234523Y23407620D01*
X192710714Y23407620D01*
X193139285Y22407620D02*
X193139285Y23407620D01*
X193377380Y23407620D01*
X193520238Y23360000D01*
X193615476Y23264762D01*
X193663095Y23169524D01*
X193710714Y22979048D01*
X193710714Y22836191D01*
X193663095Y22645715D01*
X193615476Y22550477D01*
X193520238Y22455239D01*
X193377380Y22407620D01*
X193139285Y22407620D01*
X193901190Y22312381D02*
X194663095Y22312381D01*
X195472619Y22407620D02*
X195139285Y22883810D01*
X194901190Y22407620D02*
X194901190Y23407620D01*
X195282142Y23407620D01*
X195377380Y23360000D01*
X195425000Y23312381D01*
X195472619Y23217143D01*
X195472619Y23074286D01*
X195425000Y22979048D01*
X195377380Y22931429D01*
X195282142Y22883810D01*
X194901190Y22883810D01*
X196425000Y23360000D02*
X196329761Y23407620D01*
X196186904Y23407620D01*
X196044047Y23360000D01*
X195948809Y23264762D01*
X195901190Y23169524D01*
X195853571Y22979048D01*
X195853571Y22836191D01*
X195901190Y22645715D01*
X195948809Y22550477D01*
X196044047Y22455239D01*
X196186904Y22407620D01*
X196282142Y22407620D01*
X196425000Y22455239D01*
X196472619Y22502858D01*
X196472619Y22836191D01*
X196282142Y22836191D01*
X197234523Y22931429D02*
X197377380Y22883810D01*
X197425000Y22836191D01*
X197472619Y22740953D01*
X197472619Y22598096D01*
X197425000Y22502858D01*
X197377380Y22455239D01*
X197282142Y22407620D01*
X196901190Y22407620D01*
X196901190Y23407620D01*
X197234523Y23407620D01*
X197329761Y23360000D01*
X197377380Y23312381D01*
X197425000Y23217143D01*
X197425000Y23121905D01*
X197377380Y23026667D01*
X197329761Y22979048D01*
X197234523Y22931429D01*
X196901190Y22931429D01*
X198472619Y22502858D02*
X198425000Y22455239D01*
X198282142Y22407620D01*
X198186904Y22407620D01*
X198044047Y22455239D01*
X197948809Y22550477D01*
X197901190Y22645715D01*
X197853571Y22836191D01*
X197853571Y22979048D01*
X197901190Y23169524D01*
X197948809Y23264762D01*
X198044047Y23360000D01*
X198186904Y23407620D01*
X198282142Y23407620D01*
X198425000Y23360000D01*
X198472619Y23312381D01*
X194186904Y14487620D02*
X194186904Y15487620D01*
X194425000Y15487620D01*
X194567857Y15440000D01*
X194663095Y15344762D01*
X194710714Y15249524D01*
X194758333Y15059048D01*
X194758333Y14916191D01*
X194710714Y14725715D01*
X194663095Y14630477D01*
X194567857Y14535239D01*
X194425000Y14487620D01*
X194186904Y14487620D01*
X195139285Y15392381D02*
X195186904Y15440000D01*
X195282142Y15487620D01*
X195520238Y15487620D01*
X195615476Y15440000D01*
X195663095Y15392381D01*
X195710714Y15297143D01*
X195710714Y15201905D01*
X195663095Y15059048D01*
X195091666Y14487620D01*
X195710714Y14487620D01*
G04 #@! TO.C,D1*
X198401190Y22407620D02*
X197925000Y22407620D01*
X197925000Y23407620D01*
X198734523Y22931429D02*
X199067857Y22931429D01*
X199210714Y22407620D02*
X198734523Y22407620D01*
X198734523Y23407620D01*
X199210714Y23407620D01*
X199639285Y22407620D02*
X199639285Y23407620D01*
X199877380Y23407620D01*
X200020238Y23360000D01*
X200115476Y23264762D01*
X200163095Y23169524D01*
X200210714Y22979048D01*
X200210714Y22836191D01*
X200163095Y22645715D01*
X200115476Y22550477D01*
X200020238Y22455239D01*
X199877380Y22407620D01*
X199639285Y22407620D01*
X200401190Y22312381D02*
X201163095Y22312381D01*
X201972619Y22407620D02*
X201639285Y22883810D01*
X201401190Y22407620D02*
X201401190Y23407620D01*
X201782142Y23407620D01*
X201877380Y23360000D01*
X201925000Y23312381D01*
X201972619Y23217143D01*
X201972619Y23074286D01*
X201925000Y22979048D01*
X201877380Y22931429D01*
X201782142Y22883810D01*
X201401190Y22883810D01*
X202925000Y23360000D02*
X202829761Y23407620D01*
X202686904Y23407620D01*
X202544047Y23360000D01*
X202448809Y23264762D01*
X202401190Y23169524D01*
X202353571Y22979048D01*
X202353571Y22836191D01*
X202401190Y22645715D01*
X202448809Y22550477D01*
X202544047Y22455239D01*
X202686904Y22407620D01*
X202782142Y22407620D01*
X202925000Y22455239D01*
X202972619Y22502858D01*
X202972619Y22836191D01*
X202782142Y22836191D01*
X203734523Y22931429D02*
X203877380Y22883810D01*
X203925000Y22836191D01*
X203972619Y22740953D01*
X203972619Y22598096D01*
X203925000Y22502858D01*
X203877380Y22455239D01*
X203782142Y22407620D01*
X203401190Y22407620D01*
X203401190Y23407620D01*
X203734523Y23407620D01*
X203829761Y23360000D01*
X203877380Y23312381D01*
X203925000Y23217143D01*
X203925000Y23121905D01*
X203877380Y23026667D01*
X203829761Y22979048D01*
X203734523Y22931429D01*
X203401190Y22931429D01*
X204972619Y22502858D02*
X204925000Y22455239D01*
X204782142Y22407620D01*
X204686904Y22407620D01*
X204544047Y22455239D01*
X204448809Y22550477D01*
X204401190Y22645715D01*
X204353571Y22836191D01*
X204353571Y22979048D01*
X204401190Y23169524D01*
X204448809Y23264762D01*
X204544047Y23360000D01*
X204686904Y23407620D01*
X204782142Y23407620D01*
X204925000Y23360000D01*
X204972619Y23312381D01*
X200686904Y14487620D02*
X200686904Y15487620D01*
X200925000Y15487620D01*
X201067857Y15440000D01*
X201163095Y15344762D01*
X201210714Y15249524D01*
X201258333Y15059048D01*
X201258333Y14916191D01*
X201210714Y14725715D01*
X201163095Y14630477D01*
X201067857Y14535239D01*
X200925000Y14487620D01*
X200686904Y14487620D01*
X202210714Y14487620D02*
X201639285Y14487620D01*
X201925000Y14487620D02*
X201925000Y15487620D01*
X201829761Y15344762D01*
X201734523Y15249524D01*
X201639285Y15201905D01*
G04 #@! TD*
M02*
