M48
; DRILL file {KiCad (5.1.12)-1} date 05/10/22 22:27:01
; FORMAT={-:-/ absolute / metric / decimal}
; #@! TF.CreationDate,2022-05-10T22:27:01-07:00
; #@! TF.GenerationSoftware,Kicad,Pcbnew,(5.1.12)-1
; #@! TF.FileFunction,Plated,1,2,PTH
FMAT,2
METRIC
T1C0.400
T2C0.700
T3C0.750
T4C0.800
T5C0.900
T6C1.100
%
G90
G05
T1
X24.95Y3.8
X39.05Y3.0
X40.5Y2.9
X45.05Y22.25
X65.3Y13.95
X65.35Y12.15
X72.35Y14.2
X72.75Y16.0
X74.4Y9.9
X74.85Y7.6
X76.35Y18.15
X76.5Y10.529
X84.95Y17.5
X86.5Y2.08
X88.38Y5.73
X92.64Y6.61
X94.834Y7.68
X101.585Y5.615
X102.85Y10.1
X105.395Y3.575
X106.67Y2.84
X107.94Y2.08
X109.19Y5.59
X120.19Y5.59
X121.5Y10.05
X124.03Y3.58
X125.29Y2.82
X126.55Y2.06
X127.89Y5.59
X138.89Y5.59
X140.15Y10.05
X142.65Y3.58
X143.95Y2.82
X145.23Y2.06
X146.49Y5.59
X157.505Y5.605
X158.75Y10.05
X161.26Y3.58
X162.54Y2.82
X163.81Y2.06
X165.09Y5.59
X176.19Y5.59
X177.4Y10.1
X179.94Y3.58
X181.19Y2.855
X182.46Y2.06
X183.79Y5.59
X194.785Y5.585
X196.05Y10.15
X198.59Y3.58
X199.87Y2.82
X201.14Y2.06
X202.41Y5.59
T2
X104.539Y35.216
X104.539Y25.216
X111.067Y35.216
X111.067Y25.216
X117.544Y35.216
X117.544Y25.216
X124.046Y35.216
X124.046Y25.216
X130.574Y35.216
X130.574Y25.216
X137.077Y35.216
X137.077Y25.216
X143.579Y35.216
X143.579Y25.216
X150.081Y35.216
X150.081Y25.216
X156.558Y35.216
X156.558Y25.216
X163.061Y35.216
X163.061Y25.216
X169.563Y35.216
X169.563Y25.216
X176.04Y35.216
X176.04Y25.216
X182.568Y35.216
X182.568Y25.216
X189.07Y35.216
X189.07Y25.216
X195.573Y35.216
X195.573Y25.216
X202.075Y35.216
X202.075Y25.216
T3
X68.96Y33.1
X71.5Y33.1
X74.04Y33.1
X93.716Y33.744
X94.986Y33.744
X96.256Y33.744
T4
X1.882Y27.25
X1.882Y12.01
X4.422Y27.25
X4.422Y12.01
X6.962Y27.25
X6.962Y12.01
X9.502Y27.25
X9.502Y12.01
X12.042Y27.25
X12.042Y12.01
X14.582Y27.25
X14.582Y12.01
X17.122Y27.25
X17.122Y12.01
X19.662Y27.25
X19.662Y12.01
X22.202Y27.25
X22.202Y12.01
X24.742Y27.25
X24.742Y12.01
X27.282Y27.25
X27.282Y12.01
X29.822Y27.25
X29.822Y12.01
X32.362Y27.25
X32.362Y12.01
X34.902Y27.25
X34.902Y12.01
X37.442Y27.25
X37.442Y12.01
X39.982Y27.25
X39.982Y12.01
X42.522Y27.25
X42.522Y12.01
X45.062Y27.25
X45.062Y12.01
X47.602Y27.25
X47.602Y12.01
X50.142Y27.25
X50.142Y12.01
T5
X83.03Y33.6
X85.57Y33.6
X102.02Y18.9
X103.29Y18.9
X104.56Y18.9
X105.83Y18.9
X108.52Y18.9
X109.79Y18.9
X111.06Y18.9
X112.33Y18.9
X115.02Y18.9
X116.29Y18.9
X117.56Y18.9
X118.83Y18.9
X121.52Y18.9
X122.79Y18.9
X124.06Y18.9
X125.33Y18.9
X128.02Y18.9
X129.29Y18.9
X130.56Y18.9
X131.83Y18.9
X134.52Y18.9
X135.79Y18.9
X137.06Y18.9
X138.33Y18.9
X141.02Y18.9
X142.29Y18.9
X143.56Y18.9
X144.83Y18.9
X147.52Y18.9
X148.79Y18.9
X150.06Y18.9
X151.33Y18.9
X154.02Y18.9
X155.29Y18.9
X156.56Y18.9
X157.83Y18.9
X160.52Y18.9
X161.79Y18.9
X163.06Y18.9
X164.33Y18.9
X167.02Y18.9
X168.29Y18.9
X169.56Y18.9
X170.83Y18.9
X173.52Y18.9
X174.79Y18.9
X176.06Y18.9
X177.33Y18.9
X180.02Y18.9
X181.29Y18.9
X182.56Y18.9
X183.83Y18.9
X186.52Y18.9
X187.79Y18.9
X189.06Y18.9
X190.33Y18.9
X193.02Y18.9
X194.29Y18.9
X195.56Y18.9
X196.83Y18.9
X199.52Y18.9
X200.79Y18.9
X202.06Y18.9
X203.33Y18.9
T6
X59.9Y31.4
X59.9Y18.7
T0
M30
