G04 #@! TF.GenerationSoftware,KiCad,Pcbnew,(5.1.12)-1*
G04 #@! TF.CreationDate,2022-05-10T22:26:18-07:00*
G04 #@! TF.ProjectId,Spring2022,53707269-6e67-4323-9032-322e6b696361,rev?*
G04 #@! TF.SameCoordinates,PX3a2c940PY3fe56c0*
G04 #@! TF.FileFunction,Legend,Bot*
G04 #@! TF.FilePolarity,Positive*
%FSLAX46Y46*%
G04 Gerber Fmt 4.6, Leading zero omitted, Abs format (unit mm)*
G04 Created by KiCad (PCBNEW (5.1.12)-1) date 2022-05-10 22:26:18*
%MOMM*%
%LPD*%
G01*
G04 APERTURE LIST*
%ADD10C,0.070000*%
%ADD11C,0.200000*%
%ADD12C,0.120000*%
%ADD13C,0.100000*%
%ADD14C,0.150000*%
G04 APERTURE END LIST*
D10*
X83170000Y6843334D02*
X83170000Y7543334D01*
X82870000Y7476667D02*
X82836666Y7510000D01*
X82770000Y7543334D01*
X82603333Y7543334D01*
X82536666Y7510000D01*
X82503333Y7476667D01*
X82470000Y7410000D01*
X82470000Y7343334D01*
X82503333Y7243334D01*
X82903333Y6843334D01*
X82470000Y6843334D01*
X81770000Y6910000D02*
X81803333Y6876667D01*
X81903333Y6843334D01*
X81970000Y6843334D01*
X82070000Y6876667D01*
X82136666Y6943334D01*
X82170000Y7010000D01*
X82203333Y7143334D01*
X82203333Y7243334D01*
X82170000Y7376667D01*
X82136666Y7443334D01*
X82070000Y7510000D01*
X81970000Y7543334D01*
X81903333Y7543334D01*
X81803333Y7510000D01*
X81770000Y7476667D01*
X81470000Y7110000D02*
X80936666Y7110000D01*
X80636666Y6876667D02*
X80536666Y6843334D01*
X80370000Y6843334D01*
X80303333Y6876667D01*
X80270000Y6910000D01*
X80236666Y6976667D01*
X80236666Y7043334D01*
X80270000Y7110000D01*
X80303333Y7143334D01*
X80370000Y7176667D01*
X80503333Y7210000D01*
X80570000Y7243334D01*
X80603333Y7276667D01*
X80636666Y7343334D01*
X80636666Y7410000D01*
X80603333Y7476667D01*
X80570000Y7510000D01*
X80503333Y7543334D01*
X80336666Y7543334D01*
X80236666Y7510000D01*
X79536666Y6910000D02*
X79570000Y6876667D01*
X79670000Y6843334D01*
X79736666Y6843334D01*
X79836666Y6876667D01*
X79903333Y6943334D01*
X79936666Y7010000D01*
X79970000Y7143334D01*
X79970000Y7243334D01*
X79936666Y7376667D01*
X79903333Y7443334D01*
X79836666Y7510000D01*
X79736666Y7543334D01*
X79670000Y7543334D01*
X79570000Y7510000D01*
X79536666Y7476667D01*
X79236666Y6843334D02*
X79236666Y7543334D01*
X78836666Y6843334D02*
X79136666Y7243334D01*
X78836666Y7543334D02*
X79236666Y7143334D01*
X83250000Y15693334D02*
X83250000Y16393334D01*
X82950000Y16326667D02*
X82916666Y16360000D01*
X82850000Y16393334D01*
X82683333Y16393334D01*
X82616666Y16360000D01*
X82583333Y16326667D01*
X82550000Y16260000D01*
X82550000Y16193334D01*
X82583333Y16093334D01*
X82983333Y15693334D01*
X82550000Y15693334D01*
X81850000Y15760000D02*
X81883333Y15726667D01*
X81983333Y15693334D01*
X82050000Y15693334D01*
X82150000Y15726667D01*
X82216666Y15793334D01*
X82250000Y15860000D01*
X82283333Y15993334D01*
X82283333Y16093334D01*
X82250000Y16226667D01*
X82216666Y16293334D01*
X82150000Y16360000D01*
X82050000Y16393334D01*
X81983333Y16393334D01*
X81883333Y16360000D01*
X81850000Y16326667D01*
X81550000Y15960000D02*
X81016666Y15960000D01*
X80716666Y15726667D02*
X80616666Y15693334D01*
X80450000Y15693334D01*
X80383333Y15726667D01*
X80350000Y15760000D01*
X80316666Y15826667D01*
X80316666Y15893334D01*
X80350000Y15960000D01*
X80383333Y15993334D01*
X80450000Y16026667D01*
X80583333Y16060000D01*
X80650000Y16093334D01*
X80683333Y16126667D01*
X80716666Y16193334D01*
X80716666Y16260000D01*
X80683333Y16326667D01*
X80650000Y16360000D01*
X80583333Y16393334D01*
X80416666Y16393334D01*
X80316666Y16360000D01*
X80016666Y15693334D02*
X80016666Y16393334D01*
X79850000Y16393334D01*
X79750000Y16360000D01*
X79683333Y16293334D01*
X79650000Y16226667D01*
X79616666Y16093334D01*
X79616666Y15993334D01*
X79650000Y15860000D01*
X79683333Y15793334D01*
X79750000Y15726667D01*
X79850000Y15693334D01*
X80016666Y15693334D01*
X79350000Y15893334D02*
X79016666Y15893334D01*
X79416666Y15693334D02*
X79183333Y16393334D01*
X78950000Y15693334D01*
X74567333Y10733334D02*
X74967333Y10733334D01*
X74767333Y10733334D02*
X74767333Y11433334D01*
X74834000Y11333334D01*
X74900666Y11266667D01*
X74967333Y11233334D01*
X74134000Y11433334D02*
X74067333Y11433334D01*
X74000666Y11400000D01*
X73967333Y11366667D01*
X73934000Y11300000D01*
X73900666Y11166667D01*
X73900666Y11000000D01*
X73934000Y10866667D01*
X73967333Y10800000D01*
X74000666Y10766667D01*
X74067333Y10733334D01*
X74134000Y10733334D01*
X74200666Y10766667D01*
X74234000Y10800000D01*
X74267333Y10866667D01*
X74300666Y11000000D01*
X74300666Y11166667D01*
X74267333Y11300000D01*
X74234000Y11366667D01*
X74200666Y11400000D01*
X74134000Y11433334D01*
X73600666Y10733334D02*
X73600666Y11433334D01*
X73200666Y10733334D02*
X73500666Y11133334D01*
X73200666Y11433334D02*
X73600666Y11033334D01*
D11*
X79696190Y17167620D02*
X79696190Y18167620D01*
X79267619Y18072381D02*
X79220000Y18120000D01*
X79124761Y18167620D01*
X78886666Y18167620D01*
X78791428Y18120000D01*
X78743809Y18072381D01*
X78696190Y17977143D01*
X78696190Y17881905D01*
X78743809Y17739048D01*
X79315238Y17167620D01*
X78696190Y17167620D01*
X77696190Y17262858D02*
X77743809Y17215239D01*
X77886666Y17167620D01*
X77981904Y17167620D01*
X78124761Y17215239D01*
X78220000Y17310477D01*
X78267619Y17405715D01*
X78315238Y17596191D01*
X78315238Y17739048D01*
X78267619Y17929524D01*
X78220000Y18024762D01*
X78124761Y18120000D01*
X77981904Y18167620D01*
X77886666Y18167620D01*
X77743809Y18120000D01*
X77696190Y18072381D01*
X88447809Y16045239D02*
X88304952Y15997620D01*
X88066857Y15997620D01*
X87971619Y16045239D01*
X87924000Y16092858D01*
X87876380Y16188096D01*
X87876380Y16283334D01*
X87924000Y16378572D01*
X87971619Y16426191D01*
X88066857Y16473810D01*
X88257333Y16521429D01*
X88352571Y16569048D01*
X88400190Y16616667D01*
X88447809Y16711905D01*
X88447809Y16807143D01*
X88400190Y16902381D01*
X88352571Y16950000D01*
X88257333Y16997620D01*
X88019238Y16997620D01*
X87876380Y16950000D01*
X87447809Y15997620D02*
X87447809Y16997620D01*
X87066857Y16997620D01*
X86971619Y16950000D01*
X86924000Y16902381D01*
X86876380Y16807143D01*
X86876380Y16664286D01*
X86924000Y16569048D01*
X86971619Y16521429D01*
X87066857Y16473810D01*
X87447809Y16473810D01*
X86447809Y15997620D02*
X86447809Y16997620D01*
D12*
G04 #@! TO.C,U12*
X90004828Y11490000D02*
G75*
G03*
X90004828Y11490000I-60828J0D01*
G01*
X90227500Y13436500D02*
X90397071Y13436500D01*
X92640500Y11023500D02*
X92470929Y11023500D01*
X90397071Y11023500D02*
X90227500Y11023500D01*
X92470929Y13436500D02*
X92640500Y13436500D01*
D13*
G36*
X92932600Y11289499D02*
G01*
X92932600Y11670499D01*
X92678600Y11670499D01*
X92678600Y11289499D01*
X92932600Y11289499D01*
G37*
X92932600Y11289499D02*
X92932600Y11670499D01*
X92678600Y11670499D01*
X92678600Y11289499D01*
X92932600Y11289499D01*
D12*
G04 #@! TO.C,U7*
X111290000Y11300000D02*
X111290000Y8915000D01*
X111290000Y8915000D02*
X111010000Y8915000D01*
X111290000Y11300000D02*
X111290000Y13685000D01*
X111290000Y13685000D02*
X111010000Y13685000D01*
X100770000Y11300000D02*
X100770000Y8915000D01*
X100770000Y8915000D02*
X101050000Y8915000D01*
X100770000Y11300000D02*
X100770000Y13685000D01*
X100770000Y13685000D02*
X101050000Y13685000D01*
X101050000Y13685000D02*
X101050000Y15350000D01*
G04 #@! TO.C,R30*
X81756742Y10527500D02*
X82231258Y10527500D01*
X81756742Y11572500D02*
X82231258Y11572500D01*
D13*
G04 #@! TO.C,U11*
X69934000Y11450000D02*
X69934000Y12850000D01*
X68434000Y11450000D02*
X68434000Y12850000D01*
X70034000Y11150000D02*
G75*
G03*
X70034000Y11150000I-50000J0D01*
G01*
D12*
G04 #@! TO.C,R29*
X92871258Y8052500D02*
X92396742Y8052500D01*
X92871258Y7007500D02*
X92396742Y7007500D01*
G04 #@! TO.C,R28*
X92871258Y6252500D02*
X92396742Y6252500D01*
X92871258Y5207500D02*
X92396742Y5207500D01*
G04 #@! TO.C,R27*
X78546742Y10527500D02*
X79021258Y10527500D01*
X78546742Y11572500D02*
X79021258Y11572500D01*
G04 #@! TO.C,R26*
X78526742Y8307500D02*
X79001258Y8307500D01*
X78526742Y9352500D02*
X79001258Y9352500D01*
G04 #@! TO.C,R25*
X78546742Y13927500D02*
X79021258Y13927500D01*
X78546742Y14972500D02*
X79021258Y14972500D01*
G04 #@! TO.C,R24*
X79021258Y13272500D02*
X78546742Y13272500D01*
X79021258Y12227500D02*
X78546742Y12227500D01*
G04 #@! TO.C,R23*
X87086742Y10527500D02*
X87561258Y10527500D01*
X87086742Y11572500D02*
X87561258Y11572500D01*
G04 #@! TO.C,R22*
X87086742Y12227500D02*
X87561258Y12227500D01*
X87086742Y13272500D02*
X87561258Y13272500D01*
G04 #@! TO.C,R21*
X87086742Y13927500D02*
X87561258Y13927500D01*
X87086742Y14972500D02*
X87561258Y14972500D01*
G04 #@! TO.C,R20*
X87086742Y8439500D02*
X87561258Y8439500D01*
X87086742Y9484500D02*
X87561258Y9484500D01*
G04 #@! TO.C,R19*
X84637258Y30622500D02*
X84162742Y30622500D01*
X84637258Y29577500D02*
X84162742Y29577500D01*
G04 #@! TO.C,R18*
X76902742Y15517500D02*
X77377258Y15517500D01*
X76902742Y16562500D02*
X77377258Y16562500D01*
G04 #@! TO.C,R17*
X76872742Y6707500D02*
X77347258Y6707500D01*
X76872742Y7752500D02*
X77347258Y7752500D01*
G04 #@! TO.C,C5*
X95924000Y11558733D02*
X95924000Y11901267D01*
X96944000Y11558733D02*
X96944000Y11901267D01*
G04 #@! TO.C,C4*
X94324000Y11583733D02*
X94324000Y11926267D01*
X95344000Y11583733D02*
X95344000Y11926267D01*
G04 #@! TO.C,C3*
X69008733Y14920000D02*
X69351267Y14920000D01*
X69008733Y13900000D02*
X69351267Y13900000D01*
G04 #@! TO.C,C2*
X94624733Y31494000D02*
X94967267Y31494000D01*
X94624733Y30474000D02*
X94967267Y30474000D01*
G04 #@! TO.C,C1*
X94604733Y29804000D02*
X94947267Y29804000D01*
X94604733Y28784000D02*
X94947267Y28784000D01*
G04 #@! TO.C,BT1*
X62990000Y35900000D02*
X62990000Y38900000D01*
X62990000Y38900000D02*
X59990000Y38900000D01*
X62610000Y38520000D02*
X9740000Y38520000D01*
X9740000Y38520000D02*
X9740000Y780000D01*
X62610000Y780000D02*
X9740000Y780000D01*
X62610000Y38520000D02*
X62610000Y780000D01*
G04 #@! TO.C,U6*
X129930000Y11300000D02*
X129930000Y8915000D01*
X129930000Y8915000D02*
X129650000Y8915000D01*
X129930000Y11300000D02*
X129930000Y13685000D01*
X129930000Y13685000D02*
X129650000Y13685000D01*
X119410000Y11300000D02*
X119410000Y8915000D01*
X119410000Y8915000D02*
X119690000Y8915000D01*
X119410000Y11300000D02*
X119410000Y13685000D01*
X119410000Y13685000D02*
X119690000Y13685000D01*
X119690000Y13685000D02*
X119690000Y15350000D01*
G04 #@! TO.C,U5*
X148570000Y11300000D02*
X148570000Y8915000D01*
X148570000Y8915000D02*
X148290000Y8915000D01*
X148570000Y11300000D02*
X148570000Y13685000D01*
X148570000Y13685000D02*
X148290000Y13685000D01*
X138050000Y11300000D02*
X138050000Y8915000D01*
X138050000Y8915000D02*
X138330000Y8915000D01*
X138050000Y11300000D02*
X138050000Y13685000D01*
X138050000Y13685000D02*
X138330000Y13685000D01*
X138330000Y13685000D02*
X138330000Y15350000D01*
G04 #@! TO.C,U4*
X167210000Y11300000D02*
X167210000Y8915000D01*
X167210000Y8915000D02*
X166930000Y8915000D01*
X167210000Y11300000D02*
X167210000Y13685000D01*
X167210000Y13685000D02*
X166930000Y13685000D01*
X156690000Y11300000D02*
X156690000Y8915000D01*
X156690000Y8915000D02*
X156970000Y8915000D01*
X156690000Y11300000D02*
X156690000Y13685000D01*
X156690000Y13685000D02*
X156970000Y13685000D01*
X156970000Y13685000D02*
X156970000Y15350000D01*
G04 #@! TO.C,U3*
X185850000Y11300000D02*
X185850000Y8915000D01*
X185850000Y8915000D02*
X185570000Y8915000D01*
X185850000Y11300000D02*
X185850000Y13685000D01*
X185850000Y13685000D02*
X185570000Y13685000D01*
X175330000Y11300000D02*
X175330000Y8915000D01*
X175330000Y8915000D02*
X175610000Y8915000D01*
X175330000Y11300000D02*
X175330000Y13685000D01*
X175330000Y13685000D02*
X175610000Y13685000D01*
X175610000Y13685000D02*
X175610000Y15350000D01*
G04 #@! TO.C,U2*
X204490000Y11300000D02*
X204490000Y8915000D01*
X204490000Y8915000D02*
X204210000Y8915000D01*
X204490000Y11300000D02*
X204490000Y13685000D01*
X204490000Y13685000D02*
X204210000Y13685000D01*
X193970000Y11300000D02*
X193970000Y8915000D01*
X193970000Y8915000D02*
X194250000Y8915000D01*
X193970000Y11300000D02*
X193970000Y13685000D01*
X193970000Y13685000D02*
X194250000Y13685000D01*
X194250000Y13685000D02*
X194250000Y15350000D01*
G04 #@! TO.C,U12*
D10*
X92410666Y10615334D02*
X92410666Y10048667D01*
X92377333Y9982000D01*
X92344000Y9948667D01*
X92277333Y9915334D01*
X92144000Y9915334D01*
X92077333Y9948667D01*
X92044000Y9982000D01*
X92010666Y10048667D01*
X92010666Y10615334D01*
X91310666Y9915334D02*
X91710666Y9915334D01*
X91510666Y9915334D02*
X91510666Y10615334D01*
X91577333Y10515334D01*
X91644000Y10448667D01*
X91710666Y10415334D01*
X91044000Y10548667D02*
X91010666Y10582000D01*
X90944000Y10615334D01*
X90777333Y10615334D01*
X90710666Y10582000D01*
X90677333Y10548667D01*
X90644000Y10482000D01*
X90644000Y10415334D01*
X90677333Y10315334D01*
X91077333Y9915334D01*
X90644000Y9915334D01*
G04 #@! TO.C,U7*
D14*
X99382380Y12061905D02*
X100191904Y12061905D01*
X100287142Y12014286D01*
X100334761Y11966667D01*
X100382380Y11871429D01*
X100382380Y11680953D01*
X100334761Y11585715D01*
X100287142Y11538096D01*
X100191904Y11490477D01*
X99382380Y11490477D01*
X99382380Y11109524D02*
X99382380Y10442858D01*
X100382380Y10871429D01*
G04 #@! TO.C,R30*
D10*
X82444000Y9583334D02*
X82677333Y9916667D01*
X82844000Y9583334D02*
X82844000Y10283334D01*
X82577333Y10283334D01*
X82510666Y10250000D01*
X82477333Y10216667D01*
X82444000Y10150000D01*
X82444000Y10050000D01*
X82477333Y9983334D01*
X82510666Y9950000D01*
X82577333Y9916667D01*
X82844000Y9916667D01*
X82210666Y10283334D02*
X81777333Y10283334D01*
X82010666Y10016667D01*
X81910666Y10016667D01*
X81844000Y9983334D01*
X81810666Y9950000D01*
X81777333Y9883334D01*
X81777333Y9716667D01*
X81810666Y9650000D01*
X81844000Y9616667D01*
X81910666Y9583334D01*
X82110666Y9583334D01*
X82177333Y9616667D01*
X82210666Y9650000D01*
X81344000Y10283334D02*
X81277333Y10283334D01*
X81210666Y10250000D01*
X81177333Y10216667D01*
X81144000Y10150000D01*
X81110666Y10016667D01*
X81110666Y9850000D01*
X81144000Y9716667D01*
X81177333Y9650000D01*
X81210666Y9616667D01*
X81277333Y9583334D01*
X81344000Y9583334D01*
X81410666Y9616667D01*
X81444000Y9650000D01*
X81477333Y9716667D01*
X81510666Y9850000D01*
X81510666Y10016667D01*
X81477333Y10150000D01*
X81444000Y10216667D01*
X81410666Y10250000D01*
X81344000Y10283334D01*
G04 #@! TO.C,U11*
X67316666Y13026667D02*
X67883333Y13026667D01*
X67950000Y12993334D01*
X67983333Y12960000D01*
X68016666Y12893334D01*
X68016666Y12760000D01*
X67983333Y12693334D01*
X67950000Y12660000D01*
X67883333Y12626667D01*
X67316666Y12626667D01*
X68016666Y11926667D02*
X68016666Y12326667D01*
X68016666Y12126667D02*
X67316666Y12126667D01*
X67416666Y12193334D01*
X67483333Y12260000D01*
X67516666Y12326667D01*
X68016666Y11260000D02*
X68016666Y11660000D01*
X68016666Y11460000D02*
X67316666Y11460000D01*
X67416666Y11526667D01*
X67483333Y11593334D01*
X67516666Y11660000D01*
G04 #@! TO.C,R29*
X90584000Y7213334D02*
X90817333Y7546667D01*
X90984000Y7213334D02*
X90984000Y7913334D01*
X90717333Y7913334D01*
X90650666Y7880000D01*
X90617333Y7846667D01*
X90584000Y7780000D01*
X90584000Y7680000D01*
X90617333Y7613334D01*
X90650666Y7580000D01*
X90717333Y7546667D01*
X90984000Y7546667D01*
X90317333Y7846667D02*
X90284000Y7880000D01*
X90217333Y7913334D01*
X90050666Y7913334D01*
X89984000Y7880000D01*
X89950666Y7846667D01*
X89917333Y7780000D01*
X89917333Y7713334D01*
X89950666Y7613334D01*
X90350666Y7213334D01*
X89917333Y7213334D01*
X89584000Y7213334D02*
X89450666Y7213334D01*
X89384000Y7246667D01*
X89350666Y7280000D01*
X89284000Y7380000D01*
X89250666Y7513334D01*
X89250666Y7780000D01*
X89284000Y7846667D01*
X89317333Y7880000D01*
X89384000Y7913334D01*
X89517333Y7913334D01*
X89584000Y7880000D01*
X89617333Y7846667D01*
X89650666Y7780000D01*
X89650666Y7613334D01*
X89617333Y7546667D01*
X89584000Y7513334D01*
X89517333Y7480000D01*
X89384000Y7480000D01*
X89317333Y7513334D01*
X89284000Y7546667D01*
X89250666Y7613334D01*
G04 #@! TO.C,R28*
X90584000Y5413334D02*
X90817333Y5746667D01*
X90984000Y5413334D02*
X90984000Y6113334D01*
X90717333Y6113334D01*
X90650666Y6080000D01*
X90617333Y6046667D01*
X90584000Y5980000D01*
X90584000Y5880000D01*
X90617333Y5813334D01*
X90650666Y5780000D01*
X90717333Y5746667D01*
X90984000Y5746667D01*
X90317333Y6046667D02*
X90284000Y6080000D01*
X90217333Y6113334D01*
X90050666Y6113334D01*
X89984000Y6080000D01*
X89950666Y6046667D01*
X89917333Y5980000D01*
X89917333Y5913334D01*
X89950666Y5813334D01*
X90350666Y5413334D01*
X89917333Y5413334D01*
X89517333Y5813334D02*
X89584000Y5846667D01*
X89617333Y5880000D01*
X89650666Y5946667D01*
X89650666Y5980000D01*
X89617333Y6046667D01*
X89584000Y6080000D01*
X89517333Y6113334D01*
X89384000Y6113334D01*
X89317333Y6080000D01*
X89284000Y6046667D01*
X89250666Y5980000D01*
X89250666Y5946667D01*
X89284000Y5880000D01*
X89317333Y5846667D01*
X89384000Y5813334D01*
X89517333Y5813334D01*
X89584000Y5780000D01*
X89617333Y5746667D01*
X89650666Y5680000D01*
X89650666Y5546667D01*
X89617333Y5480000D01*
X89584000Y5446667D01*
X89517333Y5413334D01*
X89384000Y5413334D01*
X89317333Y5446667D01*
X89284000Y5480000D01*
X89250666Y5546667D01*
X89250666Y5680000D01*
X89284000Y5746667D01*
X89317333Y5780000D01*
X89384000Y5813334D01*
G04 #@! TO.C,R27*
X76734000Y10733334D02*
X76967333Y11066667D01*
X77134000Y10733334D02*
X77134000Y11433334D01*
X76867333Y11433334D01*
X76800666Y11400000D01*
X76767333Y11366667D01*
X76734000Y11300000D01*
X76734000Y11200000D01*
X76767333Y11133334D01*
X76800666Y11100000D01*
X76867333Y11066667D01*
X77134000Y11066667D01*
X76467333Y11366667D02*
X76434000Y11400000D01*
X76367333Y11433334D01*
X76200666Y11433334D01*
X76134000Y11400000D01*
X76100666Y11366667D01*
X76067333Y11300000D01*
X76067333Y11233334D01*
X76100666Y11133334D01*
X76500666Y10733334D01*
X76067333Y10733334D01*
X75834000Y11433334D02*
X75367333Y11433334D01*
X75667333Y10733334D01*
G04 #@! TO.C,R26*
X76714000Y8513334D02*
X76947333Y8846667D01*
X77114000Y8513334D02*
X77114000Y9213334D01*
X76847333Y9213334D01*
X76780666Y9180000D01*
X76747333Y9146667D01*
X76714000Y9080000D01*
X76714000Y8980000D01*
X76747333Y8913334D01*
X76780666Y8880000D01*
X76847333Y8846667D01*
X77114000Y8846667D01*
X76447333Y9146667D02*
X76414000Y9180000D01*
X76347333Y9213334D01*
X76180666Y9213334D01*
X76114000Y9180000D01*
X76080666Y9146667D01*
X76047333Y9080000D01*
X76047333Y9013334D01*
X76080666Y8913334D01*
X76480666Y8513334D01*
X76047333Y8513334D01*
X75447333Y9213334D02*
X75580666Y9213334D01*
X75647333Y9180000D01*
X75680666Y9146667D01*
X75747333Y9046667D01*
X75780666Y8913334D01*
X75780666Y8646667D01*
X75747333Y8580000D01*
X75714000Y8546667D01*
X75647333Y8513334D01*
X75514000Y8513334D01*
X75447333Y8546667D01*
X75414000Y8580000D01*
X75380666Y8646667D01*
X75380666Y8813334D01*
X75414000Y8880000D01*
X75447333Y8913334D01*
X75514000Y8946667D01*
X75647333Y8946667D01*
X75714000Y8913334D01*
X75747333Y8880000D01*
X75780666Y8813334D01*
G04 #@! TO.C,R25*
X76734000Y14033334D02*
X76967333Y14366667D01*
X77134000Y14033334D02*
X77134000Y14733334D01*
X76867333Y14733334D01*
X76800666Y14700000D01*
X76767333Y14666667D01*
X76734000Y14600000D01*
X76734000Y14500000D01*
X76767333Y14433334D01*
X76800666Y14400000D01*
X76867333Y14366667D01*
X77134000Y14366667D01*
X76467333Y14666667D02*
X76434000Y14700000D01*
X76367333Y14733334D01*
X76200666Y14733334D01*
X76134000Y14700000D01*
X76100666Y14666667D01*
X76067333Y14600000D01*
X76067333Y14533334D01*
X76100666Y14433334D01*
X76500666Y14033334D01*
X76067333Y14033334D01*
X75434000Y14733334D02*
X75767333Y14733334D01*
X75800666Y14400000D01*
X75767333Y14433334D01*
X75700666Y14466667D01*
X75534000Y14466667D01*
X75467333Y14433334D01*
X75434000Y14400000D01*
X75400666Y14333334D01*
X75400666Y14166667D01*
X75434000Y14100000D01*
X75467333Y14066667D01*
X75534000Y14033334D01*
X75700666Y14033334D01*
X75767333Y14066667D01*
X75800666Y14100000D01*
G04 #@! TO.C,R24*
X76700000Y12403334D02*
X76933333Y12736667D01*
X77100000Y12403334D02*
X77100000Y13103334D01*
X76833333Y13103334D01*
X76766666Y13070000D01*
X76733333Y13036667D01*
X76700000Y12970000D01*
X76700000Y12870000D01*
X76733333Y12803334D01*
X76766666Y12770000D01*
X76833333Y12736667D01*
X77100000Y12736667D01*
X76433333Y13036667D02*
X76400000Y13070000D01*
X76333333Y13103334D01*
X76166666Y13103334D01*
X76100000Y13070000D01*
X76066666Y13036667D01*
X76033333Y12970000D01*
X76033333Y12903334D01*
X76066666Y12803334D01*
X76466666Y12403334D01*
X76033333Y12403334D01*
X75433333Y12870000D02*
X75433333Y12403334D01*
X75600000Y13136667D02*
X75766666Y12636667D01*
X75333333Y12636667D01*
G04 #@! TO.C,R23*
X85274000Y10733334D02*
X85507333Y11066667D01*
X85674000Y10733334D02*
X85674000Y11433334D01*
X85407333Y11433334D01*
X85340666Y11400000D01*
X85307333Y11366667D01*
X85274000Y11300000D01*
X85274000Y11200000D01*
X85307333Y11133334D01*
X85340666Y11100000D01*
X85407333Y11066667D01*
X85674000Y11066667D01*
X85007333Y11366667D02*
X84974000Y11400000D01*
X84907333Y11433334D01*
X84740666Y11433334D01*
X84674000Y11400000D01*
X84640666Y11366667D01*
X84607333Y11300000D01*
X84607333Y11233334D01*
X84640666Y11133334D01*
X85040666Y10733334D01*
X84607333Y10733334D01*
X84374000Y11433334D02*
X83940666Y11433334D01*
X84174000Y11166667D01*
X84074000Y11166667D01*
X84007333Y11133334D01*
X83974000Y11100000D01*
X83940666Y11033334D01*
X83940666Y10866667D01*
X83974000Y10800000D01*
X84007333Y10766667D01*
X84074000Y10733334D01*
X84274000Y10733334D01*
X84340666Y10766667D01*
X84374000Y10800000D01*
G04 #@! TO.C,R22*
X85274000Y12433334D02*
X85507333Y12766667D01*
X85674000Y12433334D02*
X85674000Y13133334D01*
X85407333Y13133334D01*
X85340666Y13100000D01*
X85307333Y13066667D01*
X85274000Y13000000D01*
X85274000Y12900000D01*
X85307333Y12833334D01*
X85340666Y12800000D01*
X85407333Y12766667D01*
X85674000Y12766667D01*
X85007333Y13066667D02*
X84974000Y13100000D01*
X84907333Y13133334D01*
X84740666Y13133334D01*
X84674000Y13100000D01*
X84640666Y13066667D01*
X84607333Y13000000D01*
X84607333Y12933334D01*
X84640666Y12833334D01*
X85040666Y12433334D01*
X84607333Y12433334D01*
X84340666Y13066667D02*
X84307333Y13100000D01*
X84240666Y13133334D01*
X84074000Y13133334D01*
X84007333Y13100000D01*
X83974000Y13066667D01*
X83940666Y13000000D01*
X83940666Y12933334D01*
X83974000Y12833334D01*
X84374000Y12433334D01*
X83940666Y12433334D01*
G04 #@! TO.C,R21*
X85274000Y14033334D02*
X85507333Y14366667D01*
X85674000Y14033334D02*
X85674000Y14733334D01*
X85407333Y14733334D01*
X85340666Y14700000D01*
X85307333Y14666667D01*
X85274000Y14600000D01*
X85274000Y14500000D01*
X85307333Y14433334D01*
X85340666Y14400000D01*
X85407333Y14366667D01*
X85674000Y14366667D01*
X85007333Y14666667D02*
X84974000Y14700000D01*
X84907333Y14733334D01*
X84740666Y14733334D01*
X84674000Y14700000D01*
X84640666Y14666667D01*
X84607333Y14600000D01*
X84607333Y14533334D01*
X84640666Y14433334D01*
X85040666Y14033334D01*
X84607333Y14033334D01*
X83940666Y14033334D02*
X84340666Y14033334D01*
X84140666Y14033334D02*
X84140666Y14733334D01*
X84207333Y14633334D01*
X84274000Y14566667D01*
X84340666Y14533334D01*
G04 #@! TO.C,R20*
X85274000Y8645334D02*
X85507333Y8978667D01*
X85674000Y8645334D02*
X85674000Y9345334D01*
X85407333Y9345334D01*
X85340666Y9312000D01*
X85307333Y9278667D01*
X85274000Y9212000D01*
X85274000Y9112000D01*
X85307333Y9045334D01*
X85340666Y9012000D01*
X85407333Y8978667D01*
X85674000Y8978667D01*
X85007333Y9278667D02*
X84974000Y9312000D01*
X84907333Y9345334D01*
X84740666Y9345334D01*
X84674000Y9312000D01*
X84640666Y9278667D01*
X84607333Y9212000D01*
X84607333Y9145334D01*
X84640666Y9045334D01*
X85040666Y8645334D01*
X84607333Y8645334D01*
X84174000Y9345334D02*
X84107333Y9345334D01*
X84040666Y9312000D01*
X84007333Y9278667D01*
X83974000Y9212000D01*
X83940666Y9078667D01*
X83940666Y8912000D01*
X83974000Y8778667D01*
X84007333Y8712000D01*
X84040666Y8678667D01*
X84107333Y8645334D01*
X84174000Y8645334D01*
X84240666Y8678667D01*
X84274000Y8712000D01*
X84307333Y8778667D01*
X84340666Y8912000D01*
X84340666Y9078667D01*
X84307333Y9212000D01*
X84274000Y9278667D01*
X84240666Y9312000D01*
X84174000Y9345334D01*
G04 #@! TO.C,R19*
X84850000Y30933334D02*
X85083333Y31266667D01*
X85250000Y30933334D02*
X85250000Y31633334D01*
X84983333Y31633334D01*
X84916666Y31600000D01*
X84883333Y31566667D01*
X84850000Y31500000D01*
X84850000Y31400000D01*
X84883333Y31333334D01*
X84916666Y31300000D01*
X84983333Y31266667D01*
X85250000Y31266667D01*
X84183333Y30933334D02*
X84583333Y30933334D01*
X84383333Y30933334D02*
X84383333Y31633334D01*
X84450000Y31533334D01*
X84516666Y31466667D01*
X84583333Y31433334D01*
X83850000Y30933334D02*
X83716666Y30933334D01*
X83650000Y30966667D01*
X83616666Y31000000D01*
X83550000Y31100000D01*
X83516666Y31233334D01*
X83516666Y31500000D01*
X83550000Y31566667D01*
X83583333Y31600000D01*
X83650000Y31633334D01*
X83783333Y31633334D01*
X83850000Y31600000D01*
X83883333Y31566667D01*
X83916666Y31500000D01*
X83916666Y31333334D01*
X83883333Y31266667D01*
X83850000Y31233334D01*
X83783333Y31200000D01*
X83650000Y31200000D01*
X83583333Y31233334D01*
X83550000Y31266667D01*
X83516666Y31333334D01*
G04 #@! TO.C,R18*
X75090000Y15623334D02*
X75323333Y15956667D01*
X75490000Y15623334D02*
X75490000Y16323334D01*
X75223333Y16323334D01*
X75156666Y16290000D01*
X75123333Y16256667D01*
X75090000Y16190000D01*
X75090000Y16090000D01*
X75123333Y16023334D01*
X75156666Y15990000D01*
X75223333Y15956667D01*
X75490000Y15956667D01*
X74423333Y15623334D02*
X74823333Y15623334D01*
X74623333Y15623334D02*
X74623333Y16323334D01*
X74690000Y16223334D01*
X74756666Y16156667D01*
X74823333Y16123334D01*
X74023333Y16023334D02*
X74090000Y16056667D01*
X74123333Y16090000D01*
X74156666Y16156667D01*
X74156666Y16190000D01*
X74123333Y16256667D01*
X74090000Y16290000D01*
X74023333Y16323334D01*
X73890000Y16323334D01*
X73823333Y16290000D01*
X73790000Y16256667D01*
X73756666Y16190000D01*
X73756666Y16156667D01*
X73790000Y16090000D01*
X73823333Y16056667D01*
X73890000Y16023334D01*
X74023333Y16023334D01*
X74090000Y15990000D01*
X74123333Y15956667D01*
X74156666Y15890000D01*
X74156666Y15756667D01*
X74123333Y15690000D01*
X74090000Y15656667D01*
X74023333Y15623334D01*
X73890000Y15623334D01*
X73823333Y15656667D01*
X73790000Y15690000D01*
X73756666Y15756667D01*
X73756666Y15890000D01*
X73790000Y15956667D01*
X73823333Y15990000D01*
X73890000Y16023334D01*
G04 #@! TO.C,R17*
X75060000Y6813334D02*
X75293333Y7146667D01*
X75460000Y6813334D02*
X75460000Y7513334D01*
X75193333Y7513334D01*
X75126666Y7480000D01*
X75093333Y7446667D01*
X75060000Y7380000D01*
X75060000Y7280000D01*
X75093333Y7213334D01*
X75126666Y7180000D01*
X75193333Y7146667D01*
X75460000Y7146667D01*
X74393333Y6813334D02*
X74793333Y6813334D01*
X74593333Y6813334D02*
X74593333Y7513334D01*
X74660000Y7413334D01*
X74726666Y7346667D01*
X74793333Y7313334D01*
X74160000Y7513334D02*
X73693333Y7513334D01*
X73993333Y6813334D01*
G04 #@! TO.C,C5*
X96684000Y9446667D02*
X96717333Y9480000D01*
X96750666Y9580000D01*
X96750666Y9646667D01*
X96717333Y9746667D01*
X96650666Y9813334D01*
X96584000Y9846667D01*
X96450666Y9880000D01*
X96350666Y9880000D01*
X96217333Y9846667D01*
X96150666Y9813334D01*
X96084000Y9746667D01*
X96050666Y9646667D01*
X96050666Y9580000D01*
X96084000Y9480000D01*
X96117333Y9446667D01*
X96050666Y8813334D02*
X96050666Y9146667D01*
X96384000Y9180000D01*
X96350666Y9146667D01*
X96317333Y9080000D01*
X96317333Y8913334D01*
X96350666Y8846667D01*
X96384000Y8813334D01*
X96450666Y8780000D01*
X96617333Y8780000D01*
X96684000Y8813334D01*
X96717333Y8846667D01*
X96750666Y8913334D01*
X96750666Y9080000D01*
X96717333Y9146667D01*
X96684000Y9180000D01*
G04 #@! TO.C,C4*
X95084000Y9446667D02*
X95117333Y9480000D01*
X95150666Y9580000D01*
X95150666Y9646667D01*
X95117333Y9746667D01*
X95050666Y9813334D01*
X94984000Y9846667D01*
X94850666Y9880000D01*
X94750666Y9880000D01*
X94617333Y9846667D01*
X94550666Y9813334D01*
X94484000Y9746667D01*
X94450666Y9646667D01*
X94450666Y9580000D01*
X94484000Y9480000D01*
X94517333Y9446667D01*
X94684000Y8846667D02*
X95150666Y8846667D01*
X94417333Y9013334D02*
X94917333Y9180000D01*
X94917333Y8746667D01*
G04 #@! TO.C,C3*
X71706666Y14100000D02*
X71740000Y14066667D01*
X71840000Y14033334D01*
X71906666Y14033334D01*
X72006666Y14066667D01*
X72073333Y14133334D01*
X72106666Y14200000D01*
X72140000Y14333334D01*
X72140000Y14433334D01*
X72106666Y14566667D01*
X72073333Y14633334D01*
X72006666Y14700000D01*
X71906666Y14733334D01*
X71840000Y14733334D01*
X71740000Y14700000D01*
X71706666Y14666667D01*
X71473333Y14733334D02*
X71040000Y14733334D01*
X71273333Y14466667D01*
X71173333Y14466667D01*
X71106666Y14433334D01*
X71073333Y14400000D01*
X71040000Y14333334D01*
X71040000Y14166667D01*
X71073333Y14100000D01*
X71106666Y14066667D01*
X71173333Y14033334D01*
X71373333Y14033334D01*
X71440000Y14066667D01*
X71473333Y14100000D01*
G04 #@! TO.C,C2*
X97202666Y30704000D02*
X97236000Y30670667D01*
X97336000Y30637334D01*
X97402666Y30637334D01*
X97502666Y30670667D01*
X97569333Y30737334D01*
X97602666Y30804000D01*
X97636000Y30937334D01*
X97636000Y31037334D01*
X97602666Y31170667D01*
X97569333Y31237334D01*
X97502666Y31304000D01*
X97402666Y31337334D01*
X97336000Y31337334D01*
X97236000Y31304000D01*
X97202666Y31270667D01*
X96936000Y31270667D02*
X96902666Y31304000D01*
X96836000Y31337334D01*
X96669333Y31337334D01*
X96602666Y31304000D01*
X96569333Y31270667D01*
X96536000Y31204000D01*
X96536000Y31137334D01*
X96569333Y31037334D01*
X96969333Y30637334D01*
X96536000Y30637334D01*
G04 #@! TO.C,C1*
X97162666Y29054000D02*
X97196000Y29020667D01*
X97296000Y28987334D01*
X97362666Y28987334D01*
X97462666Y29020667D01*
X97529333Y29087334D01*
X97562666Y29154000D01*
X97596000Y29287334D01*
X97596000Y29387334D01*
X97562666Y29520667D01*
X97529333Y29587334D01*
X97462666Y29654000D01*
X97362666Y29687334D01*
X97296000Y29687334D01*
X97196000Y29654000D01*
X97162666Y29620667D01*
X96496000Y28987334D02*
X96896000Y28987334D01*
X96696000Y28987334D02*
X96696000Y29687334D01*
X96762666Y29587334D01*
X96829333Y29520667D01*
X96896000Y29487334D01*
G04 #@! TO.C,BT1*
D14*
X63928571Y37785715D02*
X63976190Y37642858D01*
X64023809Y37595239D01*
X64119047Y37547620D01*
X64261904Y37547620D01*
X64357142Y37595239D01*
X64404761Y37642858D01*
X64452380Y37738096D01*
X64452380Y38119048D01*
X63452380Y38119048D01*
X63452380Y37785715D01*
X63500000Y37690477D01*
X63547619Y37642858D01*
X63642857Y37595239D01*
X63738095Y37595239D01*
X63833333Y37642858D01*
X63880952Y37690477D01*
X63928571Y37785715D01*
X63928571Y38119048D01*
X63452380Y37261905D02*
X63452380Y36690477D01*
X64452380Y36976191D02*
X63452380Y36976191D01*
X64452380Y35833334D02*
X64452380Y36404762D01*
X64452380Y36119048D02*
X63452380Y36119048D01*
X63595238Y36214286D01*
X63690476Y36309524D01*
X63738095Y36404762D01*
X65542857Y31135715D02*
X63257142Y31135715D01*
X64400000Y29992858D02*
X64400000Y32278572D01*
G04 #@! TO.C,U6*
X118022380Y12061905D02*
X118831904Y12061905D01*
X118927142Y12014286D01*
X118974761Y11966667D01*
X119022380Y11871429D01*
X119022380Y11680953D01*
X118974761Y11585715D01*
X118927142Y11538096D01*
X118831904Y11490477D01*
X118022380Y11490477D01*
X118022380Y10585715D02*
X118022380Y10776191D01*
X118070000Y10871429D01*
X118117619Y10919048D01*
X118260476Y11014286D01*
X118450952Y11061905D01*
X118831904Y11061905D01*
X118927142Y11014286D01*
X118974761Y10966667D01*
X119022380Y10871429D01*
X119022380Y10680953D01*
X118974761Y10585715D01*
X118927142Y10538096D01*
X118831904Y10490477D01*
X118593809Y10490477D01*
X118498571Y10538096D01*
X118450952Y10585715D01*
X118403333Y10680953D01*
X118403333Y10871429D01*
X118450952Y10966667D01*
X118498571Y11014286D01*
X118593809Y11061905D01*
G04 #@! TO.C,U5*
X136662380Y12061905D02*
X137471904Y12061905D01*
X137567142Y12014286D01*
X137614761Y11966667D01*
X137662380Y11871429D01*
X137662380Y11680953D01*
X137614761Y11585715D01*
X137567142Y11538096D01*
X137471904Y11490477D01*
X136662380Y11490477D01*
X136662380Y10538096D02*
X136662380Y11014286D01*
X137138571Y11061905D01*
X137090952Y11014286D01*
X137043333Y10919048D01*
X137043333Y10680953D01*
X137090952Y10585715D01*
X137138571Y10538096D01*
X137233809Y10490477D01*
X137471904Y10490477D01*
X137567142Y10538096D01*
X137614761Y10585715D01*
X137662380Y10680953D01*
X137662380Y10919048D01*
X137614761Y11014286D01*
X137567142Y11061905D01*
G04 #@! TO.C,U4*
X155302380Y12061905D02*
X156111904Y12061905D01*
X156207142Y12014286D01*
X156254761Y11966667D01*
X156302380Y11871429D01*
X156302380Y11680953D01*
X156254761Y11585715D01*
X156207142Y11538096D01*
X156111904Y11490477D01*
X155302380Y11490477D01*
X155635714Y10585715D02*
X156302380Y10585715D01*
X155254761Y10823810D02*
X155969047Y11061905D01*
X155969047Y10442858D01*
G04 #@! TO.C,U3*
X173942380Y12061905D02*
X174751904Y12061905D01*
X174847142Y12014286D01*
X174894761Y11966667D01*
X174942380Y11871429D01*
X174942380Y11680953D01*
X174894761Y11585715D01*
X174847142Y11538096D01*
X174751904Y11490477D01*
X173942380Y11490477D01*
X173942380Y11109524D02*
X173942380Y10490477D01*
X174323333Y10823810D01*
X174323333Y10680953D01*
X174370952Y10585715D01*
X174418571Y10538096D01*
X174513809Y10490477D01*
X174751904Y10490477D01*
X174847142Y10538096D01*
X174894761Y10585715D01*
X174942380Y10680953D01*
X174942380Y10966667D01*
X174894761Y11061905D01*
X174847142Y11109524D01*
G04 #@! TO.C,U2*
X192582380Y12061905D02*
X193391904Y12061905D01*
X193487142Y12014286D01*
X193534761Y11966667D01*
X193582380Y11871429D01*
X193582380Y11680953D01*
X193534761Y11585715D01*
X193487142Y11538096D01*
X193391904Y11490477D01*
X192582380Y11490477D01*
X192677619Y11061905D02*
X192630000Y11014286D01*
X192582380Y10919048D01*
X192582380Y10680953D01*
X192630000Y10585715D01*
X192677619Y10538096D01*
X192772857Y10490477D01*
X192868095Y10490477D01*
X193010952Y10538096D01*
X193582380Y11109524D01*
X193582380Y10490477D01*
G04 #@! TD*
M02*
