G04 #@! TF.GenerationSoftware,KiCad,Pcbnew,(5.1.12)-1*
G04 #@! TF.CreationDate,2022-05-10T22:26:18-07:00*
G04 #@! TF.ProjectId,Spring2022,53707269-6e67-4323-9032-322e6b696361,rev?*
G04 #@! TF.SameCoordinates,PX3a2c940PY3fe56c0*
G04 #@! TF.FileFunction,Soldermask,Bot*
G04 #@! TF.FilePolarity,Negative*
%FSLAX46Y46*%
G04 Gerber Fmt 4.6, Leading zero omitted, Abs format (unit mm)*
G04 Created by KiCad (PCBNEW (5.1.12)-1) date 2022-05-10 22:26:18*
%MOMM*%
%LPD*%
G01*
G04 APERTURE LIST*
%ADD10R,0.381000X0.355600*%
%ADD11R,0.355600X0.381000*%
%ADD12R,0.300000X0.500000*%
%ADD13R,1.070000X1.500000*%
%ADD14O,1.070000X1.500000*%
%ADD15C,1.524000*%
%ADD16C,1.500000*%
%ADD17R,1.200000X2.000000*%
%ADD18C,1.250000*%
%ADD19C,3.450000*%
%ADD20C,3.000000*%
%ADD21R,3.000000X3.000000*%
%ADD22O,1.200000X2.000000*%
%ADD23R,1.070000X1.800000*%
%ADD24O,1.070000X1.800000*%
G04 APERTURE END LIST*
D10*
G04 #@! TO.C,U12*
X90583100Y11479999D03*
X90583100Y11980000D03*
X90583100Y12480000D03*
X90583100Y12980001D03*
D11*
X91184000Y13080900D03*
X91684000Y13080900D03*
D10*
X92284900Y12980001D03*
X92284900Y12480000D03*
X92284900Y11980000D03*
X92284900Y11479999D03*
D11*
X91684000Y11379100D03*
X91184000Y11379100D03*
G04 #@! TD*
G04 #@! TO.C,U7*
G36*
G01*
X101447500Y8850000D02*
X101722500Y8850000D01*
G75*
G02*
X101860000Y8712500I0J-137500D01*
G01*
X101860000Y7387500D01*
G75*
G02*
X101722500Y7250000I-137500J0D01*
G01*
X101447500Y7250000D01*
G75*
G02*
X101310000Y7387500I0J137500D01*
G01*
X101310000Y8712500D01*
G75*
G02*
X101447500Y8850000I137500J0D01*
G01*
G37*
G36*
G01*
X102717500Y8850000D02*
X102992500Y8850000D01*
G75*
G02*
X103130000Y8712500I0J-137500D01*
G01*
X103130000Y7387500D01*
G75*
G02*
X102992500Y7250000I-137500J0D01*
G01*
X102717500Y7250000D01*
G75*
G02*
X102580000Y7387500I0J137500D01*
G01*
X102580000Y8712500D01*
G75*
G02*
X102717500Y8850000I137500J0D01*
G01*
G37*
G36*
G01*
X103987500Y8850000D02*
X104262500Y8850000D01*
G75*
G02*
X104400000Y8712500I0J-137500D01*
G01*
X104400000Y7387500D01*
G75*
G02*
X104262500Y7250000I-137500J0D01*
G01*
X103987500Y7250000D01*
G75*
G02*
X103850000Y7387500I0J137500D01*
G01*
X103850000Y8712500D01*
G75*
G02*
X103987500Y8850000I137500J0D01*
G01*
G37*
G36*
G01*
X105257500Y8850000D02*
X105532500Y8850000D01*
G75*
G02*
X105670000Y8712500I0J-137500D01*
G01*
X105670000Y7387500D01*
G75*
G02*
X105532500Y7250000I-137500J0D01*
G01*
X105257500Y7250000D01*
G75*
G02*
X105120000Y7387500I0J137500D01*
G01*
X105120000Y8712500D01*
G75*
G02*
X105257500Y8850000I137500J0D01*
G01*
G37*
G36*
G01*
X106527500Y8850000D02*
X106802500Y8850000D01*
G75*
G02*
X106940000Y8712500I0J-137500D01*
G01*
X106940000Y7387500D01*
G75*
G02*
X106802500Y7250000I-137500J0D01*
G01*
X106527500Y7250000D01*
G75*
G02*
X106390000Y7387500I0J137500D01*
G01*
X106390000Y8712500D01*
G75*
G02*
X106527500Y8850000I137500J0D01*
G01*
G37*
G36*
G01*
X107797500Y8850000D02*
X108072500Y8850000D01*
G75*
G02*
X108210000Y8712500I0J-137500D01*
G01*
X108210000Y7387500D01*
G75*
G02*
X108072500Y7250000I-137500J0D01*
G01*
X107797500Y7250000D01*
G75*
G02*
X107660000Y7387500I0J137500D01*
G01*
X107660000Y8712500D01*
G75*
G02*
X107797500Y8850000I137500J0D01*
G01*
G37*
G36*
G01*
X109067500Y8850000D02*
X109342500Y8850000D01*
G75*
G02*
X109480000Y8712500I0J-137500D01*
G01*
X109480000Y7387500D01*
G75*
G02*
X109342500Y7250000I-137500J0D01*
G01*
X109067500Y7250000D01*
G75*
G02*
X108930000Y7387500I0J137500D01*
G01*
X108930000Y8712500D01*
G75*
G02*
X109067500Y8850000I137500J0D01*
G01*
G37*
G36*
G01*
X110337500Y8850000D02*
X110612500Y8850000D01*
G75*
G02*
X110750000Y8712500I0J-137500D01*
G01*
X110750000Y7387500D01*
G75*
G02*
X110612500Y7250000I-137500J0D01*
G01*
X110337500Y7250000D01*
G75*
G02*
X110200000Y7387500I0J137500D01*
G01*
X110200000Y8712500D01*
G75*
G02*
X110337500Y8850000I137500J0D01*
G01*
G37*
G36*
G01*
X110337500Y15350000D02*
X110612500Y15350000D01*
G75*
G02*
X110750000Y15212500I0J-137500D01*
G01*
X110750000Y13887500D01*
G75*
G02*
X110612500Y13750000I-137500J0D01*
G01*
X110337500Y13750000D01*
G75*
G02*
X110200000Y13887500I0J137500D01*
G01*
X110200000Y15212500D01*
G75*
G02*
X110337500Y15350000I137500J0D01*
G01*
G37*
G36*
G01*
X109067500Y15350000D02*
X109342500Y15350000D01*
G75*
G02*
X109480000Y15212500I0J-137500D01*
G01*
X109480000Y13887500D01*
G75*
G02*
X109342500Y13750000I-137500J0D01*
G01*
X109067500Y13750000D01*
G75*
G02*
X108930000Y13887500I0J137500D01*
G01*
X108930000Y15212500D01*
G75*
G02*
X109067500Y15350000I137500J0D01*
G01*
G37*
G36*
G01*
X107797500Y15350000D02*
X108072500Y15350000D01*
G75*
G02*
X108210000Y15212500I0J-137500D01*
G01*
X108210000Y13887500D01*
G75*
G02*
X108072500Y13750000I-137500J0D01*
G01*
X107797500Y13750000D01*
G75*
G02*
X107660000Y13887500I0J137500D01*
G01*
X107660000Y15212500D01*
G75*
G02*
X107797500Y15350000I137500J0D01*
G01*
G37*
G36*
G01*
X106527500Y15350000D02*
X106802500Y15350000D01*
G75*
G02*
X106940000Y15212500I0J-137500D01*
G01*
X106940000Y13887500D01*
G75*
G02*
X106802500Y13750000I-137500J0D01*
G01*
X106527500Y13750000D01*
G75*
G02*
X106390000Y13887500I0J137500D01*
G01*
X106390000Y15212500D01*
G75*
G02*
X106527500Y15350000I137500J0D01*
G01*
G37*
G36*
G01*
X105257500Y15350000D02*
X105532500Y15350000D01*
G75*
G02*
X105670000Y15212500I0J-137500D01*
G01*
X105670000Y13887500D01*
G75*
G02*
X105532500Y13750000I-137500J0D01*
G01*
X105257500Y13750000D01*
G75*
G02*
X105120000Y13887500I0J137500D01*
G01*
X105120000Y15212500D01*
G75*
G02*
X105257500Y15350000I137500J0D01*
G01*
G37*
G36*
G01*
X103987500Y15350000D02*
X104262500Y15350000D01*
G75*
G02*
X104400000Y15212500I0J-137500D01*
G01*
X104400000Y13887500D01*
G75*
G02*
X104262500Y13750000I-137500J0D01*
G01*
X103987500Y13750000D01*
G75*
G02*
X103850000Y13887500I0J137500D01*
G01*
X103850000Y15212500D01*
G75*
G02*
X103987500Y15350000I137500J0D01*
G01*
G37*
G36*
G01*
X102717500Y15350000D02*
X102992500Y15350000D01*
G75*
G02*
X103130000Y15212500I0J-137500D01*
G01*
X103130000Y13887500D01*
G75*
G02*
X102992500Y13750000I-137500J0D01*
G01*
X102717500Y13750000D01*
G75*
G02*
X102580000Y13887500I0J137500D01*
G01*
X102580000Y15212500D01*
G75*
G02*
X102717500Y15350000I137500J0D01*
G01*
G37*
G36*
G01*
X101447500Y15350000D02*
X101722500Y15350000D01*
G75*
G02*
X101860000Y15212500I0J-137500D01*
G01*
X101860000Y13887500D01*
G75*
G02*
X101722500Y13750000I-137500J0D01*
G01*
X101447500Y13750000D01*
G75*
G02*
X101310000Y13887500I0J137500D01*
G01*
X101310000Y15212500D01*
G75*
G02*
X101447500Y15350000I137500J0D01*
G01*
G37*
G04 #@! TD*
G04 #@! TO.C,R30*
G36*
G01*
X82419000Y10775000D02*
X82419000Y11325000D01*
G75*
G02*
X82619000Y11525000I200000J0D01*
G01*
X83019000Y11525000D01*
G75*
G02*
X83219000Y11325000I0J-200000D01*
G01*
X83219000Y10775000D01*
G75*
G02*
X83019000Y10575000I-200000J0D01*
G01*
X82619000Y10575000D01*
G75*
G02*
X82419000Y10775000I0J200000D01*
G01*
G37*
G36*
G01*
X80769000Y10775000D02*
X80769000Y11325000D01*
G75*
G02*
X80969000Y11525000I200000J0D01*
G01*
X81369000Y11525000D01*
G75*
G02*
X81569000Y11325000I0J-200000D01*
G01*
X81569000Y10775000D01*
G75*
G02*
X81369000Y10575000I-200000J0D01*
G01*
X80969000Y10575000D01*
G75*
G02*
X80769000Y10775000I0J200000D01*
G01*
G37*
G04 #@! TD*
D12*
G04 #@! TO.C,U11*
X69584000Y11450000D03*
X68784000Y11450000D03*
X68784000Y12850000D03*
X69584000Y12850000D03*
G04 #@! TD*
D13*
G04 #@! TO.C,U10*
X93716000Y33744000D03*
D14*
X96256000Y33744000D03*
X94986000Y33744000D03*
G04 #@! TD*
D15*
G04 #@! TO.C,U8*
X74040000Y33100000D03*
X68960000Y33100000D03*
X71500000Y33100000D03*
G04 #@! TD*
G04 #@! TO.C,R29*
G36*
G01*
X92209000Y7805000D02*
X92209000Y7255000D01*
G75*
G02*
X92009000Y7055000I-200000J0D01*
G01*
X91609000Y7055000D01*
G75*
G02*
X91409000Y7255000I0J200000D01*
G01*
X91409000Y7805000D01*
G75*
G02*
X91609000Y8005000I200000J0D01*
G01*
X92009000Y8005000D01*
G75*
G02*
X92209000Y7805000I0J-200000D01*
G01*
G37*
G36*
G01*
X93859000Y7805000D02*
X93859000Y7255000D01*
G75*
G02*
X93659000Y7055000I-200000J0D01*
G01*
X93259000Y7055000D01*
G75*
G02*
X93059000Y7255000I0J200000D01*
G01*
X93059000Y7805000D01*
G75*
G02*
X93259000Y8005000I200000J0D01*
G01*
X93659000Y8005000D01*
G75*
G02*
X93859000Y7805000I0J-200000D01*
G01*
G37*
G04 #@! TD*
G04 #@! TO.C,R28*
G36*
G01*
X92209000Y6005000D02*
X92209000Y5455000D01*
G75*
G02*
X92009000Y5255000I-200000J0D01*
G01*
X91609000Y5255000D01*
G75*
G02*
X91409000Y5455000I0J200000D01*
G01*
X91409000Y6005000D01*
G75*
G02*
X91609000Y6205000I200000J0D01*
G01*
X92009000Y6205000D01*
G75*
G02*
X92209000Y6005000I0J-200000D01*
G01*
G37*
G36*
G01*
X93859000Y6005000D02*
X93859000Y5455000D01*
G75*
G02*
X93659000Y5255000I-200000J0D01*
G01*
X93259000Y5255000D01*
G75*
G02*
X93059000Y5455000I0J200000D01*
G01*
X93059000Y6005000D01*
G75*
G02*
X93259000Y6205000I200000J0D01*
G01*
X93659000Y6205000D01*
G75*
G02*
X93859000Y6005000I0J-200000D01*
G01*
G37*
G04 #@! TD*
G04 #@! TO.C,R27*
G36*
G01*
X79209000Y10775000D02*
X79209000Y11325000D01*
G75*
G02*
X79409000Y11525000I200000J0D01*
G01*
X79809000Y11525000D01*
G75*
G02*
X80009000Y11325000I0J-200000D01*
G01*
X80009000Y10775000D01*
G75*
G02*
X79809000Y10575000I-200000J0D01*
G01*
X79409000Y10575000D01*
G75*
G02*
X79209000Y10775000I0J200000D01*
G01*
G37*
G36*
G01*
X77559000Y10775000D02*
X77559000Y11325000D01*
G75*
G02*
X77759000Y11525000I200000J0D01*
G01*
X78159000Y11525000D01*
G75*
G02*
X78359000Y11325000I0J-200000D01*
G01*
X78359000Y10775000D01*
G75*
G02*
X78159000Y10575000I-200000J0D01*
G01*
X77759000Y10575000D01*
G75*
G02*
X77559000Y10775000I0J200000D01*
G01*
G37*
G04 #@! TD*
G04 #@! TO.C,R26*
G36*
G01*
X79189000Y8555000D02*
X79189000Y9105000D01*
G75*
G02*
X79389000Y9305000I200000J0D01*
G01*
X79789000Y9305000D01*
G75*
G02*
X79989000Y9105000I0J-200000D01*
G01*
X79989000Y8555000D01*
G75*
G02*
X79789000Y8355000I-200000J0D01*
G01*
X79389000Y8355000D01*
G75*
G02*
X79189000Y8555000I0J200000D01*
G01*
G37*
G36*
G01*
X77539000Y8555000D02*
X77539000Y9105000D01*
G75*
G02*
X77739000Y9305000I200000J0D01*
G01*
X78139000Y9305000D01*
G75*
G02*
X78339000Y9105000I0J-200000D01*
G01*
X78339000Y8555000D01*
G75*
G02*
X78139000Y8355000I-200000J0D01*
G01*
X77739000Y8355000D01*
G75*
G02*
X77539000Y8555000I0J200000D01*
G01*
G37*
G04 #@! TD*
G04 #@! TO.C,R25*
G36*
G01*
X79209000Y14175000D02*
X79209000Y14725000D01*
G75*
G02*
X79409000Y14925000I200000J0D01*
G01*
X79809000Y14925000D01*
G75*
G02*
X80009000Y14725000I0J-200000D01*
G01*
X80009000Y14175000D01*
G75*
G02*
X79809000Y13975000I-200000J0D01*
G01*
X79409000Y13975000D01*
G75*
G02*
X79209000Y14175000I0J200000D01*
G01*
G37*
G36*
G01*
X77559000Y14175000D02*
X77559000Y14725000D01*
G75*
G02*
X77759000Y14925000I200000J0D01*
G01*
X78159000Y14925000D01*
G75*
G02*
X78359000Y14725000I0J-200000D01*
G01*
X78359000Y14175000D01*
G75*
G02*
X78159000Y13975000I-200000J0D01*
G01*
X77759000Y13975000D01*
G75*
G02*
X77559000Y14175000I0J200000D01*
G01*
G37*
G04 #@! TD*
G04 #@! TO.C,R24*
G36*
G01*
X78359000Y13025000D02*
X78359000Y12475000D01*
G75*
G02*
X78159000Y12275000I-200000J0D01*
G01*
X77759000Y12275000D01*
G75*
G02*
X77559000Y12475000I0J200000D01*
G01*
X77559000Y13025000D01*
G75*
G02*
X77759000Y13225000I200000J0D01*
G01*
X78159000Y13225000D01*
G75*
G02*
X78359000Y13025000I0J-200000D01*
G01*
G37*
G36*
G01*
X80009000Y13025000D02*
X80009000Y12475000D01*
G75*
G02*
X79809000Y12275000I-200000J0D01*
G01*
X79409000Y12275000D01*
G75*
G02*
X79209000Y12475000I0J200000D01*
G01*
X79209000Y13025000D01*
G75*
G02*
X79409000Y13225000I200000J0D01*
G01*
X79809000Y13225000D01*
G75*
G02*
X80009000Y13025000I0J-200000D01*
G01*
G37*
G04 #@! TD*
G04 #@! TO.C,R23*
G36*
G01*
X87749000Y10775000D02*
X87749000Y11325000D01*
G75*
G02*
X87949000Y11525000I200000J0D01*
G01*
X88349000Y11525000D01*
G75*
G02*
X88549000Y11325000I0J-200000D01*
G01*
X88549000Y10775000D01*
G75*
G02*
X88349000Y10575000I-200000J0D01*
G01*
X87949000Y10575000D01*
G75*
G02*
X87749000Y10775000I0J200000D01*
G01*
G37*
G36*
G01*
X86099000Y10775000D02*
X86099000Y11325000D01*
G75*
G02*
X86299000Y11525000I200000J0D01*
G01*
X86699000Y11525000D01*
G75*
G02*
X86899000Y11325000I0J-200000D01*
G01*
X86899000Y10775000D01*
G75*
G02*
X86699000Y10575000I-200000J0D01*
G01*
X86299000Y10575000D01*
G75*
G02*
X86099000Y10775000I0J200000D01*
G01*
G37*
G04 #@! TD*
G04 #@! TO.C,R22*
G36*
G01*
X87749000Y12475000D02*
X87749000Y13025000D01*
G75*
G02*
X87949000Y13225000I200000J0D01*
G01*
X88349000Y13225000D01*
G75*
G02*
X88549000Y13025000I0J-200000D01*
G01*
X88549000Y12475000D01*
G75*
G02*
X88349000Y12275000I-200000J0D01*
G01*
X87949000Y12275000D01*
G75*
G02*
X87749000Y12475000I0J200000D01*
G01*
G37*
G36*
G01*
X86099000Y12475000D02*
X86099000Y13025000D01*
G75*
G02*
X86299000Y13225000I200000J0D01*
G01*
X86699000Y13225000D01*
G75*
G02*
X86899000Y13025000I0J-200000D01*
G01*
X86899000Y12475000D01*
G75*
G02*
X86699000Y12275000I-200000J0D01*
G01*
X86299000Y12275000D01*
G75*
G02*
X86099000Y12475000I0J200000D01*
G01*
G37*
G04 #@! TD*
G04 #@! TO.C,R21*
G36*
G01*
X87749000Y14175000D02*
X87749000Y14725000D01*
G75*
G02*
X87949000Y14925000I200000J0D01*
G01*
X88349000Y14925000D01*
G75*
G02*
X88549000Y14725000I0J-200000D01*
G01*
X88549000Y14175000D01*
G75*
G02*
X88349000Y13975000I-200000J0D01*
G01*
X87949000Y13975000D01*
G75*
G02*
X87749000Y14175000I0J200000D01*
G01*
G37*
G36*
G01*
X86099000Y14175000D02*
X86099000Y14725000D01*
G75*
G02*
X86299000Y14925000I200000J0D01*
G01*
X86699000Y14925000D01*
G75*
G02*
X86899000Y14725000I0J-200000D01*
G01*
X86899000Y14175000D01*
G75*
G02*
X86699000Y13975000I-200000J0D01*
G01*
X86299000Y13975000D01*
G75*
G02*
X86099000Y14175000I0J200000D01*
G01*
G37*
G04 #@! TD*
G04 #@! TO.C,R20*
G36*
G01*
X87749000Y8687000D02*
X87749000Y9237000D01*
G75*
G02*
X87949000Y9437000I200000J0D01*
G01*
X88349000Y9437000D01*
G75*
G02*
X88549000Y9237000I0J-200000D01*
G01*
X88549000Y8687000D01*
G75*
G02*
X88349000Y8487000I-200000J0D01*
G01*
X87949000Y8487000D01*
G75*
G02*
X87749000Y8687000I0J200000D01*
G01*
G37*
G36*
G01*
X86099000Y8687000D02*
X86099000Y9237000D01*
G75*
G02*
X86299000Y9437000I200000J0D01*
G01*
X86699000Y9437000D01*
G75*
G02*
X86899000Y9237000I0J-200000D01*
G01*
X86899000Y8687000D01*
G75*
G02*
X86699000Y8487000I-200000J0D01*
G01*
X86299000Y8487000D01*
G75*
G02*
X86099000Y8687000I0J200000D01*
G01*
G37*
G04 #@! TD*
G04 #@! TO.C,R19*
G36*
G01*
X83975000Y30375000D02*
X83975000Y29825000D01*
G75*
G02*
X83775000Y29625000I-200000J0D01*
G01*
X83375000Y29625000D01*
G75*
G02*
X83175000Y29825000I0J200000D01*
G01*
X83175000Y30375000D01*
G75*
G02*
X83375000Y30575000I200000J0D01*
G01*
X83775000Y30575000D01*
G75*
G02*
X83975000Y30375000I0J-200000D01*
G01*
G37*
G36*
G01*
X85625000Y30375000D02*
X85625000Y29825000D01*
G75*
G02*
X85425000Y29625000I-200000J0D01*
G01*
X85025000Y29625000D01*
G75*
G02*
X84825000Y29825000I0J200000D01*
G01*
X84825000Y30375000D01*
G75*
G02*
X85025000Y30575000I200000J0D01*
G01*
X85425000Y30575000D01*
G75*
G02*
X85625000Y30375000I0J-200000D01*
G01*
G37*
G04 #@! TD*
G04 #@! TO.C,R18*
G36*
G01*
X77565000Y15765000D02*
X77565000Y16315000D01*
G75*
G02*
X77765000Y16515000I200000J0D01*
G01*
X78165000Y16515000D01*
G75*
G02*
X78365000Y16315000I0J-200000D01*
G01*
X78365000Y15765000D01*
G75*
G02*
X78165000Y15565000I-200000J0D01*
G01*
X77765000Y15565000D01*
G75*
G02*
X77565000Y15765000I0J200000D01*
G01*
G37*
G36*
G01*
X75915000Y15765000D02*
X75915000Y16315000D01*
G75*
G02*
X76115000Y16515000I200000J0D01*
G01*
X76515000Y16515000D01*
G75*
G02*
X76715000Y16315000I0J-200000D01*
G01*
X76715000Y15765000D01*
G75*
G02*
X76515000Y15565000I-200000J0D01*
G01*
X76115000Y15565000D01*
G75*
G02*
X75915000Y15765000I0J200000D01*
G01*
G37*
G04 #@! TD*
G04 #@! TO.C,R17*
G36*
G01*
X77535000Y6955000D02*
X77535000Y7505000D01*
G75*
G02*
X77735000Y7705000I200000J0D01*
G01*
X78135000Y7705000D01*
G75*
G02*
X78335000Y7505000I0J-200000D01*
G01*
X78335000Y6955000D01*
G75*
G02*
X78135000Y6755000I-200000J0D01*
G01*
X77735000Y6755000D01*
G75*
G02*
X77535000Y6955000I0J200000D01*
G01*
G37*
G36*
G01*
X75885000Y6955000D02*
X75885000Y7505000D01*
G75*
G02*
X76085000Y7705000I200000J0D01*
G01*
X76485000Y7705000D01*
G75*
G02*
X76685000Y7505000I0J-200000D01*
G01*
X76685000Y6955000D01*
G75*
G02*
X76485000Y6755000I-200000J0D01*
G01*
X76085000Y6755000D01*
G75*
G02*
X75885000Y6955000I0J200000D01*
G01*
G37*
G04 #@! TD*
D16*
G04 #@! TO.C,LED11*
X85570000Y33600000D03*
D17*
X83030000Y33600000D03*
G04 #@! TD*
G04 #@! TO.C,C5*
G36*
G01*
X96671500Y10330000D02*
X96196500Y10330000D01*
G75*
G02*
X95959000Y10567500I0J237500D01*
G01*
X95959000Y11142500D01*
G75*
G02*
X96196500Y11380000I237500J0D01*
G01*
X96671500Y11380000D01*
G75*
G02*
X96909000Y11142500I0J-237500D01*
G01*
X96909000Y10567500D01*
G75*
G02*
X96671500Y10330000I-237500J0D01*
G01*
G37*
G36*
G01*
X96671500Y12080000D02*
X96196500Y12080000D01*
G75*
G02*
X95959000Y12317500I0J237500D01*
G01*
X95959000Y12892500D01*
G75*
G02*
X96196500Y13130000I237500J0D01*
G01*
X96671500Y13130000D01*
G75*
G02*
X96909000Y12892500I0J-237500D01*
G01*
X96909000Y12317500D01*
G75*
G02*
X96671500Y12080000I-237500J0D01*
G01*
G37*
G04 #@! TD*
G04 #@! TO.C,C4*
G36*
G01*
X95071500Y10355000D02*
X94596500Y10355000D01*
G75*
G02*
X94359000Y10592500I0J237500D01*
G01*
X94359000Y11167500D01*
G75*
G02*
X94596500Y11405000I237500J0D01*
G01*
X95071500Y11405000D01*
G75*
G02*
X95309000Y11167500I0J-237500D01*
G01*
X95309000Y10592500D01*
G75*
G02*
X95071500Y10355000I-237500J0D01*
G01*
G37*
G36*
G01*
X95071500Y12105000D02*
X94596500Y12105000D01*
G75*
G02*
X94359000Y12342500I0J237500D01*
G01*
X94359000Y12917500D01*
G75*
G02*
X94596500Y13155000I237500J0D01*
G01*
X95071500Y13155000D01*
G75*
G02*
X95309000Y12917500I0J-237500D01*
G01*
X95309000Y12342500D01*
G75*
G02*
X95071500Y12105000I-237500J0D01*
G01*
G37*
G04 #@! TD*
G04 #@! TO.C,C3*
G36*
G01*
X67780000Y14172500D02*
X67780000Y14647500D01*
G75*
G02*
X68017500Y14885000I237500J0D01*
G01*
X68592500Y14885000D01*
G75*
G02*
X68830000Y14647500I0J-237500D01*
G01*
X68830000Y14172500D01*
G75*
G02*
X68592500Y13935000I-237500J0D01*
G01*
X68017500Y13935000D01*
G75*
G02*
X67780000Y14172500I0J237500D01*
G01*
G37*
G36*
G01*
X69530000Y14172500D02*
X69530000Y14647500D01*
G75*
G02*
X69767500Y14885000I237500J0D01*
G01*
X70342500Y14885000D01*
G75*
G02*
X70580000Y14647500I0J-237500D01*
G01*
X70580000Y14172500D01*
G75*
G02*
X70342500Y13935000I-237500J0D01*
G01*
X69767500Y13935000D01*
G75*
G02*
X69530000Y14172500I0J237500D01*
G01*
G37*
G04 #@! TD*
G04 #@! TO.C,C2*
G36*
G01*
X93396000Y30746500D02*
X93396000Y31221500D01*
G75*
G02*
X93633500Y31459000I237500J0D01*
G01*
X94208500Y31459000D01*
G75*
G02*
X94446000Y31221500I0J-237500D01*
G01*
X94446000Y30746500D01*
G75*
G02*
X94208500Y30509000I-237500J0D01*
G01*
X93633500Y30509000D01*
G75*
G02*
X93396000Y30746500I0J237500D01*
G01*
G37*
G36*
G01*
X95146000Y30746500D02*
X95146000Y31221500D01*
G75*
G02*
X95383500Y31459000I237500J0D01*
G01*
X95958500Y31459000D01*
G75*
G02*
X96196000Y31221500I0J-237500D01*
G01*
X96196000Y30746500D01*
G75*
G02*
X95958500Y30509000I-237500J0D01*
G01*
X95383500Y30509000D01*
G75*
G02*
X95146000Y30746500I0J237500D01*
G01*
G37*
G04 #@! TD*
G04 #@! TO.C,C1*
G36*
G01*
X93376000Y29056500D02*
X93376000Y29531500D01*
G75*
G02*
X93613500Y29769000I237500J0D01*
G01*
X94188500Y29769000D01*
G75*
G02*
X94426000Y29531500I0J-237500D01*
G01*
X94426000Y29056500D01*
G75*
G02*
X94188500Y28819000I-237500J0D01*
G01*
X93613500Y28819000D01*
G75*
G02*
X93376000Y29056500I0J237500D01*
G01*
G37*
G36*
G01*
X95126000Y29056500D02*
X95126000Y29531500D01*
G75*
G02*
X95363500Y29769000I237500J0D01*
G01*
X95938500Y29769000D01*
G75*
G02*
X96176000Y29531500I0J-237500D01*
G01*
X96176000Y29056500D01*
G75*
G02*
X95938500Y28819000I-237500J0D01*
G01*
X95363500Y28819000D01*
G75*
G02*
X95126000Y29056500I0J237500D01*
G01*
G37*
G04 #@! TD*
D18*
G04 #@! TO.C,R16*
X104539200Y25216000D03*
X104539200Y35216000D03*
G04 #@! TD*
G04 #@! TO.C,R15*
X111067000Y25216000D03*
X111067000Y35216000D03*
G04 #@! TD*
G04 #@! TO.C,R14*
X117544000Y25216000D03*
X117544000Y35216000D03*
G04 #@! TD*
G04 #@! TO.C,R13*
X124046400Y25216000D03*
X124046400Y35216000D03*
G04 #@! TD*
G04 #@! TO.C,R12*
X130574200Y25216000D03*
X130574200Y35216000D03*
G04 #@! TD*
G04 #@! TO.C,R11*
X137076600Y25216000D03*
X137076600Y35216000D03*
G04 #@! TD*
G04 #@! TO.C,R10*
X143579000Y25216000D03*
X143579000Y35216000D03*
G04 #@! TD*
G04 #@! TO.C,R9*
X150081400Y25216000D03*
X150081400Y35216000D03*
G04 #@! TD*
G04 #@! TO.C,R8*
X156558400Y25216000D03*
X156558400Y35216000D03*
G04 #@! TD*
G04 #@! TO.C,R7*
X163060800Y25216000D03*
X163060800Y35216000D03*
G04 #@! TD*
G04 #@! TO.C,R6*
X169563200Y25216000D03*
X169563200Y35216000D03*
G04 #@! TD*
G04 #@! TO.C,R5*
X176040200Y25216000D03*
X176040200Y35216000D03*
G04 #@! TD*
G04 #@! TO.C,R4*
X182568000Y25216000D03*
X182568000Y35216000D03*
G04 #@! TD*
G04 #@! TO.C,R3*
X189070400Y25216000D03*
X189070400Y35216000D03*
G04 #@! TD*
G04 #@! TO.C,R2*
X195572800Y25216000D03*
X195572800Y35216000D03*
G04 #@! TD*
G04 #@! TO.C,R1*
X202075200Y25216000D03*
X202075200Y35216000D03*
G04 #@! TD*
D19*
G04 #@! TO.C,BT1*
X36180000Y7900000D03*
X36180000Y31400000D03*
D20*
X59900000Y18700000D03*
D21*
X59900000Y31400000D03*
G04 #@! TD*
G04 #@! TO.C,U6*
G36*
G01*
X120087500Y8850000D02*
X120362500Y8850000D01*
G75*
G02*
X120500000Y8712500I0J-137500D01*
G01*
X120500000Y7387500D01*
G75*
G02*
X120362500Y7250000I-137500J0D01*
G01*
X120087500Y7250000D01*
G75*
G02*
X119950000Y7387500I0J137500D01*
G01*
X119950000Y8712500D01*
G75*
G02*
X120087500Y8850000I137500J0D01*
G01*
G37*
G36*
G01*
X121357500Y8850000D02*
X121632500Y8850000D01*
G75*
G02*
X121770000Y8712500I0J-137500D01*
G01*
X121770000Y7387500D01*
G75*
G02*
X121632500Y7250000I-137500J0D01*
G01*
X121357500Y7250000D01*
G75*
G02*
X121220000Y7387500I0J137500D01*
G01*
X121220000Y8712500D01*
G75*
G02*
X121357500Y8850000I137500J0D01*
G01*
G37*
G36*
G01*
X122627500Y8850000D02*
X122902500Y8850000D01*
G75*
G02*
X123040000Y8712500I0J-137500D01*
G01*
X123040000Y7387500D01*
G75*
G02*
X122902500Y7250000I-137500J0D01*
G01*
X122627500Y7250000D01*
G75*
G02*
X122490000Y7387500I0J137500D01*
G01*
X122490000Y8712500D01*
G75*
G02*
X122627500Y8850000I137500J0D01*
G01*
G37*
G36*
G01*
X123897500Y8850000D02*
X124172500Y8850000D01*
G75*
G02*
X124310000Y8712500I0J-137500D01*
G01*
X124310000Y7387500D01*
G75*
G02*
X124172500Y7250000I-137500J0D01*
G01*
X123897500Y7250000D01*
G75*
G02*
X123760000Y7387500I0J137500D01*
G01*
X123760000Y8712500D01*
G75*
G02*
X123897500Y8850000I137500J0D01*
G01*
G37*
G36*
G01*
X125167500Y8850000D02*
X125442500Y8850000D01*
G75*
G02*
X125580000Y8712500I0J-137500D01*
G01*
X125580000Y7387500D01*
G75*
G02*
X125442500Y7250000I-137500J0D01*
G01*
X125167500Y7250000D01*
G75*
G02*
X125030000Y7387500I0J137500D01*
G01*
X125030000Y8712500D01*
G75*
G02*
X125167500Y8850000I137500J0D01*
G01*
G37*
G36*
G01*
X126437500Y8850000D02*
X126712500Y8850000D01*
G75*
G02*
X126850000Y8712500I0J-137500D01*
G01*
X126850000Y7387500D01*
G75*
G02*
X126712500Y7250000I-137500J0D01*
G01*
X126437500Y7250000D01*
G75*
G02*
X126300000Y7387500I0J137500D01*
G01*
X126300000Y8712500D01*
G75*
G02*
X126437500Y8850000I137500J0D01*
G01*
G37*
G36*
G01*
X127707500Y8850000D02*
X127982500Y8850000D01*
G75*
G02*
X128120000Y8712500I0J-137500D01*
G01*
X128120000Y7387500D01*
G75*
G02*
X127982500Y7250000I-137500J0D01*
G01*
X127707500Y7250000D01*
G75*
G02*
X127570000Y7387500I0J137500D01*
G01*
X127570000Y8712500D01*
G75*
G02*
X127707500Y8850000I137500J0D01*
G01*
G37*
G36*
G01*
X128977500Y8850000D02*
X129252500Y8850000D01*
G75*
G02*
X129390000Y8712500I0J-137500D01*
G01*
X129390000Y7387500D01*
G75*
G02*
X129252500Y7250000I-137500J0D01*
G01*
X128977500Y7250000D01*
G75*
G02*
X128840000Y7387500I0J137500D01*
G01*
X128840000Y8712500D01*
G75*
G02*
X128977500Y8850000I137500J0D01*
G01*
G37*
G36*
G01*
X128977500Y15350000D02*
X129252500Y15350000D01*
G75*
G02*
X129390000Y15212500I0J-137500D01*
G01*
X129390000Y13887500D01*
G75*
G02*
X129252500Y13750000I-137500J0D01*
G01*
X128977500Y13750000D01*
G75*
G02*
X128840000Y13887500I0J137500D01*
G01*
X128840000Y15212500D01*
G75*
G02*
X128977500Y15350000I137500J0D01*
G01*
G37*
G36*
G01*
X127707500Y15350000D02*
X127982500Y15350000D01*
G75*
G02*
X128120000Y15212500I0J-137500D01*
G01*
X128120000Y13887500D01*
G75*
G02*
X127982500Y13750000I-137500J0D01*
G01*
X127707500Y13750000D01*
G75*
G02*
X127570000Y13887500I0J137500D01*
G01*
X127570000Y15212500D01*
G75*
G02*
X127707500Y15350000I137500J0D01*
G01*
G37*
G36*
G01*
X126437500Y15350000D02*
X126712500Y15350000D01*
G75*
G02*
X126850000Y15212500I0J-137500D01*
G01*
X126850000Y13887500D01*
G75*
G02*
X126712500Y13750000I-137500J0D01*
G01*
X126437500Y13750000D01*
G75*
G02*
X126300000Y13887500I0J137500D01*
G01*
X126300000Y15212500D01*
G75*
G02*
X126437500Y15350000I137500J0D01*
G01*
G37*
G36*
G01*
X125167500Y15350000D02*
X125442500Y15350000D01*
G75*
G02*
X125580000Y15212500I0J-137500D01*
G01*
X125580000Y13887500D01*
G75*
G02*
X125442500Y13750000I-137500J0D01*
G01*
X125167500Y13750000D01*
G75*
G02*
X125030000Y13887500I0J137500D01*
G01*
X125030000Y15212500D01*
G75*
G02*
X125167500Y15350000I137500J0D01*
G01*
G37*
G36*
G01*
X123897500Y15350000D02*
X124172500Y15350000D01*
G75*
G02*
X124310000Y15212500I0J-137500D01*
G01*
X124310000Y13887500D01*
G75*
G02*
X124172500Y13750000I-137500J0D01*
G01*
X123897500Y13750000D01*
G75*
G02*
X123760000Y13887500I0J137500D01*
G01*
X123760000Y15212500D01*
G75*
G02*
X123897500Y15350000I137500J0D01*
G01*
G37*
G36*
G01*
X122627500Y15350000D02*
X122902500Y15350000D01*
G75*
G02*
X123040000Y15212500I0J-137500D01*
G01*
X123040000Y13887500D01*
G75*
G02*
X122902500Y13750000I-137500J0D01*
G01*
X122627500Y13750000D01*
G75*
G02*
X122490000Y13887500I0J137500D01*
G01*
X122490000Y15212500D01*
G75*
G02*
X122627500Y15350000I137500J0D01*
G01*
G37*
G36*
G01*
X121357500Y15350000D02*
X121632500Y15350000D01*
G75*
G02*
X121770000Y15212500I0J-137500D01*
G01*
X121770000Y13887500D01*
G75*
G02*
X121632500Y13750000I-137500J0D01*
G01*
X121357500Y13750000D01*
G75*
G02*
X121220000Y13887500I0J137500D01*
G01*
X121220000Y15212500D01*
G75*
G02*
X121357500Y15350000I137500J0D01*
G01*
G37*
G36*
G01*
X120087500Y15350000D02*
X120362500Y15350000D01*
G75*
G02*
X120500000Y15212500I0J-137500D01*
G01*
X120500000Y13887500D01*
G75*
G02*
X120362500Y13750000I-137500J0D01*
G01*
X120087500Y13750000D01*
G75*
G02*
X119950000Y13887500I0J137500D01*
G01*
X119950000Y15212500D01*
G75*
G02*
X120087500Y15350000I137500J0D01*
G01*
G37*
G04 #@! TD*
G04 #@! TO.C,U5*
G36*
G01*
X138727500Y8850000D02*
X139002500Y8850000D01*
G75*
G02*
X139140000Y8712500I0J-137500D01*
G01*
X139140000Y7387500D01*
G75*
G02*
X139002500Y7250000I-137500J0D01*
G01*
X138727500Y7250000D01*
G75*
G02*
X138590000Y7387500I0J137500D01*
G01*
X138590000Y8712500D01*
G75*
G02*
X138727500Y8850000I137500J0D01*
G01*
G37*
G36*
G01*
X139997500Y8850000D02*
X140272500Y8850000D01*
G75*
G02*
X140410000Y8712500I0J-137500D01*
G01*
X140410000Y7387500D01*
G75*
G02*
X140272500Y7250000I-137500J0D01*
G01*
X139997500Y7250000D01*
G75*
G02*
X139860000Y7387500I0J137500D01*
G01*
X139860000Y8712500D01*
G75*
G02*
X139997500Y8850000I137500J0D01*
G01*
G37*
G36*
G01*
X141267500Y8850000D02*
X141542500Y8850000D01*
G75*
G02*
X141680000Y8712500I0J-137500D01*
G01*
X141680000Y7387500D01*
G75*
G02*
X141542500Y7250000I-137500J0D01*
G01*
X141267500Y7250000D01*
G75*
G02*
X141130000Y7387500I0J137500D01*
G01*
X141130000Y8712500D01*
G75*
G02*
X141267500Y8850000I137500J0D01*
G01*
G37*
G36*
G01*
X142537500Y8850000D02*
X142812500Y8850000D01*
G75*
G02*
X142950000Y8712500I0J-137500D01*
G01*
X142950000Y7387500D01*
G75*
G02*
X142812500Y7250000I-137500J0D01*
G01*
X142537500Y7250000D01*
G75*
G02*
X142400000Y7387500I0J137500D01*
G01*
X142400000Y8712500D01*
G75*
G02*
X142537500Y8850000I137500J0D01*
G01*
G37*
G36*
G01*
X143807500Y8850000D02*
X144082500Y8850000D01*
G75*
G02*
X144220000Y8712500I0J-137500D01*
G01*
X144220000Y7387500D01*
G75*
G02*
X144082500Y7250000I-137500J0D01*
G01*
X143807500Y7250000D01*
G75*
G02*
X143670000Y7387500I0J137500D01*
G01*
X143670000Y8712500D01*
G75*
G02*
X143807500Y8850000I137500J0D01*
G01*
G37*
G36*
G01*
X145077500Y8850000D02*
X145352500Y8850000D01*
G75*
G02*
X145490000Y8712500I0J-137500D01*
G01*
X145490000Y7387500D01*
G75*
G02*
X145352500Y7250000I-137500J0D01*
G01*
X145077500Y7250000D01*
G75*
G02*
X144940000Y7387500I0J137500D01*
G01*
X144940000Y8712500D01*
G75*
G02*
X145077500Y8850000I137500J0D01*
G01*
G37*
G36*
G01*
X146347500Y8850000D02*
X146622500Y8850000D01*
G75*
G02*
X146760000Y8712500I0J-137500D01*
G01*
X146760000Y7387500D01*
G75*
G02*
X146622500Y7250000I-137500J0D01*
G01*
X146347500Y7250000D01*
G75*
G02*
X146210000Y7387500I0J137500D01*
G01*
X146210000Y8712500D01*
G75*
G02*
X146347500Y8850000I137500J0D01*
G01*
G37*
G36*
G01*
X147617500Y8850000D02*
X147892500Y8850000D01*
G75*
G02*
X148030000Y8712500I0J-137500D01*
G01*
X148030000Y7387500D01*
G75*
G02*
X147892500Y7250000I-137500J0D01*
G01*
X147617500Y7250000D01*
G75*
G02*
X147480000Y7387500I0J137500D01*
G01*
X147480000Y8712500D01*
G75*
G02*
X147617500Y8850000I137500J0D01*
G01*
G37*
G36*
G01*
X147617500Y15350000D02*
X147892500Y15350000D01*
G75*
G02*
X148030000Y15212500I0J-137500D01*
G01*
X148030000Y13887500D01*
G75*
G02*
X147892500Y13750000I-137500J0D01*
G01*
X147617500Y13750000D01*
G75*
G02*
X147480000Y13887500I0J137500D01*
G01*
X147480000Y15212500D01*
G75*
G02*
X147617500Y15350000I137500J0D01*
G01*
G37*
G36*
G01*
X146347500Y15350000D02*
X146622500Y15350000D01*
G75*
G02*
X146760000Y15212500I0J-137500D01*
G01*
X146760000Y13887500D01*
G75*
G02*
X146622500Y13750000I-137500J0D01*
G01*
X146347500Y13750000D01*
G75*
G02*
X146210000Y13887500I0J137500D01*
G01*
X146210000Y15212500D01*
G75*
G02*
X146347500Y15350000I137500J0D01*
G01*
G37*
G36*
G01*
X145077500Y15350000D02*
X145352500Y15350000D01*
G75*
G02*
X145490000Y15212500I0J-137500D01*
G01*
X145490000Y13887500D01*
G75*
G02*
X145352500Y13750000I-137500J0D01*
G01*
X145077500Y13750000D01*
G75*
G02*
X144940000Y13887500I0J137500D01*
G01*
X144940000Y15212500D01*
G75*
G02*
X145077500Y15350000I137500J0D01*
G01*
G37*
G36*
G01*
X143807500Y15350000D02*
X144082500Y15350000D01*
G75*
G02*
X144220000Y15212500I0J-137500D01*
G01*
X144220000Y13887500D01*
G75*
G02*
X144082500Y13750000I-137500J0D01*
G01*
X143807500Y13750000D01*
G75*
G02*
X143670000Y13887500I0J137500D01*
G01*
X143670000Y15212500D01*
G75*
G02*
X143807500Y15350000I137500J0D01*
G01*
G37*
G36*
G01*
X142537500Y15350000D02*
X142812500Y15350000D01*
G75*
G02*
X142950000Y15212500I0J-137500D01*
G01*
X142950000Y13887500D01*
G75*
G02*
X142812500Y13750000I-137500J0D01*
G01*
X142537500Y13750000D01*
G75*
G02*
X142400000Y13887500I0J137500D01*
G01*
X142400000Y15212500D01*
G75*
G02*
X142537500Y15350000I137500J0D01*
G01*
G37*
G36*
G01*
X141267500Y15350000D02*
X141542500Y15350000D01*
G75*
G02*
X141680000Y15212500I0J-137500D01*
G01*
X141680000Y13887500D01*
G75*
G02*
X141542500Y13750000I-137500J0D01*
G01*
X141267500Y13750000D01*
G75*
G02*
X141130000Y13887500I0J137500D01*
G01*
X141130000Y15212500D01*
G75*
G02*
X141267500Y15350000I137500J0D01*
G01*
G37*
G36*
G01*
X139997500Y15350000D02*
X140272500Y15350000D01*
G75*
G02*
X140410000Y15212500I0J-137500D01*
G01*
X140410000Y13887500D01*
G75*
G02*
X140272500Y13750000I-137500J0D01*
G01*
X139997500Y13750000D01*
G75*
G02*
X139860000Y13887500I0J137500D01*
G01*
X139860000Y15212500D01*
G75*
G02*
X139997500Y15350000I137500J0D01*
G01*
G37*
G36*
G01*
X138727500Y15350000D02*
X139002500Y15350000D01*
G75*
G02*
X139140000Y15212500I0J-137500D01*
G01*
X139140000Y13887500D01*
G75*
G02*
X139002500Y13750000I-137500J0D01*
G01*
X138727500Y13750000D01*
G75*
G02*
X138590000Y13887500I0J137500D01*
G01*
X138590000Y15212500D01*
G75*
G02*
X138727500Y15350000I137500J0D01*
G01*
G37*
G04 #@! TD*
G04 #@! TO.C,U4*
G36*
G01*
X157367500Y8850000D02*
X157642500Y8850000D01*
G75*
G02*
X157780000Y8712500I0J-137500D01*
G01*
X157780000Y7387500D01*
G75*
G02*
X157642500Y7250000I-137500J0D01*
G01*
X157367500Y7250000D01*
G75*
G02*
X157230000Y7387500I0J137500D01*
G01*
X157230000Y8712500D01*
G75*
G02*
X157367500Y8850000I137500J0D01*
G01*
G37*
G36*
G01*
X158637500Y8850000D02*
X158912500Y8850000D01*
G75*
G02*
X159050000Y8712500I0J-137500D01*
G01*
X159050000Y7387500D01*
G75*
G02*
X158912500Y7250000I-137500J0D01*
G01*
X158637500Y7250000D01*
G75*
G02*
X158500000Y7387500I0J137500D01*
G01*
X158500000Y8712500D01*
G75*
G02*
X158637500Y8850000I137500J0D01*
G01*
G37*
G36*
G01*
X159907500Y8850000D02*
X160182500Y8850000D01*
G75*
G02*
X160320000Y8712500I0J-137500D01*
G01*
X160320000Y7387500D01*
G75*
G02*
X160182500Y7250000I-137500J0D01*
G01*
X159907500Y7250000D01*
G75*
G02*
X159770000Y7387500I0J137500D01*
G01*
X159770000Y8712500D01*
G75*
G02*
X159907500Y8850000I137500J0D01*
G01*
G37*
G36*
G01*
X161177500Y8850000D02*
X161452500Y8850000D01*
G75*
G02*
X161590000Y8712500I0J-137500D01*
G01*
X161590000Y7387500D01*
G75*
G02*
X161452500Y7250000I-137500J0D01*
G01*
X161177500Y7250000D01*
G75*
G02*
X161040000Y7387500I0J137500D01*
G01*
X161040000Y8712500D01*
G75*
G02*
X161177500Y8850000I137500J0D01*
G01*
G37*
G36*
G01*
X162447500Y8850000D02*
X162722500Y8850000D01*
G75*
G02*
X162860000Y8712500I0J-137500D01*
G01*
X162860000Y7387500D01*
G75*
G02*
X162722500Y7250000I-137500J0D01*
G01*
X162447500Y7250000D01*
G75*
G02*
X162310000Y7387500I0J137500D01*
G01*
X162310000Y8712500D01*
G75*
G02*
X162447500Y8850000I137500J0D01*
G01*
G37*
G36*
G01*
X163717500Y8850000D02*
X163992500Y8850000D01*
G75*
G02*
X164130000Y8712500I0J-137500D01*
G01*
X164130000Y7387500D01*
G75*
G02*
X163992500Y7250000I-137500J0D01*
G01*
X163717500Y7250000D01*
G75*
G02*
X163580000Y7387500I0J137500D01*
G01*
X163580000Y8712500D01*
G75*
G02*
X163717500Y8850000I137500J0D01*
G01*
G37*
G36*
G01*
X164987500Y8850000D02*
X165262500Y8850000D01*
G75*
G02*
X165400000Y8712500I0J-137500D01*
G01*
X165400000Y7387500D01*
G75*
G02*
X165262500Y7250000I-137500J0D01*
G01*
X164987500Y7250000D01*
G75*
G02*
X164850000Y7387500I0J137500D01*
G01*
X164850000Y8712500D01*
G75*
G02*
X164987500Y8850000I137500J0D01*
G01*
G37*
G36*
G01*
X166257500Y8850000D02*
X166532500Y8850000D01*
G75*
G02*
X166670000Y8712500I0J-137500D01*
G01*
X166670000Y7387500D01*
G75*
G02*
X166532500Y7250000I-137500J0D01*
G01*
X166257500Y7250000D01*
G75*
G02*
X166120000Y7387500I0J137500D01*
G01*
X166120000Y8712500D01*
G75*
G02*
X166257500Y8850000I137500J0D01*
G01*
G37*
G36*
G01*
X166257500Y15350000D02*
X166532500Y15350000D01*
G75*
G02*
X166670000Y15212500I0J-137500D01*
G01*
X166670000Y13887500D01*
G75*
G02*
X166532500Y13750000I-137500J0D01*
G01*
X166257500Y13750000D01*
G75*
G02*
X166120000Y13887500I0J137500D01*
G01*
X166120000Y15212500D01*
G75*
G02*
X166257500Y15350000I137500J0D01*
G01*
G37*
G36*
G01*
X164987500Y15350000D02*
X165262500Y15350000D01*
G75*
G02*
X165400000Y15212500I0J-137500D01*
G01*
X165400000Y13887500D01*
G75*
G02*
X165262500Y13750000I-137500J0D01*
G01*
X164987500Y13750000D01*
G75*
G02*
X164850000Y13887500I0J137500D01*
G01*
X164850000Y15212500D01*
G75*
G02*
X164987500Y15350000I137500J0D01*
G01*
G37*
G36*
G01*
X163717500Y15350000D02*
X163992500Y15350000D01*
G75*
G02*
X164130000Y15212500I0J-137500D01*
G01*
X164130000Y13887500D01*
G75*
G02*
X163992500Y13750000I-137500J0D01*
G01*
X163717500Y13750000D01*
G75*
G02*
X163580000Y13887500I0J137500D01*
G01*
X163580000Y15212500D01*
G75*
G02*
X163717500Y15350000I137500J0D01*
G01*
G37*
G36*
G01*
X162447500Y15350000D02*
X162722500Y15350000D01*
G75*
G02*
X162860000Y15212500I0J-137500D01*
G01*
X162860000Y13887500D01*
G75*
G02*
X162722500Y13750000I-137500J0D01*
G01*
X162447500Y13750000D01*
G75*
G02*
X162310000Y13887500I0J137500D01*
G01*
X162310000Y15212500D01*
G75*
G02*
X162447500Y15350000I137500J0D01*
G01*
G37*
G36*
G01*
X161177500Y15350000D02*
X161452500Y15350000D01*
G75*
G02*
X161590000Y15212500I0J-137500D01*
G01*
X161590000Y13887500D01*
G75*
G02*
X161452500Y13750000I-137500J0D01*
G01*
X161177500Y13750000D01*
G75*
G02*
X161040000Y13887500I0J137500D01*
G01*
X161040000Y15212500D01*
G75*
G02*
X161177500Y15350000I137500J0D01*
G01*
G37*
G36*
G01*
X159907500Y15350000D02*
X160182500Y15350000D01*
G75*
G02*
X160320000Y15212500I0J-137500D01*
G01*
X160320000Y13887500D01*
G75*
G02*
X160182500Y13750000I-137500J0D01*
G01*
X159907500Y13750000D01*
G75*
G02*
X159770000Y13887500I0J137500D01*
G01*
X159770000Y15212500D01*
G75*
G02*
X159907500Y15350000I137500J0D01*
G01*
G37*
G36*
G01*
X158637500Y15350000D02*
X158912500Y15350000D01*
G75*
G02*
X159050000Y15212500I0J-137500D01*
G01*
X159050000Y13887500D01*
G75*
G02*
X158912500Y13750000I-137500J0D01*
G01*
X158637500Y13750000D01*
G75*
G02*
X158500000Y13887500I0J137500D01*
G01*
X158500000Y15212500D01*
G75*
G02*
X158637500Y15350000I137500J0D01*
G01*
G37*
G36*
G01*
X157367500Y15350000D02*
X157642500Y15350000D01*
G75*
G02*
X157780000Y15212500I0J-137500D01*
G01*
X157780000Y13887500D01*
G75*
G02*
X157642500Y13750000I-137500J0D01*
G01*
X157367500Y13750000D01*
G75*
G02*
X157230000Y13887500I0J137500D01*
G01*
X157230000Y15212500D01*
G75*
G02*
X157367500Y15350000I137500J0D01*
G01*
G37*
G04 #@! TD*
G04 #@! TO.C,U3*
G36*
G01*
X176007500Y8850000D02*
X176282500Y8850000D01*
G75*
G02*
X176420000Y8712500I0J-137500D01*
G01*
X176420000Y7387500D01*
G75*
G02*
X176282500Y7250000I-137500J0D01*
G01*
X176007500Y7250000D01*
G75*
G02*
X175870000Y7387500I0J137500D01*
G01*
X175870000Y8712500D01*
G75*
G02*
X176007500Y8850000I137500J0D01*
G01*
G37*
G36*
G01*
X177277500Y8850000D02*
X177552500Y8850000D01*
G75*
G02*
X177690000Y8712500I0J-137500D01*
G01*
X177690000Y7387500D01*
G75*
G02*
X177552500Y7250000I-137500J0D01*
G01*
X177277500Y7250000D01*
G75*
G02*
X177140000Y7387500I0J137500D01*
G01*
X177140000Y8712500D01*
G75*
G02*
X177277500Y8850000I137500J0D01*
G01*
G37*
G36*
G01*
X178547500Y8850000D02*
X178822500Y8850000D01*
G75*
G02*
X178960000Y8712500I0J-137500D01*
G01*
X178960000Y7387500D01*
G75*
G02*
X178822500Y7250000I-137500J0D01*
G01*
X178547500Y7250000D01*
G75*
G02*
X178410000Y7387500I0J137500D01*
G01*
X178410000Y8712500D01*
G75*
G02*
X178547500Y8850000I137500J0D01*
G01*
G37*
G36*
G01*
X179817500Y8850000D02*
X180092500Y8850000D01*
G75*
G02*
X180230000Y8712500I0J-137500D01*
G01*
X180230000Y7387500D01*
G75*
G02*
X180092500Y7250000I-137500J0D01*
G01*
X179817500Y7250000D01*
G75*
G02*
X179680000Y7387500I0J137500D01*
G01*
X179680000Y8712500D01*
G75*
G02*
X179817500Y8850000I137500J0D01*
G01*
G37*
G36*
G01*
X181087500Y8850000D02*
X181362500Y8850000D01*
G75*
G02*
X181500000Y8712500I0J-137500D01*
G01*
X181500000Y7387500D01*
G75*
G02*
X181362500Y7250000I-137500J0D01*
G01*
X181087500Y7250000D01*
G75*
G02*
X180950000Y7387500I0J137500D01*
G01*
X180950000Y8712500D01*
G75*
G02*
X181087500Y8850000I137500J0D01*
G01*
G37*
G36*
G01*
X182357500Y8850000D02*
X182632500Y8850000D01*
G75*
G02*
X182770000Y8712500I0J-137500D01*
G01*
X182770000Y7387500D01*
G75*
G02*
X182632500Y7250000I-137500J0D01*
G01*
X182357500Y7250000D01*
G75*
G02*
X182220000Y7387500I0J137500D01*
G01*
X182220000Y8712500D01*
G75*
G02*
X182357500Y8850000I137500J0D01*
G01*
G37*
G36*
G01*
X183627500Y8850000D02*
X183902500Y8850000D01*
G75*
G02*
X184040000Y8712500I0J-137500D01*
G01*
X184040000Y7387500D01*
G75*
G02*
X183902500Y7250000I-137500J0D01*
G01*
X183627500Y7250000D01*
G75*
G02*
X183490000Y7387500I0J137500D01*
G01*
X183490000Y8712500D01*
G75*
G02*
X183627500Y8850000I137500J0D01*
G01*
G37*
G36*
G01*
X184897500Y8850000D02*
X185172500Y8850000D01*
G75*
G02*
X185310000Y8712500I0J-137500D01*
G01*
X185310000Y7387500D01*
G75*
G02*
X185172500Y7250000I-137500J0D01*
G01*
X184897500Y7250000D01*
G75*
G02*
X184760000Y7387500I0J137500D01*
G01*
X184760000Y8712500D01*
G75*
G02*
X184897500Y8850000I137500J0D01*
G01*
G37*
G36*
G01*
X184897500Y15350000D02*
X185172500Y15350000D01*
G75*
G02*
X185310000Y15212500I0J-137500D01*
G01*
X185310000Y13887500D01*
G75*
G02*
X185172500Y13750000I-137500J0D01*
G01*
X184897500Y13750000D01*
G75*
G02*
X184760000Y13887500I0J137500D01*
G01*
X184760000Y15212500D01*
G75*
G02*
X184897500Y15350000I137500J0D01*
G01*
G37*
G36*
G01*
X183627500Y15350000D02*
X183902500Y15350000D01*
G75*
G02*
X184040000Y15212500I0J-137500D01*
G01*
X184040000Y13887500D01*
G75*
G02*
X183902500Y13750000I-137500J0D01*
G01*
X183627500Y13750000D01*
G75*
G02*
X183490000Y13887500I0J137500D01*
G01*
X183490000Y15212500D01*
G75*
G02*
X183627500Y15350000I137500J0D01*
G01*
G37*
G36*
G01*
X182357500Y15350000D02*
X182632500Y15350000D01*
G75*
G02*
X182770000Y15212500I0J-137500D01*
G01*
X182770000Y13887500D01*
G75*
G02*
X182632500Y13750000I-137500J0D01*
G01*
X182357500Y13750000D01*
G75*
G02*
X182220000Y13887500I0J137500D01*
G01*
X182220000Y15212500D01*
G75*
G02*
X182357500Y15350000I137500J0D01*
G01*
G37*
G36*
G01*
X181087500Y15350000D02*
X181362500Y15350000D01*
G75*
G02*
X181500000Y15212500I0J-137500D01*
G01*
X181500000Y13887500D01*
G75*
G02*
X181362500Y13750000I-137500J0D01*
G01*
X181087500Y13750000D01*
G75*
G02*
X180950000Y13887500I0J137500D01*
G01*
X180950000Y15212500D01*
G75*
G02*
X181087500Y15350000I137500J0D01*
G01*
G37*
G36*
G01*
X179817500Y15350000D02*
X180092500Y15350000D01*
G75*
G02*
X180230000Y15212500I0J-137500D01*
G01*
X180230000Y13887500D01*
G75*
G02*
X180092500Y13750000I-137500J0D01*
G01*
X179817500Y13750000D01*
G75*
G02*
X179680000Y13887500I0J137500D01*
G01*
X179680000Y15212500D01*
G75*
G02*
X179817500Y15350000I137500J0D01*
G01*
G37*
G36*
G01*
X178547500Y15350000D02*
X178822500Y15350000D01*
G75*
G02*
X178960000Y15212500I0J-137500D01*
G01*
X178960000Y13887500D01*
G75*
G02*
X178822500Y13750000I-137500J0D01*
G01*
X178547500Y13750000D01*
G75*
G02*
X178410000Y13887500I0J137500D01*
G01*
X178410000Y15212500D01*
G75*
G02*
X178547500Y15350000I137500J0D01*
G01*
G37*
G36*
G01*
X177277500Y15350000D02*
X177552500Y15350000D01*
G75*
G02*
X177690000Y15212500I0J-137500D01*
G01*
X177690000Y13887500D01*
G75*
G02*
X177552500Y13750000I-137500J0D01*
G01*
X177277500Y13750000D01*
G75*
G02*
X177140000Y13887500I0J137500D01*
G01*
X177140000Y15212500D01*
G75*
G02*
X177277500Y15350000I137500J0D01*
G01*
G37*
G36*
G01*
X176007500Y15350000D02*
X176282500Y15350000D01*
G75*
G02*
X176420000Y15212500I0J-137500D01*
G01*
X176420000Y13887500D01*
G75*
G02*
X176282500Y13750000I-137500J0D01*
G01*
X176007500Y13750000D01*
G75*
G02*
X175870000Y13887500I0J137500D01*
G01*
X175870000Y15212500D01*
G75*
G02*
X176007500Y15350000I137500J0D01*
G01*
G37*
G04 #@! TD*
G04 #@! TO.C,U2*
G36*
G01*
X194647500Y8850000D02*
X194922500Y8850000D01*
G75*
G02*
X195060000Y8712500I0J-137500D01*
G01*
X195060000Y7387500D01*
G75*
G02*
X194922500Y7250000I-137500J0D01*
G01*
X194647500Y7250000D01*
G75*
G02*
X194510000Y7387500I0J137500D01*
G01*
X194510000Y8712500D01*
G75*
G02*
X194647500Y8850000I137500J0D01*
G01*
G37*
G36*
G01*
X195917500Y8850000D02*
X196192500Y8850000D01*
G75*
G02*
X196330000Y8712500I0J-137500D01*
G01*
X196330000Y7387500D01*
G75*
G02*
X196192500Y7250000I-137500J0D01*
G01*
X195917500Y7250000D01*
G75*
G02*
X195780000Y7387500I0J137500D01*
G01*
X195780000Y8712500D01*
G75*
G02*
X195917500Y8850000I137500J0D01*
G01*
G37*
G36*
G01*
X197187500Y8850000D02*
X197462500Y8850000D01*
G75*
G02*
X197600000Y8712500I0J-137500D01*
G01*
X197600000Y7387500D01*
G75*
G02*
X197462500Y7250000I-137500J0D01*
G01*
X197187500Y7250000D01*
G75*
G02*
X197050000Y7387500I0J137500D01*
G01*
X197050000Y8712500D01*
G75*
G02*
X197187500Y8850000I137500J0D01*
G01*
G37*
G36*
G01*
X198457500Y8850000D02*
X198732500Y8850000D01*
G75*
G02*
X198870000Y8712500I0J-137500D01*
G01*
X198870000Y7387500D01*
G75*
G02*
X198732500Y7250000I-137500J0D01*
G01*
X198457500Y7250000D01*
G75*
G02*
X198320000Y7387500I0J137500D01*
G01*
X198320000Y8712500D01*
G75*
G02*
X198457500Y8850000I137500J0D01*
G01*
G37*
G36*
G01*
X199727500Y8850000D02*
X200002500Y8850000D01*
G75*
G02*
X200140000Y8712500I0J-137500D01*
G01*
X200140000Y7387500D01*
G75*
G02*
X200002500Y7250000I-137500J0D01*
G01*
X199727500Y7250000D01*
G75*
G02*
X199590000Y7387500I0J137500D01*
G01*
X199590000Y8712500D01*
G75*
G02*
X199727500Y8850000I137500J0D01*
G01*
G37*
G36*
G01*
X200997500Y8850000D02*
X201272500Y8850000D01*
G75*
G02*
X201410000Y8712500I0J-137500D01*
G01*
X201410000Y7387500D01*
G75*
G02*
X201272500Y7250000I-137500J0D01*
G01*
X200997500Y7250000D01*
G75*
G02*
X200860000Y7387500I0J137500D01*
G01*
X200860000Y8712500D01*
G75*
G02*
X200997500Y8850000I137500J0D01*
G01*
G37*
G36*
G01*
X202267500Y8850000D02*
X202542500Y8850000D01*
G75*
G02*
X202680000Y8712500I0J-137500D01*
G01*
X202680000Y7387500D01*
G75*
G02*
X202542500Y7250000I-137500J0D01*
G01*
X202267500Y7250000D01*
G75*
G02*
X202130000Y7387500I0J137500D01*
G01*
X202130000Y8712500D01*
G75*
G02*
X202267500Y8850000I137500J0D01*
G01*
G37*
G36*
G01*
X203537500Y8850000D02*
X203812500Y8850000D01*
G75*
G02*
X203950000Y8712500I0J-137500D01*
G01*
X203950000Y7387500D01*
G75*
G02*
X203812500Y7250000I-137500J0D01*
G01*
X203537500Y7250000D01*
G75*
G02*
X203400000Y7387500I0J137500D01*
G01*
X203400000Y8712500D01*
G75*
G02*
X203537500Y8850000I137500J0D01*
G01*
G37*
G36*
G01*
X203537500Y15350000D02*
X203812500Y15350000D01*
G75*
G02*
X203950000Y15212500I0J-137500D01*
G01*
X203950000Y13887500D01*
G75*
G02*
X203812500Y13750000I-137500J0D01*
G01*
X203537500Y13750000D01*
G75*
G02*
X203400000Y13887500I0J137500D01*
G01*
X203400000Y15212500D01*
G75*
G02*
X203537500Y15350000I137500J0D01*
G01*
G37*
G36*
G01*
X202267500Y15350000D02*
X202542500Y15350000D01*
G75*
G02*
X202680000Y15212500I0J-137500D01*
G01*
X202680000Y13887500D01*
G75*
G02*
X202542500Y13750000I-137500J0D01*
G01*
X202267500Y13750000D01*
G75*
G02*
X202130000Y13887500I0J137500D01*
G01*
X202130000Y15212500D01*
G75*
G02*
X202267500Y15350000I137500J0D01*
G01*
G37*
G36*
G01*
X200997500Y15350000D02*
X201272500Y15350000D01*
G75*
G02*
X201410000Y15212500I0J-137500D01*
G01*
X201410000Y13887500D01*
G75*
G02*
X201272500Y13750000I-137500J0D01*
G01*
X200997500Y13750000D01*
G75*
G02*
X200860000Y13887500I0J137500D01*
G01*
X200860000Y15212500D01*
G75*
G02*
X200997500Y15350000I137500J0D01*
G01*
G37*
G36*
G01*
X199727500Y15350000D02*
X200002500Y15350000D01*
G75*
G02*
X200140000Y15212500I0J-137500D01*
G01*
X200140000Y13887500D01*
G75*
G02*
X200002500Y13750000I-137500J0D01*
G01*
X199727500Y13750000D01*
G75*
G02*
X199590000Y13887500I0J137500D01*
G01*
X199590000Y15212500D01*
G75*
G02*
X199727500Y15350000I137500J0D01*
G01*
G37*
G36*
G01*
X198457500Y15350000D02*
X198732500Y15350000D01*
G75*
G02*
X198870000Y15212500I0J-137500D01*
G01*
X198870000Y13887500D01*
G75*
G02*
X198732500Y13750000I-137500J0D01*
G01*
X198457500Y13750000D01*
G75*
G02*
X198320000Y13887500I0J137500D01*
G01*
X198320000Y15212500D01*
G75*
G02*
X198457500Y15350000I137500J0D01*
G01*
G37*
G36*
G01*
X197187500Y15350000D02*
X197462500Y15350000D01*
G75*
G02*
X197600000Y15212500I0J-137500D01*
G01*
X197600000Y13887500D01*
G75*
G02*
X197462500Y13750000I-137500J0D01*
G01*
X197187500Y13750000D01*
G75*
G02*
X197050000Y13887500I0J137500D01*
G01*
X197050000Y15212500D01*
G75*
G02*
X197187500Y15350000I137500J0D01*
G01*
G37*
G36*
G01*
X195917500Y15350000D02*
X196192500Y15350000D01*
G75*
G02*
X196330000Y15212500I0J-137500D01*
G01*
X196330000Y13887500D01*
G75*
G02*
X196192500Y13750000I-137500J0D01*
G01*
X195917500Y13750000D01*
G75*
G02*
X195780000Y13887500I0J137500D01*
G01*
X195780000Y15212500D01*
G75*
G02*
X195917500Y15350000I137500J0D01*
G01*
G37*
G36*
G01*
X194647500Y15350000D02*
X194922500Y15350000D01*
G75*
G02*
X195060000Y15212500I0J-137500D01*
G01*
X195060000Y13887500D01*
G75*
G02*
X194922500Y13750000I-137500J0D01*
G01*
X194647500Y13750000D01*
G75*
G02*
X194510000Y13887500I0J137500D01*
G01*
X194510000Y15212500D01*
G75*
G02*
X194647500Y15350000I137500J0D01*
G01*
G37*
G04 #@! TD*
D22*
G04 #@! TO.C,U1*
X50142000Y12010000D03*
X50142000Y27250000D03*
X47602000Y12010000D03*
X47602000Y27250000D03*
X45062000Y12010000D03*
X45062000Y27250000D03*
X42522000Y12010000D03*
X42522000Y27250000D03*
X39982000Y12010000D03*
X39982000Y27250000D03*
X37442000Y12010000D03*
X37442000Y27250000D03*
X34902000Y12010000D03*
X34902000Y27250000D03*
X32362000Y12010000D03*
X32362000Y27250000D03*
X29822000Y12010000D03*
X29822000Y27250000D03*
X27282000Y12010000D03*
X27282000Y27250000D03*
X24742000Y12010000D03*
X24742000Y27250000D03*
X22202000Y12010000D03*
X22202000Y27250000D03*
X19662000Y12010000D03*
X19662000Y27250000D03*
X17122000Y12010000D03*
X17122000Y27250000D03*
X14582000Y12010000D03*
X14582000Y27250000D03*
X12042000Y12010000D03*
X12042000Y27250000D03*
X9502000Y12010000D03*
X9502000Y27250000D03*
X6962000Y12010000D03*
X6962000Y27250000D03*
X4422000Y12010000D03*
X4422000Y27250000D03*
D17*
X1882000Y12010000D03*
D22*
X1882000Y27250000D03*
G04 #@! TD*
D23*
G04 #@! TO.C,D16*
X105830000Y18900000D03*
D24*
X104560000Y18900000D03*
X103290000Y18900000D03*
X102020000Y18900000D03*
G04 #@! TD*
D23*
G04 #@! TO.C,D15*
X112330000Y18900000D03*
D24*
X111060000Y18900000D03*
X109790000Y18900000D03*
X108520000Y18900000D03*
G04 #@! TD*
D23*
G04 #@! TO.C,D14*
X118830000Y18900000D03*
D24*
X117560000Y18900000D03*
X116290000Y18900000D03*
X115020000Y18900000D03*
G04 #@! TD*
D23*
G04 #@! TO.C,D13*
X125330000Y18900000D03*
D24*
X124060000Y18900000D03*
X122790000Y18900000D03*
X121520000Y18900000D03*
G04 #@! TD*
D23*
G04 #@! TO.C,D12*
X131830000Y18900000D03*
D24*
X130560000Y18900000D03*
X129290000Y18900000D03*
X128020000Y18900000D03*
G04 #@! TD*
D23*
G04 #@! TO.C,D11*
X138330000Y18900000D03*
D24*
X137060000Y18900000D03*
X135790000Y18900000D03*
X134520000Y18900000D03*
G04 #@! TD*
D23*
G04 #@! TO.C,D10*
X144830000Y18900000D03*
D24*
X143560000Y18900000D03*
X142290000Y18900000D03*
X141020000Y18900000D03*
G04 #@! TD*
D23*
G04 #@! TO.C,D9*
X151330000Y18900000D03*
D24*
X150060000Y18900000D03*
X148790000Y18900000D03*
X147520000Y18900000D03*
G04 #@! TD*
D23*
G04 #@! TO.C,D8*
X157830000Y18900000D03*
D24*
X156560000Y18900000D03*
X155290000Y18900000D03*
X154020000Y18900000D03*
G04 #@! TD*
D23*
G04 #@! TO.C,D7*
X164330000Y18900000D03*
D24*
X163060000Y18900000D03*
X161790000Y18900000D03*
X160520000Y18900000D03*
G04 #@! TD*
D23*
G04 #@! TO.C,D6*
X170830000Y18900000D03*
D24*
X169560000Y18900000D03*
X168290000Y18900000D03*
X167020000Y18900000D03*
G04 #@! TD*
D23*
G04 #@! TO.C,D5*
X177330000Y18900000D03*
D24*
X176060000Y18900000D03*
X174790000Y18900000D03*
X173520000Y18900000D03*
G04 #@! TD*
D23*
G04 #@! TO.C,D4*
X183830000Y18900000D03*
D24*
X182560000Y18900000D03*
X181290000Y18900000D03*
X180020000Y18900000D03*
G04 #@! TD*
D23*
G04 #@! TO.C,D3*
X190330000Y18900000D03*
D24*
X189060000Y18900000D03*
X187790000Y18900000D03*
X186520000Y18900000D03*
G04 #@! TD*
D23*
G04 #@! TO.C,D2*
X196830000Y18900000D03*
D24*
X195560000Y18900000D03*
X194290000Y18900000D03*
X193020000Y18900000D03*
G04 #@! TD*
D23*
G04 #@! TO.C,D1*
X203330000Y18900000D03*
D24*
X202060000Y18900000D03*
X200790000Y18900000D03*
X199520000Y18900000D03*
G04 #@! TD*
M02*
