G04 #@! TF.GenerationSoftware,KiCad,Pcbnew,(5.1.12)-1*
G04 #@! TF.CreationDate,2022-05-10T22:26:18-07:00*
G04 #@! TF.ProjectId,Spring2022,53707269-6e67-4323-9032-322e6b696361,rev?*
G04 #@! TF.SameCoordinates,PX3a2c940PY3fe56c0*
G04 #@! TF.FileFunction,Legend,Top*
G04 #@! TF.FilePolarity,Positive*
%FSLAX46Y46*%
G04 Gerber Fmt 4.6, Leading zero omitted, Abs format (unit mm)*
G04 Created by KiCad (PCBNEW (5.1.12)-1) date 2022-05-10 22:26:18*
%MOMM*%
%LPD*%
G01*
G04 APERTURE LIST*
%ADD10C,0.200000*%
%ADD11C,0.500000*%
%ADD12C,0.120000*%
%ADD13C,0.150000*%
G04 APERTURE END LIST*
D10*
X17354761Y19592858D02*
X16688095Y19592858D01*
X16688095Y18545239D02*
X16688095Y20545239D01*
X17640476Y20545239D01*
X19259523Y19878572D02*
X19259523Y18545239D01*
X18402380Y19878572D02*
X18402380Y18830953D01*
X18497619Y18640477D01*
X18688095Y18545239D01*
X18973809Y18545239D01*
X19164285Y18640477D01*
X19259523Y18735715D01*
X20211904Y18545239D02*
X20211904Y20545239D01*
X20211904Y19783334D02*
X20402380Y19878572D01*
X20783333Y19878572D01*
X20973809Y19783334D01*
X21069047Y19688096D01*
X21164285Y19497620D01*
X21164285Y18926191D01*
X21069047Y18735715D01*
X20973809Y18640477D01*
X20783333Y18545239D01*
X20402380Y18545239D01*
X20211904Y18640477D01*
X22878571Y18545239D02*
X22878571Y19592858D01*
X22783333Y19783334D01*
X22592857Y19878572D01*
X22211904Y19878572D01*
X22021428Y19783334D01*
X22878571Y18640477D02*
X22688095Y18545239D01*
X22211904Y18545239D01*
X22021428Y18640477D01*
X21926190Y18830953D01*
X21926190Y19021429D01*
X22021428Y19211905D01*
X22211904Y19307143D01*
X22688095Y19307143D01*
X22878571Y19402381D01*
X23830952Y18545239D02*
X23830952Y19878572D01*
X23830952Y19497620D02*
X23926190Y19688096D01*
X24021428Y19783334D01*
X24211904Y19878572D01*
X24402380Y19878572D01*
X25069047Y18545239D02*
X25069047Y19878572D01*
X25069047Y20545239D02*
X24973809Y20450000D01*
X25069047Y20354762D01*
X25164285Y20450000D01*
X25069047Y20545239D01*
X25069047Y20354762D01*
X26021428Y19878572D02*
X26021428Y18545239D01*
X26021428Y19688096D02*
X26116666Y19783334D01*
X26307142Y19878572D01*
X26592857Y19878572D01*
X26783333Y19783334D01*
X26878571Y19592858D01*
X26878571Y18545239D01*
X28116666Y18545239D02*
X27926190Y18640477D01*
X27830952Y18735715D01*
X27735714Y18926191D01*
X27735714Y19497620D01*
X27830952Y19688096D01*
X27926190Y19783334D01*
X28116666Y19878572D01*
X28402380Y19878572D01*
X28592857Y19783334D01*
X28688095Y19688096D01*
X28783333Y19497620D01*
X28783333Y18926191D01*
X28688095Y18735715D01*
X28592857Y18640477D01*
X28402380Y18545239D01*
X28116666Y18545239D01*
X31164285Y18545239D02*
X31164285Y20545239D01*
X31830952Y19116667D01*
X32497619Y20545239D01*
X32497619Y18545239D01*
X33450000Y18545239D02*
X33450000Y19878572D01*
X33450000Y20545239D02*
X33354761Y20450000D01*
X33450000Y20354762D01*
X33545238Y20450000D01*
X33450000Y20545239D01*
X33450000Y20354762D01*
X34402380Y19878572D02*
X34402380Y18545239D01*
X34402380Y19688096D02*
X34497619Y19783334D01*
X34688095Y19878572D01*
X34973809Y19878572D01*
X35164285Y19783334D01*
X35259523Y19592858D01*
X35259523Y18545239D01*
X36211904Y18545239D02*
X36211904Y19878572D01*
X36211904Y20545239D02*
X36116666Y20450000D01*
X36211904Y20354762D01*
X36307142Y20450000D01*
X36211904Y20545239D01*
X36211904Y20354762D01*
D11*
X106219047Y5140477D02*
X106219047Y9140477D01*
X107552380Y6283334D01*
X108885714Y9140477D01*
X108885714Y5140477D01*
X110219047Y7807143D02*
X111742857Y7807143D01*
X110790476Y9140477D02*
X110790476Y5711905D01*
X110980952Y5330953D01*
X111361904Y5140477D01*
X111742857Y5140477D01*
X112885714Y5330953D02*
X113457142Y5140477D01*
X114409523Y5140477D01*
X114790476Y5330953D01*
X114980952Y5521429D01*
X115171428Y5902381D01*
X115171428Y6283334D01*
X114980952Y6664286D01*
X114790476Y6854762D01*
X114409523Y7045239D01*
X113647619Y7235715D01*
X113266666Y7426191D01*
X113076190Y7616667D01*
X112885714Y7997620D01*
X112885714Y8378572D01*
X113076190Y8759524D01*
X113266666Y8950000D01*
X113647619Y9140477D01*
X114600000Y9140477D01*
X115171428Y8950000D01*
X116695238Y6283334D02*
X118600000Y6283334D01*
X116314285Y5140477D02*
X117647619Y9140477D01*
X118980952Y5140477D01*
X122600000Y5521429D02*
X122409523Y5330953D01*
X121838095Y5140477D01*
X121457142Y5140477D01*
X120885714Y5330953D01*
X120504761Y5711905D01*
X120314285Y6092858D01*
X120123809Y6854762D01*
X120123809Y7426191D01*
X120314285Y8188096D01*
X120504761Y8569048D01*
X120885714Y8950000D01*
X121457142Y9140477D01*
X121838095Y9140477D01*
X122409523Y8950000D01*
X122600000Y8759524D01*
X127361904Y7235715D02*
X128695238Y7235715D01*
X129266666Y5140477D02*
X127361904Y5140477D01*
X127361904Y9140477D01*
X129266666Y9140477D01*
X132885714Y5140477D02*
X130980952Y5140477D01*
X130980952Y9140477D01*
X134219047Y7235715D02*
X135552380Y7235715D01*
X136123809Y5140477D02*
X134219047Y5140477D01*
X134219047Y9140477D01*
X136123809Y9140477D01*
X140123809Y5521429D02*
X139933333Y5330953D01*
X139361904Y5140477D01*
X138980952Y5140477D01*
X138409523Y5330953D01*
X138028571Y5711905D01*
X137838095Y6092858D01*
X137647619Y6854762D01*
X137647619Y7426191D01*
X137838095Y8188096D01*
X138028571Y8569048D01*
X138409523Y8950000D01*
X138980952Y9140477D01*
X139361904Y9140477D01*
X139933333Y8950000D01*
X140123809Y8759524D01*
X144504761Y9140477D02*
X147171428Y9140477D01*
X145457142Y5140477D01*
X150409523Y7807143D02*
X150409523Y5140477D01*
X149457142Y9330953D02*
X148504761Y6473810D01*
X150980952Y6473810D01*
X155552380Y6664286D02*
X158599999Y6664286D01*
X163361904Y5330953D02*
X163933333Y5140477D01*
X164885714Y5140477D01*
X165266666Y5330953D01*
X165457142Y5521429D01*
X165647619Y5902381D01*
X165647619Y6283334D01*
X165457142Y6664286D01*
X165266666Y6854762D01*
X164885714Y7045239D01*
X164123809Y7235715D01*
X163742857Y7426191D01*
X163552380Y7616667D01*
X163361904Y7997620D01*
X163361904Y8378572D01*
X163552380Y8759524D01*
X163742857Y8950000D01*
X164123809Y9140477D01*
X165076190Y9140477D01*
X165647619Y8950000D01*
X167361904Y7807143D02*
X167361904Y3807143D01*
X167361904Y7616667D02*
X167742857Y7807143D01*
X168504761Y7807143D01*
X168885714Y7616667D01*
X169076190Y7426191D01*
X169266666Y7045239D01*
X169266666Y5902381D01*
X169076190Y5521429D01*
X168885714Y5330953D01*
X168504761Y5140477D01*
X167742857Y5140477D01*
X167361904Y5330953D01*
X170980952Y5140477D02*
X170980952Y7807143D01*
X170980952Y7045239D02*
X171171428Y7426191D01*
X171361904Y7616667D01*
X171742857Y7807143D01*
X172123809Y7807143D01*
X173457142Y5140477D02*
X173457142Y7807143D01*
X173457142Y9140477D02*
X173266666Y8950000D01*
X173457142Y8759524D01*
X173647619Y8950000D01*
X173457142Y9140477D01*
X173457142Y8759524D01*
X175361904Y7807143D02*
X175361904Y5140477D01*
X175361904Y7426191D02*
X175552380Y7616667D01*
X175933333Y7807143D01*
X176504761Y7807143D01*
X176885714Y7616667D01*
X177076190Y7235715D01*
X177076190Y5140477D01*
X180695238Y7807143D02*
X180695238Y4569048D01*
X180504761Y4188096D01*
X180314285Y3997620D01*
X179933333Y3807143D01*
X179361904Y3807143D01*
X178980952Y3997620D01*
X180695238Y5330953D02*
X180314285Y5140477D01*
X179552380Y5140477D01*
X179171428Y5330953D01*
X178980952Y5521429D01*
X178790476Y5902381D01*
X178790476Y7045239D01*
X178980952Y7426191D01*
X179171428Y7616667D01*
X179552380Y7807143D01*
X180314285Y7807143D01*
X180695238Y7616667D01*
X185457142Y8759524D02*
X185647619Y8950000D01*
X186028571Y9140477D01*
X186980952Y9140477D01*
X187361904Y8950000D01*
X187552380Y8759524D01*
X187742857Y8378572D01*
X187742857Y7997620D01*
X187552380Y7426191D01*
X185266666Y5140477D01*
X187742857Y5140477D01*
X190219047Y9140477D02*
X190599999Y9140477D01*
X190980952Y8950000D01*
X191171428Y8759524D01*
X191361904Y8378572D01*
X191552380Y7616667D01*
X191552380Y6664286D01*
X191361904Y5902381D01*
X191171428Y5521429D01*
X190980952Y5330953D01*
X190599999Y5140477D01*
X190219047Y5140477D01*
X189838095Y5330953D01*
X189647619Y5521429D01*
X189457142Y5902381D01*
X189266666Y6664286D01*
X189266666Y7616667D01*
X189457142Y8378572D01*
X189647619Y8759524D01*
X189838095Y8950000D01*
X190219047Y9140477D01*
X193076190Y8759524D02*
X193266666Y8950000D01*
X193647619Y9140477D01*
X194599999Y9140477D01*
X194980952Y8950000D01*
X195171428Y8759524D01*
X195361904Y8378572D01*
X195361904Y7997620D01*
X195171428Y7426191D01*
X192885714Y5140477D01*
X195361904Y5140477D01*
X196885714Y8759524D02*
X197076190Y8950000D01*
X197457142Y9140477D01*
X198409523Y9140477D01*
X198790476Y8950000D01*
X198980952Y8759524D01*
X199171428Y8378572D01*
X199171428Y7997620D01*
X198980952Y7426191D01*
X196695238Y5140477D01*
X199171428Y5140477D01*
D12*
G04 #@! TO.C,U10*
X92966000Y32044000D02*
X96816000Y32044000D01*
X96854611Y32053878D02*
G75*
G03*
X92966000Y32044000I-1948611J1690122D01*
G01*
G04 #@! TO.C,U8*
X70484000Y37418000D02*
X66420000Y37418000D01*
X66420000Y37418000D02*
X66420000Y34116000D01*
X66420000Y34116000D02*
X76580000Y34116000D01*
X76580000Y34116000D02*
X76580000Y37418000D01*
X76580000Y37418000D02*
X72516000Y37418000D01*
X70484000Y37418000D02*
X72516000Y37418000D01*
X70484000Y37418000D02*
G75*
G02*
X72516000Y37418000I1016000J-762000D01*
G01*
G04 #@! TO.C,LED11*
X81930000Y35100000D02*
X86670000Y35100000D01*
X86670000Y35100000D02*
X86670000Y32100000D01*
X86670000Y32100000D02*
X81930000Y32100000D01*
X81930000Y32100000D02*
X81930000Y35100000D01*
X89380000Y33600000D02*
G75*
G03*
X89380000Y33600000I-5080000J0D01*
G01*
G04 #@! TO.C,R16*
X105739200Y27016000D02*
X105739200Y33416000D01*
X103339200Y27016000D02*
X105739200Y27016000D01*
X103339200Y33416000D02*
X103339200Y27016000D01*
X105739200Y33416000D02*
X103339200Y33416000D01*
G04 #@! TO.C,R15*
X112267000Y27016000D02*
X112267000Y33416000D01*
X109867000Y27016000D02*
X112267000Y27016000D01*
X109867000Y33416000D02*
X109867000Y27016000D01*
X112267000Y33416000D02*
X109867000Y33416000D01*
G04 #@! TO.C,R14*
X118744000Y27016000D02*
X118744000Y33416000D01*
X116344000Y27016000D02*
X118744000Y27016000D01*
X116344000Y33416000D02*
X116344000Y27016000D01*
X118744000Y33416000D02*
X116344000Y33416000D01*
G04 #@! TO.C,R13*
X125246400Y27016000D02*
X125246400Y33416000D01*
X122846400Y27016000D02*
X125246400Y27016000D01*
X122846400Y33416000D02*
X122846400Y27016000D01*
X125246400Y33416000D02*
X122846400Y33416000D01*
G04 #@! TO.C,R12*
X131774200Y27016000D02*
X131774200Y33416000D01*
X129374200Y27016000D02*
X131774200Y27016000D01*
X129374200Y33416000D02*
X129374200Y27016000D01*
X131774200Y33416000D02*
X129374200Y33416000D01*
G04 #@! TO.C,R11*
X138276600Y27016000D02*
X138276600Y33416000D01*
X135876600Y27016000D02*
X138276600Y27016000D01*
X135876600Y33416000D02*
X135876600Y27016000D01*
X138276600Y33416000D02*
X135876600Y33416000D01*
G04 #@! TO.C,R10*
X144779000Y27016000D02*
X144779000Y33416000D01*
X142379000Y27016000D02*
X144779000Y27016000D01*
X142379000Y33416000D02*
X142379000Y27016000D01*
X144779000Y33416000D02*
X142379000Y33416000D01*
G04 #@! TO.C,R9*
X151281400Y27016000D02*
X151281400Y33416000D01*
X148881400Y27016000D02*
X151281400Y27016000D01*
X148881400Y33416000D02*
X148881400Y27016000D01*
X151281400Y33416000D02*
X148881400Y33416000D01*
G04 #@! TO.C,R8*
X157758400Y27016000D02*
X157758400Y33416000D01*
X155358400Y27016000D02*
X157758400Y27016000D01*
X155358400Y33416000D02*
X155358400Y27016000D01*
X157758400Y33416000D02*
X155358400Y33416000D01*
G04 #@! TO.C,R7*
X164260800Y27016000D02*
X164260800Y33416000D01*
X161860800Y27016000D02*
X164260800Y27016000D01*
X161860800Y33416000D02*
X161860800Y27016000D01*
X164260800Y33416000D02*
X161860800Y33416000D01*
G04 #@! TO.C,R6*
X170763200Y27016000D02*
X170763200Y33416000D01*
X168363200Y27016000D02*
X170763200Y27016000D01*
X168363200Y33416000D02*
X168363200Y27016000D01*
X170763200Y33416000D02*
X168363200Y33416000D01*
G04 #@! TO.C,R5*
X177240200Y27016000D02*
X177240200Y33416000D01*
X174840200Y27016000D02*
X177240200Y27016000D01*
X174840200Y33416000D02*
X174840200Y27016000D01*
X177240200Y33416000D02*
X174840200Y33416000D01*
G04 #@! TO.C,R4*
X183768000Y27016000D02*
X183768000Y33416000D01*
X181368000Y27016000D02*
X183768000Y27016000D01*
X181368000Y33416000D02*
X181368000Y27016000D01*
X183768000Y33416000D02*
X181368000Y33416000D01*
G04 #@! TO.C,R3*
X190270400Y27016000D02*
X190270400Y33416000D01*
X187870400Y27016000D02*
X190270400Y27016000D01*
X187870400Y33416000D02*
X187870400Y27016000D01*
X190270400Y33416000D02*
X187870400Y33416000D01*
G04 #@! TO.C,R2*
X196772800Y27016000D02*
X196772800Y33416000D01*
X194372800Y27016000D02*
X196772800Y27016000D01*
X194372800Y33416000D02*
X194372800Y27016000D01*
X196772800Y33416000D02*
X194372800Y33416000D01*
G04 #@! TO.C,R1*
X203275200Y27016000D02*
X203275200Y33416000D01*
X200875200Y27016000D02*
X203275200Y27016000D01*
X200875200Y33416000D02*
X200875200Y27016000D01*
X203275200Y33416000D02*
X200875200Y33416000D01*
G04 #@! TO.C,U1*
X5184000Y16582000D02*
X1120000Y16582000D01*
X5184000Y22678000D02*
X5184000Y16582000D01*
X1120000Y22678000D02*
X5184000Y22678000D01*
X782000Y16590001D02*
X782000Y10510001D01*
X1142000Y16590001D02*
X782000Y16590001D01*
X1142000Y22670000D02*
X1142000Y16590001D01*
X782000Y22670000D02*
X1142000Y22670000D01*
X782000Y28750000D02*
X782000Y22670000D01*
X51242000Y28749999D02*
X782000Y28750000D01*
X51242000Y10510000D02*
X51242000Y28749999D01*
X782000Y10510001D02*
X51242000Y10510000D01*
G04 #@! TO.C,D16*
X106485000Y17355000D02*
X106485000Y17820000D01*
X106485000Y19980000D02*
X106485000Y20445000D01*
X101137185Y17819173D02*
G75*
G03*
X106485000Y17355170I2787815J1080827D01*
G01*
X101137185Y19980827D02*
G75*
G02*
X106485000Y20444830I2787815J-1080827D01*
G01*
X101670521Y17819571D02*
G75*
G03*
X106179684Y17820000I2254479J1080429D01*
G01*
X101670521Y19980429D02*
G75*
G02*
X106179684Y19980000I2254479J-1080429D01*
G01*
G04 #@! TO.C,D15*
X112985000Y17355000D02*
X112985000Y17820000D01*
X112985000Y19980000D02*
X112985000Y20445000D01*
X107637185Y17819173D02*
G75*
G03*
X112985000Y17355170I2787815J1080827D01*
G01*
X107637185Y19980827D02*
G75*
G02*
X112985000Y20444830I2787815J-1080827D01*
G01*
X108170521Y17819571D02*
G75*
G03*
X112679684Y17820000I2254479J1080429D01*
G01*
X108170521Y19980429D02*
G75*
G02*
X112679684Y19980000I2254479J-1080429D01*
G01*
G04 #@! TO.C,D14*
X119485000Y17355000D02*
X119485000Y17820000D01*
X119485000Y19980000D02*
X119485000Y20445000D01*
X114137185Y17819173D02*
G75*
G03*
X119485000Y17355170I2787815J1080827D01*
G01*
X114137185Y19980827D02*
G75*
G02*
X119485000Y20444830I2787815J-1080827D01*
G01*
X114670521Y17819571D02*
G75*
G03*
X119179684Y17820000I2254479J1080429D01*
G01*
X114670521Y19980429D02*
G75*
G02*
X119179684Y19980000I2254479J-1080429D01*
G01*
G04 #@! TO.C,D13*
X125985000Y17355000D02*
X125985000Y17820000D01*
X125985000Y19980000D02*
X125985000Y20445000D01*
X120637185Y17819173D02*
G75*
G03*
X125985000Y17355170I2787815J1080827D01*
G01*
X120637185Y19980827D02*
G75*
G02*
X125985000Y20444830I2787815J-1080827D01*
G01*
X121170521Y17819571D02*
G75*
G03*
X125679684Y17820000I2254479J1080429D01*
G01*
X121170521Y19980429D02*
G75*
G02*
X125679684Y19980000I2254479J-1080429D01*
G01*
G04 #@! TO.C,D12*
X132485000Y17355000D02*
X132485000Y17820000D01*
X132485000Y19980000D02*
X132485000Y20445000D01*
X127137185Y17819173D02*
G75*
G03*
X132485000Y17355170I2787815J1080827D01*
G01*
X127137185Y19980827D02*
G75*
G02*
X132485000Y20444830I2787815J-1080827D01*
G01*
X127670521Y17819571D02*
G75*
G03*
X132179684Y17820000I2254479J1080429D01*
G01*
X127670521Y19980429D02*
G75*
G02*
X132179684Y19980000I2254479J-1080429D01*
G01*
G04 #@! TO.C,D11*
X138985000Y17355000D02*
X138985000Y17820000D01*
X138985000Y19980000D02*
X138985000Y20445000D01*
X133637185Y17819173D02*
G75*
G03*
X138985000Y17355170I2787815J1080827D01*
G01*
X133637185Y19980827D02*
G75*
G02*
X138985000Y20444830I2787815J-1080827D01*
G01*
X134170521Y17819571D02*
G75*
G03*
X138679684Y17820000I2254479J1080429D01*
G01*
X134170521Y19980429D02*
G75*
G02*
X138679684Y19980000I2254479J-1080429D01*
G01*
G04 #@! TO.C,D10*
X145485000Y17355000D02*
X145485000Y17820000D01*
X145485000Y19980000D02*
X145485000Y20445000D01*
X140137185Y17819173D02*
G75*
G03*
X145485000Y17355170I2787815J1080827D01*
G01*
X140137185Y19980827D02*
G75*
G02*
X145485000Y20444830I2787815J-1080827D01*
G01*
X140670521Y17819571D02*
G75*
G03*
X145179684Y17820000I2254479J1080429D01*
G01*
X140670521Y19980429D02*
G75*
G02*
X145179684Y19980000I2254479J-1080429D01*
G01*
G04 #@! TO.C,D9*
X151985000Y17355000D02*
X151985000Y17820000D01*
X151985000Y19980000D02*
X151985000Y20445000D01*
X146637185Y17819173D02*
G75*
G03*
X151985000Y17355170I2787815J1080827D01*
G01*
X146637185Y19980827D02*
G75*
G02*
X151985000Y20444830I2787815J-1080827D01*
G01*
X147170521Y17819571D02*
G75*
G03*
X151679684Y17820000I2254479J1080429D01*
G01*
X147170521Y19980429D02*
G75*
G02*
X151679684Y19980000I2254479J-1080429D01*
G01*
G04 #@! TO.C,D8*
X158485000Y17355000D02*
X158485000Y17820000D01*
X158485000Y19980000D02*
X158485000Y20445000D01*
X153137185Y17819173D02*
G75*
G03*
X158485000Y17355170I2787815J1080827D01*
G01*
X153137185Y19980827D02*
G75*
G02*
X158485000Y20444830I2787815J-1080827D01*
G01*
X153670521Y17819571D02*
G75*
G03*
X158179684Y17820000I2254479J1080429D01*
G01*
X153670521Y19980429D02*
G75*
G02*
X158179684Y19980000I2254479J-1080429D01*
G01*
G04 #@! TO.C,D7*
X164985000Y17355000D02*
X164985000Y17820000D01*
X164985000Y19980000D02*
X164985000Y20445000D01*
X159637185Y17819173D02*
G75*
G03*
X164985000Y17355170I2787815J1080827D01*
G01*
X159637185Y19980827D02*
G75*
G02*
X164985000Y20444830I2787815J-1080827D01*
G01*
X160170521Y17819571D02*
G75*
G03*
X164679684Y17820000I2254479J1080429D01*
G01*
X160170521Y19980429D02*
G75*
G02*
X164679684Y19980000I2254479J-1080429D01*
G01*
G04 #@! TO.C,D6*
X171485000Y17355000D02*
X171485000Y17820000D01*
X171485000Y19980000D02*
X171485000Y20445000D01*
X166137185Y17819173D02*
G75*
G03*
X171485000Y17355170I2787815J1080827D01*
G01*
X166137185Y19980827D02*
G75*
G02*
X171485000Y20444830I2787815J-1080827D01*
G01*
X166670521Y17819571D02*
G75*
G03*
X171179684Y17820000I2254479J1080429D01*
G01*
X166670521Y19980429D02*
G75*
G02*
X171179684Y19980000I2254479J-1080429D01*
G01*
G04 #@! TO.C,D5*
X177985000Y17355000D02*
X177985000Y17820000D01*
X177985000Y19980000D02*
X177985000Y20445000D01*
X172637185Y17819173D02*
G75*
G03*
X177985000Y17355170I2787815J1080827D01*
G01*
X172637185Y19980827D02*
G75*
G02*
X177985000Y20444830I2787815J-1080827D01*
G01*
X173170521Y17819571D02*
G75*
G03*
X177679684Y17820000I2254479J1080429D01*
G01*
X173170521Y19980429D02*
G75*
G02*
X177679684Y19980000I2254479J-1080429D01*
G01*
G04 #@! TO.C,D4*
X184485000Y17355000D02*
X184485000Y17820000D01*
X184485000Y19980000D02*
X184485000Y20445000D01*
X179137185Y17819173D02*
G75*
G03*
X184485000Y17355170I2787815J1080827D01*
G01*
X179137185Y19980827D02*
G75*
G02*
X184485000Y20444830I2787815J-1080827D01*
G01*
X179670521Y17819571D02*
G75*
G03*
X184179684Y17820000I2254479J1080429D01*
G01*
X179670521Y19980429D02*
G75*
G02*
X184179684Y19980000I2254479J-1080429D01*
G01*
G04 #@! TO.C,D3*
X190985000Y17355000D02*
X190985000Y17820000D01*
X190985000Y19980000D02*
X190985000Y20445000D01*
X185637185Y17819173D02*
G75*
G03*
X190985000Y17355170I2787815J1080827D01*
G01*
X185637185Y19980827D02*
G75*
G02*
X190985000Y20444830I2787815J-1080827D01*
G01*
X186170521Y17819571D02*
G75*
G03*
X190679684Y17820000I2254479J1080429D01*
G01*
X186170521Y19980429D02*
G75*
G02*
X190679684Y19980000I2254479J-1080429D01*
G01*
G04 #@! TO.C,D2*
X197485000Y17355000D02*
X197485000Y17820000D01*
X197485000Y19980000D02*
X197485000Y20445000D01*
X192137185Y17819173D02*
G75*
G03*
X197485000Y17355170I2787815J1080827D01*
G01*
X192137185Y19980827D02*
G75*
G02*
X197485000Y20444830I2787815J-1080827D01*
G01*
X192670521Y17819571D02*
G75*
G03*
X197179684Y17820000I2254479J1080429D01*
G01*
X192670521Y19980429D02*
G75*
G02*
X197179684Y19980000I2254479J-1080429D01*
G01*
G04 #@! TO.C,D1*
X203985000Y17355000D02*
X203985000Y17820000D01*
X203985000Y19980000D02*
X203985000Y20445000D01*
X198637185Y17819173D02*
G75*
G03*
X203985000Y17355170I2787815J1080827D01*
G01*
X198637185Y19980827D02*
G75*
G02*
X203985000Y20444830I2787815J-1080827D01*
G01*
X199170521Y17819571D02*
G75*
G03*
X203679684Y17820000I2254479J1080429D01*
G01*
X199170521Y19980429D02*
G75*
G02*
X203679684Y19980000I2254479J-1080429D01*
G01*
G04 #@! TO.C,U10*
D13*
X93667904Y37851620D02*
X93667904Y37042096D01*
X93715523Y36946858D01*
X93763142Y36899239D01*
X93858380Y36851620D01*
X94048857Y36851620D01*
X94144095Y36899239D01*
X94191714Y36946858D01*
X94239333Y37042096D01*
X94239333Y37851620D01*
X95239333Y36851620D02*
X94667904Y36851620D01*
X94953619Y36851620D02*
X94953619Y37851620D01*
X94858380Y37708762D01*
X94763142Y37613524D01*
X94667904Y37565905D01*
X95858380Y37851620D02*
X95953619Y37851620D01*
X96048857Y37804000D01*
X96096476Y37756381D01*
X96144095Y37661143D01*
X96191714Y37470667D01*
X96191714Y37232572D01*
X96144095Y37042096D01*
X96096476Y36946858D01*
X96048857Y36899239D01*
X95953619Y36851620D01*
X95858380Y36851620D01*
X95763142Y36899239D01*
X95715523Y36946858D01*
X95667904Y37042096D01*
X95620285Y37232572D01*
X95620285Y37470667D01*
X95667904Y37661143D01*
X95715523Y37756381D01*
X95763142Y37804000D01*
X95858380Y37851620D01*
G04 #@! TO.C,U8*
X67052666Y32820667D02*
X67619333Y32820667D01*
X67686000Y32854000D01*
X67719333Y32887334D01*
X67752666Y32954000D01*
X67752666Y33087334D01*
X67719333Y33154000D01*
X67686000Y33187334D01*
X67619333Y33220667D01*
X67052666Y33220667D01*
X67352666Y33654000D02*
X67319333Y33587334D01*
X67286000Y33554000D01*
X67219333Y33520667D01*
X67186000Y33520667D01*
X67119333Y33554000D01*
X67086000Y33587334D01*
X67052666Y33654000D01*
X67052666Y33787334D01*
X67086000Y33854000D01*
X67119333Y33887334D01*
X67186000Y33920667D01*
X67219333Y33920667D01*
X67286000Y33887334D01*
X67319333Y33854000D01*
X67352666Y33787334D01*
X67352666Y33654000D01*
X67386000Y33587334D01*
X67419333Y33554000D01*
X67486000Y33520667D01*
X67619333Y33520667D01*
X67686000Y33554000D01*
X67719333Y33587334D01*
X67752666Y33654000D01*
X67752666Y33787334D01*
X67719333Y33854000D01*
X67686000Y33887334D01*
X67619333Y33920667D01*
X67486000Y33920667D01*
X67419333Y33887334D01*
X67386000Y33854000D01*
X67352666Y33787334D01*
G04 #@! TO.C,LED11*
X82704761Y26797620D02*
X82228571Y26797620D01*
X82228571Y27797620D01*
X83038095Y27321429D02*
X83371428Y27321429D01*
X83514285Y26797620D02*
X83038095Y26797620D01*
X83038095Y27797620D01*
X83514285Y27797620D01*
X83942857Y26797620D02*
X83942857Y27797620D01*
X84180952Y27797620D01*
X84323809Y27750000D01*
X84419047Y27654762D01*
X84466666Y27559524D01*
X84514285Y27369048D01*
X84514285Y27226191D01*
X84466666Y27035715D01*
X84419047Y26940477D01*
X84323809Y26845239D01*
X84180952Y26797620D01*
X83942857Y26797620D01*
X85466666Y26797620D02*
X84895238Y26797620D01*
X85180952Y26797620D02*
X85180952Y27797620D01*
X85085714Y27654762D01*
X84990476Y27559524D01*
X84895238Y27511905D01*
X86419047Y26797620D02*
X85847619Y26797620D01*
X86133333Y26797620D02*
X86133333Y27797620D01*
X86038095Y27654762D01*
X85942857Y27559524D01*
X85847619Y27511905D01*
X78839047Y36068572D02*
X79600952Y36068572D01*
X79220000Y35687620D02*
X79220000Y36449524D01*
G04 #@! TO.C,R16*
X107074380Y29313143D02*
X106598190Y28979810D01*
X107074380Y28741715D02*
X106074380Y28741715D01*
X106074380Y29122667D01*
X106122000Y29217905D01*
X106169619Y29265524D01*
X106264857Y29313143D01*
X106407714Y29313143D01*
X106502952Y29265524D01*
X106550571Y29217905D01*
X106598190Y29122667D01*
X106598190Y28741715D01*
X107074380Y30265524D02*
X107074380Y29694096D01*
X107074380Y29979810D02*
X106074380Y29979810D01*
X106217238Y29884572D01*
X106312476Y29789334D01*
X106360095Y29694096D01*
X106074380Y31122667D02*
X106074380Y30932191D01*
X106122000Y30836953D01*
X106169619Y30789334D01*
X106312476Y30694096D01*
X106502952Y30646477D01*
X106883904Y30646477D01*
X106979142Y30694096D01*
X107026761Y30741715D01*
X107074380Y30836953D01*
X107074380Y31027429D01*
X107026761Y31122667D01*
X106979142Y31170286D01*
X106883904Y31217905D01*
X106645809Y31217905D01*
X106550571Y31170286D01*
X106502952Y31122667D01*
X106455333Y31027429D01*
X106455333Y30836953D01*
X106502952Y30741715D01*
X106550571Y30694096D01*
X106645809Y30646477D01*
G04 #@! TO.C,R15*
X113678380Y29313143D02*
X113202190Y28979810D01*
X113678380Y28741715D02*
X112678380Y28741715D01*
X112678380Y29122667D01*
X112726000Y29217905D01*
X112773619Y29265524D01*
X112868857Y29313143D01*
X113011714Y29313143D01*
X113106952Y29265524D01*
X113154571Y29217905D01*
X113202190Y29122667D01*
X113202190Y28741715D01*
X113678380Y30265524D02*
X113678380Y29694096D01*
X113678380Y29979810D02*
X112678380Y29979810D01*
X112821238Y29884572D01*
X112916476Y29789334D01*
X112964095Y29694096D01*
X112678380Y31170286D02*
X112678380Y30694096D01*
X113154571Y30646477D01*
X113106952Y30694096D01*
X113059333Y30789334D01*
X113059333Y31027429D01*
X113106952Y31122667D01*
X113154571Y31170286D01*
X113249809Y31217905D01*
X113487904Y31217905D01*
X113583142Y31170286D01*
X113630761Y31122667D01*
X113678380Y31027429D01*
X113678380Y30789334D01*
X113630761Y30694096D01*
X113583142Y30646477D01*
G04 #@! TO.C,R14*
X120028380Y29313143D02*
X119552190Y28979810D01*
X120028380Y28741715D02*
X119028380Y28741715D01*
X119028380Y29122667D01*
X119076000Y29217905D01*
X119123619Y29265524D01*
X119218857Y29313143D01*
X119361714Y29313143D01*
X119456952Y29265524D01*
X119504571Y29217905D01*
X119552190Y29122667D01*
X119552190Y28741715D01*
X120028380Y30265524D02*
X120028380Y29694096D01*
X120028380Y29979810D02*
X119028380Y29979810D01*
X119171238Y29884572D01*
X119266476Y29789334D01*
X119314095Y29694096D01*
X119361714Y31122667D02*
X120028380Y31122667D01*
X118980761Y30884572D02*
X119695047Y30646477D01*
X119695047Y31265524D01*
G04 #@! TO.C,R13*
X126886380Y29313143D02*
X126410190Y28979810D01*
X126886380Y28741715D02*
X125886380Y28741715D01*
X125886380Y29122667D01*
X125934000Y29217905D01*
X125981619Y29265524D01*
X126076857Y29313143D01*
X126219714Y29313143D01*
X126314952Y29265524D01*
X126362571Y29217905D01*
X126410190Y29122667D01*
X126410190Y28741715D01*
X126886380Y30265524D02*
X126886380Y29694096D01*
X126886380Y29979810D02*
X125886380Y29979810D01*
X126029238Y29884572D01*
X126124476Y29789334D01*
X126172095Y29694096D01*
X125886380Y30598858D02*
X125886380Y31217905D01*
X126267333Y30884572D01*
X126267333Y31027429D01*
X126314952Y31122667D01*
X126362571Y31170286D01*
X126457809Y31217905D01*
X126695904Y31217905D01*
X126791142Y31170286D01*
X126838761Y31122667D01*
X126886380Y31027429D01*
X126886380Y30741715D01*
X126838761Y30646477D01*
X126791142Y30598858D01*
G04 #@! TO.C,R12*
X133236380Y29313143D02*
X132760190Y28979810D01*
X133236380Y28741715D02*
X132236380Y28741715D01*
X132236380Y29122667D01*
X132284000Y29217905D01*
X132331619Y29265524D01*
X132426857Y29313143D01*
X132569714Y29313143D01*
X132664952Y29265524D01*
X132712571Y29217905D01*
X132760190Y29122667D01*
X132760190Y28741715D01*
X133236380Y30265524D02*
X133236380Y29694096D01*
X133236380Y29979810D02*
X132236380Y29979810D01*
X132379238Y29884572D01*
X132474476Y29789334D01*
X132522095Y29694096D01*
X132331619Y30646477D02*
X132284000Y30694096D01*
X132236380Y30789334D01*
X132236380Y31027429D01*
X132284000Y31122667D01*
X132331619Y31170286D01*
X132426857Y31217905D01*
X132522095Y31217905D01*
X132664952Y31170286D01*
X133236380Y30598858D01*
X133236380Y31217905D01*
G04 #@! TO.C,R11*
X139586380Y29313143D02*
X139110190Y28979810D01*
X139586380Y28741715D02*
X138586380Y28741715D01*
X138586380Y29122667D01*
X138634000Y29217905D01*
X138681619Y29265524D01*
X138776857Y29313143D01*
X138919714Y29313143D01*
X139014952Y29265524D01*
X139062571Y29217905D01*
X139110190Y29122667D01*
X139110190Y28741715D01*
X139586380Y30265524D02*
X139586380Y29694096D01*
X139586380Y29979810D02*
X138586380Y29979810D01*
X138729238Y29884572D01*
X138824476Y29789334D01*
X138872095Y29694096D01*
X139586380Y31217905D02*
X139586380Y30646477D01*
X139586380Y30932191D02*
X138586380Y30932191D01*
X138729238Y30836953D01*
X138824476Y30741715D01*
X138872095Y30646477D01*
G04 #@! TO.C,R10*
X146190380Y29319143D02*
X145714190Y28985810D01*
X146190380Y28747715D02*
X145190380Y28747715D01*
X145190380Y29128667D01*
X145238000Y29223905D01*
X145285619Y29271524D01*
X145380857Y29319143D01*
X145523714Y29319143D01*
X145618952Y29271524D01*
X145666571Y29223905D01*
X145714190Y29128667D01*
X145714190Y28747715D01*
X146190380Y30271524D02*
X146190380Y29700096D01*
X146190380Y29985810D02*
X145190380Y29985810D01*
X145333238Y29890572D01*
X145428476Y29795334D01*
X145476095Y29700096D01*
X145190380Y30890572D02*
X145190380Y30985810D01*
X145238000Y31081048D01*
X145285619Y31128667D01*
X145380857Y31176286D01*
X145571333Y31223905D01*
X145809428Y31223905D01*
X145999904Y31176286D01*
X146095142Y31128667D01*
X146142761Y31081048D01*
X146190380Y30985810D01*
X146190380Y30890572D01*
X146142761Y30795334D01*
X146095142Y30747715D01*
X145999904Y30700096D01*
X145809428Y30652477D01*
X145571333Y30652477D01*
X145380857Y30700096D01*
X145285619Y30747715D01*
X145238000Y30795334D01*
X145190380Y30890572D01*
G04 #@! TO.C,R9*
X152540380Y29789334D02*
X152064190Y29456000D01*
X152540380Y29217905D02*
X151540380Y29217905D01*
X151540380Y29598858D01*
X151588000Y29694096D01*
X151635619Y29741715D01*
X151730857Y29789334D01*
X151873714Y29789334D01*
X151968952Y29741715D01*
X152016571Y29694096D01*
X152064190Y29598858D01*
X152064190Y29217905D01*
X152540380Y30265524D02*
X152540380Y30456000D01*
X152492761Y30551239D01*
X152445142Y30598858D01*
X152302285Y30694096D01*
X152111809Y30741715D01*
X151730857Y30741715D01*
X151635619Y30694096D01*
X151588000Y30646477D01*
X151540380Y30551239D01*
X151540380Y30360762D01*
X151588000Y30265524D01*
X151635619Y30217905D01*
X151730857Y30170286D01*
X151968952Y30170286D01*
X152064190Y30217905D01*
X152111809Y30265524D01*
X152159428Y30360762D01*
X152159428Y30551239D01*
X152111809Y30646477D01*
X152064190Y30694096D01*
X151968952Y30741715D01*
G04 #@! TO.C,R8*
X159144380Y29789334D02*
X158668190Y29456000D01*
X159144380Y29217905D02*
X158144380Y29217905D01*
X158144380Y29598858D01*
X158192000Y29694096D01*
X158239619Y29741715D01*
X158334857Y29789334D01*
X158477714Y29789334D01*
X158572952Y29741715D01*
X158620571Y29694096D01*
X158668190Y29598858D01*
X158668190Y29217905D01*
X158572952Y30360762D02*
X158525333Y30265524D01*
X158477714Y30217905D01*
X158382476Y30170286D01*
X158334857Y30170286D01*
X158239619Y30217905D01*
X158192000Y30265524D01*
X158144380Y30360762D01*
X158144380Y30551239D01*
X158192000Y30646477D01*
X158239619Y30694096D01*
X158334857Y30741715D01*
X158382476Y30741715D01*
X158477714Y30694096D01*
X158525333Y30646477D01*
X158572952Y30551239D01*
X158572952Y30360762D01*
X158620571Y30265524D01*
X158668190Y30217905D01*
X158763428Y30170286D01*
X158953904Y30170286D01*
X159049142Y30217905D01*
X159096761Y30265524D01*
X159144380Y30360762D01*
X159144380Y30551239D01*
X159096761Y30646477D01*
X159049142Y30694096D01*
X158953904Y30741715D01*
X158763428Y30741715D01*
X158668190Y30694096D01*
X158620571Y30646477D01*
X158572952Y30551239D01*
G04 #@! TO.C,R7*
X165494380Y29789334D02*
X165018190Y29456000D01*
X165494380Y29217905D02*
X164494380Y29217905D01*
X164494380Y29598858D01*
X164542000Y29694096D01*
X164589619Y29741715D01*
X164684857Y29789334D01*
X164827714Y29789334D01*
X164922952Y29741715D01*
X164970571Y29694096D01*
X165018190Y29598858D01*
X165018190Y29217905D01*
X164494380Y30122667D02*
X164494380Y30789334D01*
X165494380Y30360762D01*
G04 #@! TO.C,R6*
X172098380Y29789334D02*
X171622190Y29456000D01*
X172098380Y29217905D02*
X171098380Y29217905D01*
X171098380Y29598858D01*
X171146000Y29694096D01*
X171193619Y29741715D01*
X171288857Y29789334D01*
X171431714Y29789334D01*
X171526952Y29741715D01*
X171574571Y29694096D01*
X171622190Y29598858D01*
X171622190Y29217905D01*
X171098380Y30646477D02*
X171098380Y30456000D01*
X171146000Y30360762D01*
X171193619Y30313143D01*
X171336476Y30217905D01*
X171526952Y30170286D01*
X171907904Y30170286D01*
X172003142Y30217905D01*
X172050761Y30265524D01*
X172098380Y30360762D01*
X172098380Y30551239D01*
X172050761Y30646477D01*
X172003142Y30694096D01*
X171907904Y30741715D01*
X171669809Y30741715D01*
X171574571Y30694096D01*
X171526952Y30646477D01*
X171479333Y30551239D01*
X171479333Y30360762D01*
X171526952Y30265524D01*
X171574571Y30217905D01*
X171669809Y30170286D01*
G04 #@! TO.C,R5*
X178702380Y29789334D02*
X178226190Y29456000D01*
X178702380Y29217905D02*
X177702380Y29217905D01*
X177702380Y29598858D01*
X177750000Y29694096D01*
X177797619Y29741715D01*
X177892857Y29789334D01*
X178035714Y29789334D01*
X178130952Y29741715D01*
X178178571Y29694096D01*
X178226190Y29598858D01*
X178226190Y29217905D01*
X177702380Y30694096D02*
X177702380Y30217905D01*
X178178571Y30170286D01*
X178130952Y30217905D01*
X178083333Y30313143D01*
X178083333Y30551239D01*
X178130952Y30646477D01*
X178178571Y30694096D01*
X178273809Y30741715D01*
X178511904Y30741715D01*
X178607142Y30694096D01*
X178654761Y30646477D01*
X178702380Y30551239D01*
X178702380Y30313143D01*
X178654761Y30217905D01*
X178607142Y30170286D01*
G04 #@! TO.C,R4*
X185052380Y29789334D02*
X184576190Y29456000D01*
X185052380Y29217905D02*
X184052380Y29217905D01*
X184052380Y29598858D01*
X184100000Y29694096D01*
X184147619Y29741715D01*
X184242857Y29789334D01*
X184385714Y29789334D01*
X184480952Y29741715D01*
X184528571Y29694096D01*
X184576190Y29598858D01*
X184576190Y29217905D01*
X184385714Y30646477D02*
X185052380Y30646477D01*
X184004761Y30408381D02*
X184719047Y30170286D01*
X184719047Y30789334D01*
G04 #@! TO.C,R3*
X191656380Y29789334D02*
X191180190Y29456000D01*
X191656380Y29217905D02*
X190656380Y29217905D01*
X190656380Y29598858D01*
X190704000Y29694096D01*
X190751619Y29741715D01*
X190846857Y29789334D01*
X190989714Y29789334D01*
X191084952Y29741715D01*
X191132571Y29694096D01*
X191180190Y29598858D01*
X191180190Y29217905D01*
X190656380Y30122667D02*
X190656380Y30741715D01*
X191037333Y30408381D01*
X191037333Y30551239D01*
X191084952Y30646477D01*
X191132571Y30694096D01*
X191227809Y30741715D01*
X191465904Y30741715D01*
X191561142Y30694096D01*
X191608761Y30646477D01*
X191656380Y30551239D01*
X191656380Y30265524D01*
X191608761Y30170286D01*
X191561142Y30122667D01*
G04 #@! TO.C,R2*
X198260380Y29789334D02*
X197784190Y29456000D01*
X198260380Y29217905D02*
X197260380Y29217905D01*
X197260380Y29598858D01*
X197308000Y29694096D01*
X197355619Y29741715D01*
X197450857Y29789334D01*
X197593714Y29789334D01*
X197688952Y29741715D01*
X197736571Y29694096D01*
X197784190Y29598858D01*
X197784190Y29217905D01*
X197355619Y30170286D02*
X197308000Y30217905D01*
X197260380Y30313143D01*
X197260380Y30551239D01*
X197308000Y30646477D01*
X197355619Y30694096D01*
X197450857Y30741715D01*
X197546095Y30741715D01*
X197688952Y30694096D01*
X198260380Y30122667D01*
X198260380Y30741715D01*
G04 #@! TO.C,R1*
X204610380Y29789334D02*
X204134190Y29456000D01*
X204610380Y29217905D02*
X203610380Y29217905D01*
X203610380Y29598858D01*
X203658000Y29694096D01*
X203705619Y29741715D01*
X203800857Y29789334D01*
X203943714Y29789334D01*
X204038952Y29741715D01*
X204086571Y29694096D01*
X204134190Y29598858D01*
X204134190Y29217905D01*
X204610380Y30741715D02*
X204610380Y30170286D01*
X204610380Y30456000D02*
X203610380Y30456000D01*
X203753238Y30360762D01*
X203848476Y30265524D01*
X203896095Y30170286D01*
G04 #@! TO.C,U1*
X1452380Y18868096D02*
X2261904Y18868096D01*
X2357142Y18915715D01*
X2404761Y18963334D01*
X2452380Y19058572D01*
X2452380Y19249048D01*
X2404761Y19344286D01*
X2357142Y19391905D01*
X2261904Y19439524D01*
X1452380Y19439524D01*
X2452380Y20439524D02*
X2452380Y19868096D01*
X2452380Y20153810D02*
X1452380Y20153810D01*
X1595238Y20058572D01*
X1690476Y19963334D01*
X1738095Y19868096D01*
X6462095Y20177620D02*
X6462095Y19368096D01*
X6509714Y19272858D01*
X6557333Y19225239D01*
X6652571Y19177620D01*
X6843047Y19177620D01*
X6938285Y19225239D01*
X6985904Y19272858D01*
X7033523Y19368096D01*
X7033523Y20177620D01*
X7462095Y19225239D02*
X7604952Y19177620D01*
X7843047Y19177620D01*
X7938285Y19225239D01*
X7985904Y19272858D01*
X8033523Y19368096D01*
X8033523Y19463334D01*
X7985904Y19558572D01*
X7938285Y19606191D01*
X7843047Y19653810D01*
X7652571Y19701429D01*
X7557333Y19749048D01*
X7509714Y19796667D01*
X7462095Y19891905D01*
X7462095Y19987143D01*
X7509714Y20082381D01*
X7557333Y20130000D01*
X7652571Y20177620D01*
X7890666Y20177620D01*
X8033523Y20130000D01*
X8795428Y19701429D02*
X8938285Y19653810D01*
X8985904Y19606191D01*
X9033523Y19510953D01*
X9033523Y19368096D01*
X8985904Y19272858D01*
X8938285Y19225239D01*
X8843047Y19177620D01*
X8462095Y19177620D01*
X8462095Y20177620D01*
X8795428Y20177620D01*
X8890666Y20130000D01*
X8938285Y20082381D01*
X8985904Y19987143D01*
X8985904Y19891905D01*
X8938285Y19796667D01*
X8890666Y19749048D01*
X8795428Y19701429D01*
X8462095Y19701429D01*
G04 #@! TO.C,D16*
X102710714Y14487620D02*
X102710714Y15487620D01*
X102948809Y15487620D01*
X103091666Y15440000D01*
X103186904Y15344762D01*
X103234523Y15249524D01*
X103282142Y15059048D01*
X103282142Y14916191D01*
X103234523Y14725715D01*
X103186904Y14630477D01*
X103091666Y14535239D01*
X102948809Y14487620D01*
X102710714Y14487620D01*
X104234523Y14487620D02*
X103663095Y14487620D01*
X103948809Y14487620D02*
X103948809Y15487620D01*
X103853571Y15344762D01*
X103758333Y15249524D01*
X103663095Y15201905D01*
X105091666Y15487620D02*
X104901190Y15487620D01*
X104805952Y15440000D01*
X104758333Y15392381D01*
X104663095Y15249524D01*
X104615476Y15059048D01*
X104615476Y14678096D01*
X104663095Y14582858D01*
X104710714Y14535239D01*
X104805952Y14487620D01*
X104996428Y14487620D01*
X105091666Y14535239D01*
X105139285Y14582858D01*
X105186904Y14678096D01*
X105186904Y14916191D01*
X105139285Y15011429D01*
X105091666Y15059048D01*
X104996428Y15106667D01*
X104805952Y15106667D01*
X104710714Y15059048D01*
X104663095Y15011429D01*
X104615476Y14916191D01*
G04 #@! TO.C,D15*
X109210714Y14487620D02*
X109210714Y15487620D01*
X109448809Y15487620D01*
X109591666Y15440000D01*
X109686904Y15344762D01*
X109734523Y15249524D01*
X109782142Y15059048D01*
X109782142Y14916191D01*
X109734523Y14725715D01*
X109686904Y14630477D01*
X109591666Y14535239D01*
X109448809Y14487620D01*
X109210714Y14487620D01*
X110734523Y14487620D02*
X110163095Y14487620D01*
X110448809Y14487620D02*
X110448809Y15487620D01*
X110353571Y15344762D01*
X110258333Y15249524D01*
X110163095Y15201905D01*
X111639285Y15487620D02*
X111163095Y15487620D01*
X111115476Y15011429D01*
X111163095Y15059048D01*
X111258333Y15106667D01*
X111496428Y15106667D01*
X111591666Y15059048D01*
X111639285Y15011429D01*
X111686904Y14916191D01*
X111686904Y14678096D01*
X111639285Y14582858D01*
X111591666Y14535239D01*
X111496428Y14487620D01*
X111258333Y14487620D01*
X111163095Y14535239D01*
X111115476Y14582858D01*
G04 #@! TO.C,D14*
X115710714Y14487620D02*
X115710714Y15487620D01*
X115948809Y15487620D01*
X116091666Y15440000D01*
X116186904Y15344762D01*
X116234523Y15249524D01*
X116282142Y15059048D01*
X116282142Y14916191D01*
X116234523Y14725715D01*
X116186904Y14630477D01*
X116091666Y14535239D01*
X115948809Y14487620D01*
X115710714Y14487620D01*
X117234523Y14487620D02*
X116663095Y14487620D01*
X116948809Y14487620D02*
X116948809Y15487620D01*
X116853571Y15344762D01*
X116758333Y15249524D01*
X116663095Y15201905D01*
X118091666Y15154286D02*
X118091666Y14487620D01*
X117853571Y15535239D02*
X117615476Y14820953D01*
X118234523Y14820953D01*
G04 #@! TO.C,D13*
X122210714Y14487620D02*
X122210714Y15487620D01*
X122448809Y15487620D01*
X122591666Y15440000D01*
X122686904Y15344762D01*
X122734523Y15249524D01*
X122782142Y15059048D01*
X122782142Y14916191D01*
X122734523Y14725715D01*
X122686904Y14630477D01*
X122591666Y14535239D01*
X122448809Y14487620D01*
X122210714Y14487620D01*
X123734523Y14487620D02*
X123163095Y14487620D01*
X123448809Y14487620D02*
X123448809Y15487620D01*
X123353571Y15344762D01*
X123258333Y15249524D01*
X123163095Y15201905D01*
X124067857Y15487620D02*
X124686904Y15487620D01*
X124353571Y15106667D01*
X124496428Y15106667D01*
X124591666Y15059048D01*
X124639285Y15011429D01*
X124686904Y14916191D01*
X124686904Y14678096D01*
X124639285Y14582858D01*
X124591666Y14535239D01*
X124496428Y14487620D01*
X124210714Y14487620D01*
X124115476Y14535239D01*
X124067857Y14582858D01*
G04 #@! TO.C,D12*
X128710714Y14487620D02*
X128710714Y15487620D01*
X128948809Y15487620D01*
X129091666Y15440000D01*
X129186904Y15344762D01*
X129234523Y15249524D01*
X129282142Y15059048D01*
X129282142Y14916191D01*
X129234523Y14725715D01*
X129186904Y14630477D01*
X129091666Y14535239D01*
X128948809Y14487620D01*
X128710714Y14487620D01*
X130234523Y14487620D02*
X129663095Y14487620D01*
X129948809Y14487620D02*
X129948809Y15487620D01*
X129853571Y15344762D01*
X129758333Y15249524D01*
X129663095Y15201905D01*
X130615476Y15392381D02*
X130663095Y15440000D01*
X130758333Y15487620D01*
X130996428Y15487620D01*
X131091666Y15440000D01*
X131139285Y15392381D01*
X131186904Y15297143D01*
X131186904Y15201905D01*
X131139285Y15059048D01*
X130567857Y14487620D01*
X131186904Y14487620D01*
G04 #@! TO.C,D11*
X135210714Y14487620D02*
X135210714Y15487620D01*
X135448809Y15487620D01*
X135591666Y15440000D01*
X135686904Y15344762D01*
X135734523Y15249524D01*
X135782142Y15059048D01*
X135782142Y14916191D01*
X135734523Y14725715D01*
X135686904Y14630477D01*
X135591666Y14535239D01*
X135448809Y14487620D01*
X135210714Y14487620D01*
X136734523Y14487620D02*
X136163095Y14487620D01*
X136448809Y14487620D02*
X136448809Y15487620D01*
X136353571Y15344762D01*
X136258333Y15249524D01*
X136163095Y15201905D01*
X137686904Y14487620D02*
X137115476Y14487620D01*
X137401190Y14487620D02*
X137401190Y15487620D01*
X137305952Y15344762D01*
X137210714Y15249524D01*
X137115476Y15201905D01*
G04 #@! TO.C,D10*
X141710714Y14487620D02*
X141710714Y15487620D01*
X141948809Y15487620D01*
X142091666Y15440000D01*
X142186904Y15344762D01*
X142234523Y15249524D01*
X142282142Y15059048D01*
X142282142Y14916191D01*
X142234523Y14725715D01*
X142186904Y14630477D01*
X142091666Y14535239D01*
X141948809Y14487620D01*
X141710714Y14487620D01*
X143234523Y14487620D02*
X142663095Y14487620D01*
X142948809Y14487620D02*
X142948809Y15487620D01*
X142853571Y15344762D01*
X142758333Y15249524D01*
X142663095Y15201905D01*
X143853571Y15487620D02*
X143948809Y15487620D01*
X144044047Y15440000D01*
X144091666Y15392381D01*
X144139285Y15297143D01*
X144186904Y15106667D01*
X144186904Y14868572D01*
X144139285Y14678096D01*
X144091666Y14582858D01*
X144044047Y14535239D01*
X143948809Y14487620D01*
X143853571Y14487620D01*
X143758333Y14535239D01*
X143710714Y14582858D01*
X143663095Y14678096D01*
X143615476Y14868572D01*
X143615476Y15106667D01*
X143663095Y15297143D01*
X143710714Y15392381D01*
X143758333Y15440000D01*
X143853571Y15487620D01*
G04 #@! TO.C,D9*
X148686904Y14487620D02*
X148686904Y15487620D01*
X148925000Y15487620D01*
X149067857Y15440000D01*
X149163095Y15344762D01*
X149210714Y15249524D01*
X149258333Y15059048D01*
X149258333Y14916191D01*
X149210714Y14725715D01*
X149163095Y14630477D01*
X149067857Y14535239D01*
X148925000Y14487620D01*
X148686904Y14487620D01*
X149734523Y14487620D02*
X149925000Y14487620D01*
X150020238Y14535239D01*
X150067857Y14582858D01*
X150163095Y14725715D01*
X150210714Y14916191D01*
X150210714Y15297143D01*
X150163095Y15392381D01*
X150115476Y15440000D01*
X150020238Y15487620D01*
X149829761Y15487620D01*
X149734523Y15440000D01*
X149686904Y15392381D01*
X149639285Y15297143D01*
X149639285Y15059048D01*
X149686904Y14963810D01*
X149734523Y14916191D01*
X149829761Y14868572D01*
X150020238Y14868572D01*
X150115476Y14916191D01*
X150163095Y14963810D01*
X150210714Y15059048D01*
G04 #@! TO.C,D8*
X155186904Y14487620D02*
X155186904Y15487620D01*
X155425000Y15487620D01*
X155567857Y15440000D01*
X155663095Y15344762D01*
X155710714Y15249524D01*
X155758333Y15059048D01*
X155758333Y14916191D01*
X155710714Y14725715D01*
X155663095Y14630477D01*
X155567857Y14535239D01*
X155425000Y14487620D01*
X155186904Y14487620D01*
X156329761Y15059048D02*
X156234523Y15106667D01*
X156186904Y15154286D01*
X156139285Y15249524D01*
X156139285Y15297143D01*
X156186904Y15392381D01*
X156234523Y15440000D01*
X156329761Y15487620D01*
X156520238Y15487620D01*
X156615476Y15440000D01*
X156663095Y15392381D01*
X156710714Y15297143D01*
X156710714Y15249524D01*
X156663095Y15154286D01*
X156615476Y15106667D01*
X156520238Y15059048D01*
X156329761Y15059048D01*
X156234523Y15011429D01*
X156186904Y14963810D01*
X156139285Y14868572D01*
X156139285Y14678096D01*
X156186904Y14582858D01*
X156234523Y14535239D01*
X156329761Y14487620D01*
X156520238Y14487620D01*
X156615476Y14535239D01*
X156663095Y14582858D01*
X156710714Y14678096D01*
X156710714Y14868572D01*
X156663095Y14963810D01*
X156615476Y15011429D01*
X156520238Y15059048D01*
G04 #@! TO.C,D7*
X161686904Y14487620D02*
X161686904Y15487620D01*
X161925000Y15487620D01*
X162067857Y15440000D01*
X162163095Y15344762D01*
X162210714Y15249524D01*
X162258333Y15059048D01*
X162258333Y14916191D01*
X162210714Y14725715D01*
X162163095Y14630477D01*
X162067857Y14535239D01*
X161925000Y14487620D01*
X161686904Y14487620D01*
X162591666Y15487620D02*
X163258333Y15487620D01*
X162829761Y14487620D01*
G04 #@! TO.C,D6*
X168186904Y14487620D02*
X168186904Y15487620D01*
X168425000Y15487620D01*
X168567857Y15440000D01*
X168663095Y15344762D01*
X168710714Y15249524D01*
X168758333Y15059048D01*
X168758333Y14916191D01*
X168710714Y14725715D01*
X168663095Y14630477D01*
X168567857Y14535239D01*
X168425000Y14487620D01*
X168186904Y14487620D01*
X169615476Y15487620D02*
X169425000Y15487620D01*
X169329761Y15440000D01*
X169282142Y15392381D01*
X169186904Y15249524D01*
X169139285Y15059048D01*
X169139285Y14678096D01*
X169186904Y14582858D01*
X169234523Y14535239D01*
X169329761Y14487620D01*
X169520238Y14487620D01*
X169615476Y14535239D01*
X169663095Y14582858D01*
X169710714Y14678096D01*
X169710714Y14916191D01*
X169663095Y15011429D01*
X169615476Y15059048D01*
X169520238Y15106667D01*
X169329761Y15106667D01*
X169234523Y15059048D01*
X169186904Y15011429D01*
X169139285Y14916191D01*
G04 #@! TO.C,D5*
X174686904Y14487620D02*
X174686904Y15487620D01*
X174925000Y15487620D01*
X175067857Y15440000D01*
X175163095Y15344762D01*
X175210714Y15249524D01*
X175258333Y15059048D01*
X175258333Y14916191D01*
X175210714Y14725715D01*
X175163095Y14630477D01*
X175067857Y14535239D01*
X174925000Y14487620D01*
X174686904Y14487620D01*
X176163095Y15487620D02*
X175686904Y15487620D01*
X175639285Y15011429D01*
X175686904Y15059048D01*
X175782142Y15106667D01*
X176020238Y15106667D01*
X176115476Y15059048D01*
X176163095Y15011429D01*
X176210714Y14916191D01*
X176210714Y14678096D01*
X176163095Y14582858D01*
X176115476Y14535239D01*
X176020238Y14487620D01*
X175782142Y14487620D01*
X175686904Y14535239D01*
X175639285Y14582858D01*
G04 #@! TO.C,D4*
X181067904Y14523620D02*
X181067904Y15523620D01*
X181306000Y15523620D01*
X181448857Y15476000D01*
X181544095Y15380762D01*
X181591714Y15285524D01*
X181639333Y15095048D01*
X181639333Y14952191D01*
X181591714Y14761715D01*
X181544095Y14666477D01*
X181448857Y14571239D01*
X181306000Y14523620D01*
X181067904Y14523620D01*
X182496476Y15190286D02*
X182496476Y14523620D01*
X182258380Y15571239D02*
X182020285Y14856953D01*
X182639333Y14856953D01*
G04 #@! TO.C,D3*
X187671904Y14523620D02*
X187671904Y15523620D01*
X187910000Y15523620D01*
X188052857Y15476000D01*
X188148095Y15380762D01*
X188195714Y15285524D01*
X188243333Y15095048D01*
X188243333Y14952191D01*
X188195714Y14761715D01*
X188148095Y14666477D01*
X188052857Y14571239D01*
X187910000Y14523620D01*
X187671904Y14523620D01*
X188576666Y15523620D02*
X189195714Y15523620D01*
X188862380Y15142667D01*
X189005238Y15142667D01*
X189100476Y15095048D01*
X189148095Y15047429D01*
X189195714Y14952191D01*
X189195714Y14714096D01*
X189148095Y14618858D01*
X189100476Y14571239D01*
X189005238Y14523620D01*
X188719523Y14523620D01*
X188624285Y14571239D01*
X188576666Y14618858D01*
G04 #@! TO.C,D2*
X194275904Y14523620D02*
X194275904Y15523620D01*
X194514000Y15523620D01*
X194656857Y15476000D01*
X194752095Y15380762D01*
X194799714Y15285524D01*
X194847333Y15095048D01*
X194847333Y14952191D01*
X194799714Y14761715D01*
X194752095Y14666477D01*
X194656857Y14571239D01*
X194514000Y14523620D01*
X194275904Y14523620D01*
X195228285Y15428381D02*
X195275904Y15476000D01*
X195371142Y15523620D01*
X195609238Y15523620D01*
X195704476Y15476000D01*
X195752095Y15428381D01*
X195799714Y15333143D01*
X195799714Y15237905D01*
X195752095Y15095048D01*
X195180666Y14523620D01*
X195799714Y14523620D01*
G04 #@! TO.C,D1*
X200625904Y14523620D02*
X200625904Y15523620D01*
X200864000Y15523620D01*
X201006857Y15476000D01*
X201102095Y15380762D01*
X201149714Y15285524D01*
X201197333Y15095048D01*
X201197333Y14952191D01*
X201149714Y14761715D01*
X201102095Y14666477D01*
X201006857Y14571239D01*
X200864000Y14523620D01*
X200625904Y14523620D01*
X202149714Y14523620D02*
X201578285Y14523620D01*
X201864000Y14523620D02*
X201864000Y15523620D01*
X201768761Y15380762D01*
X201673523Y15285524D01*
X201578285Y15237905D01*
G04 #@! TD*
M02*
