G04 #@! TF.GenerationSoftware,KiCad,Pcbnew,(5.1.12)-1*
G04 #@! TF.CreationDate,2022-05-10T22:26:18-07:00*
G04 #@! TF.ProjectId,Spring2022,53707269-6e67-4323-9032-322e6b696361,rev?*
G04 #@! TF.SameCoordinates,PX3a2c940PY3fe56c0*
G04 #@! TF.FileFunction,AssemblyDrawing,Bot*
%FSLAX46Y46*%
G04 Gerber Fmt 4.6, Leading zero omitted, Abs format (unit mm)*
G04 Created by KiCad (PCBNEW (5.1.12)-1) date 2022-05-10 22:26:18*
%MOMM*%
%LPD*%
G01*
G04 APERTURE LIST*
%ADD10C,0.100000*%
%ADD11C,0.001000*%
%ADD12C,0.150000*%
%ADD13C,0.015000*%
%ADD14C,0.060000*%
%ADD15C,0.010000*%
G04 APERTURE END LIST*
D10*
G04 #@! TO.C,U12*
X90354500Y12420500D02*
X91624500Y11150500D01*
X91557000Y11150500D02*
X91811000Y11150500D01*
X91811000Y11150500D02*
X91811000Y11239400D01*
X91811000Y11239400D02*
X91557000Y11239400D01*
X91557000Y11239400D02*
X91557000Y11150500D01*
X91057000Y11150500D02*
X91311000Y11150500D01*
X91311000Y11150500D02*
X91311000Y11239400D01*
X91311000Y11239400D02*
X91057000Y11239400D01*
X91057000Y11239400D02*
X91057000Y11150500D01*
X90354500Y11607000D02*
X90354500Y11353000D01*
X90354500Y11353000D02*
X90443400Y11353000D01*
X90443400Y11353000D02*
X90443400Y11607000D01*
X90443400Y11607000D02*
X90354500Y11607000D01*
X90354500Y12107000D02*
X90354500Y11853000D01*
X90354500Y11853000D02*
X90443400Y11853000D01*
X90443400Y11853000D02*
X90443400Y12107000D01*
X90443400Y12107000D02*
X90354500Y12107000D01*
X90354500Y12607000D02*
X90354500Y12353000D01*
X90354500Y12353000D02*
X90443400Y12353000D01*
X90443400Y12353000D02*
X90443400Y12607000D01*
X90443400Y12607000D02*
X90354500Y12607000D01*
X90354500Y13107000D02*
X90354500Y12853000D01*
X90354500Y12853000D02*
X90443400Y12853000D01*
X90443400Y12853000D02*
X90443400Y13107000D01*
X90443400Y13107000D02*
X90354500Y13107000D01*
X91311000Y13309500D02*
X91057000Y13309500D01*
X91057000Y13309500D02*
X91057000Y13220600D01*
X91057000Y13220600D02*
X91311000Y13220600D01*
X91311000Y13220600D02*
X91311000Y13309500D01*
X91811000Y13309500D02*
X91557000Y13309500D01*
X91557000Y13309500D02*
X91557000Y13220600D01*
X91557000Y13220600D02*
X91811000Y13220600D01*
X91811000Y13220600D02*
X91811000Y13309500D01*
X92513500Y12853000D02*
X92513500Y13107000D01*
X92513500Y13107000D02*
X92424600Y13107000D01*
X92424600Y13107000D02*
X92424600Y12853000D01*
X92424600Y12853000D02*
X92513500Y12853000D01*
X92513500Y12353000D02*
X92513500Y12607000D01*
X92513500Y12607000D02*
X92424600Y12607000D01*
X92424600Y12607000D02*
X92424600Y12353000D01*
X92424600Y12353000D02*
X92513500Y12353000D01*
X92513500Y11853000D02*
X92513500Y12107000D01*
X92513500Y12107000D02*
X92424600Y12107000D01*
X92424600Y12107000D02*
X92424600Y11853000D01*
X92424600Y11853000D02*
X92513500Y11853000D01*
X92513500Y11353000D02*
X92513500Y11607000D01*
X92513500Y11607000D02*
X92424600Y11607000D01*
X92424600Y11607000D02*
X92424600Y11353000D01*
X92424600Y11353000D02*
X92513500Y11353000D01*
X90354500Y13309500D02*
X92513500Y13309500D01*
X92513500Y13309500D02*
X92513500Y13309500D01*
X92513500Y13309500D02*
X92513500Y11150500D01*
X92513500Y11150500D02*
X92513500Y11150500D01*
X92513500Y11150500D02*
X90354500Y11150500D01*
X90354500Y11150500D02*
X90354500Y11150500D01*
X90354500Y11150500D02*
X90354500Y13309500D01*
X90354500Y13309500D02*
X90354500Y13309500D01*
G04 #@! TO.C,U7*
X100880000Y12575000D02*
X100880000Y9025000D01*
X100880000Y9025000D02*
X111180000Y9025000D01*
X111180000Y9025000D02*
X111180000Y13575000D01*
X111180000Y13575000D02*
X101880000Y13575000D01*
X101880000Y13575000D02*
X100880000Y12575000D01*
G04 #@! TO.C,R30*
X81194000Y11462500D02*
X81194000Y10637500D01*
X81194000Y10637500D02*
X82794000Y10637500D01*
X82794000Y10637500D02*
X82794000Y11462500D01*
X82794000Y11462500D02*
X81194000Y11462500D01*
G04 #@! TO.C,U11*
X69484000Y12150000D02*
G75*
G03*
X69484000Y12150000I-300000J0D01*
G01*
G04 #@! TO.C,R29*
X93434000Y7117500D02*
X93434000Y7942500D01*
X93434000Y7942500D02*
X91834000Y7942500D01*
X91834000Y7942500D02*
X91834000Y7117500D01*
X91834000Y7117500D02*
X93434000Y7117500D01*
G04 #@! TO.C,R28*
X93434000Y5317500D02*
X93434000Y6142500D01*
X93434000Y6142500D02*
X91834000Y6142500D01*
X91834000Y6142500D02*
X91834000Y5317500D01*
X91834000Y5317500D02*
X93434000Y5317500D01*
G04 #@! TO.C,R27*
X77984000Y11462500D02*
X77984000Y10637500D01*
X77984000Y10637500D02*
X79584000Y10637500D01*
X79584000Y10637500D02*
X79584000Y11462500D01*
X79584000Y11462500D02*
X77984000Y11462500D01*
G04 #@! TO.C,R26*
X77964000Y9242500D02*
X77964000Y8417500D01*
X77964000Y8417500D02*
X79564000Y8417500D01*
X79564000Y8417500D02*
X79564000Y9242500D01*
X79564000Y9242500D02*
X77964000Y9242500D01*
G04 #@! TO.C,R25*
X77984000Y14862500D02*
X77984000Y14037500D01*
X77984000Y14037500D02*
X79584000Y14037500D01*
X79584000Y14037500D02*
X79584000Y14862500D01*
X79584000Y14862500D02*
X77984000Y14862500D01*
G04 #@! TO.C,R24*
X79584000Y12337500D02*
X79584000Y13162500D01*
X79584000Y13162500D02*
X77984000Y13162500D01*
X77984000Y13162500D02*
X77984000Y12337500D01*
X77984000Y12337500D02*
X79584000Y12337500D01*
G04 #@! TO.C,R23*
X86524000Y11462500D02*
X86524000Y10637500D01*
X86524000Y10637500D02*
X88124000Y10637500D01*
X88124000Y10637500D02*
X88124000Y11462500D01*
X88124000Y11462500D02*
X86524000Y11462500D01*
G04 #@! TO.C,R22*
X86524000Y13162500D02*
X86524000Y12337500D01*
X86524000Y12337500D02*
X88124000Y12337500D01*
X88124000Y12337500D02*
X88124000Y13162500D01*
X88124000Y13162500D02*
X86524000Y13162500D01*
G04 #@! TO.C,R21*
X86524000Y14862500D02*
X86524000Y14037500D01*
X86524000Y14037500D02*
X88124000Y14037500D01*
X88124000Y14037500D02*
X88124000Y14862500D01*
X88124000Y14862500D02*
X86524000Y14862500D01*
G04 #@! TO.C,R20*
X86524000Y9374500D02*
X86524000Y8549500D01*
X86524000Y8549500D02*
X88124000Y8549500D01*
X88124000Y8549500D02*
X88124000Y9374500D01*
X88124000Y9374500D02*
X86524000Y9374500D01*
G04 #@! TO.C,R19*
X85200000Y29687500D02*
X85200000Y30512500D01*
X85200000Y30512500D02*
X83600000Y30512500D01*
X83600000Y30512500D02*
X83600000Y29687500D01*
X83600000Y29687500D02*
X85200000Y29687500D01*
G04 #@! TO.C,R18*
X76340000Y16452500D02*
X76340000Y15627500D01*
X76340000Y15627500D02*
X77940000Y15627500D01*
X77940000Y15627500D02*
X77940000Y16452500D01*
X77940000Y16452500D02*
X76340000Y16452500D01*
G04 #@! TO.C,R17*
X76310000Y7642500D02*
X76310000Y6817500D01*
X76310000Y6817500D02*
X77910000Y6817500D01*
X77910000Y6817500D02*
X77910000Y7642500D01*
X77910000Y7642500D02*
X76310000Y7642500D01*
G04 #@! TO.C,C5*
X96034000Y12530000D02*
X96034000Y10930000D01*
X96834000Y12530000D02*
X96034000Y12530000D01*
X96834000Y10930000D02*
X96834000Y12530000D01*
X96034000Y10930000D02*
X96834000Y10930000D01*
G04 #@! TO.C,C4*
X94434000Y12555000D02*
X94434000Y10955000D01*
X95234000Y12555000D02*
X94434000Y12555000D01*
X95234000Y10955000D02*
X95234000Y12555000D01*
X94434000Y10955000D02*
X95234000Y10955000D01*
G04 #@! TO.C,C3*
X69980000Y14810000D02*
X68380000Y14810000D01*
X69980000Y14010000D02*
X69980000Y14810000D01*
X68380000Y14010000D02*
X69980000Y14010000D01*
X68380000Y14810000D02*
X68380000Y14010000D01*
G04 #@! TO.C,C2*
X95596000Y31384000D02*
X93996000Y31384000D01*
X95596000Y30584000D02*
X95596000Y31384000D01*
X93996000Y30584000D02*
X95596000Y30584000D01*
X93996000Y31384000D02*
X93996000Y30584000D01*
G04 #@! TO.C,C1*
X95576000Y29694000D02*
X93976000Y29694000D01*
X95576000Y28894000D02*
X95576000Y29694000D01*
X93976000Y28894000D02*
X95576000Y28894000D01*
X93976000Y29694000D02*
X93976000Y28894000D01*
G04 #@! TO.C,BT1*
X61490000Y38400000D02*
X9860000Y38400000D01*
X9860000Y38400000D02*
X9860000Y900000D01*
X9860000Y900000D02*
X62490000Y900000D01*
X62490000Y900000D02*
X62490000Y37400000D01*
X62490000Y37400000D02*
X61490000Y38400000D01*
G04 #@! TO.C,U6*
X119520000Y12575000D02*
X119520000Y9025000D01*
X119520000Y9025000D02*
X129820000Y9025000D01*
X129820000Y9025000D02*
X129820000Y13575000D01*
X129820000Y13575000D02*
X120520000Y13575000D01*
X120520000Y13575000D02*
X119520000Y12575000D01*
G04 #@! TO.C,U5*
X138160000Y12575000D02*
X138160000Y9025000D01*
X138160000Y9025000D02*
X148460000Y9025000D01*
X148460000Y9025000D02*
X148460000Y13575000D01*
X148460000Y13575000D02*
X139160000Y13575000D01*
X139160000Y13575000D02*
X138160000Y12575000D01*
G04 #@! TO.C,U4*
X156800000Y12575000D02*
X156800000Y9025000D01*
X156800000Y9025000D02*
X167100000Y9025000D01*
X167100000Y9025000D02*
X167100000Y13575000D01*
X167100000Y13575000D02*
X157800000Y13575000D01*
X157800000Y13575000D02*
X156800000Y12575000D01*
G04 #@! TO.C,U3*
X175440000Y12575000D02*
X175440000Y9025000D01*
X175440000Y9025000D02*
X185740000Y9025000D01*
X185740000Y9025000D02*
X185740000Y13575000D01*
X185740000Y13575000D02*
X176440000Y13575000D01*
X176440000Y13575000D02*
X175440000Y12575000D01*
G04 #@! TO.C,U2*
X194080000Y12575000D02*
X194080000Y9025000D01*
X194080000Y9025000D02*
X204380000Y9025000D01*
X204380000Y9025000D02*
X204380000Y13575000D01*
X204380000Y13575000D02*
X195080000Y13575000D01*
X195080000Y13575000D02*
X194080000Y12575000D01*
G04 #@! TD*
G04 #@! TO.C,U12*
D11*
X91824000Y12224762D02*
X91871619Y12224762D01*
X91871619Y12324762D01*
X91738285Y12320000D02*
X91747809Y12324762D01*
X91762095Y12324762D01*
X91776380Y12320000D01*
X91785904Y12310477D01*
X91790666Y12300953D01*
X91795428Y12281905D01*
X91795428Y12267620D01*
X91790666Y12248572D01*
X91785904Y12239048D01*
X91776380Y12229524D01*
X91762095Y12224762D01*
X91752571Y12224762D01*
X91738285Y12229524D01*
X91733523Y12234286D01*
X91733523Y12267620D01*
X91752571Y12267620D01*
X91695428Y12253334D02*
X91647809Y12253334D01*
X91704952Y12224762D02*
X91671619Y12324762D01*
X91638285Y12224762D01*
X91604952Y12262858D02*
X91528761Y12262858D01*
X91428761Y12224762D02*
X91485904Y12224762D01*
X91457333Y12224762D02*
X91457333Y12324762D01*
X91466857Y12310477D01*
X91476380Y12300953D01*
X91485904Y12296191D01*
X91390666Y12315239D02*
X91385904Y12320000D01*
X91376380Y12324762D01*
X91352571Y12324762D01*
X91343047Y12320000D01*
X91338285Y12315239D01*
X91333523Y12305715D01*
X91333523Y12296191D01*
X91338285Y12281905D01*
X91395428Y12224762D01*
X91333523Y12224762D01*
X91314476Y12215239D02*
X91238285Y12215239D01*
X91219238Y12229524D02*
X91204952Y12224762D01*
X91181142Y12224762D01*
X91171619Y12229524D01*
X91166857Y12234286D01*
X91162095Y12243810D01*
X91162095Y12253334D01*
X91166857Y12262858D01*
X91171619Y12267620D01*
X91181142Y12272381D01*
X91200190Y12277143D01*
X91209714Y12281905D01*
X91214476Y12286667D01*
X91219238Y12296191D01*
X91219238Y12305715D01*
X91214476Y12315239D01*
X91209714Y12320000D01*
X91200190Y12324762D01*
X91176380Y12324762D01*
X91162095Y12320000D01*
X91133523Y12324762D02*
X91076380Y12324762D01*
X91104952Y12224762D02*
X91104952Y12324762D01*
X91043047Y12224762D02*
X91043047Y12324762D01*
X91009714Y12253334D01*
X90976380Y12324762D01*
X90976380Y12224762D01*
G04 #@! TO.C,U7*
D12*
X111582380Y14561905D02*
X111582380Y13895239D01*
X112582380Y14323810D01*
X111915714Y13085715D02*
X112582380Y13085715D01*
X111534761Y13323810D02*
X112249047Y13561905D01*
X112249047Y12942858D01*
X112582380Y12561905D02*
X111582380Y12561905D01*
X112058571Y12561905D02*
X112058571Y11990477D01*
X112582380Y11990477D02*
X111582380Y11990477D01*
X112487142Y10942858D02*
X112534761Y10990477D01*
X112582380Y11133334D01*
X112582380Y11228572D01*
X112534761Y11371429D01*
X112439523Y11466667D01*
X112344285Y11514286D01*
X112153809Y11561905D01*
X112010952Y11561905D01*
X111820476Y11514286D01*
X111725238Y11466667D01*
X111630000Y11371429D01*
X111582380Y11228572D01*
X111582380Y11133334D01*
X111630000Y10990477D01*
X111677619Y10942858D01*
X111582380Y10038096D02*
X111582380Y10514286D01*
X112058571Y10561905D01*
X112010952Y10514286D01*
X111963333Y10419048D01*
X111963333Y10180953D01*
X112010952Y10085715D01*
X112058571Y10038096D01*
X112153809Y9990477D01*
X112391904Y9990477D01*
X112487142Y10038096D01*
X112534761Y10085715D01*
X112582380Y10180953D01*
X112582380Y10419048D01*
X112534761Y10514286D01*
X112487142Y10561905D01*
X112582380Y9514286D02*
X112582380Y9323810D01*
X112534761Y9228572D01*
X112487142Y9180953D01*
X112344285Y9085715D01*
X112153809Y9038096D01*
X111772857Y9038096D01*
X111677619Y9085715D01*
X111630000Y9133334D01*
X111582380Y9228572D01*
X111582380Y9419048D01*
X111630000Y9514286D01*
X111677619Y9561905D01*
X111772857Y9609524D01*
X112010952Y9609524D01*
X112106190Y9561905D01*
X112153809Y9514286D01*
X112201428Y9419048D01*
X112201428Y9228572D01*
X112153809Y9133334D01*
X112106190Y9085715D01*
X112010952Y9038096D01*
X111582380Y8133334D02*
X111582380Y8609524D01*
X112058571Y8657143D01*
X112010952Y8609524D01*
X111963333Y8514286D01*
X111963333Y8276191D01*
X112010952Y8180953D01*
X112058571Y8133334D01*
X112153809Y8085715D01*
X112391904Y8085715D01*
X112487142Y8133334D01*
X112534761Y8180953D01*
X112582380Y8276191D01*
X112582380Y8514286D01*
X112534761Y8609524D01*
X112487142Y8657143D01*
X105482380Y12061905D02*
X106291904Y12061905D01*
X106387142Y12014286D01*
X106434761Y11966667D01*
X106482380Y11871429D01*
X106482380Y11680953D01*
X106434761Y11585715D01*
X106387142Y11538096D01*
X106291904Y11490477D01*
X105482380Y11490477D01*
X105482380Y11109524D02*
X105482380Y10442858D01*
X106482380Y10871429D01*
G04 #@! TO.C,R30*
D13*
X82508285Y11604762D02*
X82508285Y11704762D01*
X82470190Y11704762D01*
X82460666Y11700000D01*
X82455904Y11695239D01*
X82451142Y11685715D01*
X82451142Y11671429D01*
X82455904Y11661905D01*
X82460666Y11657143D01*
X82470190Y11652381D01*
X82508285Y11652381D01*
X82360666Y11604762D02*
X82408285Y11604762D01*
X82408285Y11704762D01*
X82327333Y11604762D02*
X82327333Y11704762D01*
X82289238Y11704762D01*
X82279714Y11700000D01*
X82274952Y11695239D01*
X82270190Y11685715D01*
X82270190Y11671429D01*
X82274952Y11661905D01*
X82279714Y11657143D01*
X82289238Y11652381D01*
X82327333Y11652381D01*
X82227333Y11642858D02*
X82151142Y11642858D01*
X82084476Y11704762D02*
X82074952Y11704762D01*
X82065428Y11700000D01*
X82060666Y11695239D01*
X82055904Y11685715D01*
X82051142Y11666667D01*
X82051142Y11642858D01*
X82055904Y11623810D01*
X82060666Y11614286D01*
X82065428Y11609524D01*
X82074952Y11604762D01*
X82084476Y11604762D01*
X82094000Y11609524D01*
X82098761Y11614286D01*
X82103523Y11623810D01*
X82108285Y11642858D01*
X82108285Y11666667D01*
X82103523Y11685715D01*
X82098761Y11695239D01*
X82094000Y11700000D01*
X82084476Y11704762D01*
X81989238Y11704762D02*
X81979714Y11704762D01*
X81970190Y11700000D01*
X81965428Y11695239D01*
X81960666Y11685715D01*
X81955904Y11666667D01*
X81955904Y11642858D01*
X81960666Y11623810D01*
X81965428Y11614286D01*
X81970190Y11609524D01*
X81979714Y11604762D01*
X81989238Y11604762D01*
X81998761Y11609524D01*
X82003523Y11614286D01*
X82008285Y11623810D01*
X82013047Y11642858D01*
X82013047Y11666667D01*
X82008285Y11685715D01*
X82003523Y11695239D01*
X81998761Y11700000D01*
X81989238Y11704762D01*
X81894000Y11704762D02*
X81884476Y11704762D01*
X81874952Y11700000D01*
X81870190Y11695239D01*
X81865428Y11685715D01*
X81860666Y11666667D01*
X81860666Y11642858D01*
X81865428Y11623810D01*
X81870190Y11614286D01*
X81874952Y11609524D01*
X81884476Y11604762D01*
X81894000Y11604762D01*
X81903523Y11609524D01*
X81908285Y11614286D01*
X81913047Y11623810D01*
X81917809Y11642858D01*
X81917809Y11666667D01*
X81913047Y11685715D01*
X81908285Y11695239D01*
X81903523Y11700000D01*
X81894000Y11704762D01*
X81798761Y11704762D02*
X81789238Y11704762D01*
X81779714Y11700000D01*
X81774952Y11695239D01*
X81770190Y11685715D01*
X81765428Y11666667D01*
X81765428Y11642858D01*
X81770190Y11623810D01*
X81774952Y11614286D01*
X81779714Y11609524D01*
X81789238Y11604762D01*
X81798761Y11604762D01*
X81808285Y11609524D01*
X81813047Y11614286D01*
X81817809Y11623810D01*
X81822571Y11642858D01*
X81822571Y11666667D01*
X81817809Y11685715D01*
X81813047Y11695239D01*
X81808285Y11700000D01*
X81798761Y11704762D01*
X81717809Y11604762D02*
X81698761Y11604762D01*
X81689238Y11609524D01*
X81684476Y11614286D01*
X81674952Y11628572D01*
X81670190Y11647620D01*
X81670190Y11685715D01*
X81674952Y11695239D01*
X81679714Y11700000D01*
X81689238Y11704762D01*
X81708285Y11704762D01*
X81717809Y11700000D01*
X81722571Y11695239D01*
X81727333Y11685715D01*
X81727333Y11661905D01*
X81722571Y11652381D01*
X81717809Y11647620D01*
X81708285Y11642858D01*
X81689238Y11642858D01*
X81679714Y11647620D01*
X81674952Y11652381D01*
X81670190Y11661905D01*
X81574952Y11604762D02*
X81632095Y11604762D01*
X81603523Y11604762D02*
X81603523Y11704762D01*
X81613047Y11690477D01*
X81622571Y11680953D01*
X81632095Y11676191D01*
D14*
X82251142Y10869048D02*
X82384476Y11059524D01*
X82479714Y10869048D02*
X82479714Y11269048D01*
X82327333Y11269048D01*
X82289238Y11250000D01*
X82270190Y11230953D01*
X82251142Y11192858D01*
X82251142Y11135715D01*
X82270190Y11097620D01*
X82289238Y11078572D01*
X82327333Y11059524D01*
X82479714Y11059524D01*
X82117809Y11269048D02*
X81870190Y11269048D01*
X82003523Y11116667D01*
X81946380Y11116667D01*
X81908285Y11097620D01*
X81889238Y11078572D01*
X81870190Y11040477D01*
X81870190Y10945239D01*
X81889238Y10907143D01*
X81908285Y10888096D01*
X81946380Y10869048D01*
X82060666Y10869048D01*
X82098761Y10888096D01*
X82117809Y10907143D01*
X81622571Y11269048D02*
X81584476Y11269048D01*
X81546380Y11250000D01*
X81527333Y11230953D01*
X81508285Y11192858D01*
X81489238Y11116667D01*
X81489238Y11021429D01*
X81508285Y10945239D01*
X81527333Y10907143D01*
X81546380Y10888096D01*
X81584476Y10869048D01*
X81622571Y10869048D01*
X81660666Y10888096D01*
X81679714Y10907143D01*
X81698761Y10945239D01*
X81717809Y11021429D01*
X81717809Y11116667D01*
X81698761Y11192858D01*
X81679714Y11230953D01*
X81660666Y11250000D01*
X81622571Y11269048D01*
G04 #@! TO.C,U11*
D12*
X67923761Y20286905D02*
X67971380Y20144048D01*
X67971380Y19905953D01*
X67923761Y19810715D01*
X67876142Y19763096D01*
X67780904Y19715477D01*
X67685666Y19715477D01*
X67590428Y19763096D01*
X67542809Y19810715D01*
X67495190Y19905953D01*
X67447571Y20096429D01*
X67399952Y20191667D01*
X67352333Y20239286D01*
X67257095Y20286905D01*
X67161857Y20286905D01*
X67066619Y20239286D01*
X67019000Y20191667D01*
X66971380Y20096429D01*
X66971380Y19858334D01*
X67019000Y19715477D01*
X67971380Y19286905D02*
X66971380Y19286905D01*
X67447571Y19286905D02*
X67447571Y18715477D01*
X67971380Y18715477D02*
X66971380Y18715477D01*
X66971380Y18382143D02*
X66971380Y17810715D01*
X67971380Y18096429D02*
X66971380Y18096429D01*
X67304714Y17048810D02*
X67971380Y17048810D01*
X66923761Y17286905D02*
X67638047Y17525000D01*
X67638047Y16905953D01*
X66971380Y16334524D02*
X66971380Y16239286D01*
X67019000Y16144048D01*
X67066619Y16096429D01*
X67161857Y16048810D01*
X67352333Y16001191D01*
X67590428Y16001191D01*
X67780904Y16048810D01*
X67876142Y16096429D01*
X67923761Y16144048D01*
X67971380Y16239286D01*
X67971380Y16334524D01*
X67923761Y16429762D01*
X67876142Y16477381D01*
X67780904Y16525000D01*
X67590428Y16572620D01*
X67352333Y16572620D01*
X67161857Y16525000D01*
X67066619Y16477381D01*
X67019000Y16429762D01*
X66971380Y16334524D01*
X67590428Y15572620D02*
X67590428Y14810715D01*
X67685666Y14382143D02*
X67685666Y13905953D01*
X67971380Y14477381D02*
X66971380Y14144048D01*
X67971380Y13810715D01*
X67971380Y13477381D02*
X66971380Y13477381D01*
X66971380Y13239286D01*
X67019000Y13096429D01*
X67114238Y13001191D01*
X67209476Y12953572D01*
X67399952Y12905953D01*
X67542809Y12905953D01*
X67733285Y12953572D01*
X67828523Y13001191D01*
X67923761Y13096429D01*
X67971380Y13239286D01*
X67971380Y13477381D01*
X67971380Y11953572D02*
X67971380Y12525000D01*
X67971380Y12239286D02*
X66971380Y12239286D01*
X67114238Y12334524D01*
X67209476Y12429762D01*
X67257095Y12525000D01*
X67447571Y11191667D02*
X67495190Y11048810D01*
X67542809Y11001191D01*
X67638047Y10953572D01*
X67780904Y10953572D01*
X67876142Y11001191D01*
X67923761Y11048810D01*
X67971380Y11144048D01*
X67971380Y11525000D01*
X66971380Y11525000D01*
X66971380Y11191667D01*
X67019000Y11096429D01*
X67066619Y11048810D01*
X67161857Y11001191D01*
X67257095Y11001191D01*
X67352333Y11048810D01*
X67399952Y11096429D01*
X67447571Y11191667D01*
X67447571Y11525000D01*
X67590428Y10525000D02*
X67590428Y9763096D01*
X67971380Y8715477D02*
X67495190Y9048810D01*
X67971380Y9286905D02*
X66971380Y9286905D01*
X66971380Y8905953D01*
X67019000Y8810715D01*
X67066619Y8763096D01*
X67161857Y8715477D01*
X67304714Y8715477D01*
X67399952Y8763096D01*
X67447571Y8810715D01*
X67495190Y8905953D01*
X67495190Y9286905D01*
X66971380Y8382143D02*
X66971380Y7763096D01*
X67352333Y8096429D01*
X67352333Y7953572D01*
X67399952Y7858334D01*
X67447571Y7810715D01*
X67542809Y7763096D01*
X67780904Y7763096D01*
X67876142Y7810715D01*
X67923761Y7858334D01*
X67971380Y7953572D01*
X67971380Y8239286D01*
X67923761Y8334524D01*
X67876142Y8382143D01*
G04 #@! TO.C,R29*
D13*
X93048285Y6884762D02*
X93048285Y6984762D01*
X93010190Y6984762D01*
X93000666Y6980000D01*
X92995904Y6975239D01*
X92991142Y6965715D01*
X92991142Y6951429D01*
X92995904Y6941905D01*
X93000666Y6937143D01*
X93010190Y6932381D01*
X93048285Y6932381D01*
X92900666Y6884762D02*
X92948285Y6884762D01*
X92948285Y6984762D01*
X92867333Y6884762D02*
X92867333Y6984762D01*
X92829238Y6984762D01*
X92819714Y6980000D01*
X92814952Y6975239D01*
X92810190Y6965715D01*
X92810190Y6951429D01*
X92814952Y6941905D01*
X92819714Y6937143D01*
X92829238Y6932381D01*
X92867333Y6932381D01*
X92767333Y6922858D02*
X92691142Y6922858D01*
X92624476Y6984762D02*
X92614952Y6984762D01*
X92605428Y6980000D01*
X92600666Y6975239D01*
X92595904Y6965715D01*
X92591142Y6946667D01*
X92591142Y6922858D01*
X92595904Y6903810D01*
X92600666Y6894286D01*
X92605428Y6889524D01*
X92614952Y6884762D01*
X92624476Y6884762D01*
X92634000Y6889524D01*
X92638761Y6894286D01*
X92643523Y6903810D01*
X92648285Y6922858D01*
X92648285Y6946667D01*
X92643523Y6965715D01*
X92638761Y6975239D01*
X92634000Y6980000D01*
X92624476Y6984762D01*
X92529238Y6984762D02*
X92519714Y6984762D01*
X92510190Y6980000D01*
X92505428Y6975239D01*
X92500666Y6965715D01*
X92495904Y6946667D01*
X92495904Y6922858D01*
X92500666Y6903810D01*
X92505428Y6894286D01*
X92510190Y6889524D01*
X92519714Y6884762D01*
X92529238Y6884762D01*
X92538761Y6889524D01*
X92543523Y6894286D01*
X92548285Y6903810D01*
X92553047Y6922858D01*
X92553047Y6946667D01*
X92548285Y6965715D01*
X92543523Y6975239D01*
X92538761Y6980000D01*
X92529238Y6984762D01*
X92434000Y6984762D02*
X92424476Y6984762D01*
X92414952Y6980000D01*
X92410190Y6975239D01*
X92405428Y6965715D01*
X92400666Y6946667D01*
X92400666Y6922858D01*
X92405428Y6903810D01*
X92410190Y6894286D01*
X92414952Y6889524D01*
X92424476Y6884762D01*
X92434000Y6884762D01*
X92443523Y6889524D01*
X92448285Y6894286D01*
X92453047Y6903810D01*
X92457809Y6922858D01*
X92457809Y6946667D01*
X92453047Y6965715D01*
X92448285Y6975239D01*
X92443523Y6980000D01*
X92434000Y6984762D01*
X92338761Y6984762D02*
X92329238Y6984762D01*
X92319714Y6980000D01*
X92314952Y6975239D01*
X92310190Y6965715D01*
X92305428Y6946667D01*
X92305428Y6922858D01*
X92310190Y6903810D01*
X92314952Y6894286D01*
X92319714Y6889524D01*
X92329238Y6884762D01*
X92338761Y6884762D01*
X92348285Y6889524D01*
X92353047Y6894286D01*
X92357809Y6903810D01*
X92362571Y6922858D01*
X92362571Y6946667D01*
X92357809Y6965715D01*
X92353047Y6975239D01*
X92348285Y6980000D01*
X92338761Y6984762D01*
X92267333Y6975239D02*
X92262571Y6980000D01*
X92253047Y6984762D01*
X92229238Y6984762D01*
X92219714Y6980000D01*
X92214952Y6975239D01*
X92210190Y6965715D01*
X92210190Y6956191D01*
X92214952Y6941905D01*
X92272095Y6884762D01*
X92210190Y6884762D01*
X92162571Y6884762D02*
X92143523Y6884762D01*
X92134000Y6889524D01*
X92129238Y6894286D01*
X92119714Y6908572D01*
X92114952Y6927620D01*
X92114952Y6965715D01*
X92119714Y6975239D01*
X92124476Y6980000D01*
X92134000Y6984762D01*
X92153047Y6984762D01*
X92162571Y6980000D01*
X92167333Y6975239D01*
X92172095Y6965715D01*
X92172095Y6941905D01*
X92167333Y6932381D01*
X92162571Y6927620D01*
X92153047Y6922858D01*
X92134000Y6922858D01*
X92124476Y6927620D01*
X92119714Y6932381D01*
X92114952Y6941905D01*
D14*
X92891142Y7349048D02*
X93024476Y7539524D01*
X93119714Y7349048D02*
X93119714Y7749048D01*
X92967333Y7749048D01*
X92929238Y7730000D01*
X92910190Y7710953D01*
X92891142Y7672858D01*
X92891142Y7615715D01*
X92910190Y7577620D01*
X92929238Y7558572D01*
X92967333Y7539524D01*
X93119714Y7539524D01*
X92738761Y7710953D02*
X92719714Y7730000D01*
X92681619Y7749048D01*
X92586380Y7749048D01*
X92548285Y7730000D01*
X92529238Y7710953D01*
X92510190Y7672858D01*
X92510190Y7634762D01*
X92529238Y7577620D01*
X92757809Y7349048D01*
X92510190Y7349048D01*
X92319714Y7349048D02*
X92243523Y7349048D01*
X92205428Y7368096D01*
X92186380Y7387143D01*
X92148285Y7444286D01*
X92129238Y7520477D01*
X92129238Y7672858D01*
X92148285Y7710953D01*
X92167333Y7730000D01*
X92205428Y7749048D01*
X92281619Y7749048D01*
X92319714Y7730000D01*
X92338761Y7710953D01*
X92357809Y7672858D01*
X92357809Y7577620D01*
X92338761Y7539524D01*
X92319714Y7520477D01*
X92281619Y7501429D01*
X92205428Y7501429D01*
X92167333Y7520477D01*
X92148285Y7539524D01*
X92129238Y7577620D01*
G04 #@! TO.C,R28*
D13*
X93048285Y5084762D02*
X93048285Y5184762D01*
X93010190Y5184762D01*
X93000666Y5180000D01*
X92995904Y5175239D01*
X92991142Y5165715D01*
X92991142Y5151429D01*
X92995904Y5141905D01*
X93000666Y5137143D01*
X93010190Y5132381D01*
X93048285Y5132381D01*
X92900666Y5084762D02*
X92948285Y5084762D01*
X92948285Y5184762D01*
X92867333Y5084762D02*
X92867333Y5184762D01*
X92829238Y5184762D01*
X92819714Y5180000D01*
X92814952Y5175239D01*
X92810190Y5165715D01*
X92810190Y5151429D01*
X92814952Y5141905D01*
X92819714Y5137143D01*
X92829238Y5132381D01*
X92867333Y5132381D01*
X92767333Y5122858D02*
X92691142Y5122858D01*
X92624476Y5184762D02*
X92614952Y5184762D01*
X92605428Y5180000D01*
X92600666Y5175239D01*
X92595904Y5165715D01*
X92591142Y5146667D01*
X92591142Y5122858D01*
X92595904Y5103810D01*
X92600666Y5094286D01*
X92605428Y5089524D01*
X92614952Y5084762D01*
X92624476Y5084762D01*
X92634000Y5089524D01*
X92638761Y5094286D01*
X92643523Y5103810D01*
X92648285Y5122858D01*
X92648285Y5146667D01*
X92643523Y5165715D01*
X92638761Y5175239D01*
X92634000Y5180000D01*
X92624476Y5184762D01*
X92529238Y5184762D02*
X92519714Y5184762D01*
X92510190Y5180000D01*
X92505428Y5175239D01*
X92500666Y5165715D01*
X92495904Y5146667D01*
X92495904Y5122858D01*
X92500666Y5103810D01*
X92505428Y5094286D01*
X92510190Y5089524D01*
X92519714Y5084762D01*
X92529238Y5084762D01*
X92538761Y5089524D01*
X92543523Y5094286D01*
X92548285Y5103810D01*
X92553047Y5122858D01*
X92553047Y5146667D01*
X92548285Y5165715D01*
X92543523Y5175239D01*
X92538761Y5180000D01*
X92529238Y5184762D01*
X92434000Y5184762D02*
X92424476Y5184762D01*
X92414952Y5180000D01*
X92410190Y5175239D01*
X92405428Y5165715D01*
X92400666Y5146667D01*
X92400666Y5122858D01*
X92405428Y5103810D01*
X92410190Y5094286D01*
X92414952Y5089524D01*
X92424476Y5084762D01*
X92434000Y5084762D01*
X92443523Y5089524D01*
X92448285Y5094286D01*
X92453047Y5103810D01*
X92457809Y5122858D01*
X92457809Y5146667D01*
X92453047Y5165715D01*
X92448285Y5175239D01*
X92443523Y5180000D01*
X92434000Y5184762D01*
X92338761Y5184762D02*
X92329238Y5184762D01*
X92319714Y5180000D01*
X92314952Y5175239D01*
X92310190Y5165715D01*
X92305428Y5146667D01*
X92305428Y5122858D01*
X92310190Y5103810D01*
X92314952Y5094286D01*
X92319714Y5089524D01*
X92329238Y5084762D01*
X92338761Y5084762D01*
X92348285Y5089524D01*
X92353047Y5094286D01*
X92357809Y5103810D01*
X92362571Y5122858D01*
X92362571Y5146667D01*
X92357809Y5165715D01*
X92353047Y5175239D01*
X92348285Y5180000D01*
X92338761Y5184762D01*
X92267333Y5175239D02*
X92262571Y5180000D01*
X92253047Y5184762D01*
X92229238Y5184762D01*
X92219714Y5180000D01*
X92214952Y5175239D01*
X92210190Y5165715D01*
X92210190Y5156191D01*
X92214952Y5141905D01*
X92272095Y5084762D01*
X92210190Y5084762D01*
X92162571Y5084762D02*
X92143523Y5084762D01*
X92134000Y5089524D01*
X92129238Y5094286D01*
X92119714Y5108572D01*
X92114952Y5127620D01*
X92114952Y5165715D01*
X92119714Y5175239D01*
X92124476Y5180000D01*
X92134000Y5184762D01*
X92153047Y5184762D01*
X92162571Y5180000D01*
X92167333Y5175239D01*
X92172095Y5165715D01*
X92172095Y5141905D01*
X92167333Y5132381D01*
X92162571Y5127620D01*
X92153047Y5122858D01*
X92134000Y5122858D01*
X92124476Y5127620D01*
X92119714Y5132381D01*
X92114952Y5141905D01*
D14*
X92891142Y5549048D02*
X93024476Y5739524D01*
X93119714Y5549048D02*
X93119714Y5949048D01*
X92967333Y5949048D01*
X92929238Y5930000D01*
X92910190Y5910953D01*
X92891142Y5872858D01*
X92891142Y5815715D01*
X92910190Y5777620D01*
X92929238Y5758572D01*
X92967333Y5739524D01*
X93119714Y5739524D01*
X92738761Y5910953D02*
X92719714Y5930000D01*
X92681619Y5949048D01*
X92586380Y5949048D01*
X92548285Y5930000D01*
X92529238Y5910953D01*
X92510190Y5872858D01*
X92510190Y5834762D01*
X92529238Y5777620D01*
X92757809Y5549048D01*
X92510190Y5549048D01*
X92281619Y5777620D02*
X92319714Y5796667D01*
X92338761Y5815715D01*
X92357809Y5853810D01*
X92357809Y5872858D01*
X92338761Y5910953D01*
X92319714Y5930000D01*
X92281619Y5949048D01*
X92205428Y5949048D01*
X92167333Y5930000D01*
X92148285Y5910953D01*
X92129238Y5872858D01*
X92129238Y5853810D01*
X92148285Y5815715D01*
X92167333Y5796667D01*
X92205428Y5777620D01*
X92281619Y5777620D01*
X92319714Y5758572D01*
X92338761Y5739524D01*
X92357809Y5701429D01*
X92357809Y5625239D01*
X92338761Y5587143D01*
X92319714Y5568096D01*
X92281619Y5549048D01*
X92205428Y5549048D01*
X92167333Y5568096D01*
X92148285Y5587143D01*
X92129238Y5625239D01*
X92129238Y5701429D01*
X92148285Y5739524D01*
X92167333Y5758572D01*
X92205428Y5777620D01*
G04 #@! TO.C,R27*
D13*
X79298285Y11604762D02*
X79298285Y11704762D01*
X79260190Y11704762D01*
X79250666Y11700000D01*
X79245904Y11695239D01*
X79241142Y11685715D01*
X79241142Y11671429D01*
X79245904Y11661905D01*
X79250666Y11657143D01*
X79260190Y11652381D01*
X79298285Y11652381D01*
X79150666Y11604762D02*
X79198285Y11604762D01*
X79198285Y11704762D01*
X79117333Y11604762D02*
X79117333Y11704762D01*
X79079238Y11704762D01*
X79069714Y11700000D01*
X79064952Y11695239D01*
X79060190Y11685715D01*
X79060190Y11671429D01*
X79064952Y11661905D01*
X79069714Y11657143D01*
X79079238Y11652381D01*
X79117333Y11652381D01*
X79017333Y11642858D02*
X78941142Y11642858D01*
X78874476Y11704762D02*
X78864952Y11704762D01*
X78855428Y11700000D01*
X78850666Y11695239D01*
X78845904Y11685715D01*
X78841142Y11666667D01*
X78841142Y11642858D01*
X78845904Y11623810D01*
X78850666Y11614286D01*
X78855428Y11609524D01*
X78864952Y11604762D01*
X78874476Y11604762D01*
X78884000Y11609524D01*
X78888761Y11614286D01*
X78893523Y11623810D01*
X78898285Y11642858D01*
X78898285Y11666667D01*
X78893523Y11685715D01*
X78888761Y11695239D01*
X78884000Y11700000D01*
X78874476Y11704762D01*
X78779238Y11704762D02*
X78769714Y11704762D01*
X78760190Y11700000D01*
X78755428Y11695239D01*
X78750666Y11685715D01*
X78745904Y11666667D01*
X78745904Y11642858D01*
X78750666Y11623810D01*
X78755428Y11614286D01*
X78760190Y11609524D01*
X78769714Y11604762D01*
X78779238Y11604762D01*
X78788761Y11609524D01*
X78793523Y11614286D01*
X78798285Y11623810D01*
X78803047Y11642858D01*
X78803047Y11666667D01*
X78798285Y11685715D01*
X78793523Y11695239D01*
X78788761Y11700000D01*
X78779238Y11704762D01*
X78684000Y11704762D02*
X78674476Y11704762D01*
X78664952Y11700000D01*
X78660190Y11695239D01*
X78655428Y11685715D01*
X78650666Y11666667D01*
X78650666Y11642858D01*
X78655428Y11623810D01*
X78660190Y11614286D01*
X78664952Y11609524D01*
X78674476Y11604762D01*
X78684000Y11604762D01*
X78693523Y11609524D01*
X78698285Y11614286D01*
X78703047Y11623810D01*
X78707809Y11642858D01*
X78707809Y11666667D01*
X78703047Y11685715D01*
X78698285Y11695239D01*
X78693523Y11700000D01*
X78684000Y11704762D01*
X78588761Y11704762D02*
X78579238Y11704762D01*
X78569714Y11700000D01*
X78564952Y11695239D01*
X78560190Y11685715D01*
X78555428Y11666667D01*
X78555428Y11642858D01*
X78560190Y11623810D01*
X78564952Y11614286D01*
X78569714Y11609524D01*
X78579238Y11604762D01*
X78588761Y11604762D01*
X78598285Y11609524D01*
X78603047Y11614286D01*
X78607809Y11623810D01*
X78612571Y11642858D01*
X78612571Y11666667D01*
X78607809Y11685715D01*
X78603047Y11695239D01*
X78598285Y11700000D01*
X78588761Y11704762D01*
X78517333Y11695239D02*
X78512571Y11700000D01*
X78503047Y11704762D01*
X78479238Y11704762D01*
X78469714Y11700000D01*
X78464952Y11695239D01*
X78460190Y11685715D01*
X78460190Y11676191D01*
X78464952Y11661905D01*
X78522095Y11604762D01*
X78460190Y11604762D01*
X78412571Y11604762D02*
X78393523Y11604762D01*
X78384000Y11609524D01*
X78379238Y11614286D01*
X78369714Y11628572D01*
X78364952Y11647620D01*
X78364952Y11685715D01*
X78369714Y11695239D01*
X78374476Y11700000D01*
X78384000Y11704762D01*
X78403047Y11704762D01*
X78412571Y11700000D01*
X78417333Y11695239D01*
X78422095Y11685715D01*
X78422095Y11661905D01*
X78417333Y11652381D01*
X78412571Y11647620D01*
X78403047Y11642858D01*
X78384000Y11642858D01*
X78374476Y11647620D01*
X78369714Y11652381D01*
X78364952Y11661905D01*
D14*
X79041142Y10869048D02*
X79174476Y11059524D01*
X79269714Y10869048D02*
X79269714Y11269048D01*
X79117333Y11269048D01*
X79079238Y11250000D01*
X79060190Y11230953D01*
X79041142Y11192858D01*
X79041142Y11135715D01*
X79060190Y11097620D01*
X79079238Y11078572D01*
X79117333Y11059524D01*
X79269714Y11059524D01*
X78888761Y11230953D02*
X78869714Y11250000D01*
X78831619Y11269048D01*
X78736380Y11269048D01*
X78698285Y11250000D01*
X78679238Y11230953D01*
X78660190Y11192858D01*
X78660190Y11154762D01*
X78679238Y11097620D01*
X78907809Y10869048D01*
X78660190Y10869048D01*
X78526857Y11269048D02*
X78260190Y11269048D01*
X78431619Y10869048D01*
G04 #@! TO.C,R26*
D13*
X79278285Y9384762D02*
X79278285Y9484762D01*
X79240190Y9484762D01*
X79230666Y9480000D01*
X79225904Y9475239D01*
X79221142Y9465715D01*
X79221142Y9451429D01*
X79225904Y9441905D01*
X79230666Y9437143D01*
X79240190Y9432381D01*
X79278285Y9432381D01*
X79130666Y9384762D02*
X79178285Y9384762D01*
X79178285Y9484762D01*
X79097333Y9384762D02*
X79097333Y9484762D01*
X79059238Y9484762D01*
X79049714Y9480000D01*
X79044952Y9475239D01*
X79040190Y9465715D01*
X79040190Y9451429D01*
X79044952Y9441905D01*
X79049714Y9437143D01*
X79059238Y9432381D01*
X79097333Y9432381D01*
X78997333Y9422858D02*
X78921142Y9422858D01*
X78854476Y9484762D02*
X78844952Y9484762D01*
X78835428Y9480000D01*
X78830666Y9475239D01*
X78825904Y9465715D01*
X78821142Y9446667D01*
X78821142Y9422858D01*
X78825904Y9403810D01*
X78830666Y9394286D01*
X78835428Y9389524D01*
X78844952Y9384762D01*
X78854476Y9384762D01*
X78864000Y9389524D01*
X78868761Y9394286D01*
X78873523Y9403810D01*
X78878285Y9422858D01*
X78878285Y9446667D01*
X78873523Y9465715D01*
X78868761Y9475239D01*
X78864000Y9480000D01*
X78854476Y9484762D01*
X78759238Y9484762D02*
X78749714Y9484762D01*
X78740190Y9480000D01*
X78735428Y9475239D01*
X78730666Y9465715D01*
X78725904Y9446667D01*
X78725904Y9422858D01*
X78730666Y9403810D01*
X78735428Y9394286D01*
X78740190Y9389524D01*
X78749714Y9384762D01*
X78759238Y9384762D01*
X78768761Y9389524D01*
X78773523Y9394286D01*
X78778285Y9403810D01*
X78783047Y9422858D01*
X78783047Y9446667D01*
X78778285Y9465715D01*
X78773523Y9475239D01*
X78768761Y9480000D01*
X78759238Y9484762D01*
X78664000Y9484762D02*
X78654476Y9484762D01*
X78644952Y9480000D01*
X78640190Y9475239D01*
X78635428Y9465715D01*
X78630666Y9446667D01*
X78630666Y9422858D01*
X78635428Y9403810D01*
X78640190Y9394286D01*
X78644952Y9389524D01*
X78654476Y9384762D01*
X78664000Y9384762D01*
X78673523Y9389524D01*
X78678285Y9394286D01*
X78683047Y9403810D01*
X78687809Y9422858D01*
X78687809Y9446667D01*
X78683047Y9465715D01*
X78678285Y9475239D01*
X78673523Y9480000D01*
X78664000Y9484762D01*
X78568761Y9484762D02*
X78559238Y9484762D01*
X78549714Y9480000D01*
X78544952Y9475239D01*
X78540190Y9465715D01*
X78535428Y9446667D01*
X78535428Y9422858D01*
X78540190Y9403810D01*
X78544952Y9394286D01*
X78549714Y9389524D01*
X78559238Y9384762D01*
X78568761Y9384762D01*
X78578285Y9389524D01*
X78583047Y9394286D01*
X78587809Y9403810D01*
X78592571Y9422858D01*
X78592571Y9446667D01*
X78587809Y9465715D01*
X78583047Y9475239D01*
X78578285Y9480000D01*
X78568761Y9484762D01*
X78487809Y9384762D02*
X78468761Y9384762D01*
X78459238Y9389524D01*
X78454476Y9394286D01*
X78444952Y9408572D01*
X78440190Y9427620D01*
X78440190Y9465715D01*
X78444952Y9475239D01*
X78449714Y9480000D01*
X78459238Y9484762D01*
X78478285Y9484762D01*
X78487809Y9480000D01*
X78492571Y9475239D01*
X78497333Y9465715D01*
X78497333Y9441905D01*
X78492571Y9432381D01*
X78487809Y9427620D01*
X78478285Y9422858D01*
X78459238Y9422858D01*
X78449714Y9427620D01*
X78444952Y9432381D01*
X78440190Y9441905D01*
X78344952Y9384762D02*
X78402095Y9384762D01*
X78373523Y9384762D02*
X78373523Y9484762D01*
X78383047Y9470477D01*
X78392571Y9460953D01*
X78402095Y9456191D01*
D14*
X79021142Y8649048D02*
X79154476Y8839524D01*
X79249714Y8649048D02*
X79249714Y9049048D01*
X79097333Y9049048D01*
X79059238Y9030000D01*
X79040190Y9010953D01*
X79021142Y8972858D01*
X79021142Y8915715D01*
X79040190Y8877620D01*
X79059238Y8858572D01*
X79097333Y8839524D01*
X79249714Y8839524D01*
X78868761Y9010953D02*
X78849714Y9030000D01*
X78811619Y9049048D01*
X78716380Y9049048D01*
X78678285Y9030000D01*
X78659238Y9010953D01*
X78640190Y8972858D01*
X78640190Y8934762D01*
X78659238Y8877620D01*
X78887809Y8649048D01*
X78640190Y8649048D01*
X78297333Y9049048D02*
X78373523Y9049048D01*
X78411619Y9030000D01*
X78430666Y9010953D01*
X78468761Y8953810D01*
X78487809Y8877620D01*
X78487809Y8725239D01*
X78468761Y8687143D01*
X78449714Y8668096D01*
X78411619Y8649048D01*
X78335428Y8649048D01*
X78297333Y8668096D01*
X78278285Y8687143D01*
X78259238Y8725239D01*
X78259238Y8820477D01*
X78278285Y8858572D01*
X78297333Y8877620D01*
X78335428Y8896667D01*
X78411619Y8896667D01*
X78449714Y8877620D01*
X78468761Y8858572D01*
X78487809Y8820477D01*
G04 #@! TO.C,R25*
D13*
X79298285Y15004762D02*
X79298285Y15104762D01*
X79260190Y15104762D01*
X79250666Y15100000D01*
X79245904Y15095239D01*
X79241142Y15085715D01*
X79241142Y15071429D01*
X79245904Y15061905D01*
X79250666Y15057143D01*
X79260190Y15052381D01*
X79298285Y15052381D01*
X79150666Y15004762D02*
X79198285Y15004762D01*
X79198285Y15104762D01*
X79117333Y15004762D02*
X79117333Y15104762D01*
X79079238Y15104762D01*
X79069714Y15100000D01*
X79064952Y15095239D01*
X79060190Y15085715D01*
X79060190Y15071429D01*
X79064952Y15061905D01*
X79069714Y15057143D01*
X79079238Y15052381D01*
X79117333Y15052381D01*
X79017333Y15042858D02*
X78941142Y15042858D01*
X78874476Y15104762D02*
X78864952Y15104762D01*
X78855428Y15100000D01*
X78850666Y15095239D01*
X78845904Y15085715D01*
X78841142Y15066667D01*
X78841142Y15042858D01*
X78845904Y15023810D01*
X78850666Y15014286D01*
X78855428Y15009524D01*
X78864952Y15004762D01*
X78874476Y15004762D01*
X78884000Y15009524D01*
X78888761Y15014286D01*
X78893523Y15023810D01*
X78898285Y15042858D01*
X78898285Y15066667D01*
X78893523Y15085715D01*
X78888761Y15095239D01*
X78884000Y15100000D01*
X78874476Y15104762D01*
X78779238Y15104762D02*
X78769714Y15104762D01*
X78760190Y15100000D01*
X78755428Y15095239D01*
X78750666Y15085715D01*
X78745904Y15066667D01*
X78745904Y15042858D01*
X78750666Y15023810D01*
X78755428Y15014286D01*
X78760190Y15009524D01*
X78769714Y15004762D01*
X78779238Y15004762D01*
X78788761Y15009524D01*
X78793523Y15014286D01*
X78798285Y15023810D01*
X78803047Y15042858D01*
X78803047Y15066667D01*
X78798285Y15085715D01*
X78793523Y15095239D01*
X78788761Y15100000D01*
X78779238Y15104762D01*
X78684000Y15104762D02*
X78674476Y15104762D01*
X78664952Y15100000D01*
X78660190Y15095239D01*
X78655428Y15085715D01*
X78650666Y15066667D01*
X78650666Y15042858D01*
X78655428Y15023810D01*
X78660190Y15014286D01*
X78664952Y15009524D01*
X78674476Y15004762D01*
X78684000Y15004762D01*
X78693523Y15009524D01*
X78698285Y15014286D01*
X78703047Y15023810D01*
X78707809Y15042858D01*
X78707809Y15066667D01*
X78703047Y15085715D01*
X78698285Y15095239D01*
X78693523Y15100000D01*
X78684000Y15104762D01*
X78588761Y15104762D02*
X78579238Y15104762D01*
X78569714Y15100000D01*
X78564952Y15095239D01*
X78560190Y15085715D01*
X78555428Y15066667D01*
X78555428Y15042858D01*
X78560190Y15023810D01*
X78564952Y15014286D01*
X78569714Y15009524D01*
X78579238Y15004762D01*
X78588761Y15004762D01*
X78598285Y15009524D01*
X78603047Y15014286D01*
X78607809Y15023810D01*
X78612571Y15042858D01*
X78612571Y15066667D01*
X78607809Y15085715D01*
X78603047Y15095239D01*
X78598285Y15100000D01*
X78588761Y15104762D01*
X78507809Y15004762D02*
X78488761Y15004762D01*
X78479238Y15009524D01*
X78474476Y15014286D01*
X78464952Y15028572D01*
X78460190Y15047620D01*
X78460190Y15085715D01*
X78464952Y15095239D01*
X78469714Y15100000D01*
X78479238Y15104762D01*
X78498285Y15104762D01*
X78507809Y15100000D01*
X78512571Y15095239D01*
X78517333Y15085715D01*
X78517333Y15061905D01*
X78512571Y15052381D01*
X78507809Y15047620D01*
X78498285Y15042858D01*
X78479238Y15042858D01*
X78469714Y15047620D01*
X78464952Y15052381D01*
X78460190Y15061905D01*
X78364952Y15004762D02*
X78422095Y15004762D01*
X78393523Y15004762D02*
X78393523Y15104762D01*
X78403047Y15090477D01*
X78412571Y15080953D01*
X78422095Y15076191D01*
D14*
X79041142Y14269048D02*
X79174476Y14459524D01*
X79269714Y14269048D02*
X79269714Y14669048D01*
X79117333Y14669048D01*
X79079238Y14650000D01*
X79060190Y14630953D01*
X79041142Y14592858D01*
X79041142Y14535715D01*
X79060190Y14497620D01*
X79079238Y14478572D01*
X79117333Y14459524D01*
X79269714Y14459524D01*
X78888761Y14630953D02*
X78869714Y14650000D01*
X78831619Y14669048D01*
X78736380Y14669048D01*
X78698285Y14650000D01*
X78679238Y14630953D01*
X78660190Y14592858D01*
X78660190Y14554762D01*
X78679238Y14497620D01*
X78907809Y14269048D01*
X78660190Y14269048D01*
X78298285Y14669048D02*
X78488761Y14669048D01*
X78507809Y14478572D01*
X78488761Y14497620D01*
X78450666Y14516667D01*
X78355428Y14516667D01*
X78317333Y14497620D01*
X78298285Y14478572D01*
X78279238Y14440477D01*
X78279238Y14345239D01*
X78298285Y14307143D01*
X78317333Y14288096D01*
X78355428Y14269048D01*
X78450666Y14269048D01*
X78488761Y14288096D01*
X78507809Y14307143D01*
G04 #@! TO.C,R24*
D13*
X79198285Y12104762D02*
X79198285Y12204762D01*
X79160190Y12204762D01*
X79150666Y12200000D01*
X79145904Y12195239D01*
X79141142Y12185715D01*
X79141142Y12171429D01*
X79145904Y12161905D01*
X79150666Y12157143D01*
X79160190Y12152381D01*
X79198285Y12152381D01*
X79050666Y12104762D02*
X79098285Y12104762D01*
X79098285Y12204762D01*
X79017333Y12104762D02*
X79017333Y12204762D01*
X78979238Y12204762D01*
X78969714Y12200000D01*
X78964952Y12195239D01*
X78960190Y12185715D01*
X78960190Y12171429D01*
X78964952Y12161905D01*
X78969714Y12157143D01*
X78979238Y12152381D01*
X79017333Y12152381D01*
X78917333Y12142858D02*
X78841142Y12142858D01*
X78774476Y12204762D02*
X78764952Y12204762D01*
X78755428Y12200000D01*
X78750666Y12195239D01*
X78745904Y12185715D01*
X78741142Y12166667D01*
X78741142Y12142858D01*
X78745904Y12123810D01*
X78750666Y12114286D01*
X78755428Y12109524D01*
X78764952Y12104762D01*
X78774476Y12104762D01*
X78784000Y12109524D01*
X78788761Y12114286D01*
X78793523Y12123810D01*
X78798285Y12142858D01*
X78798285Y12166667D01*
X78793523Y12185715D01*
X78788761Y12195239D01*
X78784000Y12200000D01*
X78774476Y12204762D01*
X78679238Y12204762D02*
X78669714Y12204762D01*
X78660190Y12200000D01*
X78655428Y12195239D01*
X78650666Y12185715D01*
X78645904Y12166667D01*
X78645904Y12142858D01*
X78650666Y12123810D01*
X78655428Y12114286D01*
X78660190Y12109524D01*
X78669714Y12104762D01*
X78679238Y12104762D01*
X78688761Y12109524D01*
X78693523Y12114286D01*
X78698285Y12123810D01*
X78703047Y12142858D01*
X78703047Y12166667D01*
X78698285Y12185715D01*
X78693523Y12195239D01*
X78688761Y12200000D01*
X78679238Y12204762D01*
X78584000Y12204762D02*
X78574476Y12204762D01*
X78564952Y12200000D01*
X78560190Y12195239D01*
X78555428Y12185715D01*
X78550666Y12166667D01*
X78550666Y12142858D01*
X78555428Y12123810D01*
X78560190Y12114286D01*
X78564952Y12109524D01*
X78574476Y12104762D01*
X78584000Y12104762D01*
X78593523Y12109524D01*
X78598285Y12114286D01*
X78603047Y12123810D01*
X78607809Y12142858D01*
X78607809Y12166667D01*
X78603047Y12185715D01*
X78598285Y12195239D01*
X78593523Y12200000D01*
X78584000Y12204762D01*
X78488761Y12204762D02*
X78479238Y12204762D01*
X78469714Y12200000D01*
X78464952Y12195239D01*
X78460190Y12185715D01*
X78455428Y12166667D01*
X78455428Y12142858D01*
X78460190Y12123810D01*
X78464952Y12114286D01*
X78469714Y12109524D01*
X78479238Y12104762D01*
X78488761Y12104762D01*
X78498285Y12109524D01*
X78503047Y12114286D01*
X78507809Y12123810D01*
X78512571Y12142858D01*
X78512571Y12166667D01*
X78507809Y12185715D01*
X78503047Y12195239D01*
X78498285Y12200000D01*
X78488761Y12204762D01*
X78407809Y12104762D02*
X78388761Y12104762D01*
X78379238Y12109524D01*
X78374476Y12114286D01*
X78364952Y12128572D01*
X78360190Y12147620D01*
X78360190Y12185715D01*
X78364952Y12195239D01*
X78369714Y12200000D01*
X78379238Y12204762D01*
X78398285Y12204762D01*
X78407809Y12200000D01*
X78412571Y12195239D01*
X78417333Y12185715D01*
X78417333Y12161905D01*
X78412571Y12152381D01*
X78407809Y12147620D01*
X78398285Y12142858D01*
X78379238Y12142858D01*
X78369714Y12147620D01*
X78364952Y12152381D01*
X78360190Y12161905D01*
X78264952Y12104762D02*
X78322095Y12104762D01*
X78293523Y12104762D02*
X78293523Y12204762D01*
X78303047Y12190477D01*
X78312571Y12180953D01*
X78322095Y12176191D01*
D14*
X79041142Y12569048D02*
X79174476Y12759524D01*
X79269714Y12569048D02*
X79269714Y12969048D01*
X79117333Y12969048D01*
X79079238Y12950000D01*
X79060190Y12930953D01*
X79041142Y12892858D01*
X79041142Y12835715D01*
X79060190Y12797620D01*
X79079238Y12778572D01*
X79117333Y12759524D01*
X79269714Y12759524D01*
X78888761Y12930953D02*
X78869714Y12950000D01*
X78831619Y12969048D01*
X78736380Y12969048D01*
X78698285Y12950000D01*
X78679238Y12930953D01*
X78660190Y12892858D01*
X78660190Y12854762D01*
X78679238Y12797620D01*
X78907809Y12569048D01*
X78660190Y12569048D01*
X78317333Y12835715D02*
X78317333Y12569048D01*
X78412571Y12988096D02*
X78507809Y12702381D01*
X78260190Y12702381D01*
G04 #@! TO.C,R23*
D13*
X87838285Y11604762D02*
X87838285Y11704762D01*
X87800190Y11704762D01*
X87790666Y11700000D01*
X87785904Y11695239D01*
X87781142Y11685715D01*
X87781142Y11671429D01*
X87785904Y11661905D01*
X87790666Y11657143D01*
X87800190Y11652381D01*
X87838285Y11652381D01*
X87690666Y11604762D02*
X87738285Y11604762D01*
X87738285Y11704762D01*
X87657333Y11604762D02*
X87657333Y11704762D01*
X87619238Y11704762D01*
X87609714Y11700000D01*
X87604952Y11695239D01*
X87600190Y11685715D01*
X87600190Y11671429D01*
X87604952Y11661905D01*
X87609714Y11657143D01*
X87619238Y11652381D01*
X87657333Y11652381D01*
X87557333Y11642858D02*
X87481142Y11642858D01*
X87414476Y11704762D02*
X87404952Y11704762D01*
X87395428Y11700000D01*
X87390666Y11695239D01*
X87385904Y11685715D01*
X87381142Y11666667D01*
X87381142Y11642858D01*
X87385904Y11623810D01*
X87390666Y11614286D01*
X87395428Y11609524D01*
X87404952Y11604762D01*
X87414476Y11604762D01*
X87424000Y11609524D01*
X87428761Y11614286D01*
X87433523Y11623810D01*
X87438285Y11642858D01*
X87438285Y11666667D01*
X87433523Y11685715D01*
X87428761Y11695239D01*
X87424000Y11700000D01*
X87414476Y11704762D01*
X87319238Y11704762D02*
X87309714Y11704762D01*
X87300190Y11700000D01*
X87295428Y11695239D01*
X87290666Y11685715D01*
X87285904Y11666667D01*
X87285904Y11642858D01*
X87290666Y11623810D01*
X87295428Y11614286D01*
X87300190Y11609524D01*
X87309714Y11604762D01*
X87319238Y11604762D01*
X87328761Y11609524D01*
X87333523Y11614286D01*
X87338285Y11623810D01*
X87343047Y11642858D01*
X87343047Y11666667D01*
X87338285Y11685715D01*
X87333523Y11695239D01*
X87328761Y11700000D01*
X87319238Y11704762D01*
X87224000Y11704762D02*
X87214476Y11704762D01*
X87204952Y11700000D01*
X87200190Y11695239D01*
X87195428Y11685715D01*
X87190666Y11666667D01*
X87190666Y11642858D01*
X87195428Y11623810D01*
X87200190Y11614286D01*
X87204952Y11609524D01*
X87214476Y11604762D01*
X87224000Y11604762D01*
X87233523Y11609524D01*
X87238285Y11614286D01*
X87243047Y11623810D01*
X87247809Y11642858D01*
X87247809Y11666667D01*
X87243047Y11685715D01*
X87238285Y11695239D01*
X87233523Y11700000D01*
X87224000Y11704762D01*
X87128761Y11704762D02*
X87119238Y11704762D01*
X87109714Y11700000D01*
X87104952Y11695239D01*
X87100190Y11685715D01*
X87095428Y11666667D01*
X87095428Y11642858D01*
X87100190Y11623810D01*
X87104952Y11614286D01*
X87109714Y11609524D01*
X87119238Y11604762D01*
X87128761Y11604762D01*
X87138285Y11609524D01*
X87143047Y11614286D01*
X87147809Y11623810D01*
X87152571Y11642858D01*
X87152571Y11666667D01*
X87147809Y11685715D01*
X87143047Y11695239D01*
X87138285Y11700000D01*
X87128761Y11704762D01*
X87047809Y11604762D02*
X87028761Y11604762D01*
X87019238Y11609524D01*
X87014476Y11614286D01*
X87004952Y11628572D01*
X87000190Y11647620D01*
X87000190Y11685715D01*
X87004952Y11695239D01*
X87009714Y11700000D01*
X87019238Y11704762D01*
X87038285Y11704762D01*
X87047809Y11700000D01*
X87052571Y11695239D01*
X87057333Y11685715D01*
X87057333Y11661905D01*
X87052571Y11652381D01*
X87047809Y11647620D01*
X87038285Y11642858D01*
X87019238Y11642858D01*
X87009714Y11647620D01*
X87004952Y11652381D01*
X87000190Y11661905D01*
X86904952Y11604762D02*
X86962095Y11604762D01*
X86933523Y11604762D02*
X86933523Y11704762D01*
X86943047Y11690477D01*
X86952571Y11680953D01*
X86962095Y11676191D01*
D14*
X87581142Y10869048D02*
X87714476Y11059524D01*
X87809714Y10869048D02*
X87809714Y11269048D01*
X87657333Y11269048D01*
X87619238Y11250000D01*
X87600190Y11230953D01*
X87581142Y11192858D01*
X87581142Y11135715D01*
X87600190Y11097620D01*
X87619238Y11078572D01*
X87657333Y11059524D01*
X87809714Y11059524D01*
X87428761Y11230953D02*
X87409714Y11250000D01*
X87371619Y11269048D01*
X87276380Y11269048D01*
X87238285Y11250000D01*
X87219238Y11230953D01*
X87200190Y11192858D01*
X87200190Y11154762D01*
X87219238Y11097620D01*
X87447809Y10869048D01*
X87200190Y10869048D01*
X87066857Y11269048D02*
X86819238Y11269048D01*
X86952571Y11116667D01*
X86895428Y11116667D01*
X86857333Y11097620D01*
X86838285Y11078572D01*
X86819238Y11040477D01*
X86819238Y10945239D01*
X86838285Y10907143D01*
X86857333Y10888096D01*
X86895428Y10869048D01*
X87009714Y10869048D01*
X87047809Y10888096D01*
X87066857Y10907143D01*
G04 #@! TO.C,R22*
D13*
X87838285Y13304762D02*
X87838285Y13404762D01*
X87800190Y13404762D01*
X87790666Y13400000D01*
X87785904Y13395239D01*
X87781142Y13385715D01*
X87781142Y13371429D01*
X87785904Y13361905D01*
X87790666Y13357143D01*
X87800190Y13352381D01*
X87838285Y13352381D01*
X87690666Y13304762D02*
X87738285Y13304762D01*
X87738285Y13404762D01*
X87657333Y13304762D02*
X87657333Y13404762D01*
X87619238Y13404762D01*
X87609714Y13400000D01*
X87604952Y13395239D01*
X87600190Y13385715D01*
X87600190Y13371429D01*
X87604952Y13361905D01*
X87609714Y13357143D01*
X87619238Y13352381D01*
X87657333Y13352381D01*
X87557333Y13342858D02*
X87481142Y13342858D01*
X87414476Y13404762D02*
X87404952Y13404762D01*
X87395428Y13400000D01*
X87390666Y13395239D01*
X87385904Y13385715D01*
X87381142Y13366667D01*
X87381142Y13342858D01*
X87385904Y13323810D01*
X87390666Y13314286D01*
X87395428Y13309524D01*
X87404952Y13304762D01*
X87414476Y13304762D01*
X87424000Y13309524D01*
X87428761Y13314286D01*
X87433523Y13323810D01*
X87438285Y13342858D01*
X87438285Y13366667D01*
X87433523Y13385715D01*
X87428761Y13395239D01*
X87424000Y13400000D01*
X87414476Y13404762D01*
X87319238Y13404762D02*
X87309714Y13404762D01*
X87300190Y13400000D01*
X87295428Y13395239D01*
X87290666Y13385715D01*
X87285904Y13366667D01*
X87285904Y13342858D01*
X87290666Y13323810D01*
X87295428Y13314286D01*
X87300190Y13309524D01*
X87309714Y13304762D01*
X87319238Y13304762D01*
X87328761Y13309524D01*
X87333523Y13314286D01*
X87338285Y13323810D01*
X87343047Y13342858D01*
X87343047Y13366667D01*
X87338285Y13385715D01*
X87333523Y13395239D01*
X87328761Y13400000D01*
X87319238Y13404762D01*
X87224000Y13404762D02*
X87214476Y13404762D01*
X87204952Y13400000D01*
X87200190Y13395239D01*
X87195428Y13385715D01*
X87190666Y13366667D01*
X87190666Y13342858D01*
X87195428Y13323810D01*
X87200190Y13314286D01*
X87204952Y13309524D01*
X87214476Y13304762D01*
X87224000Y13304762D01*
X87233523Y13309524D01*
X87238285Y13314286D01*
X87243047Y13323810D01*
X87247809Y13342858D01*
X87247809Y13366667D01*
X87243047Y13385715D01*
X87238285Y13395239D01*
X87233523Y13400000D01*
X87224000Y13404762D01*
X87128761Y13404762D02*
X87119238Y13404762D01*
X87109714Y13400000D01*
X87104952Y13395239D01*
X87100190Y13385715D01*
X87095428Y13366667D01*
X87095428Y13342858D01*
X87100190Y13323810D01*
X87104952Y13314286D01*
X87109714Y13309524D01*
X87119238Y13304762D01*
X87128761Y13304762D01*
X87138285Y13309524D01*
X87143047Y13314286D01*
X87147809Y13323810D01*
X87152571Y13342858D01*
X87152571Y13366667D01*
X87147809Y13385715D01*
X87143047Y13395239D01*
X87138285Y13400000D01*
X87128761Y13404762D01*
X87047809Y13304762D02*
X87028761Y13304762D01*
X87019238Y13309524D01*
X87014476Y13314286D01*
X87004952Y13328572D01*
X87000190Y13347620D01*
X87000190Y13385715D01*
X87004952Y13395239D01*
X87009714Y13400000D01*
X87019238Y13404762D01*
X87038285Y13404762D01*
X87047809Y13400000D01*
X87052571Y13395239D01*
X87057333Y13385715D01*
X87057333Y13361905D01*
X87052571Y13352381D01*
X87047809Y13347620D01*
X87038285Y13342858D01*
X87019238Y13342858D01*
X87009714Y13347620D01*
X87004952Y13352381D01*
X87000190Y13361905D01*
X86904952Y13304762D02*
X86962095Y13304762D01*
X86933523Y13304762D02*
X86933523Y13404762D01*
X86943047Y13390477D01*
X86952571Y13380953D01*
X86962095Y13376191D01*
D14*
X87581142Y12569048D02*
X87714476Y12759524D01*
X87809714Y12569048D02*
X87809714Y12969048D01*
X87657333Y12969048D01*
X87619238Y12950000D01*
X87600190Y12930953D01*
X87581142Y12892858D01*
X87581142Y12835715D01*
X87600190Y12797620D01*
X87619238Y12778572D01*
X87657333Y12759524D01*
X87809714Y12759524D01*
X87428761Y12930953D02*
X87409714Y12950000D01*
X87371619Y12969048D01*
X87276380Y12969048D01*
X87238285Y12950000D01*
X87219238Y12930953D01*
X87200190Y12892858D01*
X87200190Y12854762D01*
X87219238Y12797620D01*
X87447809Y12569048D01*
X87200190Y12569048D01*
X87047809Y12930953D02*
X87028761Y12950000D01*
X86990666Y12969048D01*
X86895428Y12969048D01*
X86857333Y12950000D01*
X86838285Y12930953D01*
X86819238Y12892858D01*
X86819238Y12854762D01*
X86838285Y12797620D01*
X87066857Y12569048D01*
X86819238Y12569048D01*
G04 #@! TO.C,R21*
D13*
X87838285Y15004762D02*
X87838285Y15104762D01*
X87800190Y15104762D01*
X87790666Y15100000D01*
X87785904Y15095239D01*
X87781142Y15085715D01*
X87781142Y15071429D01*
X87785904Y15061905D01*
X87790666Y15057143D01*
X87800190Y15052381D01*
X87838285Y15052381D01*
X87690666Y15004762D02*
X87738285Y15004762D01*
X87738285Y15104762D01*
X87657333Y15004762D02*
X87657333Y15104762D01*
X87619238Y15104762D01*
X87609714Y15100000D01*
X87604952Y15095239D01*
X87600190Y15085715D01*
X87600190Y15071429D01*
X87604952Y15061905D01*
X87609714Y15057143D01*
X87619238Y15052381D01*
X87657333Y15052381D01*
X87557333Y15042858D02*
X87481142Y15042858D01*
X87414476Y15104762D02*
X87404952Y15104762D01*
X87395428Y15100000D01*
X87390666Y15095239D01*
X87385904Y15085715D01*
X87381142Y15066667D01*
X87381142Y15042858D01*
X87385904Y15023810D01*
X87390666Y15014286D01*
X87395428Y15009524D01*
X87404952Y15004762D01*
X87414476Y15004762D01*
X87424000Y15009524D01*
X87428761Y15014286D01*
X87433523Y15023810D01*
X87438285Y15042858D01*
X87438285Y15066667D01*
X87433523Y15085715D01*
X87428761Y15095239D01*
X87424000Y15100000D01*
X87414476Y15104762D01*
X87319238Y15104762D02*
X87309714Y15104762D01*
X87300190Y15100000D01*
X87295428Y15095239D01*
X87290666Y15085715D01*
X87285904Y15066667D01*
X87285904Y15042858D01*
X87290666Y15023810D01*
X87295428Y15014286D01*
X87300190Y15009524D01*
X87309714Y15004762D01*
X87319238Y15004762D01*
X87328761Y15009524D01*
X87333523Y15014286D01*
X87338285Y15023810D01*
X87343047Y15042858D01*
X87343047Y15066667D01*
X87338285Y15085715D01*
X87333523Y15095239D01*
X87328761Y15100000D01*
X87319238Y15104762D01*
X87224000Y15104762D02*
X87214476Y15104762D01*
X87204952Y15100000D01*
X87200190Y15095239D01*
X87195428Y15085715D01*
X87190666Y15066667D01*
X87190666Y15042858D01*
X87195428Y15023810D01*
X87200190Y15014286D01*
X87204952Y15009524D01*
X87214476Y15004762D01*
X87224000Y15004762D01*
X87233523Y15009524D01*
X87238285Y15014286D01*
X87243047Y15023810D01*
X87247809Y15042858D01*
X87247809Y15066667D01*
X87243047Y15085715D01*
X87238285Y15095239D01*
X87233523Y15100000D01*
X87224000Y15104762D01*
X87128761Y15104762D02*
X87119238Y15104762D01*
X87109714Y15100000D01*
X87104952Y15095239D01*
X87100190Y15085715D01*
X87095428Y15066667D01*
X87095428Y15042858D01*
X87100190Y15023810D01*
X87104952Y15014286D01*
X87109714Y15009524D01*
X87119238Y15004762D01*
X87128761Y15004762D01*
X87138285Y15009524D01*
X87143047Y15014286D01*
X87147809Y15023810D01*
X87152571Y15042858D01*
X87152571Y15066667D01*
X87147809Y15085715D01*
X87143047Y15095239D01*
X87138285Y15100000D01*
X87128761Y15104762D01*
X87047809Y15004762D02*
X87028761Y15004762D01*
X87019238Y15009524D01*
X87014476Y15014286D01*
X87004952Y15028572D01*
X87000190Y15047620D01*
X87000190Y15085715D01*
X87004952Y15095239D01*
X87009714Y15100000D01*
X87019238Y15104762D01*
X87038285Y15104762D01*
X87047809Y15100000D01*
X87052571Y15095239D01*
X87057333Y15085715D01*
X87057333Y15061905D01*
X87052571Y15052381D01*
X87047809Y15047620D01*
X87038285Y15042858D01*
X87019238Y15042858D01*
X87009714Y15047620D01*
X87004952Y15052381D01*
X87000190Y15061905D01*
X86904952Y15004762D02*
X86962095Y15004762D01*
X86933523Y15004762D02*
X86933523Y15104762D01*
X86943047Y15090477D01*
X86952571Y15080953D01*
X86962095Y15076191D01*
D14*
X87581142Y14269048D02*
X87714476Y14459524D01*
X87809714Y14269048D02*
X87809714Y14669048D01*
X87657333Y14669048D01*
X87619238Y14650000D01*
X87600190Y14630953D01*
X87581142Y14592858D01*
X87581142Y14535715D01*
X87600190Y14497620D01*
X87619238Y14478572D01*
X87657333Y14459524D01*
X87809714Y14459524D01*
X87428761Y14630953D02*
X87409714Y14650000D01*
X87371619Y14669048D01*
X87276380Y14669048D01*
X87238285Y14650000D01*
X87219238Y14630953D01*
X87200190Y14592858D01*
X87200190Y14554762D01*
X87219238Y14497620D01*
X87447809Y14269048D01*
X87200190Y14269048D01*
X86819238Y14269048D02*
X87047809Y14269048D01*
X86933523Y14269048D02*
X86933523Y14669048D01*
X86971619Y14611905D01*
X87009714Y14573810D01*
X87047809Y14554762D01*
G04 #@! TO.C,R20*
D13*
X87838285Y9516762D02*
X87838285Y9616762D01*
X87800190Y9616762D01*
X87790666Y9612000D01*
X87785904Y9607239D01*
X87781142Y9597715D01*
X87781142Y9583429D01*
X87785904Y9573905D01*
X87790666Y9569143D01*
X87800190Y9564381D01*
X87838285Y9564381D01*
X87690666Y9516762D02*
X87738285Y9516762D01*
X87738285Y9616762D01*
X87657333Y9516762D02*
X87657333Y9616762D01*
X87619238Y9616762D01*
X87609714Y9612000D01*
X87604952Y9607239D01*
X87600190Y9597715D01*
X87600190Y9583429D01*
X87604952Y9573905D01*
X87609714Y9569143D01*
X87619238Y9564381D01*
X87657333Y9564381D01*
X87557333Y9554858D02*
X87481142Y9554858D01*
X87414476Y9616762D02*
X87404952Y9616762D01*
X87395428Y9612000D01*
X87390666Y9607239D01*
X87385904Y9597715D01*
X87381142Y9578667D01*
X87381142Y9554858D01*
X87385904Y9535810D01*
X87390666Y9526286D01*
X87395428Y9521524D01*
X87404952Y9516762D01*
X87414476Y9516762D01*
X87424000Y9521524D01*
X87428761Y9526286D01*
X87433523Y9535810D01*
X87438285Y9554858D01*
X87438285Y9578667D01*
X87433523Y9597715D01*
X87428761Y9607239D01*
X87424000Y9612000D01*
X87414476Y9616762D01*
X87319238Y9616762D02*
X87309714Y9616762D01*
X87300190Y9612000D01*
X87295428Y9607239D01*
X87290666Y9597715D01*
X87285904Y9578667D01*
X87285904Y9554858D01*
X87290666Y9535810D01*
X87295428Y9526286D01*
X87300190Y9521524D01*
X87309714Y9516762D01*
X87319238Y9516762D01*
X87328761Y9521524D01*
X87333523Y9526286D01*
X87338285Y9535810D01*
X87343047Y9554858D01*
X87343047Y9578667D01*
X87338285Y9597715D01*
X87333523Y9607239D01*
X87328761Y9612000D01*
X87319238Y9616762D01*
X87224000Y9616762D02*
X87214476Y9616762D01*
X87204952Y9612000D01*
X87200190Y9607239D01*
X87195428Y9597715D01*
X87190666Y9578667D01*
X87190666Y9554858D01*
X87195428Y9535810D01*
X87200190Y9526286D01*
X87204952Y9521524D01*
X87214476Y9516762D01*
X87224000Y9516762D01*
X87233523Y9521524D01*
X87238285Y9526286D01*
X87243047Y9535810D01*
X87247809Y9554858D01*
X87247809Y9578667D01*
X87243047Y9597715D01*
X87238285Y9607239D01*
X87233523Y9612000D01*
X87224000Y9616762D01*
X87128761Y9616762D02*
X87119238Y9616762D01*
X87109714Y9612000D01*
X87104952Y9607239D01*
X87100190Y9597715D01*
X87095428Y9578667D01*
X87095428Y9554858D01*
X87100190Y9535810D01*
X87104952Y9526286D01*
X87109714Y9521524D01*
X87119238Y9516762D01*
X87128761Y9516762D01*
X87138285Y9521524D01*
X87143047Y9526286D01*
X87147809Y9535810D01*
X87152571Y9554858D01*
X87152571Y9578667D01*
X87147809Y9597715D01*
X87143047Y9607239D01*
X87138285Y9612000D01*
X87128761Y9616762D01*
X87047809Y9516762D02*
X87028761Y9516762D01*
X87019238Y9521524D01*
X87014476Y9526286D01*
X87004952Y9540572D01*
X87000190Y9559620D01*
X87000190Y9597715D01*
X87004952Y9607239D01*
X87009714Y9612000D01*
X87019238Y9616762D01*
X87038285Y9616762D01*
X87047809Y9612000D01*
X87052571Y9607239D01*
X87057333Y9597715D01*
X87057333Y9573905D01*
X87052571Y9564381D01*
X87047809Y9559620D01*
X87038285Y9554858D01*
X87019238Y9554858D01*
X87009714Y9559620D01*
X87004952Y9564381D01*
X87000190Y9573905D01*
X86904952Y9516762D02*
X86962095Y9516762D01*
X86933523Y9516762D02*
X86933523Y9616762D01*
X86943047Y9602477D01*
X86952571Y9592953D01*
X86962095Y9588191D01*
D14*
X87581142Y8781048D02*
X87714476Y8971524D01*
X87809714Y8781048D02*
X87809714Y9181048D01*
X87657333Y9181048D01*
X87619238Y9162000D01*
X87600190Y9142953D01*
X87581142Y9104858D01*
X87581142Y9047715D01*
X87600190Y9009620D01*
X87619238Y8990572D01*
X87657333Y8971524D01*
X87809714Y8971524D01*
X87428761Y9142953D02*
X87409714Y9162000D01*
X87371619Y9181048D01*
X87276380Y9181048D01*
X87238285Y9162000D01*
X87219238Y9142953D01*
X87200190Y9104858D01*
X87200190Y9066762D01*
X87219238Y9009620D01*
X87447809Y8781048D01*
X87200190Y8781048D01*
X86952571Y9181048D02*
X86914476Y9181048D01*
X86876380Y9162000D01*
X86857333Y9142953D01*
X86838285Y9104858D01*
X86819238Y9028667D01*
X86819238Y8933429D01*
X86838285Y8857239D01*
X86857333Y8819143D01*
X86876380Y8800096D01*
X86914476Y8781048D01*
X86952571Y8781048D01*
X86990666Y8800096D01*
X87009714Y8819143D01*
X87028761Y8857239D01*
X87047809Y8933429D01*
X87047809Y9028667D01*
X87028761Y9104858D01*
X87009714Y9142953D01*
X86990666Y9162000D01*
X86952571Y9181048D01*
G04 #@! TO.C,R19*
D13*
X84814285Y29454762D02*
X84814285Y29554762D01*
X84776190Y29554762D01*
X84766666Y29550000D01*
X84761904Y29545239D01*
X84757142Y29535715D01*
X84757142Y29521429D01*
X84761904Y29511905D01*
X84766666Y29507143D01*
X84776190Y29502381D01*
X84814285Y29502381D01*
X84666666Y29454762D02*
X84714285Y29454762D01*
X84714285Y29554762D01*
X84633333Y29454762D02*
X84633333Y29554762D01*
X84595238Y29554762D01*
X84585714Y29550000D01*
X84580952Y29545239D01*
X84576190Y29535715D01*
X84576190Y29521429D01*
X84580952Y29511905D01*
X84585714Y29507143D01*
X84595238Y29502381D01*
X84633333Y29502381D01*
X84533333Y29492858D02*
X84457142Y29492858D01*
X84390476Y29554762D02*
X84380952Y29554762D01*
X84371428Y29550000D01*
X84366666Y29545239D01*
X84361904Y29535715D01*
X84357142Y29516667D01*
X84357142Y29492858D01*
X84361904Y29473810D01*
X84366666Y29464286D01*
X84371428Y29459524D01*
X84380952Y29454762D01*
X84390476Y29454762D01*
X84400000Y29459524D01*
X84404761Y29464286D01*
X84409523Y29473810D01*
X84414285Y29492858D01*
X84414285Y29516667D01*
X84409523Y29535715D01*
X84404761Y29545239D01*
X84400000Y29550000D01*
X84390476Y29554762D01*
X84295238Y29554762D02*
X84285714Y29554762D01*
X84276190Y29550000D01*
X84271428Y29545239D01*
X84266666Y29535715D01*
X84261904Y29516667D01*
X84261904Y29492858D01*
X84266666Y29473810D01*
X84271428Y29464286D01*
X84276190Y29459524D01*
X84285714Y29454762D01*
X84295238Y29454762D01*
X84304761Y29459524D01*
X84309523Y29464286D01*
X84314285Y29473810D01*
X84319047Y29492858D01*
X84319047Y29516667D01*
X84314285Y29535715D01*
X84309523Y29545239D01*
X84304761Y29550000D01*
X84295238Y29554762D01*
X84200000Y29554762D02*
X84190476Y29554762D01*
X84180952Y29550000D01*
X84176190Y29545239D01*
X84171428Y29535715D01*
X84166666Y29516667D01*
X84166666Y29492858D01*
X84171428Y29473810D01*
X84176190Y29464286D01*
X84180952Y29459524D01*
X84190476Y29454762D01*
X84200000Y29454762D01*
X84209523Y29459524D01*
X84214285Y29464286D01*
X84219047Y29473810D01*
X84223809Y29492858D01*
X84223809Y29516667D01*
X84219047Y29535715D01*
X84214285Y29545239D01*
X84209523Y29550000D01*
X84200000Y29554762D01*
X84104761Y29554762D02*
X84095238Y29554762D01*
X84085714Y29550000D01*
X84080952Y29545239D01*
X84076190Y29535715D01*
X84071428Y29516667D01*
X84071428Y29492858D01*
X84076190Y29473810D01*
X84080952Y29464286D01*
X84085714Y29459524D01*
X84095238Y29454762D01*
X84104761Y29454762D01*
X84114285Y29459524D01*
X84119047Y29464286D01*
X84123809Y29473810D01*
X84128571Y29492858D01*
X84128571Y29516667D01*
X84123809Y29535715D01*
X84119047Y29545239D01*
X84114285Y29550000D01*
X84104761Y29554762D01*
X84038095Y29554762D02*
X83976190Y29554762D01*
X84009523Y29516667D01*
X83995238Y29516667D01*
X83985714Y29511905D01*
X83980952Y29507143D01*
X83976190Y29497620D01*
X83976190Y29473810D01*
X83980952Y29464286D01*
X83985714Y29459524D01*
X83995238Y29454762D01*
X84023809Y29454762D01*
X84033333Y29459524D01*
X84038095Y29464286D01*
X83880952Y29454762D02*
X83938095Y29454762D01*
X83909523Y29454762D02*
X83909523Y29554762D01*
X83919047Y29540477D01*
X83928571Y29530953D01*
X83938095Y29526191D01*
D14*
X84657142Y29919048D02*
X84790476Y30109524D01*
X84885714Y29919048D02*
X84885714Y30319048D01*
X84733333Y30319048D01*
X84695238Y30300000D01*
X84676190Y30280953D01*
X84657142Y30242858D01*
X84657142Y30185715D01*
X84676190Y30147620D01*
X84695238Y30128572D01*
X84733333Y30109524D01*
X84885714Y30109524D01*
X84276190Y29919048D02*
X84504761Y29919048D01*
X84390476Y29919048D02*
X84390476Y30319048D01*
X84428571Y30261905D01*
X84466666Y30223810D01*
X84504761Y30204762D01*
X84085714Y29919048D02*
X84009523Y29919048D01*
X83971428Y29938096D01*
X83952380Y29957143D01*
X83914285Y30014286D01*
X83895238Y30090477D01*
X83895238Y30242858D01*
X83914285Y30280953D01*
X83933333Y30300000D01*
X83971428Y30319048D01*
X84047619Y30319048D01*
X84085714Y30300000D01*
X84104761Y30280953D01*
X84123809Y30242858D01*
X84123809Y30147620D01*
X84104761Y30109524D01*
X84085714Y30090477D01*
X84047619Y30071429D01*
X83971428Y30071429D01*
X83933333Y30090477D01*
X83914285Y30109524D01*
X83895238Y30147620D01*
G04 #@! TO.C,R18*
D13*
X77654285Y16594762D02*
X77654285Y16694762D01*
X77616190Y16694762D01*
X77606666Y16690000D01*
X77601904Y16685239D01*
X77597142Y16675715D01*
X77597142Y16661429D01*
X77601904Y16651905D01*
X77606666Y16647143D01*
X77616190Y16642381D01*
X77654285Y16642381D01*
X77506666Y16594762D02*
X77554285Y16594762D01*
X77554285Y16694762D01*
X77473333Y16594762D02*
X77473333Y16694762D01*
X77435238Y16694762D01*
X77425714Y16690000D01*
X77420952Y16685239D01*
X77416190Y16675715D01*
X77416190Y16661429D01*
X77420952Y16651905D01*
X77425714Y16647143D01*
X77435238Y16642381D01*
X77473333Y16642381D01*
X77373333Y16632858D02*
X77297142Y16632858D01*
X77230476Y16694762D02*
X77220952Y16694762D01*
X77211428Y16690000D01*
X77206666Y16685239D01*
X77201904Y16675715D01*
X77197142Y16656667D01*
X77197142Y16632858D01*
X77201904Y16613810D01*
X77206666Y16604286D01*
X77211428Y16599524D01*
X77220952Y16594762D01*
X77230476Y16594762D01*
X77240000Y16599524D01*
X77244761Y16604286D01*
X77249523Y16613810D01*
X77254285Y16632858D01*
X77254285Y16656667D01*
X77249523Y16675715D01*
X77244761Y16685239D01*
X77240000Y16690000D01*
X77230476Y16694762D01*
X77135238Y16694762D02*
X77125714Y16694762D01*
X77116190Y16690000D01*
X77111428Y16685239D01*
X77106666Y16675715D01*
X77101904Y16656667D01*
X77101904Y16632858D01*
X77106666Y16613810D01*
X77111428Y16604286D01*
X77116190Y16599524D01*
X77125714Y16594762D01*
X77135238Y16594762D01*
X77144761Y16599524D01*
X77149523Y16604286D01*
X77154285Y16613810D01*
X77159047Y16632858D01*
X77159047Y16656667D01*
X77154285Y16675715D01*
X77149523Y16685239D01*
X77144761Y16690000D01*
X77135238Y16694762D01*
X77040000Y16694762D02*
X77030476Y16694762D01*
X77020952Y16690000D01*
X77016190Y16685239D01*
X77011428Y16675715D01*
X77006666Y16656667D01*
X77006666Y16632858D01*
X77011428Y16613810D01*
X77016190Y16604286D01*
X77020952Y16599524D01*
X77030476Y16594762D01*
X77040000Y16594762D01*
X77049523Y16599524D01*
X77054285Y16604286D01*
X77059047Y16613810D01*
X77063809Y16632858D01*
X77063809Y16656667D01*
X77059047Y16675715D01*
X77054285Y16685239D01*
X77049523Y16690000D01*
X77040000Y16694762D01*
X76968571Y16685239D02*
X76963809Y16690000D01*
X76954285Y16694762D01*
X76930476Y16694762D01*
X76920952Y16690000D01*
X76916190Y16685239D01*
X76911428Y16675715D01*
X76911428Y16666191D01*
X76916190Y16651905D01*
X76973333Y16594762D01*
X76911428Y16594762D01*
X76878095Y16694762D02*
X76811428Y16694762D01*
X76854285Y16594762D01*
X76754285Y16694762D02*
X76744761Y16694762D01*
X76735238Y16690000D01*
X76730476Y16685239D01*
X76725714Y16675715D01*
X76720952Y16656667D01*
X76720952Y16632858D01*
X76725714Y16613810D01*
X76730476Y16604286D01*
X76735238Y16599524D01*
X76744761Y16594762D01*
X76754285Y16594762D01*
X76763809Y16599524D01*
X76768571Y16604286D01*
X76773333Y16613810D01*
X76778095Y16632858D01*
X76778095Y16656667D01*
X76773333Y16675715D01*
X76768571Y16685239D01*
X76763809Y16690000D01*
X76754285Y16694762D01*
D14*
X77397142Y15859048D02*
X77530476Y16049524D01*
X77625714Y15859048D02*
X77625714Y16259048D01*
X77473333Y16259048D01*
X77435238Y16240000D01*
X77416190Y16220953D01*
X77397142Y16182858D01*
X77397142Y16125715D01*
X77416190Y16087620D01*
X77435238Y16068572D01*
X77473333Y16049524D01*
X77625714Y16049524D01*
X77016190Y15859048D02*
X77244761Y15859048D01*
X77130476Y15859048D02*
X77130476Y16259048D01*
X77168571Y16201905D01*
X77206666Y16163810D01*
X77244761Y16144762D01*
X76787619Y16087620D02*
X76825714Y16106667D01*
X76844761Y16125715D01*
X76863809Y16163810D01*
X76863809Y16182858D01*
X76844761Y16220953D01*
X76825714Y16240000D01*
X76787619Y16259048D01*
X76711428Y16259048D01*
X76673333Y16240000D01*
X76654285Y16220953D01*
X76635238Y16182858D01*
X76635238Y16163810D01*
X76654285Y16125715D01*
X76673333Y16106667D01*
X76711428Y16087620D01*
X76787619Y16087620D01*
X76825714Y16068572D01*
X76844761Y16049524D01*
X76863809Y16011429D01*
X76863809Y15935239D01*
X76844761Y15897143D01*
X76825714Y15878096D01*
X76787619Y15859048D01*
X76711428Y15859048D01*
X76673333Y15878096D01*
X76654285Y15897143D01*
X76635238Y15935239D01*
X76635238Y16011429D01*
X76654285Y16049524D01*
X76673333Y16068572D01*
X76711428Y16087620D01*
G04 #@! TO.C,R17*
D13*
X77624285Y7784762D02*
X77624285Y7884762D01*
X77586190Y7884762D01*
X77576666Y7880000D01*
X77571904Y7875239D01*
X77567142Y7865715D01*
X77567142Y7851429D01*
X77571904Y7841905D01*
X77576666Y7837143D01*
X77586190Y7832381D01*
X77624285Y7832381D01*
X77476666Y7784762D02*
X77524285Y7784762D01*
X77524285Y7884762D01*
X77443333Y7784762D02*
X77443333Y7884762D01*
X77405238Y7884762D01*
X77395714Y7880000D01*
X77390952Y7875239D01*
X77386190Y7865715D01*
X77386190Y7851429D01*
X77390952Y7841905D01*
X77395714Y7837143D01*
X77405238Y7832381D01*
X77443333Y7832381D01*
X77343333Y7822858D02*
X77267142Y7822858D01*
X77200476Y7884762D02*
X77190952Y7884762D01*
X77181428Y7880000D01*
X77176666Y7875239D01*
X77171904Y7865715D01*
X77167142Y7846667D01*
X77167142Y7822858D01*
X77171904Y7803810D01*
X77176666Y7794286D01*
X77181428Y7789524D01*
X77190952Y7784762D01*
X77200476Y7784762D01*
X77210000Y7789524D01*
X77214761Y7794286D01*
X77219523Y7803810D01*
X77224285Y7822858D01*
X77224285Y7846667D01*
X77219523Y7865715D01*
X77214761Y7875239D01*
X77210000Y7880000D01*
X77200476Y7884762D01*
X77105238Y7884762D02*
X77095714Y7884762D01*
X77086190Y7880000D01*
X77081428Y7875239D01*
X77076666Y7865715D01*
X77071904Y7846667D01*
X77071904Y7822858D01*
X77076666Y7803810D01*
X77081428Y7794286D01*
X77086190Y7789524D01*
X77095714Y7784762D01*
X77105238Y7784762D01*
X77114761Y7789524D01*
X77119523Y7794286D01*
X77124285Y7803810D01*
X77129047Y7822858D01*
X77129047Y7846667D01*
X77124285Y7865715D01*
X77119523Y7875239D01*
X77114761Y7880000D01*
X77105238Y7884762D01*
X77010000Y7884762D02*
X77000476Y7884762D01*
X76990952Y7880000D01*
X76986190Y7875239D01*
X76981428Y7865715D01*
X76976666Y7846667D01*
X76976666Y7822858D01*
X76981428Y7803810D01*
X76986190Y7794286D01*
X76990952Y7789524D01*
X77000476Y7784762D01*
X77010000Y7784762D01*
X77019523Y7789524D01*
X77024285Y7794286D01*
X77029047Y7803810D01*
X77033809Y7822858D01*
X77033809Y7846667D01*
X77029047Y7865715D01*
X77024285Y7875239D01*
X77019523Y7880000D01*
X77010000Y7884762D01*
X76938571Y7875239D02*
X76933809Y7880000D01*
X76924285Y7884762D01*
X76900476Y7884762D01*
X76890952Y7880000D01*
X76886190Y7875239D01*
X76881428Y7865715D01*
X76881428Y7856191D01*
X76886190Y7841905D01*
X76943333Y7784762D01*
X76881428Y7784762D01*
X76848095Y7884762D02*
X76781428Y7884762D01*
X76824285Y7784762D01*
X76724285Y7884762D02*
X76714761Y7884762D01*
X76705238Y7880000D01*
X76700476Y7875239D01*
X76695714Y7865715D01*
X76690952Y7846667D01*
X76690952Y7822858D01*
X76695714Y7803810D01*
X76700476Y7794286D01*
X76705238Y7789524D01*
X76714761Y7784762D01*
X76724285Y7784762D01*
X76733809Y7789524D01*
X76738571Y7794286D01*
X76743333Y7803810D01*
X76748095Y7822858D01*
X76748095Y7846667D01*
X76743333Y7865715D01*
X76738571Y7875239D01*
X76733809Y7880000D01*
X76724285Y7884762D01*
D14*
X77367142Y7049048D02*
X77500476Y7239524D01*
X77595714Y7049048D02*
X77595714Y7449048D01*
X77443333Y7449048D01*
X77405238Y7430000D01*
X77386190Y7410953D01*
X77367142Y7372858D01*
X77367142Y7315715D01*
X77386190Y7277620D01*
X77405238Y7258572D01*
X77443333Y7239524D01*
X77595714Y7239524D01*
X76986190Y7049048D02*
X77214761Y7049048D01*
X77100476Y7049048D02*
X77100476Y7449048D01*
X77138571Y7391905D01*
X77176666Y7353810D01*
X77214761Y7334762D01*
X76852857Y7449048D02*
X76586190Y7449048D01*
X76757619Y7049048D01*
G04 #@! TO.C,C5*
D15*
X95829238Y12194286D02*
X95729238Y12194286D01*
X95729238Y12156191D01*
X95734000Y12146667D01*
X95738761Y12141905D01*
X95748285Y12137143D01*
X95762571Y12137143D01*
X95772095Y12141905D01*
X95776857Y12146667D01*
X95781619Y12156191D01*
X95781619Y12194286D01*
X95829238Y12046667D02*
X95829238Y12094286D01*
X95729238Y12094286D01*
X95829238Y12013334D02*
X95729238Y12013334D01*
X95729238Y11975239D01*
X95734000Y11965715D01*
X95738761Y11960953D01*
X95748285Y11956191D01*
X95762571Y11956191D01*
X95772095Y11960953D01*
X95776857Y11965715D01*
X95781619Y11975239D01*
X95781619Y12013334D01*
X95791142Y11913334D02*
X95791142Y11837143D01*
X95729238Y11770477D02*
X95729238Y11760953D01*
X95734000Y11751429D01*
X95738761Y11746667D01*
X95748285Y11741905D01*
X95767333Y11737143D01*
X95791142Y11737143D01*
X95810190Y11741905D01*
X95819714Y11746667D01*
X95824476Y11751429D01*
X95829238Y11760953D01*
X95829238Y11770477D01*
X95824476Y11780000D01*
X95819714Y11784762D01*
X95810190Y11789524D01*
X95791142Y11794286D01*
X95767333Y11794286D01*
X95748285Y11789524D01*
X95738761Y11784762D01*
X95734000Y11780000D01*
X95729238Y11770477D01*
X95729238Y11675239D02*
X95729238Y11665715D01*
X95734000Y11656191D01*
X95738761Y11651429D01*
X95748285Y11646667D01*
X95767333Y11641905D01*
X95791142Y11641905D01*
X95810190Y11646667D01*
X95819714Y11651429D01*
X95824476Y11656191D01*
X95829238Y11665715D01*
X95829238Y11675239D01*
X95824476Y11684762D01*
X95819714Y11689524D01*
X95810190Y11694286D01*
X95791142Y11699048D01*
X95767333Y11699048D01*
X95748285Y11694286D01*
X95738761Y11689524D01*
X95734000Y11684762D01*
X95729238Y11675239D01*
X95729238Y11580000D02*
X95729238Y11570477D01*
X95734000Y11560953D01*
X95738761Y11556191D01*
X95748285Y11551429D01*
X95767333Y11546667D01*
X95791142Y11546667D01*
X95810190Y11551429D01*
X95819714Y11556191D01*
X95824476Y11560953D01*
X95829238Y11570477D01*
X95829238Y11580000D01*
X95824476Y11589524D01*
X95819714Y11594286D01*
X95810190Y11599048D01*
X95791142Y11603810D01*
X95767333Y11603810D01*
X95748285Y11599048D01*
X95738761Y11594286D01*
X95734000Y11589524D01*
X95729238Y11580000D01*
X95762571Y11460953D02*
X95829238Y11460953D01*
X95724476Y11484762D02*
X95795904Y11508572D01*
X95795904Y11446667D01*
X95729238Y11389524D02*
X95729238Y11380000D01*
X95734000Y11370477D01*
X95738761Y11365715D01*
X95748285Y11360953D01*
X95767333Y11356191D01*
X95791142Y11356191D01*
X95810190Y11360953D01*
X95819714Y11365715D01*
X95824476Y11370477D01*
X95829238Y11380000D01*
X95829238Y11389524D01*
X95824476Y11399048D01*
X95819714Y11403810D01*
X95810190Y11408572D01*
X95791142Y11413334D01*
X95767333Y11413334D01*
X95748285Y11408572D01*
X95738761Y11403810D01*
X95734000Y11399048D01*
X95729238Y11389524D01*
X95829238Y11308572D02*
X95829238Y11289524D01*
X95824476Y11280000D01*
X95819714Y11275239D01*
X95805428Y11265715D01*
X95786380Y11260953D01*
X95748285Y11260953D01*
X95738761Y11265715D01*
X95734000Y11270477D01*
X95729238Y11280000D01*
X95729238Y11299048D01*
X95734000Y11308572D01*
X95738761Y11313334D01*
X95748285Y11318096D01*
X95772095Y11318096D01*
X95781619Y11313334D01*
X95786380Y11308572D01*
X95791142Y11299048D01*
X95791142Y11280000D01*
X95786380Y11270477D01*
X95781619Y11265715D01*
X95772095Y11260953D01*
D14*
X96576857Y11796667D02*
X96595904Y11815715D01*
X96614952Y11872858D01*
X96614952Y11910953D01*
X96595904Y11968096D01*
X96557809Y12006191D01*
X96519714Y12025239D01*
X96443523Y12044286D01*
X96386380Y12044286D01*
X96310190Y12025239D01*
X96272095Y12006191D01*
X96234000Y11968096D01*
X96214952Y11910953D01*
X96214952Y11872858D01*
X96234000Y11815715D01*
X96253047Y11796667D01*
X96214952Y11434762D02*
X96214952Y11625239D01*
X96405428Y11644286D01*
X96386380Y11625239D01*
X96367333Y11587143D01*
X96367333Y11491905D01*
X96386380Y11453810D01*
X96405428Y11434762D01*
X96443523Y11415715D01*
X96538761Y11415715D01*
X96576857Y11434762D01*
X96595904Y11453810D01*
X96614952Y11491905D01*
X96614952Y11587143D01*
X96595904Y11625239D01*
X96576857Y11644286D01*
G04 #@! TO.C,C4*
D15*
X94229238Y12219286D02*
X94129238Y12219286D01*
X94129238Y12181191D01*
X94134000Y12171667D01*
X94138761Y12166905D01*
X94148285Y12162143D01*
X94162571Y12162143D01*
X94172095Y12166905D01*
X94176857Y12171667D01*
X94181619Y12181191D01*
X94181619Y12219286D01*
X94229238Y12071667D02*
X94229238Y12119286D01*
X94129238Y12119286D01*
X94229238Y12038334D02*
X94129238Y12038334D01*
X94129238Y12000239D01*
X94134000Y11990715D01*
X94138761Y11985953D01*
X94148285Y11981191D01*
X94162571Y11981191D01*
X94172095Y11985953D01*
X94176857Y11990715D01*
X94181619Y12000239D01*
X94181619Y12038334D01*
X94191142Y11938334D02*
X94191142Y11862143D01*
X94129238Y11795477D02*
X94129238Y11785953D01*
X94134000Y11776429D01*
X94138761Y11771667D01*
X94148285Y11766905D01*
X94167333Y11762143D01*
X94191142Y11762143D01*
X94210190Y11766905D01*
X94219714Y11771667D01*
X94224476Y11776429D01*
X94229238Y11785953D01*
X94229238Y11795477D01*
X94224476Y11805000D01*
X94219714Y11809762D01*
X94210190Y11814524D01*
X94191142Y11819286D01*
X94167333Y11819286D01*
X94148285Y11814524D01*
X94138761Y11809762D01*
X94134000Y11805000D01*
X94129238Y11795477D01*
X94129238Y11700239D02*
X94129238Y11690715D01*
X94134000Y11681191D01*
X94138761Y11676429D01*
X94148285Y11671667D01*
X94167333Y11666905D01*
X94191142Y11666905D01*
X94210190Y11671667D01*
X94219714Y11676429D01*
X94224476Y11681191D01*
X94229238Y11690715D01*
X94229238Y11700239D01*
X94224476Y11709762D01*
X94219714Y11714524D01*
X94210190Y11719286D01*
X94191142Y11724048D01*
X94167333Y11724048D01*
X94148285Y11719286D01*
X94138761Y11714524D01*
X94134000Y11709762D01*
X94129238Y11700239D01*
X94129238Y11605000D02*
X94129238Y11595477D01*
X94134000Y11585953D01*
X94138761Y11581191D01*
X94148285Y11576429D01*
X94167333Y11571667D01*
X94191142Y11571667D01*
X94210190Y11576429D01*
X94219714Y11581191D01*
X94224476Y11585953D01*
X94229238Y11595477D01*
X94229238Y11605000D01*
X94224476Y11614524D01*
X94219714Y11619286D01*
X94210190Y11624048D01*
X94191142Y11628810D01*
X94167333Y11628810D01*
X94148285Y11624048D01*
X94138761Y11619286D01*
X94134000Y11614524D01*
X94129238Y11605000D01*
X94129238Y11509762D02*
X94129238Y11500239D01*
X94134000Y11490715D01*
X94138761Y11485953D01*
X94148285Y11481191D01*
X94167333Y11476429D01*
X94191142Y11476429D01*
X94210190Y11481191D01*
X94219714Y11485953D01*
X94224476Y11490715D01*
X94229238Y11500239D01*
X94229238Y11509762D01*
X94224476Y11519286D01*
X94219714Y11524048D01*
X94210190Y11528810D01*
X94191142Y11533572D01*
X94167333Y11533572D01*
X94148285Y11528810D01*
X94138761Y11524048D01*
X94134000Y11519286D01*
X94129238Y11509762D01*
X94129238Y11390715D02*
X94129238Y11409762D01*
X94134000Y11419286D01*
X94138761Y11424048D01*
X94153047Y11433572D01*
X94172095Y11438334D01*
X94210190Y11438334D01*
X94219714Y11433572D01*
X94224476Y11428810D01*
X94229238Y11419286D01*
X94229238Y11400239D01*
X94224476Y11390715D01*
X94219714Y11385953D01*
X94210190Y11381191D01*
X94186380Y11381191D01*
X94176857Y11385953D01*
X94172095Y11390715D01*
X94167333Y11400239D01*
X94167333Y11419286D01*
X94172095Y11428810D01*
X94176857Y11433572D01*
X94186380Y11438334D01*
X94172095Y11324048D02*
X94167333Y11333572D01*
X94162571Y11338334D01*
X94153047Y11343096D01*
X94148285Y11343096D01*
X94138761Y11338334D01*
X94134000Y11333572D01*
X94129238Y11324048D01*
X94129238Y11305000D01*
X94134000Y11295477D01*
X94138761Y11290715D01*
X94148285Y11285953D01*
X94153047Y11285953D01*
X94162571Y11290715D01*
X94167333Y11295477D01*
X94172095Y11305000D01*
X94172095Y11324048D01*
X94176857Y11333572D01*
X94181619Y11338334D01*
X94191142Y11343096D01*
X94210190Y11343096D01*
X94219714Y11338334D01*
X94224476Y11333572D01*
X94229238Y11324048D01*
X94229238Y11305000D01*
X94224476Y11295477D01*
X94219714Y11290715D01*
X94210190Y11285953D01*
X94191142Y11285953D01*
X94181619Y11290715D01*
X94176857Y11295477D01*
X94172095Y11305000D01*
D14*
X94976857Y11821667D02*
X94995904Y11840715D01*
X95014952Y11897858D01*
X95014952Y11935953D01*
X94995904Y11993096D01*
X94957809Y12031191D01*
X94919714Y12050239D01*
X94843523Y12069286D01*
X94786380Y12069286D01*
X94710190Y12050239D01*
X94672095Y12031191D01*
X94634000Y11993096D01*
X94614952Y11935953D01*
X94614952Y11897858D01*
X94634000Y11840715D01*
X94653047Y11821667D01*
X94748285Y11478810D02*
X95014952Y11478810D01*
X94595904Y11574048D02*
X94881619Y11669286D01*
X94881619Y11421667D01*
G04 #@! TO.C,C3*
D15*
X69644285Y15014762D02*
X69644285Y15114762D01*
X69606190Y15114762D01*
X69596666Y15110000D01*
X69591904Y15105239D01*
X69587142Y15095715D01*
X69587142Y15081429D01*
X69591904Y15071905D01*
X69596666Y15067143D01*
X69606190Y15062381D01*
X69644285Y15062381D01*
X69496666Y15014762D02*
X69544285Y15014762D01*
X69544285Y15114762D01*
X69463333Y15014762D02*
X69463333Y15114762D01*
X69425238Y15114762D01*
X69415714Y15110000D01*
X69410952Y15105239D01*
X69406190Y15095715D01*
X69406190Y15081429D01*
X69410952Y15071905D01*
X69415714Y15067143D01*
X69425238Y15062381D01*
X69463333Y15062381D01*
X69363333Y15052858D02*
X69287142Y15052858D01*
X69220476Y15114762D02*
X69210952Y15114762D01*
X69201428Y15110000D01*
X69196666Y15105239D01*
X69191904Y15095715D01*
X69187142Y15076667D01*
X69187142Y15052858D01*
X69191904Y15033810D01*
X69196666Y15024286D01*
X69201428Y15019524D01*
X69210952Y15014762D01*
X69220476Y15014762D01*
X69230000Y15019524D01*
X69234761Y15024286D01*
X69239523Y15033810D01*
X69244285Y15052858D01*
X69244285Y15076667D01*
X69239523Y15095715D01*
X69234761Y15105239D01*
X69230000Y15110000D01*
X69220476Y15114762D01*
X69125238Y15114762D02*
X69115714Y15114762D01*
X69106190Y15110000D01*
X69101428Y15105239D01*
X69096666Y15095715D01*
X69091904Y15076667D01*
X69091904Y15052858D01*
X69096666Y15033810D01*
X69101428Y15024286D01*
X69106190Y15019524D01*
X69115714Y15014762D01*
X69125238Y15014762D01*
X69134761Y15019524D01*
X69139523Y15024286D01*
X69144285Y15033810D01*
X69149047Y15052858D01*
X69149047Y15076667D01*
X69144285Y15095715D01*
X69139523Y15105239D01*
X69134761Y15110000D01*
X69125238Y15114762D01*
X69030000Y15114762D02*
X69020476Y15114762D01*
X69010952Y15110000D01*
X69006190Y15105239D01*
X69001428Y15095715D01*
X68996666Y15076667D01*
X68996666Y15052858D01*
X69001428Y15033810D01*
X69006190Y15024286D01*
X69010952Y15019524D01*
X69020476Y15014762D01*
X69030000Y15014762D01*
X69039523Y15019524D01*
X69044285Y15024286D01*
X69049047Y15033810D01*
X69053809Y15052858D01*
X69053809Y15076667D01*
X69049047Y15095715D01*
X69044285Y15105239D01*
X69039523Y15110000D01*
X69030000Y15114762D01*
X68934761Y15114762D02*
X68925238Y15114762D01*
X68915714Y15110000D01*
X68910952Y15105239D01*
X68906190Y15095715D01*
X68901428Y15076667D01*
X68901428Y15052858D01*
X68906190Y15033810D01*
X68910952Y15024286D01*
X68915714Y15019524D01*
X68925238Y15014762D01*
X68934761Y15014762D01*
X68944285Y15019524D01*
X68949047Y15024286D01*
X68953809Y15033810D01*
X68958571Y15052858D01*
X68958571Y15076667D01*
X68953809Y15095715D01*
X68949047Y15105239D01*
X68944285Y15110000D01*
X68934761Y15114762D01*
X68815714Y15114762D02*
X68834761Y15114762D01*
X68844285Y15110000D01*
X68849047Y15105239D01*
X68858571Y15090953D01*
X68863333Y15071905D01*
X68863333Y15033810D01*
X68858571Y15024286D01*
X68853809Y15019524D01*
X68844285Y15014762D01*
X68825238Y15014762D01*
X68815714Y15019524D01*
X68810952Y15024286D01*
X68806190Y15033810D01*
X68806190Y15057620D01*
X68810952Y15067143D01*
X68815714Y15071905D01*
X68825238Y15076667D01*
X68844285Y15076667D01*
X68853809Y15071905D01*
X68858571Y15067143D01*
X68863333Y15057620D01*
X68749047Y15071905D02*
X68758571Y15076667D01*
X68763333Y15081429D01*
X68768095Y15090953D01*
X68768095Y15095715D01*
X68763333Y15105239D01*
X68758571Y15110000D01*
X68749047Y15114762D01*
X68730000Y15114762D01*
X68720476Y15110000D01*
X68715714Y15105239D01*
X68710952Y15095715D01*
X68710952Y15090953D01*
X68715714Y15081429D01*
X68720476Y15076667D01*
X68730000Y15071905D01*
X68749047Y15071905D01*
X68758571Y15067143D01*
X68763333Y15062381D01*
X68768095Y15052858D01*
X68768095Y15033810D01*
X68763333Y15024286D01*
X68758571Y15019524D01*
X68749047Y15014762D01*
X68730000Y15014762D01*
X68720476Y15019524D01*
X68715714Y15024286D01*
X68710952Y15033810D01*
X68710952Y15052858D01*
X68715714Y15062381D01*
X68720476Y15067143D01*
X68730000Y15071905D01*
D14*
X69246666Y14267143D02*
X69265714Y14248096D01*
X69322857Y14229048D01*
X69360952Y14229048D01*
X69418095Y14248096D01*
X69456190Y14286191D01*
X69475238Y14324286D01*
X69494285Y14400477D01*
X69494285Y14457620D01*
X69475238Y14533810D01*
X69456190Y14571905D01*
X69418095Y14610000D01*
X69360952Y14629048D01*
X69322857Y14629048D01*
X69265714Y14610000D01*
X69246666Y14590953D01*
X69113333Y14629048D02*
X68865714Y14629048D01*
X68999047Y14476667D01*
X68941904Y14476667D01*
X68903809Y14457620D01*
X68884761Y14438572D01*
X68865714Y14400477D01*
X68865714Y14305239D01*
X68884761Y14267143D01*
X68903809Y14248096D01*
X68941904Y14229048D01*
X69056190Y14229048D01*
X69094285Y14248096D01*
X69113333Y14267143D01*
G04 #@! TO.C,C2*
D15*
X95260285Y31588762D02*
X95260285Y31688762D01*
X95222190Y31688762D01*
X95212666Y31684000D01*
X95207904Y31679239D01*
X95203142Y31669715D01*
X95203142Y31655429D01*
X95207904Y31645905D01*
X95212666Y31641143D01*
X95222190Y31636381D01*
X95260285Y31636381D01*
X95112666Y31588762D02*
X95160285Y31588762D01*
X95160285Y31688762D01*
X95079333Y31588762D02*
X95079333Y31688762D01*
X95041238Y31688762D01*
X95031714Y31684000D01*
X95026952Y31679239D01*
X95022190Y31669715D01*
X95022190Y31655429D01*
X95026952Y31645905D01*
X95031714Y31641143D01*
X95041238Y31636381D01*
X95079333Y31636381D01*
X94979333Y31626858D02*
X94903142Y31626858D01*
X94836476Y31688762D02*
X94826952Y31688762D01*
X94817428Y31684000D01*
X94812666Y31679239D01*
X94807904Y31669715D01*
X94803142Y31650667D01*
X94803142Y31626858D01*
X94807904Y31607810D01*
X94812666Y31598286D01*
X94817428Y31593524D01*
X94826952Y31588762D01*
X94836476Y31588762D01*
X94846000Y31593524D01*
X94850761Y31598286D01*
X94855523Y31607810D01*
X94860285Y31626858D01*
X94860285Y31650667D01*
X94855523Y31669715D01*
X94850761Y31679239D01*
X94846000Y31684000D01*
X94836476Y31688762D01*
X94741238Y31688762D02*
X94731714Y31688762D01*
X94722190Y31684000D01*
X94717428Y31679239D01*
X94712666Y31669715D01*
X94707904Y31650667D01*
X94707904Y31626858D01*
X94712666Y31607810D01*
X94717428Y31598286D01*
X94722190Y31593524D01*
X94731714Y31588762D01*
X94741238Y31588762D01*
X94750761Y31593524D01*
X94755523Y31598286D01*
X94760285Y31607810D01*
X94765047Y31626858D01*
X94765047Y31650667D01*
X94760285Y31669715D01*
X94755523Y31679239D01*
X94750761Y31684000D01*
X94741238Y31688762D01*
X94646000Y31688762D02*
X94636476Y31688762D01*
X94626952Y31684000D01*
X94622190Y31679239D01*
X94617428Y31669715D01*
X94612666Y31650667D01*
X94612666Y31626858D01*
X94617428Y31607810D01*
X94622190Y31598286D01*
X94626952Y31593524D01*
X94636476Y31588762D01*
X94646000Y31588762D01*
X94655523Y31593524D01*
X94660285Y31598286D01*
X94665047Y31607810D01*
X94669809Y31626858D01*
X94669809Y31650667D01*
X94665047Y31669715D01*
X94660285Y31679239D01*
X94655523Y31684000D01*
X94646000Y31688762D01*
X94550761Y31688762D02*
X94541238Y31688762D01*
X94531714Y31684000D01*
X94526952Y31679239D01*
X94522190Y31669715D01*
X94517428Y31650667D01*
X94517428Y31626858D01*
X94522190Y31607810D01*
X94526952Y31598286D01*
X94531714Y31593524D01*
X94541238Y31588762D01*
X94550761Y31588762D01*
X94560285Y31593524D01*
X94565047Y31598286D01*
X94569809Y31607810D01*
X94574571Y31626858D01*
X94574571Y31650667D01*
X94569809Y31669715D01*
X94565047Y31679239D01*
X94560285Y31684000D01*
X94550761Y31688762D01*
X94431714Y31688762D02*
X94450761Y31688762D01*
X94460285Y31684000D01*
X94465047Y31679239D01*
X94474571Y31664953D01*
X94479333Y31645905D01*
X94479333Y31607810D01*
X94474571Y31598286D01*
X94469809Y31593524D01*
X94460285Y31588762D01*
X94441238Y31588762D01*
X94431714Y31593524D01*
X94426952Y31598286D01*
X94422190Y31607810D01*
X94422190Y31631620D01*
X94426952Y31641143D01*
X94431714Y31645905D01*
X94441238Y31650667D01*
X94460285Y31650667D01*
X94469809Y31645905D01*
X94474571Y31641143D01*
X94479333Y31631620D01*
X94365047Y31645905D02*
X94374571Y31650667D01*
X94379333Y31655429D01*
X94384095Y31664953D01*
X94384095Y31669715D01*
X94379333Y31679239D01*
X94374571Y31684000D01*
X94365047Y31688762D01*
X94346000Y31688762D01*
X94336476Y31684000D01*
X94331714Y31679239D01*
X94326952Y31669715D01*
X94326952Y31664953D01*
X94331714Y31655429D01*
X94336476Y31650667D01*
X94346000Y31645905D01*
X94365047Y31645905D01*
X94374571Y31641143D01*
X94379333Y31636381D01*
X94384095Y31626858D01*
X94384095Y31607810D01*
X94379333Y31598286D01*
X94374571Y31593524D01*
X94365047Y31588762D01*
X94346000Y31588762D01*
X94336476Y31593524D01*
X94331714Y31598286D01*
X94326952Y31607810D01*
X94326952Y31626858D01*
X94331714Y31636381D01*
X94336476Y31641143D01*
X94346000Y31645905D01*
D14*
X94862666Y30841143D02*
X94881714Y30822096D01*
X94938857Y30803048D01*
X94976952Y30803048D01*
X95034095Y30822096D01*
X95072190Y30860191D01*
X95091238Y30898286D01*
X95110285Y30974477D01*
X95110285Y31031620D01*
X95091238Y31107810D01*
X95072190Y31145905D01*
X95034095Y31184000D01*
X94976952Y31203048D01*
X94938857Y31203048D01*
X94881714Y31184000D01*
X94862666Y31164953D01*
X94710285Y31164953D02*
X94691238Y31184000D01*
X94653142Y31203048D01*
X94557904Y31203048D01*
X94519809Y31184000D01*
X94500761Y31164953D01*
X94481714Y31126858D01*
X94481714Y31088762D01*
X94500761Y31031620D01*
X94729333Y30803048D01*
X94481714Y30803048D01*
G04 #@! TO.C,C1*
D15*
X95240285Y29898762D02*
X95240285Y29998762D01*
X95202190Y29998762D01*
X95192666Y29994000D01*
X95187904Y29989239D01*
X95183142Y29979715D01*
X95183142Y29965429D01*
X95187904Y29955905D01*
X95192666Y29951143D01*
X95202190Y29946381D01*
X95240285Y29946381D01*
X95092666Y29898762D02*
X95140285Y29898762D01*
X95140285Y29998762D01*
X95059333Y29898762D02*
X95059333Y29998762D01*
X95021238Y29998762D01*
X95011714Y29994000D01*
X95006952Y29989239D01*
X95002190Y29979715D01*
X95002190Y29965429D01*
X95006952Y29955905D01*
X95011714Y29951143D01*
X95021238Y29946381D01*
X95059333Y29946381D01*
X94959333Y29936858D02*
X94883142Y29936858D01*
X94816476Y29998762D02*
X94806952Y29998762D01*
X94797428Y29994000D01*
X94792666Y29989239D01*
X94787904Y29979715D01*
X94783142Y29960667D01*
X94783142Y29936858D01*
X94787904Y29917810D01*
X94792666Y29908286D01*
X94797428Y29903524D01*
X94806952Y29898762D01*
X94816476Y29898762D01*
X94826000Y29903524D01*
X94830761Y29908286D01*
X94835523Y29917810D01*
X94840285Y29936858D01*
X94840285Y29960667D01*
X94835523Y29979715D01*
X94830761Y29989239D01*
X94826000Y29994000D01*
X94816476Y29998762D01*
X94721238Y29998762D02*
X94711714Y29998762D01*
X94702190Y29994000D01*
X94697428Y29989239D01*
X94692666Y29979715D01*
X94687904Y29960667D01*
X94687904Y29936858D01*
X94692666Y29917810D01*
X94697428Y29908286D01*
X94702190Y29903524D01*
X94711714Y29898762D01*
X94721238Y29898762D01*
X94730761Y29903524D01*
X94735523Y29908286D01*
X94740285Y29917810D01*
X94745047Y29936858D01*
X94745047Y29960667D01*
X94740285Y29979715D01*
X94735523Y29989239D01*
X94730761Y29994000D01*
X94721238Y29998762D01*
X94626000Y29998762D02*
X94616476Y29998762D01*
X94606952Y29994000D01*
X94602190Y29989239D01*
X94597428Y29979715D01*
X94592666Y29960667D01*
X94592666Y29936858D01*
X94597428Y29917810D01*
X94602190Y29908286D01*
X94606952Y29903524D01*
X94616476Y29898762D01*
X94626000Y29898762D01*
X94635523Y29903524D01*
X94640285Y29908286D01*
X94645047Y29917810D01*
X94649809Y29936858D01*
X94649809Y29960667D01*
X94645047Y29979715D01*
X94640285Y29989239D01*
X94635523Y29994000D01*
X94626000Y29998762D01*
X94530761Y29998762D02*
X94521238Y29998762D01*
X94511714Y29994000D01*
X94506952Y29989239D01*
X94502190Y29979715D01*
X94497428Y29960667D01*
X94497428Y29936858D01*
X94502190Y29917810D01*
X94506952Y29908286D01*
X94511714Y29903524D01*
X94521238Y29898762D01*
X94530761Y29898762D01*
X94540285Y29903524D01*
X94545047Y29908286D01*
X94549809Y29917810D01*
X94554571Y29936858D01*
X94554571Y29960667D01*
X94549809Y29979715D01*
X94545047Y29989239D01*
X94540285Y29994000D01*
X94530761Y29998762D01*
X94411714Y29998762D02*
X94430761Y29998762D01*
X94440285Y29994000D01*
X94445047Y29989239D01*
X94454571Y29974953D01*
X94459333Y29955905D01*
X94459333Y29917810D01*
X94454571Y29908286D01*
X94449809Y29903524D01*
X94440285Y29898762D01*
X94421238Y29898762D01*
X94411714Y29903524D01*
X94406952Y29908286D01*
X94402190Y29917810D01*
X94402190Y29941620D01*
X94406952Y29951143D01*
X94411714Y29955905D01*
X94421238Y29960667D01*
X94440285Y29960667D01*
X94449809Y29955905D01*
X94454571Y29951143D01*
X94459333Y29941620D01*
X94345047Y29955905D02*
X94354571Y29960667D01*
X94359333Y29965429D01*
X94364095Y29974953D01*
X94364095Y29979715D01*
X94359333Y29989239D01*
X94354571Y29994000D01*
X94345047Y29998762D01*
X94326000Y29998762D01*
X94316476Y29994000D01*
X94311714Y29989239D01*
X94306952Y29979715D01*
X94306952Y29974953D01*
X94311714Y29965429D01*
X94316476Y29960667D01*
X94326000Y29955905D01*
X94345047Y29955905D01*
X94354571Y29951143D01*
X94359333Y29946381D01*
X94364095Y29936858D01*
X94364095Y29917810D01*
X94359333Y29908286D01*
X94354571Y29903524D01*
X94345047Y29898762D01*
X94326000Y29898762D01*
X94316476Y29903524D01*
X94311714Y29908286D01*
X94306952Y29917810D01*
X94306952Y29936858D01*
X94311714Y29946381D01*
X94316476Y29951143D01*
X94326000Y29955905D01*
D14*
X94842666Y29151143D02*
X94861714Y29132096D01*
X94918857Y29113048D01*
X94956952Y29113048D01*
X95014095Y29132096D01*
X95052190Y29170191D01*
X95071238Y29208286D01*
X95090285Y29284477D01*
X95090285Y29341620D01*
X95071238Y29417810D01*
X95052190Y29455905D01*
X95014095Y29494000D01*
X94956952Y29513048D01*
X94918857Y29513048D01*
X94861714Y29494000D01*
X94842666Y29474953D01*
X94461714Y29113048D02*
X94690285Y29113048D01*
X94576000Y29113048D02*
X94576000Y29513048D01*
X94614095Y29455905D01*
X94652190Y29417810D01*
X94690285Y29398762D01*
G04 #@! TO.C,BT1*
D12*
X44436904Y-261666D02*
X43960714Y-261666D01*
X44532142Y-547380D02*
X44198809Y452620D01*
X43865476Y-547380D01*
X43579761Y-261666D02*
X43103571Y-261666D01*
X43675000Y-547380D02*
X43341666Y452620D01*
X43008333Y-547380D01*
X42722619Y-261666D02*
X42246428Y-261666D01*
X42817857Y-547380D02*
X42484523Y452620D01*
X42151190Y-547380D01*
X41817857Y-166428D02*
X41055952Y-166428D01*
X40675000Y452620D02*
X40055952Y452620D01*
X40389285Y71667D01*
X40246428Y71667D01*
X40151190Y24048D01*
X40103571Y-23571D01*
X40055952Y-118809D01*
X40055952Y-356904D01*
X40103571Y-452142D01*
X40151190Y-499761D01*
X40246428Y-547380D01*
X40532142Y-547380D01*
X40627380Y-499761D01*
X40675000Y-452142D01*
X39722619Y-547380D02*
X39198809Y119286D01*
X39722619Y119286D02*
X39198809Y-547380D01*
X38817857Y-166428D02*
X38055952Y-166428D01*
X37246428Y-23571D02*
X37103571Y-71190D01*
X37055952Y-118809D01*
X37008333Y-214047D01*
X37008333Y-356904D01*
X37055952Y-452142D01*
X37103571Y-499761D01*
X37198809Y-547380D01*
X37579761Y-547380D01*
X37579761Y452620D01*
X37246428Y452620D01*
X37151190Y405000D01*
X37103571Y357381D01*
X37055952Y262143D01*
X37055952Y166905D01*
X37103571Y71667D01*
X37151190Y24048D01*
X37246428Y-23571D01*
X37579761Y-23571D01*
X36151190Y-547380D02*
X36151190Y-23571D01*
X36198809Y71667D01*
X36294047Y119286D01*
X36484523Y119286D01*
X36579761Y71667D01*
X36151190Y-499761D02*
X36246428Y-547380D01*
X36484523Y-547380D01*
X36579761Y-499761D01*
X36627380Y-404523D01*
X36627380Y-309285D01*
X36579761Y-214047D01*
X36484523Y-166428D01*
X36246428Y-166428D01*
X36151190Y-118809D01*
X35817857Y119286D02*
X35436904Y119286D01*
X35675000Y452620D02*
X35675000Y-404523D01*
X35627380Y-499761D01*
X35532142Y-547380D01*
X35436904Y-547380D01*
X35246428Y119286D02*
X34865476Y119286D01*
X35103571Y452620D02*
X35103571Y-404523D01*
X35055952Y-499761D01*
X34960714Y-547380D01*
X34865476Y-547380D01*
X34151190Y-499761D02*
X34246428Y-547380D01*
X34436904Y-547380D01*
X34532142Y-499761D01*
X34579761Y-404523D01*
X34579761Y-23571D01*
X34532142Y71667D01*
X34436904Y119286D01*
X34246428Y119286D01*
X34151190Y71667D01*
X34103571Y-23571D01*
X34103571Y-118809D01*
X34579761Y-214047D01*
X33675000Y-547380D02*
X33675000Y119286D01*
X33675000Y-71190D02*
X33627380Y24048D01*
X33579761Y71667D01*
X33484523Y119286D01*
X33389285Y119286D01*
X33151190Y119286D02*
X32913095Y-547380D01*
X32675000Y119286D02*
X32913095Y-547380D01*
X33008333Y-785476D01*
X33055952Y-833095D01*
X33151190Y-880714D01*
X32294047Y-166428D02*
X31532142Y-166428D01*
X31055952Y-547380D02*
X31055952Y452620D01*
X30675000Y452620D01*
X30579761Y405000D01*
X30532142Y357381D01*
X30484523Y262143D01*
X30484523Y119286D01*
X30532142Y24048D01*
X30579761Y-23571D01*
X30675000Y-71190D01*
X31055952Y-71190D01*
X29627380Y-547380D02*
X29627380Y-23571D01*
X29675000Y71667D01*
X29770238Y119286D01*
X29960714Y119286D01*
X30055952Y71667D01*
X29627380Y-499761D02*
X29722619Y-547380D01*
X29960714Y-547380D01*
X30055952Y-499761D01*
X30103571Y-404523D01*
X30103571Y-309285D01*
X30055952Y-214047D01*
X29960714Y-166428D01*
X29722619Y-166428D01*
X29627380Y-118809D01*
X28722619Y-499761D02*
X28817857Y-547380D01*
X29008333Y-547380D01*
X29103571Y-499761D01*
X29151190Y-452142D01*
X29198809Y-356904D01*
X29198809Y-71190D01*
X29151190Y24048D01*
X29103571Y71667D01*
X29008333Y119286D01*
X28817857Y119286D01*
X28722619Y71667D01*
X28294047Y-547380D02*
X28294047Y452620D01*
X28198809Y-166428D02*
X27913095Y-547380D01*
X27913095Y119286D02*
X28294047Y-261666D01*
X36960714Y19721429D02*
X36817857Y19673810D01*
X36770238Y19626191D01*
X36722619Y19530953D01*
X36722619Y19388096D01*
X36770238Y19292858D01*
X36817857Y19245239D01*
X36913095Y19197620D01*
X37294047Y19197620D01*
X37294047Y20197620D01*
X36960714Y20197620D01*
X36865476Y20150000D01*
X36817857Y20102381D01*
X36770238Y20007143D01*
X36770238Y19911905D01*
X36817857Y19816667D01*
X36865476Y19769048D01*
X36960714Y19721429D01*
X37294047Y19721429D01*
X36436904Y20197620D02*
X35865476Y20197620D01*
X36151190Y19197620D02*
X36151190Y20197620D01*
X35008333Y19197620D02*
X35579761Y19197620D01*
X35294047Y19197620D02*
X35294047Y20197620D01*
X35389285Y20054762D01*
X35484523Y19959524D01*
X35579761Y19911905D01*
G04 #@! TO.C,U6*
X130222380Y14561905D02*
X130222380Y13895239D01*
X131222380Y14323810D01*
X130555714Y13085715D02*
X131222380Y13085715D01*
X130174761Y13323810D02*
X130889047Y13561905D01*
X130889047Y12942858D01*
X131222380Y12561905D02*
X130222380Y12561905D01*
X130698571Y12561905D02*
X130698571Y11990477D01*
X131222380Y11990477D02*
X130222380Y11990477D01*
X131127142Y10942858D02*
X131174761Y10990477D01*
X131222380Y11133334D01*
X131222380Y11228572D01*
X131174761Y11371429D01*
X131079523Y11466667D01*
X130984285Y11514286D01*
X130793809Y11561905D01*
X130650952Y11561905D01*
X130460476Y11514286D01*
X130365238Y11466667D01*
X130270000Y11371429D01*
X130222380Y11228572D01*
X130222380Y11133334D01*
X130270000Y10990477D01*
X130317619Y10942858D01*
X130222380Y10038096D02*
X130222380Y10514286D01*
X130698571Y10561905D01*
X130650952Y10514286D01*
X130603333Y10419048D01*
X130603333Y10180953D01*
X130650952Y10085715D01*
X130698571Y10038096D01*
X130793809Y9990477D01*
X131031904Y9990477D01*
X131127142Y10038096D01*
X131174761Y10085715D01*
X131222380Y10180953D01*
X131222380Y10419048D01*
X131174761Y10514286D01*
X131127142Y10561905D01*
X131222380Y9514286D02*
X131222380Y9323810D01*
X131174761Y9228572D01*
X131127142Y9180953D01*
X130984285Y9085715D01*
X130793809Y9038096D01*
X130412857Y9038096D01*
X130317619Y9085715D01*
X130270000Y9133334D01*
X130222380Y9228572D01*
X130222380Y9419048D01*
X130270000Y9514286D01*
X130317619Y9561905D01*
X130412857Y9609524D01*
X130650952Y9609524D01*
X130746190Y9561905D01*
X130793809Y9514286D01*
X130841428Y9419048D01*
X130841428Y9228572D01*
X130793809Y9133334D01*
X130746190Y9085715D01*
X130650952Y9038096D01*
X130222380Y8133334D02*
X130222380Y8609524D01*
X130698571Y8657143D01*
X130650952Y8609524D01*
X130603333Y8514286D01*
X130603333Y8276191D01*
X130650952Y8180953D01*
X130698571Y8133334D01*
X130793809Y8085715D01*
X131031904Y8085715D01*
X131127142Y8133334D01*
X131174761Y8180953D01*
X131222380Y8276191D01*
X131222380Y8514286D01*
X131174761Y8609524D01*
X131127142Y8657143D01*
X124122380Y12061905D02*
X124931904Y12061905D01*
X125027142Y12014286D01*
X125074761Y11966667D01*
X125122380Y11871429D01*
X125122380Y11680953D01*
X125074761Y11585715D01*
X125027142Y11538096D01*
X124931904Y11490477D01*
X124122380Y11490477D01*
X124122380Y10585715D02*
X124122380Y10776191D01*
X124170000Y10871429D01*
X124217619Y10919048D01*
X124360476Y11014286D01*
X124550952Y11061905D01*
X124931904Y11061905D01*
X125027142Y11014286D01*
X125074761Y10966667D01*
X125122380Y10871429D01*
X125122380Y10680953D01*
X125074761Y10585715D01*
X125027142Y10538096D01*
X124931904Y10490477D01*
X124693809Y10490477D01*
X124598571Y10538096D01*
X124550952Y10585715D01*
X124503333Y10680953D01*
X124503333Y10871429D01*
X124550952Y10966667D01*
X124598571Y11014286D01*
X124693809Y11061905D01*
G04 #@! TO.C,U5*
X148862380Y14561905D02*
X148862380Y13895239D01*
X149862380Y14323810D01*
X149195714Y13085715D02*
X149862380Y13085715D01*
X148814761Y13323810D02*
X149529047Y13561905D01*
X149529047Y12942858D01*
X149862380Y12561905D02*
X148862380Y12561905D01*
X149338571Y12561905D02*
X149338571Y11990477D01*
X149862380Y11990477D02*
X148862380Y11990477D01*
X149767142Y10942858D02*
X149814761Y10990477D01*
X149862380Y11133334D01*
X149862380Y11228572D01*
X149814761Y11371429D01*
X149719523Y11466667D01*
X149624285Y11514286D01*
X149433809Y11561905D01*
X149290952Y11561905D01*
X149100476Y11514286D01*
X149005238Y11466667D01*
X148910000Y11371429D01*
X148862380Y11228572D01*
X148862380Y11133334D01*
X148910000Y10990477D01*
X148957619Y10942858D01*
X148862380Y10038096D02*
X148862380Y10514286D01*
X149338571Y10561905D01*
X149290952Y10514286D01*
X149243333Y10419048D01*
X149243333Y10180953D01*
X149290952Y10085715D01*
X149338571Y10038096D01*
X149433809Y9990477D01*
X149671904Y9990477D01*
X149767142Y10038096D01*
X149814761Y10085715D01*
X149862380Y10180953D01*
X149862380Y10419048D01*
X149814761Y10514286D01*
X149767142Y10561905D01*
X149862380Y9514286D02*
X149862380Y9323810D01*
X149814761Y9228572D01*
X149767142Y9180953D01*
X149624285Y9085715D01*
X149433809Y9038096D01*
X149052857Y9038096D01*
X148957619Y9085715D01*
X148910000Y9133334D01*
X148862380Y9228572D01*
X148862380Y9419048D01*
X148910000Y9514286D01*
X148957619Y9561905D01*
X149052857Y9609524D01*
X149290952Y9609524D01*
X149386190Y9561905D01*
X149433809Y9514286D01*
X149481428Y9419048D01*
X149481428Y9228572D01*
X149433809Y9133334D01*
X149386190Y9085715D01*
X149290952Y9038096D01*
X148862380Y8133334D02*
X148862380Y8609524D01*
X149338571Y8657143D01*
X149290952Y8609524D01*
X149243333Y8514286D01*
X149243333Y8276191D01*
X149290952Y8180953D01*
X149338571Y8133334D01*
X149433809Y8085715D01*
X149671904Y8085715D01*
X149767142Y8133334D01*
X149814761Y8180953D01*
X149862380Y8276191D01*
X149862380Y8514286D01*
X149814761Y8609524D01*
X149767142Y8657143D01*
X142762380Y12061905D02*
X143571904Y12061905D01*
X143667142Y12014286D01*
X143714761Y11966667D01*
X143762380Y11871429D01*
X143762380Y11680953D01*
X143714761Y11585715D01*
X143667142Y11538096D01*
X143571904Y11490477D01*
X142762380Y11490477D01*
X142762380Y10538096D02*
X142762380Y11014286D01*
X143238571Y11061905D01*
X143190952Y11014286D01*
X143143333Y10919048D01*
X143143333Y10680953D01*
X143190952Y10585715D01*
X143238571Y10538096D01*
X143333809Y10490477D01*
X143571904Y10490477D01*
X143667142Y10538096D01*
X143714761Y10585715D01*
X143762380Y10680953D01*
X143762380Y10919048D01*
X143714761Y11014286D01*
X143667142Y11061905D01*
G04 #@! TO.C,U4*
X167502380Y14561905D02*
X167502380Y13895239D01*
X168502380Y14323810D01*
X167835714Y13085715D02*
X168502380Y13085715D01*
X167454761Y13323810D02*
X168169047Y13561905D01*
X168169047Y12942858D01*
X168502380Y12561905D02*
X167502380Y12561905D01*
X167978571Y12561905D02*
X167978571Y11990477D01*
X168502380Y11990477D02*
X167502380Y11990477D01*
X168407142Y10942858D02*
X168454761Y10990477D01*
X168502380Y11133334D01*
X168502380Y11228572D01*
X168454761Y11371429D01*
X168359523Y11466667D01*
X168264285Y11514286D01*
X168073809Y11561905D01*
X167930952Y11561905D01*
X167740476Y11514286D01*
X167645238Y11466667D01*
X167550000Y11371429D01*
X167502380Y11228572D01*
X167502380Y11133334D01*
X167550000Y10990477D01*
X167597619Y10942858D01*
X167502380Y10038096D02*
X167502380Y10514286D01*
X167978571Y10561905D01*
X167930952Y10514286D01*
X167883333Y10419048D01*
X167883333Y10180953D01*
X167930952Y10085715D01*
X167978571Y10038096D01*
X168073809Y9990477D01*
X168311904Y9990477D01*
X168407142Y10038096D01*
X168454761Y10085715D01*
X168502380Y10180953D01*
X168502380Y10419048D01*
X168454761Y10514286D01*
X168407142Y10561905D01*
X168502380Y9514286D02*
X168502380Y9323810D01*
X168454761Y9228572D01*
X168407142Y9180953D01*
X168264285Y9085715D01*
X168073809Y9038096D01*
X167692857Y9038096D01*
X167597619Y9085715D01*
X167550000Y9133334D01*
X167502380Y9228572D01*
X167502380Y9419048D01*
X167550000Y9514286D01*
X167597619Y9561905D01*
X167692857Y9609524D01*
X167930952Y9609524D01*
X168026190Y9561905D01*
X168073809Y9514286D01*
X168121428Y9419048D01*
X168121428Y9228572D01*
X168073809Y9133334D01*
X168026190Y9085715D01*
X167930952Y9038096D01*
X167502380Y8133334D02*
X167502380Y8609524D01*
X167978571Y8657143D01*
X167930952Y8609524D01*
X167883333Y8514286D01*
X167883333Y8276191D01*
X167930952Y8180953D01*
X167978571Y8133334D01*
X168073809Y8085715D01*
X168311904Y8085715D01*
X168407142Y8133334D01*
X168454761Y8180953D01*
X168502380Y8276191D01*
X168502380Y8514286D01*
X168454761Y8609524D01*
X168407142Y8657143D01*
X161402380Y12061905D02*
X162211904Y12061905D01*
X162307142Y12014286D01*
X162354761Y11966667D01*
X162402380Y11871429D01*
X162402380Y11680953D01*
X162354761Y11585715D01*
X162307142Y11538096D01*
X162211904Y11490477D01*
X161402380Y11490477D01*
X161735714Y10585715D02*
X162402380Y10585715D01*
X161354761Y10823810D02*
X162069047Y11061905D01*
X162069047Y10442858D01*
G04 #@! TO.C,U3*
X186142380Y14561905D02*
X186142380Y13895239D01*
X187142380Y14323810D01*
X186475714Y13085715D02*
X187142380Y13085715D01*
X186094761Y13323810D02*
X186809047Y13561905D01*
X186809047Y12942858D01*
X187142380Y12561905D02*
X186142380Y12561905D01*
X186618571Y12561905D02*
X186618571Y11990477D01*
X187142380Y11990477D02*
X186142380Y11990477D01*
X187047142Y10942858D02*
X187094761Y10990477D01*
X187142380Y11133334D01*
X187142380Y11228572D01*
X187094761Y11371429D01*
X186999523Y11466667D01*
X186904285Y11514286D01*
X186713809Y11561905D01*
X186570952Y11561905D01*
X186380476Y11514286D01*
X186285238Y11466667D01*
X186190000Y11371429D01*
X186142380Y11228572D01*
X186142380Y11133334D01*
X186190000Y10990477D01*
X186237619Y10942858D01*
X186142380Y10038096D02*
X186142380Y10514286D01*
X186618571Y10561905D01*
X186570952Y10514286D01*
X186523333Y10419048D01*
X186523333Y10180953D01*
X186570952Y10085715D01*
X186618571Y10038096D01*
X186713809Y9990477D01*
X186951904Y9990477D01*
X187047142Y10038096D01*
X187094761Y10085715D01*
X187142380Y10180953D01*
X187142380Y10419048D01*
X187094761Y10514286D01*
X187047142Y10561905D01*
X187142380Y9514286D02*
X187142380Y9323810D01*
X187094761Y9228572D01*
X187047142Y9180953D01*
X186904285Y9085715D01*
X186713809Y9038096D01*
X186332857Y9038096D01*
X186237619Y9085715D01*
X186190000Y9133334D01*
X186142380Y9228572D01*
X186142380Y9419048D01*
X186190000Y9514286D01*
X186237619Y9561905D01*
X186332857Y9609524D01*
X186570952Y9609524D01*
X186666190Y9561905D01*
X186713809Y9514286D01*
X186761428Y9419048D01*
X186761428Y9228572D01*
X186713809Y9133334D01*
X186666190Y9085715D01*
X186570952Y9038096D01*
X186142380Y8133334D02*
X186142380Y8609524D01*
X186618571Y8657143D01*
X186570952Y8609524D01*
X186523333Y8514286D01*
X186523333Y8276191D01*
X186570952Y8180953D01*
X186618571Y8133334D01*
X186713809Y8085715D01*
X186951904Y8085715D01*
X187047142Y8133334D01*
X187094761Y8180953D01*
X187142380Y8276191D01*
X187142380Y8514286D01*
X187094761Y8609524D01*
X187047142Y8657143D01*
X180042380Y12061905D02*
X180851904Y12061905D01*
X180947142Y12014286D01*
X180994761Y11966667D01*
X181042380Y11871429D01*
X181042380Y11680953D01*
X180994761Y11585715D01*
X180947142Y11538096D01*
X180851904Y11490477D01*
X180042380Y11490477D01*
X180042380Y11109524D02*
X180042380Y10490477D01*
X180423333Y10823810D01*
X180423333Y10680953D01*
X180470952Y10585715D01*
X180518571Y10538096D01*
X180613809Y10490477D01*
X180851904Y10490477D01*
X180947142Y10538096D01*
X180994761Y10585715D01*
X181042380Y10680953D01*
X181042380Y10966667D01*
X180994761Y11061905D01*
X180947142Y11109524D01*
G04 #@! TO.C,U2*
X204782380Y14561905D02*
X204782380Y13895239D01*
X205782380Y14323810D01*
X205115714Y13085715D02*
X205782380Y13085715D01*
X204734761Y13323810D02*
X205449047Y13561905D01*
X205449047Y12942858D01*
X205782380Y12561905D02*
X204782380Y12561905D01*
X205258571Y12561905D02*
X205258571Y11990477D01*
X205782380Y11990477D02*
X204782380Y11990477D01*
X205687142Y10942858D02*
X205734761Y10990477D01*
X205782380Y11133334D01*
X205782380Y11228572D01*
X205734761Y11371429D01*
X205639523Y11466667D01*
X205544285Y11514286D01*
X205353809Y11561905D01*
X205210952Y11561905D01*
X205020476Y11514286D01*
X204925238Y11466667D01*
X204830000Y11371429D01*
X204782380Y11228572D01*
X204782380Y11133334D01*
X204830000Y10990477D01*
X204877619Y10942858D01*
X204782380Y10038096D02*
X204782380Y10514286D01*
X205258571Y10561905D01*
X205210952Y10514286D01*
X205163333Y10419048D01*
X205163333Y10180953D01*
X205210952Y10085715D01*
X205258571Y10038096D01*
X205353809Y9990477D01*
X205591904Y9990477D01*
X205687142Y10038096D01*
X205734761Y10085715D01*
X205782380Y10180953D01*
X205782380Y10419048D01*
X205734761Y10514286D01*
X205687142Y10561905D01*
X205782380Y9514286D02*
X205782380Y9323810D01*
X205734761Y9228572D01*
X205687142Y9180953D01*
X205544285Y9085715D01*
X205353809Y9038096D01*
X204972857Y9038096D01*
X204877619Y9085715D01*
X204830000Y9133334D01*
X204782380Y9228572D01*
X204782380Y9419048D01*
X204830000Y9514286D01*
X204877619Y9561905D01*
X204972857Y9609524D01*
X205210952Y9609524D01*
X205306190Y9561905D01*
X205353809Y9514286D01*
X205401428Y9419048D01*
X205401428Y9228572D01*
X205353809Y9133334D01*
X205306190Y9085715D01*
X205210952Y9038096D01*
X204782380Y8133334D02*
X204782380Y8609524D01*
X205258571Y8657143D01*
X205210952Y8609524D01*
X205163333Y8514286D01*
X205163333Y8276191D01*
X205210952Y8180953D01*
X205258571Y8133334D01*
X205353809Y8085715D01*
X205591904Y8085715D01*
X205687142Y8133334D01*
X205734761Y8180953D01*
X205782380Y8276191D01*
X205782380Y8514286D01*
X205734761Y8609524D01*
X205687142Y8657143D01*
X198682380Y12061905D02*
X199491904Y12061905D01*
X199587142Y12014286D01*
X199634761Y11966667D01*
X199682380Y11871429D01*
X199682380Y11680953D01*
X199634761Y11585715D01*
X199587142Y11538096D01*
X199491904Y11490477D01*
X198682380Y11490477D01*
X198777619Y11061905D02*
X198730000Y11014286D01*
X198682380Y10919048D01*
X198682380Y10680953D01*
X198730000Y10585715D01*
X198777619Y10538096D01*
X198872857Y10490477D01*
X198968095Y10490477D01*
X199110952Y10538096D01*
X199682380Y11109524D01*
X199682380Y10490477D01*
G04 #@! TD*
M02*
